<svg id="vector" xmlns="http://www.w3.org/2000/svg" width="192" height="192" viewBox="0 0 192 192"><path fill="#00000000" d="M40,162V42C40,37.582 43.582,34 48,34H74V22H118V34H144C148.418,34 152,37.582 152,42V162C152,166.418 148.418,170 144,170H48C43.582,170 40,166.418 40,162Z" stroke-linejoin="round" stroke-width="12" stroke="#000000" id="path_0"/><path fill="#00000000" d="M64,75.88C74,75.128 85,72.128 96,68.128C107,72.128 118,75.128 128,75.88V99.045C128,116 115.952,136.872 96,142C75.952,136.872 64,116 64,99.045V75.88Z" stroke-linejoin="round" stroke-width="12" stroke="#000000" stroke-linecap="round" id="path_1"/><path fill="#00000000" d="M100,88L88,104H104L92,120" stroke-linejoin="round" stroke-width="12" stroke="#000000" stroke-linecap="round" id="path_2"/></svg>