<svg id="vector" xmlns="http://www.w3.org/2000/svg" width="192" height="192" viewBox="0 0 192 192"><path fill="#00000000" d="M65.5,64l31.08,-15.96l31.92,15.96l-31.08,15.96l-31.92,-15.96z" stroke-linejoin="round" stroke-width="12" stroke="#000" stroke-linecap="round" id="path_0"/><path fill="#00000000" d="M86.75,122l-30,-16l0,-30l30,16l0,30z" stroke-linejoin="round" stroke-width="12" stroke="#000" id="path_1"/><path fill="#00000000" d="M135.25,77l-30,16l0,30l30,-16l0,-30z" stroke-linejoin="round" stroke-width="12" stroke="#000" id="path_2"/><path fill="#00000000" d="M96,22C72,22 56.16,35.93 50.67,41.43 46,46.14 30.51,63 31.25,88.6c0.69,23.84 15,39.14 19.42,43.48a66.15,66.15 0,0 0,29.6 16.64L96,170l15.72,-21.28a66.05,66.05 0,0 0,29.6 -16.64c4.43,-4.34 18.74,-19.64 19.43,-43.48C161.49,63 146,46.14 141.32,41.43 135.84,35.93 120,22 96,22Z" stroke-linejoin="round" stroke-width="12" stroke="#000" stroke-linecap="round" id="path_3"/></svg>