<svg id="vector" xmlns="http://www.w3.org/2000/svg" width="192" height="192" viewBox="0 0 192 192"><path fill="#00000000" d="m22.4,108.23 l31.97,-0" stroke-linejoin="round" stroke-width="12" stroke="#000000" stroke-linecap="round" id="path_0"/><path fill="#00000000" d="m38.38,109.71v38.9" stroke-linejoin="round" stroke-width="12" stroke="#000000" stroke-linecap="round" id="path_1"/><path fill="#00000000" d="M63.29,148.76 L77.42,108.23 90.82,148.46" stroke-linejoin="round" stroke-width="12" stroke="#000000" stroke-linecap="round" id="path_2"/><path fill="#00000000" d="M66.88,139.64H85.67" stroke-linejoin="round" stroke-width="12" stroke="#000000" stroke-linecap="round" id="path_3"/><path fill="#00000000" d="m37.94,86.01 l14.12,-40.54 13.4,40.23" stroke-linejoin="round" stroke-width="12" stroke="#000000" stroke-linecap="round" id="path_4"/><path fill="#00000000" d="M41.52,76.88H60.31" stroke-linejoin="round" stroke-width="12" stroke="#000000" stroke-linecap="round" id="path_5"/><path fill="#00000000" d="m111.29,108.23v40.23h18.11" stroke-linejoin="round" stroke-width="12" stroke="#000000" stroke-linecap="round" id="path_6"/><path fill="#00000000" d="M83.89,45.47V85.7H102.01" stroke-linejoin="round" stroke-width="12" stroke="#000000" stroke-linecap="round" id="path_7"/><path fill="#00000000" d="m145.87,108.23v40.23" stroke-linejoin="round" stroke-width="12" stroke="#000000" stroke-linecap="round" id="path_8"/><path fill="#00000000" d="m170.09,108.23 l-20.65,20.12 20.65,20.12" stroke-linejoin="round" stroke-width="12" stroke="#000000" stroke-linecap="round" id="path_9"/><path fill="#00000000" d="m119.73,85.7v-40.23c0,0 20.48,-1.24 20.34,20.12 -0.14,21.14 -20.34,20.12 -20.34,20.12z" stroke-linejoin="round" stroke-width="12" stroke="#000000" stroke-linecap="round" id="path_10"/><path fill="#00000000" d="M162.19,45.47V85.7" stroke-linejoin="round" stroke-width="12" stroke="#000000" stroke-linecap="round" id="path_11"/></svg>