<?xml version="1.0" encoding="UTF-8" standalone="no"?><svg xmlns:android="http://schemas.android.com/apk/res/android" height="50.8" width="50.8" xmlns="http://www.w3.org/2000/svg">
  <path d="M38.029,28.635 L29.88,5.82H19.288l-4.074,11.407 7.334,7.333 2.444,-6.518 2.444,9.777H12.77L7.066,44.931H17.66l2.444,-7.333" fill="#000000" fill-opacity="0.0" stroke="#000" stroke-linecap="round" stroke-linejoin="round" stroke-width="3.1749644999999997"/>
  <path d="M24.992,36.782s1.57,-0.628 3.15,-1.884c0.966,-0.767 1.936,-1.769 2.554,-3.005l9.777,4.074s-4.889,9.778 -15.48,8.963v-8.148M13.585,9.08s-3.26,0 -3.26,6.518v8.963M34.77,8.265s3.259,1.63 4.074,5.703l-1.63,0.815M38.029,44.93h5.703l-1.63,-4.074" fill="#000000" fill-opacity="0.0" stroke="#000" stroke-linecap="round" stroke-linejoin="round" stroke-width="3.1749644999999997"/>
</svg>