<svg id="vector" xmlns="http://www.w3.org/2000/svg" width="192" height="192" viewBox="0 0 50.8 50.8"><path fill="#FF000000" d="m21.166,10.054 l1.123,-1.123c-0.298,-0.298 -0.701,-0.465 -1.123,-0.465zM25.4,14.287 L24.277,15.41c0.298,0.298 0.701,0.465 1.123,0.465zM40.745,39.158l-30.691,0l0,3.175l30.691,0zM7.408,36.512l0,-22.225l-3.175,0l0,22.225zM10.054,11.642l11.112,0l0,-3.175l-11.112,0zM20.044,11.177 L24.277,15.41 26.522,13.165 22.289,8.932zM43.391,18.52l0,17.991l3.175,0l0,-17.991zM25.4,15.875l15.346,0l0,-3.175l-15.346,0zM10.054,39.158c-1.461,0 -2.646,-1.185 -2.646,-2.646l-3.175,0c0,3.215 2.606,5.821 5.821,5.821zM40.745,42.333c3.215,0 5.821,-2.606 5.821,-5.821l-3.175,0c0,1.461 -1.185,2.646 -2.646,2.646zM46.566,18.52c0,-3.215 -2.606,-5.821 -5.821,-5.821l0,3.175c1.461,0 2.646,1.185 2.646,2.646zM7.408,14.287c0,-1.461 1.185,-2.646 2.646,-2.646l0,-3.175c-3.215,0 -5.821,2.606 -5.821,5.821z" id="path_0"/><path fill="#FF000000" d="m25.939,24.385 l-1.695,-0.627 -0.633,-2.075a0.19,0.19 0,0 0,-0.364 0l-0.633,2.075 -1.695,0.627a0.19,0.19 0,0 0,0 0.357l1.694,0.627 0.633,2.138a0.19,0.19 0,0 0,0.365 -0l0.633,-2.138 1.694,-0.627a0.19,0.19 0,0 0,-0 -0.357z" stroke-linejoin="round" stroke-width="1.2919" stroke="#000" stroke-linecap="round" id="path_1"/><path fill="#00000000" d="M17.608,24.606a5.771,5.834 0,1 0,11.541 0a5.771,5.834 0,1 0,-11.541 0z" stroke-linejoin="round" stroke-width="3.1482" stroke="#000" stroke-linecap="round" id="path_2"/><path fill="#00000000" d="m27.763,29.951 l5.596,6.006" stroke-linejoin="round" stroke-width="3.1751" stroke="#000" stroke-linecap="round" id="path_3"/></svg>