<?xml version="1.0" encoding="UTF-8" standalone="no"?><svg xmlns:android="http://schemas.android.com/apk/res/android" height="192" width="192" xmlns="http://www.w3.org/2000/svg">
  <path d="M22,110H46C50.418,110 54,113.582 54,118V154C54,158.418 50.418,162 46,162H30C25.582,162 22,158.418 22,154V110Z" fill="#000000" fill-opacity="0.0" stroke="#000000" stroke-width="12"/>
  <path d="M138,118C138,113.582 141.582,110 146,110H170V154C170,158.418 166.418,162 162,162H146C141.582,162 138,158.418 138,154V118Z" fill="#000000" fill-opacity="0.0" stroke="#000000" stroke-width="12"/>
  <path d="M22,121.5V104C22,63.131 55.131,30 96,30C136.869,30 170,63.131 170,104V121.5" fill="#000000" fill-opacity="0.0" stroke="#000000" stroke-width="12"/>
</svg>