<svg id="vector" xmlns="http://www.w3.org/2000/svg" width="192" height="192" viewBox="0 0 192 192"><path fill="#00000000" d="M46,30L146,30A16,16 0,0 1,162 46L162,146A16,16 0,0 1,146 162L46,162A16,16 0,0 1,30 146L30,46A16,16 0,0 1,46 30z" stroke-width="12" stroke="#000000" id="path_0"/><path fill="#00000000" d="M76,30V68L96,52L116,68V30" stroke-linejoin="round" stroke-width="12" stroke="#000000" stroke-linecap="round" id="path_1"/><path fill="#00000000" d="M54,102C54,102 72,114 96,114C120,114 138,102 138,102M138,102L121,95M138,102L131,121" stroke-linejoin="round" stroke-width="12" stroke="#000000" stroke-linecap="round" id="path_2"/></svg>