<?xml version="1.0" encoding="UTF-8" standalone="no"?><svg xmlns:android="http://schemas.android.com/apk/res/android" height="50.8" width="50.8" xmlns="http://www.w3.org/2000/svg">
  <path d="M25.411,25.082m-17.69,0a17.69,17.69 89.993,1 1,35.381 0a17.69,17.69 89.993,1 1,-35.381 0" fill="#000000" fill-opacity="0.0" stroke="#000000" stroke-linecap="round" stroke-linejoin="round" stroke-width="3.175"/>
  <path d="M10.692,44.979 L14.158,38.977" fill="#000000" fill-opacity="0.0" stroke="#000000" stroke-linecap="round" stroke-linejoin="round" stroke-width="3.175"/>
  <path d="M40.13,44.979 L36.63,38.916" fill="#000000" fill-opacity="0.0" stroke="#000000" stroke-linecap="round" stroke-linejoin="round" stroke-width="3.175"/>
  <path d="m40.753,6.116a3.535,3.536 90,0 0,-2.5 1.035l5,5a3.535,3.536 90,0 0,1.035 -2.5,3.535 3.536,90 0,0 -3.536,-3.535z" fill="#000000" stroke="#000000" stroke-linecap="round" stroke-linejoin="round" stroke-width="3.175"/>
  <path d="m10.079,6.152a3.535,3.535 90,0 0,-3.535 3.535,3.535 3.535,90 0,0 1.042,2.493l4.992,-4.992a3.535,3.535 90,0 0,-2.499 -1.036z" fill="#000000" stroke="#000000" stroke-linecap="round" stroke-linejoin="round" stroke-width="3.175"/>
  <path d="M37.958,12.447 L44.584,5.821" fill="#000000" fill-opacity="0.0" stroke="#000000" stroke-linecap="round" stroke-linejoin="round" stroke-width="3.175"/>
  <path d="M12.906,12.511 L6.216,5.821" fill="#000000" fill-opacity="0.0" stroke="#000000" stroke-linecap="round" stroke-linejoin="round" stroke-width="3.175"/>
  <path d="M25.411,15.371L25.411,25.082" fill="#000000" fill-opacity="0.0" stroke="#000000" stroke-linecap="round" stroke-linejoin="round" stroke-width="3.175"/>
  <path d="M16.023,34.47 L25.411,25.082" fill="#000000" fill-opacity="0.0" stroke="#000000" stroke-linecap="round" stroke-linejoin="round" stroke-width="3.175"/>
  <path d="m22.566,5.697c0.106,0.02 5.669,0 5.669,0" fill="#000000" fill-opacity="0.0" stroke="#000000" stroke-linecap="round" stroke-linejoin="round" stroke-width="3.175"/>
</svg>