<svg id="vector" xmlns="http://www.w3.org/2000/svg" width="192" height="192" viewBox="0 0 192 192"><path fill="#00000000" d="M75.14,118H38.46a8.34,8.34 0,0 1,-8.35 -8.34V38.46a8.35,8.35 0,0 1,8.35 -8.35h71.16A8.34,8.34 0,0 1,118 38.46V76.67" stroke-width="12" stroke="#000" id="path_0"/><path fill="#00000000" d="M80.37,74.04L155.56,74.04A6.33,6.33 0,0 1,161.89 80.37L161.89,155.56A6.33,6.33 0,0 1,155.56 161.89L80.37,161.89A6.33,6.33 0,0 1,74.04 155.56L74.04,80.37A6.33,6.33 0,0 1,80.37 74.04z" stroke-width="12" stroke="#000" id="path_1"/></svg>