<svg id="vector" xmlns="http://www.w3.org/2000/svg" width="192" height="192" viewBox="0 0 192 192"><path fill="#00000000" d="M96,136C122.996,136 145,113.996 145,87C145,60.004 122.996,38 96,38C69.024,38 47,60.004 47,87C47,113.996 69.024,136 96,136V136Z" stroke-linejoin="round" stroke-width="12" stroke="#000000" stroke-linecap="round" id="path_0"/><path fill="#00000000" d="M71,44L58,22" stroke-linejoin="round" stroke-width="12" stroke="#000000" stroke-linecap="round" id="path_1"/><path fill="#00000000" d="M121,44L134,22" stroke-linejoin="round" stroke-width="12" stroke="#000000" stroke-linecap="round" id="path_2"/><path fill="#00000000" d="M96,136V170" stroke-linejoin="round" stroke-width="12" stroke="#000000" stroke-linecap="round" id="path_3"/><path fill="#000000" d="M72,84m-8,0a8,8 0,1 1,16 0a8,8 0,1 1,-16 0" id="path_4"/><path fill="#000000" d="M120,84m-8,0a8,8 0,1 1,16 0a8,8 0,1 1,-16 0" id="path_5"/></svg>