<svg id="vector" xmlns="http://www.w3.org/2000/svg" width="192" height="192" viewBox="0 0 192 192"><path fill="#00000000" d="M68,60L148,46M68,60V151M68,60V40.722C68,36.835 70.793,33.511 74.621,32.841L138.621,21.641C143.516,20.785 148,24.552 148,29.522V46M148,46V135" stroke-width="12" stroke="#000000" id="path_0"/><path fill="#00000000" d="M49.523,135.234L41.044,136.717C33.502,138.037 28,144.586 28,152.242C28,162.033 36.833,169.454 46.477,167.766L54.956,166.283C62.498,164.963 68,158.414 68,150.758C68,140.967 59.167,133.546 49.523,135.234Z" stroke-width="12" stroke="#000000" id="path_1"/><path fill="#00000000" d="M129.523,119.234L121.044,120.717C113.502,122.037 108,128.586 108,136.242C108,146.033 116.833,153.454 126.477,151.766L134.956,150.283C142.498,148.963 148,142.414 148,134.758C148,124.967 139.167,117.546 129.523,119.234Z" stroke-width="12" stroke="#000000" id="path_2"/></svg>