<svg id="vector" xmlns="http://www.w3.org/2000/svg" width="192" height="192" viewBox="0 0 50.8 50.8"><path fill="#00000000" d="m31.007,19.499a8.254,8.254 60,0 1,11.609 0.153,8.254 8.254,60 0,1 -0.029,11.61 8.254,8.254 60,0 1,-11.61 0.095" stroke-linejoin="round" stroke-width="3.175" stroke="#000000" stroke-linecap="round" id="path_0"/><path fill="#00000000" d="M5.292,29.537 L8.037,21.33h0.721l2.662,8.124" stroke-linejoin="round" stroke-width="2.11667" stroke="#000000" stroke-linecap="round" id="path_1"/><path fill="#00000000" d="M6.068,27.217H10.687" stroke-linejoin="round" stroke-width="2.11667" stroke="#000000" stroke-linecap="round" id="path_2"/><path fill="#00000000" d="m14.469,29.509v-8.207h2.662c0,0 1.941,-0.305 1.941,2.329 0,0 0.25,2.107 -2.274,2.107h-2.246" stroke-linejoin="round" stroke-width="2.11667" stroke="#000000" stroke-linecap="round" id="path_3"/><path fill="#00000000" d="m17.159,25.822 l2.033,3.639" stroke-linejoin="round" stroke-width="2.11667" stroke="#000000" stroke-linecap="round" id="path_4"/><path fill="#00000000" d="M24.451,29.482H22.51V21.302h1.969c0,0 3.549,-0.166 3.549,4.215 0,0 0.36,3.965 -3.577,3.965z" stroke-linejoin="round" stroke-width="2.11667" stroke="#000000" stroke-linecap="round" id="path_5"/><path fill="#00000000" d="m33.235,24.296 l5.27,-1.971v4.717l-3.056,1.196v-4.783z" stroke-linejoin="round" stroke-width="3.175" stroke="#000000" stroke-linecap="round" id="path_6"/></svg>