<svg id="vector" xmlns="http://www.w3.org/2000/svg" width="192" height="192" viewBox="0 0 192 192"><path fill="#000" d="M127,68a9,9 0,0 1,-9 9,9 9,0 0,1 -9,-9 9,9 0,0 1,9 -9,9 9,0 0,1 9,9zM83,68a9,9 0,0 1,-9 9,9 9,0 0,1 -9,-9 9,9 0,0 1,9 -9,9 9,0 0,1 9,9z" id="path_0"/><path fill="#00000000" d="m142.1,22 l-18.45,18.5M49.86,22l18.45,18.5" stroke-width="12" stroke="#000" stroke-linecap="round" id="path_1"/><path fill="#00000000" d="M145,82v39a49,49 0,0 1,-49 49,49 49,0 0,1 -49,-49V82a49,49 0,0 1,49 -49,49 49,0 0,1 49,49zM47,91h98" stroke-width="12" stroke="#000" id="path_2"/><path fill="#00000000" d="m96,109 l19.72,34.02H76.28z" stroke-linejoin="round" stroke-width="12" stroke="#000" id="path_3"/></svg>