<svg id="vector" xmlns="http://www.w3.org/2000/svg" width="192" height="192" viewBox="0 0 192 192"><defs><clipPath id="clip_path_0"><path d="M0,0h192v192h-192z"/></clipPath></defs><g id="g_0"><path fill="#00000000" d="M120.25,141.02L142.88,118.39C149.13,112.14 149.13,102.01 142.88,95.76V95.76M120.25,141.02L86.31,174.96V107.08M120.25,141.02L86.31,107.08M86.31,107.08L23.6,44.37C18.56,39.33 22.13,30.71 29.25,30.71H71.2C75.44,30.71 79.51,32.4 82.51,35.4L106.11,58.99M106.11,58.99L142.88,22.23L171.16,50.51H150.88C146.46,50.51 142.88,54.09 142.88,58.51V95.76M106.11,58.99L142.88,95.76" stroke-linejoin="round" stroke-width="12" stroke="#000000" clip-path="url(#clip_path_0)"/></g></svg>