<svg id="vector" xmlns="http://www.w3.org/2000/svg" width="192" height="192" viewBox="0 0 192 192"><path fill="#000000" d="M146,54C146,50.686 143.314,48 140,48C136.686,48 134,50.686 134,54H146ZM58,118C58,114.686 55.314,112 52,112C48.686,112 46,114.686 46,118H58ZM134,54V126H146V54H134ZM58,126V118H46V126H58ZM96,164C75.013,164 58,146.987 58,126H46C46,153.614 68.386,176 96,176V164ZM134,126C134,146.987 116.987,164 96,164V176C123.614,176 146,153.614 146,126H134Z" id="path_0"/><path fill="#000000" d="M96.005,32C100.41,32 104,28.41 104,24.005C104,19.59 100.41,16 96.005,16C91.6,16 88,19.59 88,24.005C88,28.41 91.6,32 96.005,32Z" id="path_1"/><path fill="#000000" d="M52.005,32C56.41,32 60,28.41 60,24.005C60,19.59 56.41,16 52.005,16C47.6,16 44,19.59 44,24.005C44,28.41 47.6,32 52.005,32Z" id="path_2"/><path fill="#000000" d="M140.005,32C144.41,32 148,28.41 148,24.005C148,19.59 144.41,16 140.005,16C135.6,16 132,19.59 132,24.005C132,28.41 135.6,32 140.005,32Z" id="path_3"/></svg>