<?xml version="1.0" encoding="UTF-8" standalone="no"?><svg xmlns:android="http://schemas.android.com/apk/res/android" height="50.8" width="50.8" xmlns="http://www.w3.org/2000/svg">
  <path d="m43.526,24.311c0,6.942 -4.172,12.008 -8.749,15.485 -3.905,2.966 -7.936,4.638 -9.381,5.184 -1.442,-0.54 -5.478,-2.212 -9.387,-5.184 -4.571,-3.475 -8.736,-8.542 -8.736,-15.485l0,-9.902c4.442,-0.663 7.957,-4.16 8.624,-8.588l19.004,0c0.668,4.428 4.182,7.925 8.625,8.588z" fill="#000000" fill-opacity="0.0" stroke="#000" stroke-linecap="round" stroke-linejoin="round" stroke-width="3.175"/>
  <path d="m31.246,21.939c0,-3.254 -2.617,-5.892 -5.846,-5.892s-5.846,2.638 -5.846,5.892c0,2.18 1.176,4.083 2.923,5.102l-2.192,7.713h10.23l-2.192,-7.713c1.747,-1.019 2.923,-2.921 2.923,-5.102z" fill="#000000" fill-opacity="0.0" stroke="#000" stroke-linecap="round" stroke-linejoin="round" stroke-width="2.1167"/>
</svg>