<svg id="vector" xmlns="http://www.w3.org/2000/svg" width="192" height="192" viewBox="0 0 50.8 50.8"><path fill="#00000000" d="m43.526,24.311c0,6.942 -4.172,12.008 -8.749,15.485 -3.905,2.966 -7.936,4.638 -9.381,5.184 -1.442,-0.54 -5.478,-2.212 -9.387,-5.184 -4.571,-3.475 -8.736,-8.542 -8.736,-15.485l0,-9.902c4.442,-0.663 7.957,-4.16 8.624,-8.588l19.004,0c0.668,4.428 4.182,7.925 8.625,8.588z" stroke-linejoin="round" stroke-width="3.175" stroke="#000" stroke-linecap="round" id="path_0"/><path fill="#00000000" d="m31.246,21.939c0,-3.254 -2.617,-5.892 -5.846,-5.892s-5.846,2.638 -5.846,5.892c0,2.18 1.176,4.083 2.923,5.102l-2.192,7.713h10.23l-2.192,-7.713c1.747,-1.019 2.923,-2.921 2.923,-5.102z" stroke-linejoin="round" stroke-width="2.1167" stroke="#000" stroke-linecap="round" id="path_1"/></svg>