<?xml version="1.0" encoding="UTF-8" standalone="no"?><svg xmlns:android="http://schemas.android.com/apk/res/android" height="192" width="192" xmlns="http://www.w3.org/2000/svg">
  <path d="M154.86,30L37.14,30A7.14,7.14 0,0 0,30 37.14L30,154.86A7.14,7.14 0,0 0,37.14 162L154.86,162A7.14,7.14 0,0 0,162 154.86L162,37.14a7.14,7.14 0,0 0,-7.14 -7.14z" fill="#000000" fill-opacity="0.0" stroke="#000000" stroke-linecap="round" stroke-linejoin="round" stroke-width="12"/>
  <path d="M52.2,51.9L52.2,140.2" fill="#000000" fill-opacity="0.0" stroke="#000000" stroke-linecap="round" stroke-linejoin="round" stroke-width="12"/>
  <path d="M106.96,110.66A28,28 45,0 1,79.77 139.32,27.97 27.97,0 0,1 52.26,111.01 28.03,28.03 135,0 1,79.25 82.15,27.95 27.95,45 0,1 106.96,110.26" fill="#000000" fill-opacity="0.0" stroke="#000000" stroke-linecap="round" stroke-linejoin="round" stroke-width="12"/>
  <path d="M84.72,51.8L84.72,77.35" fill="#000000" fill-opacity="0.0" stroke="#000000" stroke-linecap="round" stroke-linejoin="round" stroke-width="12"/>
  <path d="M101.75,85.13A27.05,27.05 0,0 1,134.08 126.62,29.12 29.12,0 0,1 101.54,137.13" fill="#000000" fill-opacity="0.0" stroke="#000000" stroke-linecap="round" stroke-linejoin="round" stroke-width="12"/>
</svg>