<svg id="vector" xmlns="http://www.w3.org/2000/svg" width="192" height="192" viewBox="0 0 50.8 50.8"><path fill="#00000000" d="m27.01,25.454s11.556,-7.81 12.018,-7.346c3.918,3.934 -0.653,13.431 -5.877,17.046 0,0 6.599,9.838 5.611,9.825 -9.529,-0.123 -24.812,-5.941 -24.812,-17.743 -1.449,-0.287 -3.652,-2.254 -3.652,-2.663 0,-0.47 3,-1.209 4.571,-1.557 3.918,-6.352 10.219,-2.836 12.141,2.438z" stroke-width="3.175" stroke="#000" id="path_0"/><path fill="#00000000" d="m12.912,16.311s5.877,-10.49 7.182,-10.49c1.306,0 7.182,10.49 7.182,10.49 0.653,1.311 -0.806,2.182 -1.306,1.68 -2.863,-2.875 -8.974,-2.807 -11.753,0 -0.499,0.504 -1.959,-0.369 -1.306,-1.68z" stroke-width="3.175" stroke="#000" id="path_1"/><path fill="#00000000" d="M17.85,25.611a2.428,2.438 0,1 0,4.856 0a2.428,2.438 0,1 0,-4.856 0z" stroke-width="2.1167" stroke="#000" id="path_2"/></svg>