<svg id="vector" xmlns="http://www.w3.org/2000/svg" width="192" height="192" viewBox="0 0 50.8 50.800003"><path fill="#00000000" d="M17.778,34.6558 L7.9374,42.8624L7.9374,22.1948M42.8624,7.9374L24.6543,7.9374M42.8624,29.1313L42.8624,13.8851C38.4985,10.9031 27.8394,12.1277 27.9449,21.9654M24.7827,35.9383 L30.448,42.8624m5.2556,0 l7.1588,0l0,-8.7499c-4.3331,2.3522 -8.9736,1.3229 -13.0309,-1.8582M25.886,28.2044C21.7728,22.9694 19.0805,15.5656 19.1553,7.9374m-5.5724,0 l-5.6455,0l0,6.3568l13.6858,17.4251 4.2628,-3.5149l0,0m-1.6243,14.658L15.7309,42.8624" stroke-linejoin="round" stroke-width="3.1750002" stroke="#000000" stroke-linecap="round" id="path_0"/></svg>