<?xml version="1.0" encoding="UTF-8" standalone="no"?><svg xmlns:android="http://schemas.android.com/apk/res/android" height="192" width="192" xmlns="http://www.w3.org/2000/svg">
  <path d="m21.99,33.99c0,0 2.96,5.92 8.88,8.88 5.92,2.96 65.09,14.79 65.09,32.55" fill="#000000" fill-opacity="0.0" stroke="#000000" stroke-linecap="round" stroke-linejoin="round" stroke-width="11.98"/>
  <path d="m170.01,33.77c0,0 -2.96,5.92 -8.88,8.88 -5.92,2.96 -65.09,14.79 -65.09,32.55" fill="#000000" fill-opacity="0.0" stroke="#000000" stroke-linecap="round" stroke-linejoin="round" stroke-width="11.98"/>
  <path d="m21.99,75.78c0,0 2.96,5.92 8.88,8.88 5.92,2.96 65.12,14.8 65.12,32.56" fill="#000000" fill-opacity="0.0" stroke="#000000" stroke-linecap="round" stroke-linejoin="round" stroke-width="11.99"/>
  <path d="m170.01,75.78c0,0 -2.96,5.92 -8.88,8.88 -5.92,2.96 -65.12,14.8 -65.12,32.56" fill="#000000" fill-opacity="0.0" stroke="#000000" stroke-linecap="round" stroke-linejoin="round" stroke-width="11.99"/>
  <path d="m22,116.78c0,0 2.96,5.92 8.88,8.88 5.92,2.96 65.12,14.8 65.12,32.56" fill="#000000" fill-opacity="0.0" stroke="#000000" stroke-linecap="round" stroke-linejoin="round" stroke-width="12"/>
  <path d="m170,116.78c0,0 -2.96,5.92 -8.88,8.88 -5.92,2.96 -65.12,14.8 -65.12,32.56" fill="#000000" fill-opacity="0.0" stroke="#000000" stroke-linecap="round" stroke-linejoin="round" stroke-width="12"/>
</svg>