<svg id="vector" xmlns="http://www.w3.org/2000/svg" width="192" height="192" viewBox="0 0 192 192"><path fill="#00000000" d="m21.99,33.99c0,0 2.96,5.92 8.88,8.88 5.92,2.96 65.09,14.79 65.09,32.55" stroke-linejoin="round" stroke-width="11.98" stroke="#000000" stroke-linecap="round" id="path_0"/><path fill="#00000000" d="m170.01,33.77c0,0 -2.96,5.92 -8.88,8.88 -5.92,2.96 -65.09,14.79 -65.09,32.55" stroke-linejoin="round" stroke-width="11.98" stroke="#000000" stroke-linecap="round" id="path_1"/><path fill="#00000000" d="m21.99,75.78c0,0 2.96,5.92 8.88,8.88 5.92,2.96 65.12,14.8 65.12,32.56" stroke-linejoin="round" stroke-width="11.99" stroke="#000000" stroke-linecap="round" id="path_2"/><path fill="#00000000" d="m170.01,75.78c0,0 -2.96,5.92 -8.88,8.88 -5.92,2.96 -65.12,14.8 -65.12,32.56" stroke-linejoin="round" stroke-width="11.99" stroke="#000000" stroke-linecap="round" id="path_3"/><path fill="#00000000" d="m22,116.78c0,0 2.96,5.92 8.88,8.88 5.92,2.96 65.12,14.8 65.12,32.56" stroke-linejoin="round" stroke-width="12" stroke="#000000" stroke-linecap="round" id="path_4"/><path fill="#00000000" d="m170,116.78c0,0 -2.96,5.92 -8.88,8.88 -5.92,2.96 -65.12,14.8 -65.12,32.56" stroke-linejoin="round" stroke-width="12" stroke="#000000" stroke-linecap="round" id="path_5"/></svg>