<svg id="vector" xmlns="http://www.w3.org/2000/svg" width="192" height="192" viewBox="0 0 50.8 50.8"><path fill="#00000000" d="m16.821,32.704l6.26,5.253c2.087,1.751 4.389,1.55 6.14,-0.537L40.251,24.274c1.926,-2.295 1.564,-8.644 -4.696,-13.897 -6.26,-5.253 -12.575,-4.507 -14.501,-2.212L10.024,21.311c-1.751,2.087 -1.549,4.389 0.537,6.14l6.26,5.253" stroke-linejoin="round" stroke-width="3.08397" stroke="#000000" stroke-linecap="round" id="path_0"/><path fill="#00000000" d="M15.802,14.425L14.55,13.374c-2.4,-2.014 -4.702,-1.812 -6.715,0.588l-2.013,2.4" stroke-linejoin="round" stroke-width="3.08397" stroke="#000000" stroke-linecap="round" id="path_1"/><path fill="#00000000" d="m34.998,30.534l1.252,1.051c2.4,2.014 4.702,1.812 6.715,-0.588l2.013,-2.4" stroke-linejoin="round" stroke-width="3.08397" stroke="#000000" stroke-linecap="round" id="path_2"/><path fill="#000000" d="M25.853,12.192m-1.252,-1.051a1.634,1.634 90.027,1 1,2.504 2.101a1.634,1.634 90.027,1 1,-2.504 -2.101" stroke-linejoin="round" stroke-width="1.09263" stroke="#00000000" stroke-linecap="round" id="path_3"/><path fill="#000000" d="M35.452,20.246m-1.252,-1.051a1.634,1.634 90.027,1 1,2.504 2.101a1.634,1.634 90.027,1 1,-2.504 -2.101" stroke-linejoin="round" stroke-width="1.09263" stroke="#00000000" stroke-linecap="round" id="path_4"/><path fill="#00000000" d="m29.697,22.952c0.586,2.512 -0.501,5.118 -2.699,6.47 -2.198,1.352 -5.013,1.146 -6.989,-0.511 -1.977,-1.657 -2.672,-4.392 -1.725,-6.793 0.946,-2.4 3.322,-3.926 5.897,-3.789" stroke-linejoin="round" stroke-width="2.05598" stroke="#000000" stroke-linecap="round" id="path_5"/><path fill="#00000000" d="m27.573,19.889 l-4.099,4.885" stroke-linejoin="round" stroke-width="2.05598" stroke="#000000" stroke-linecap="round" id="path_6"/><path fill="#00000000" d="M35.555,10.376L37.656,7.872" stroke-linejoin="miter" stroke-width="3.08397" stroke="#000000" stroke-linecap="round" id="path_7"/><path fill="#00000000" d="m13.319,36.878c-1.893,-1.589 -4.34,-1.316 -5.583,0.382 -1.391,1.888 -0.924,5.589 -0.72,7.13" stroke-linejoin="round" stroke-width="3.08397" stroke="#000000" stroke-linecap="round" id="path_8"/><path fill="#00000000" d="m13.319,36.878c1.893,1.589 2.05,4.046 0.593,5.565 -1.618,1.698 -5.343,1.881 -6.896,1.947" stroke-linejoin="round" stroke-width="3.08397" stroke="#000000" stroke-linecap="round" id="path_9"/></svg>