<svg id="vector" xmlns="http://www.w3.org/2000/svg" width="192" height="192" viewBox="0 0 192 192"><path fill="#00000000" d="M58.8,163.22A21.25,21.18 47.05,0 1,38.02 169.34,21.25 21.18,47.05 0,1 22.66,153.99 21.25,21.18 47.05,0 1,28.77 133.2L133.2,28.78a21.25,21.18 47.05,0 1,20.78 -6.12,21.25 21.18,47.05 0,1 15.36,15.35 21.25,21.18 47.05,0 1,-6.1 20.79z" stroke-linejoin="round" stroke-width="12" stroke="#000000" id="path_0"/><path fill="#00000000" d="m148,22.02a21.18,21.25 0,0 1,19.02 10.37,21.18 21.25,0 0,1 0.01,21.72 21.18,21.25 0,0 1,-19.02 10.38l-104.02,0.01a21.18,21.25 0,0 1,-19.02 -10.37,21.18 21.25,0 0,1 -0.01,-21.72 21.18,21.25 0,0 1,19.02 -10.38z" stroke-linejoin="round" stroke-width="12" stroke="#000000" id="path_1"/><path fill="#00000000" d="m169.98,148a21.25,21.18 0,0 1,-10.37 19.02,21.25 21.18,0 0,1 -21.72,0.01 21.25,21.18 0,0 1,-10.38 -19.02l0,-104.02a21.25,21.18 0,0 1,10.37 -19.02,21.25 21.18,0 0,1 21.72,-0.01 21.25,21.18 0,0 1,10.38 19.02z" stroke-linejoin="round" stroke-width="12" stroke="#000000" id="path_2"/></svg>