<svg id="vector" xmlns="http://www.w3.org/2000/svg" width="192" height="192" viewBox="0 0 50.8 50.8"><path fill="#00000000" d="m5.821,17.069v18.47c0,0 3.028,-0.002 4.689,-0.072 2.749,-0.116 5.911,-1.507 6.284,-4.496 0,0 0.91,-5.238 -5.29,-5.238 0,0 4.108,-0.896 3.698,-5.304 0,0 -0.273,-4.481 -9.38,-3.361z" stroke-linejoin="round" stroke-width="3.175" stroke="#000000" stroke-linecap="round" id="path_0"/><path fill="#00000000" d="m28.572,36.005 l-6.036,-8.537 -1.732,-1.101c0,0 5.453,-0.18 5.453,-5.184 0,0 0.258,-4.786 -7.126,-4.3" stroke-linejoin="round" stroke-width="3.175" stroke="#000000" stroke-linecap="round" id="path_1"/><path fill="#00000000" d="m32.232,16.62c0,0 1.852,-0.853 3.137,0.075 2.017,1.457 0.037,4.193 0.037,4.193" stroke-linejoin="round" stroke-width="1.5875" stroke="#000000" stroke-linecap="round" id="path_2"/><path fill="#00000000" d="m37.051,25.136 l-5.043,0 3.399,-4.248" stroke-linejoin="round" stroke-width="1.5875" stroke="#000000" stroke-linecap="round" id="path_3"/><path fill="#00000000" d="m44.035,25.323 l-0.037,-9.188h-1.046l-3.399,5.547 0.112,0.878h6.074" stroke-linejoin="round" stroke-width="1.5875" stroke="#000000" stroke-linecap="round" id="path_4"/></svg>