<?xml version="1.0" encoding="UTF-8" standalone="no"?><svg xmlns:android="http://schemas.android.com/apk/res/android" height="192" width="192" xmlns="http://www.w3.org/2000/svg">
  <path d="M96,22C60.73,22 31.731,37.796 28.333,58.017C27.967,60.196 29.791,62 32,62H160C162.209,62 164.033,60.196 163.667,58.017C160.269,37.796 131.27,22 96,22Z" fill="#000000" fill-opacity="0.0" stroke="#000000" stroke-linejoin="round" stroke-width="12"/>
  <path d="M96,170C142.946,170 160.55,161.849 163.528,149.963C164.065,147.82 162.209,146 160,146H32C29.791,146 27.935,147.82 28.472,149.963C31.45,161.849 49.054,170 96,170Z" fill="#000000" fill-opacity="0.0" stroke="#000000" stroke-linejoin="round" stroke-width="12"/>
  <path d="M106,82V110M106,126V110M106,110L120,102.462M158,82L120,102.462M120,102.462L158,126" fill="#000000" fill-opacity="0.0" stroke="#000000" stroke-linecap="round" stroke-width="12"/>
  <path d="M34,104H75C81.075,104 86,108.925 86,115V115C86,121.075 81.075,126 75,126H34V104Z" fill="#000000" fill-opacity="0.0" stroke="#000000" stroke-linejoin="round" stroke-width="12"/>
  <path d="M34,82H69C75.075,82 80,86.925 80,93V93C80,99.075 75.075,104 69,104H34V82Z" fill="#000000" fill-opacity="0.0" stroke="#000000" stroke-linejoin="round" stroke-width="12"/>
</svg>