<svg id="vector" xmlns="http://www.w3.org/2000/svg" width="192" height="192" viewBox="0 0 192 192"><path fill="#00000000" d="M96,22C60.73,22 31.731,37.796 28.333,58.017C27.967,60.196 29.791,62 32,62H160C162.209,62 164.033,60.196 163.667,58.017C160.269,37.796 131.27,22 96,22Z" stroke-linejoin="round" stroke-width="12" stroke="#000000" id="path_0"/><path fill="#00000000" d="M96,170C142.946,170 160.55,161.849 163.528,149.963C164.065,147.82 162.209,146 160,146H32C29.791,146 27.935,147.82 28.472,149.963C31.45,161.849 49.054,170 96,170Z" stroke-linejoin="round" stroke-width="12" stroke="#000000" id="path_1"/><path fill="#00000000" d="M106,82V110M106,126V110M106,110L120,102.462M158,82L120,102.462M120,102.462L158,126" stroke-width="12" stroke="#000000" stroke-linecap="round" id="path_2"/><path fill="#00000000" d="M34,104H75C81.075,104 86,108.925 86,115V115C86,121.075 81.075,126 75,126H34V104Z" stroke-linejoin="round" stroke-width="12" stroke="#000000" id="path_3"/><path fill="#00000000" d="M34,82H69C75.075,82 80,86.925 80,93V93C80,99.075 75.075,104 69,104H34V82Z" stroke-linejoin="round" stroke-width="12" stroke="#000000" id="path_4"/></svg>