<?xml version="1.0" encoding="UTF-8" standalone="no"?><svg xmlns:android="http://schemas.android.com/apk/res/android" height="192" width="192" xmlns="http://www.w3.org/2000/svg">
  <g>
    <clip-path android:pathData="M0,0h192v192h-192z"/>
    <path d="M170,66H22V155H170V66Z" fill="#000000" fill-opacity="0.0" stroke="#000000" stroke-linejoin="round" stroke-width="12"/>
    <path d="M96,123C96,125.11 94.85,126.89 93.5,128.5C92.15,130.11 90.57,131.13 88.5,131.5C86.43,131.87 84.32,131.55 82.5,130.5C80.68,129.45 79.22,127.48 78.5,125.5" fill="#000000" fill-opacity="0.0" stroke="#000000" stroke-linecap="round" stroke-linejoin="round" stroke-width="12"/>
    <path d="M113.5,125.5C112.78,127.48 111.29,129.36 109.46,130.41C107.64,131.47 105.54,131.78 103.46,131.41C101.39,131.05 99.32,130.03 97.97,128.41C96.61,126.8 95.97,125.02 95.97,122.91" fill="#000000" fill-opacity="0.0" stroke="#000000" stroke-linecap="round" stroke-linejoin="round" stroke-width="12"/>
    <path d="M51,104L65,90L79,104" fill="#000000" fill-opacity="0.0" stroke="#000000" stroke-linecap="round" stroke-linejoin="round" stroke-width="12"/>
    <path d="M113,104L127,90L141,104" fill="#000000" fill-opacity="0.0" stroke="#000000" stroke-linecap="round" stroke-linejoin="round" stroke-width="12"/>
    <path d="M29,64L53,37L97,61" fill="#000000" fill-opacity="0.0" stroke="#000000" stroke-linecap="round" stroke-linejoin="round" stroke-width="12"/>
    <path d="M163,64L139,37L94,61" fill="#000000" fill-opacity="0.0" stroke="#000000" stroke-linecap="round" stroke-linejoin="round" stroke-width="12"/>
  </g>
</svg>