<svg id="vector" xmlns="http://www.w3.org/2000/svg" width="192" height="192" viewBox="0 0 192 192"><path fill="#00000000" d="M37.489,81C34.924,88.17 34,97.354 34,109C34,149.071 44.941,160 96,160C147.059,160 158,149.071 158,109C158,97.354 157.076,88.17 154.511,81M37.489,81L52.653,42.024C56.352,32.517 69.473,31.668 74.366,40.618L84,58.241M37.489,81C43.009,65.565 56.131,59.466 84,58.241M84,58.241C87.73,58.077 91.724,58 96,58C100.276,58 104.27,58.077 108,58.241M154.511,81L153.759,79.067M154.511,81C154.275,80.339 154.024,79.695 153.759,79.067M153.759,79.067L139.347,42.024C135.648,32.517 122.527,31.668 117.634,40.618L108,58.241M153.759,79.067C147.839,65.051 134.675,59.413 108,58.241" stroke-width="12" stroke="#000000" id="path_0"/><path fill="#00000000" d="M158,107L171,103" stroke-width="8" stroke="#000000" stroke-linecap="round" id="path_1"/><path fill="#00000000" d="M170,139L158,135" stroke-width="8" stroke="#000000" stroke-linecap="round" id="path_2"/><path fill="#00000000" d="M158,121H172" stroke-width="8" stroke="#000000" stroke-linecap="round" id="path_3"/><path fill="#00000000" d="M34,107L21,103" stroke-width="8" stroke="#000000" stroke-linecap="round" id="path_4"/><path fill="#00000000" d="M22,139L34,135" stroke-width="8" stroke="#000000" stroke-linecap="round" id="path_5"/><path fill="#00000000" d="M34,121H20" stroke-width="8" stroke="#000000" stroke-linecap="round" id="path_6"/><path fill="#000000" d="M72,101m-8,0a8,8 0,1 1,16 0a8,8 0,1 1,-16 0" id="path_7"/><path fill="#000000" d="M120,101m-8,0a8,8 0,1 1,16 0a8,8 0,1 1,-16 0" id="path_8"/><path fill="#000000" d="M100.526,109H91.474C88.279,109 86.374,112.561 88.146,115.219L92.672,122.008C94.255,124.383 97.745,124.383 99.328,122.008L103.854,115.219C105.626,112.561 103.721,109 100.526,109Z" id="path_9"/></svg>