<?xml version="1.0" encoding="UTF-8" standalone="no"?><svg xmlns:android="http://schemas.android.com/apk/res/android" height="50.8" width="50.8" xmlns="http://www.w3.org/2000/svg">
  <path d="m29.084,17.202 l4.753,3.087c0.037,1.356 -0.699,2.622 -0.699,2.622h-4.047c-0.883,6.963 6.255,11.358 6.255,11.358 3.9,3.111 3.385,8.283 3.385,8.283 0,0 -0.055,0.867 -3.476,1.66 0,0 -2.979,0.959 -12.944,0.691" fill="#000000" fill-opacity="0.0" stroke="#000000" stroke-linecap="round" stroke-linejoin="round" stroke-width="3.175"/>
  <path d="m21.82,17.256 l-4.719,3.034c-0.037,1.356 0.699,2.622 0.699,2.622h4.047c0.883,6.963 -6.255,11.358 -6.255,11.358 -3.9,3.111 -3.385,8.283 -3.385,8.283 0,0 0.055,0.867 3.476,1.66 0,0 2.979,0.959 12.944,0.691" fill="#000000" fill-opacity="0.0" stroke="#000000" stroke-linecap="round" stroke-linejoin="round" stroke-width="3.175"/>
  <path d="m21.82,17.256a6.253,6.36 89.88,0 1,-2.489 -6.986,6.253 6.36,89.88 0,1 6.035,-4.426 6.253,6.36 89.88,0 1,6.101 4.337,6.253 6.36,89.88 0,1 -2.383,7.022" fill="#000000" fill-opacity="0.0" stroke="#000000" stroke-linecap="round" stroke-linejoin="round" stroke-width="3.17506"/>
</svg>