<svg id="vector" xmlns="http://www.w3.org/2000/svg" width="192" height="192" viewBox="0 0 192 192"><path fill="#00000000" d="M82.97,85.6L82.97,143.17" stroke-linejoin="round" stroke-width="12" stroke="#000000" stroke-linecap="round" id="path_0"/><path fill="#00000000" d="m119.3,68.21l0,65.17a10.26,10.19 90,0 0,10.78 10.86l3.23,0" stroke-linejoin="round" stroke-width="12" stroke="#000000" stroke-linecap="round" id="path_1"/><path fill="#00000000" d="M108.52,86.68L131.16,86.68" stroke-linejoin="round" stroke-width="12" stroke="#000000" stroke-linecap="round" id="path_2"/><path fill="#00000000" d="m61.86,133.41a21.02,20.87 90,0 1,-18.33 10.86l0,0a21.79,21.63 90,0 1,-21.56 -21.72l0,-14.12a21.79,21.63 90,0 1,21.56 -21.72l0,0a21.02,20.87 90,0 1,18.33 10.86" stroke-linejoin="round" stroke-width="12" stroke="#000000" stroke-linecap="round" id="path_3"/><path fill="#00000000" d="M159.56,86.28L159.56,143.85" stroke-linejoin="round" stroke-width="12" stroke="#000000" stroke-linecap="round" id="path_4"/><path fill="#00000000" d="m72.3,70.81c6.2,-6.24 22.16,-23.09 48.85,-23.09 26.69,0 42.72,16.88 48.88,23.09" stroke-linejoin="round" stroke-width="12" stroke="#000000" stroke-linecap="round" id="path_5"/></svg>