<?xml version="1.0" encoding="UTF-8" standalone="no"?><svg xmlns:android="http://schemas.android.com/apk/res/android" height="192" width="192" xmlns="http://www.w3.org/2000/svg">
  <path d="M34,42L118,42A12,12 0,0 1,130 54L130,138A12,12 0,0 1,118 150L34,150A12,12 0,0 1,22 138L22,54A12,12 0,0 1,34 42z" fill="#000000" fill-opacity="0.0" stroke="#000000" stroke-width="12"/>
  <path d="M170,150H150" fill="#000000" fill-opacity="0.0" stroke="#000000" stroke-linecap="round" stroke-width="12"/>
  <path d="M102.29,110.45C99.08,116.29 94.02,120.89 87.91,123.53C81.8,126.18 74.99,126.71 68.54,125.06C62.09,123.4 56.38,119.65 52.3,114.39C48.21,109.13 46,102.66 46,96C46,89.34 48.21,82.87 52.3,77.61C56.38,72.35 62.09,68.6 68.54,66.94C74.99,65.29 81.8,65.82 87.91,68.47C94.02,71.11 99.08,75.71 102.29,81.55" fill="#000000" fill-opacity="0.0" stroke="#000000" stroke-linecap="round" stroke-width="12"/>
</svg>