<svg id="vector" xmlns="http://www.w3.org/2000/svg" width="192" height="192" viewBox="0 0 192 192"><path fill="#00000000" d="M34,42L118,42A12,12 0,0 1,130 54L130,138A12,12 0,0 1,118 150L34,150A12,12 0,0 1,22 138L22,54A12,12 0,0 1,34 42z" stroke-width="12" stroke="#000000" id="path_0"/><path fill="#00000000" d="M170,150H150" stroke-width="12" stroke="#000000" stroke-linecap="round" id="path_1"/><path fill="#00000000" d="M102.29,110.45C99.08,116.29 94.02,120.89 87.91,123.53C81.8,126.18 74.99,126.71 68.54,125.06C62.09,123.4 56.38,119.65 52.3,114.39C48.21,109.13 46,102.66 46,96C46,89.34 48.21,82.87 52.3,77.61C56.38,72.35 62.09,68.6 68.54,66.94C74.99,65.29 81.8,65.82 87.91,68.47C94.02,71.11 99.08,75.71 102.29,81.55" stroke-width="12" stroke="#000000" stroke-linecap="round" id="path_2"/></svg>