<svg id="vector" xmlns="http://www.w3.org/2000/svg" width="192" height="192" viewBox="0 0 50.8 50.8"><path fill="#00000000" d="m16.8,38.042h12.068l-1.652,-2.765 3.896,-7.12 -12.923,0.091c-1.709,0 -0.867,-1.412 -0.867,-1.412L23.512,15.523 17.739,5.82 8.593,22.461c0,0 -2.817,4.26 -0.696,9.303 2.121,5.043 7.442,6.33 8.903,6.277z" stroke-linejoin="round" stroke-width="3.175" stroke="#000000" stroke-linecap="round" id="path_0"/><path fill="#00000000" d="M33.928,12.758H21.86l1.652,2.765 -3.846,7.028h12.873c1.709,0 0.867,1.412 0.867,1.412l-6.19,11.313 5.773,9.703 9.146,-16.641c0,0 2.817,-4.26 0.696,-9.303 -2.121,-5.043 -7.442,-6.33 -8.903,-6.277z" stroke-linejoin="round" stroke-width="3.175" stroke="#000000" stroke-linecap="round" id="path_1"/></svg>