<svg id="vector" xmlns="http://www.w3.org/2000/svg" width="192" height="192" viewBox="0 0 192 192"><path fill="#00000000" d="M96,170C136.869,170 170,136.869 170,96C170,55.131 136.869,22 96,22C55.131,22 22,55.131 22,96C22,136.869 55.131,170 96,170Z" stroke-linejoin="round" stroke-width="12" stroke="#000000" stroke-linecap="round" id="path_0"/><path fill="#00000000" d="M122.87,122.87C117.556,128.184 110.785,131.804 103.413,133.27C96.042,134.736 88.402,133.984 81.458,131.107C74.514,128.231 68.58,123.361 64.404,117.112C60.229,110.863 58,103.516 58,96C58,88.484 60.229,81.137 64.404,74.888C68.58,68.639 74.514,63.769 81.458,60.893C88.402,58.016 96.042,57.264 103.413,58.73C110.785,60.196 117.556,63.815 122.87,69.13" stroke-width="12" stroke="#000000" stroke-linecap="round" id="path_1"/></svg>