<?xml version="1.0" encoding="UTF-8" standalone="no"?><svg xmlns:android="http://schemas.android.com/apk/res/android" height="192" width="192" xmlns="http://www.w3.org/2000/svg">
  <path d="M68,96m-46,0a46,46 0,1 1,92 0a46,46 0,1 1,-92 0" fill="#000000" fill-opacity="0.0" stroke="#000000" stroke-width="12"/>
  <path d="M164,96C164,118.091 146.091,136 124,136C114.458,136 105.696,132.659 98.82,127.082L88.109,133.628C97.442,142.532 110.082,148 124,148C152.719,148 176,124.719 176,96C176,67.281 152.719,44 124,44C111.261,44 99.592,48.581 90.55,56.185L98.963,64.803C105.816,59.296 114.523,56 124,56C146.091,56 164,73.909 164,96Z" fill="#000000" fill-rule="evenOdd"/>
  <path d="M72,116H54V96H72C77.523,96 82,100.477 82,106C82,111.523 77.523,116 72,116Z" fill="#000000" fill-opacity="0.0" stroke="#000000" stroke-linejoin="round" stroke-width="8"/>
  <path d="M72,96H54V76H72C77.523,76 82,80.477 82,86C82,91.523 77.523,96 72,96Z" fill="#000000" fill-opacity="0.0" stroke="#000000" stroke-linejoin="round" stroke-width="8"/>
</svg>