<svg id="vector" xmlns="http://www.w3.org/2000/svg" width="192" height="192" viewBox="0 0 192 192"><path fill="#00000000" d="M164.18,144.95A74.37,73.8 0,0 1,82.34 165.14,74.37 73.8,0 0,1 34.11,96.5 74.37,73.8 0,0 1,81.5 27.28,74.37 73.8,0 0,1 163.57,46.48" stroke-linejoin="round" stroke-width="12" stroke="#000000" stroke-linecap="round" id="path_0"/><path fill="#00000000" d="M139.23,123.54A40.63,40.63 0,0 1,94.53 134.66,40.63 40.63,0 0,1 68.18,96.87 40.63,40.63 0,0 1,94.06 58.76,40.63 40.63,0 0,1 138.9,69.33" stroke-linejoin="round" stroke-width="12" stroke="#000000" stroke-linecap="round" id="path_1"/><path fill="#00000000" d="M163.6,46.52 L138.87,69.31" stroke-linejoin="round" stroke-width="12" stroke="#000000" stroke-linecap="round" id="path_2"/><path fill="#00000000" d="m139.17,123.58 l24.97,21.27" stroke-linejoin="round" stroke-width="12" stroke="#000000" stroke-linecap="round" id="path_3"/></svg>