<svg id="vector" xmlns="http://www.w3.org/2000/svg" width="192" height="192" viewBox="0 0 192 192"><path fill="#00000000" d="M96,48.78m-26.78,0a26.78,26.78 0,1 1,53.56 0a26.78,26.78 0,1 1,-53.56 0" stroke-width="12" stroke="#000" id="path_0"/><path fill="#FF000000" d="M30.06,121c8.71,-7.89 28.69,-20.84 65.94,-20.84s57.23,12.95 65.94,20.84c3.92,3.54 5.48,8.76 5.48,14v23.13A17.85,17.85 0,0 1,149.57 176H42.43a17.85,17.85 0,0 1,-17.85 -17.86V135C24.58,129.72 26.14,124.5 30.06,121ZM96,162.61h53.57a4.47,4.47 0,0 0,4.46 -4.47V135c0,-2.93 -0.86,-3.93 -1.07,-4.13 -6.36,-5.75 -23.16,-17.37 -57,-17.37s-50.6,11.62 -57,17.37c-0.21,0.2 -1.07,1.2 -1.07,4.13v23.13a4.47,4.47 0,0 0,4.46 4.47Z" fill-rule="evenodd" id="path_1"/></svg>