<svg id="vector" xmlns="http://www.w3.org/2000/svg" width="192" height="192" viewBox="0 0 192 192"><path fill="#00000000" d="M162,83.9V41.37c0.04,-6.24 -4.98,-11.33 -11.22,-11.37 -0.05,0 -0.1,0 -0.15,0H41.37c-6.24,-0.04 -11.33,4.98 -11.37,11.22 0,0.05 0,0.1 0,0.15v42.53c6.68,0 12.1,5.42 12.1,12.1s-5.42,12.1 -12.1,12.1v42.53c-0.04,6.24 4.98,11.33 11.22,11.37 0.05,0 0.1,0 0.15,0h109.27c6.24,0.04 11.33,-4.98 11.37,-11.22 0,-0.05 0,-0.1 0,-0.15v-42.53c-6.68,0 -12.1,-5.42 -12.1,-12.1s5.42,-12.1 12.1,-12.1Z" stroke-linejoin="round" stroke-width="12" stroke="#000" id="path_0"/><path fill="#00000000" d="M60,57.49h23.7v23.7h-23.7z" stroke-linejoin="round" stroke-width="8" stroke="#000" id="path_1"/><path fill="#00000000" d="M108.38,57.49h23.7v23.7h-23.7z" stroke-linejoin="round" stroke-width="8" stroke="#000" id="path_2"/><path fill="#00000000" d="M60,104.89h23.7v23.7h-23.7z" stroke-linejoin="round" stroke-width="8" stroke="#000" id="path_3"/><path fill="#FF000000" d="M120.22,111.48L120.22,111.48A5.26,5.26 0,0 1,125.48 116.74L125.48,116.74A5.26,5.26 0,0 1,120.22 121.99L120.22,121.99A5.26,5.26 0,0 1,114.97 116.74L114.97,116.74A5.26,5.26 0,0 1,120.22 111.48z" id="path_4"/><path fill="#FF000000" d="M109.71,100.96L109.71,100.96A5.26,5.26 0,0 1,114.97 106.21L114.97,106.21A5.26,5.26 0,0 1,109.71 111.47L109.71,111.47A5.26,5.26 0,0 1,104.46 106.21L104.46,106.21A5.26,5.26 0,0 1,109.71 100.96z" id="path_5"/><path fill="#FF000000" d="M109.71,121.99L109.71,121.99A5.26,5.26 0,0 1,114.97 127.25L114.97,127.25A5.26,5.26 0,0 1,109.71 132.5L109.71,132.5A5.26,5.26 0,0 1,104.46 127.25L104.46,127.25A5.26,5.26 0,0 1,109.71 121.99z" id="path_6"/><path fill="#FF000000" d="M130.74,121.99L130.74,121.99A5.26,5.26 0,0 1,136 127.25L136,127.25A5.26,5.26 0,0 1,130.74 132.5L130.74,132.5A5.26,5.26 0,0 1,125.49 127.25L125.49,127.25A5.26,5.26 0,0 1,130.74 121.99z" id="path_7"/><path fill="#FF000000" d="M130.74,100.96L130.74,100.96A5.26,5.26 0,0 1,136 106.21L136,106.21A5.26,5.26 0,0 1,130.74 111.47L130.74,111.47A5.26,5.26 0,0 1,125.49 106.21L125.49,106.21A5.26,5.26 0,0 1,130.74 100.96z" id="path_8"/></svg>