<svg id="vector" xmlns="http://www.w3.org/2000/svg" width="192" height="192" viewBox="0 0 50.8 50.8"><path fill="#00000000" d="M40.345,38.733A19.45,19.45 0,0 1,19.123 43.315,19.45 19.45,0 0,1 6.878,25.386 19.45,19.45 0,0 1,18.869 7.286,19.45 19.45,0 0,1 40.154,11.568" stroke-linejoin="round" stroke-width="3.175" stroke="#000000" stroke-linecap="round" id="path_0"/><path fill="#00000000" d="m31.454,29.685a6.645,6.645 0,0 1,-7.25 1.565,6.645 6.645,0 0,1 -4.183,-6.125 6.645,6.645 0,0 1,4.096 -6.184,6.645 6.645,0 0,1 7.272,1.463" stroke-linejoin="round" stroke-width="3.175" stroke="#000000" stroke-linecap="round" id="path_1"/><path fill="#00000000" d="M40.154,11.568 L31.389,20.405" stroke-linejoin="miter" stroke-width="3.175" stroke="#000000" stroke-linecap="round" id="path_2"/><path fill="#00000000" d="M40.345,38.667 L31.581,29.83" stroke-linejoin="miter" stroke-width="3.175" stroke="#000000" stroke-linecap="round" id="path_3"/><path fill="#00000000" d="M26.504,13.731h0.016v3.874h-0.016z" stroke-linejoin="round" stroke-width="1.5875" stroke="#000000" stroke-linecap="round" id="path_4"/><path fill="#00000000" d="M19.095,25.112l-0,0.016l-3.874,0l-0,-0.016z" stroke-linejoin="round" stroke-width="1.5875" stroke="#000000" stroke-linecap="round" id="path_5"/><path fill="#00000000" d="M26.504,32.441h0.016v3.874h-0.016z" stroke-linejoin="round" stroke-width="1.5875" stroke="#000000" stroke-linecap="round" id="path_6"/><path fill="#00000000" d="M21.404,30.3l0.012,0.012l-2.739,2.739l-0.012,-0.012z" stroke-linejoin="round" stroke-width="1.5875" stroke="#000000" stroke-linecap="round" id="path_7"/><path fill="#00000000" d="M21.404,19.941l0.012,-0.012l-2.739,-2.739l-0.012,0.012z" stroke-linejoin="round" stroke-width="1.587" stroke="#000000" stroke-linecap="round" id="path_8"/><path fill="#000000" d="M26.488,13.385m-1.587,0a1.587,1.587 0,1 1,3.175 0a1.587,1.587 0,1 1,-3.175 0" stroke-linejoin="round" stroke-width="1.24979" stroke="#00000000" stroke-linecap="round" id="path_9"/><path fill="#000000" d="M18.232,16.892m-1.587,0a1.587,1.587 0,1 1,3.175 0a1.587,1.587 0,1 1,-3.175 0" stroke-linejoin="round" stroke-width="1.24979" stroke="#00000000" stroke-linecap="round" id="path_10"/><path fill="#000000" d="M14.815,25.175m-1.587,0a1.587,1.587 0,1 1,3.175 0a1.587,1.587 0,1 1,-3.175 0" stroke-linejoin="round" stroke-width="1.24979" stroke="#00000000" stroke-linecap="round" id="path_11"/><path fill="#000000" d="M18.232,33.457m-1.587,0a1.587,1.587 0,1 1,3.175 0a1.587,1.587 0,1 1,-3.175 0" stroke-linejoin="round" stroke-width="1.24979" stroke="#00000000" stroke-linecap="round" id="path_12"/><path fill="#000000" d="M26.461,36.915m-1.587,0a1.587,1.587 0,1 1,3.175 0a1.587,1.587 0,1 1,-3.175 0" stroke-linejoin="round" stroke-width="1.24979" stroke="#00000000" stroke-linecap="round" id="path_13"/></svg>