<svg id="vector" xmlns="http://www.w3.org/2000/svg" width="192" height="192" viewBox="0 0 192 192"><path fill="#00000000" d="M151,85.92V50.47c0.03,-5.2 -4.15,-9.44 -9.35,-9.47 -0.04,0 -0.08,0 -0.12,0H50.47c-5.2,-0.03 -9.44,4.15 -9.47,9.35 0,0.04 0,0.08 0,0.12v35.44c5.57,0 10.08,4.51 10.08,10.08s-4.51,10.08 -10.08,10.08v35.44c-0.03,5.2 4.15,9.44 9.35,9.47 0.04,0 0.08,0 0.12,0h91.06c5.2,0.03 9.44,-4.15 9.47,-9.35 0,-0.04 0,-0.08 0,-0.12v-35.44c-5.57,0 -10.08,-4.51 -10.08,-10.08s4.51,-10.08 10.08,-10.08Z" stroke-linejoin="round" stroke-width="12" stroke="#000" id="path_0"/><path fill="#00000000" d="M69.24,67.38h17.61v17.61h-17.61z" stroke-linejoin="round" stroke-width="8" stroke="#000" id="path_1"/><path fill="#00000000" d="M105.2,67.38h17.61v17.61h-17.61z" stroke-linejoin="round" stroke-width="8" stroke="#000" id="path_2"/><path fill="#00000000" d="M69.24,102.6h17.61v17.61h-17.61z" stroke-linejoin="round" stroke-width="8" stroke="#000" id="path_3"/><path fill="#FF000000" d="M114,107.01L114.01,107.01A4.4,4.4 0,0 1,118.41 111.41L118.41,111.42A4.4,4.4 0,0 1,114.01 115.82L114,115.82A4.4,4.4 0,0 1,109.6 111.42L109.6,111.41A4.4,4.4 0,0 1,114 107.01z" id="path_4"/><path fill="#FF000000" d="M105.2,98.2L105.21,98.2A4.4,4.4 0,0 1,109.61 102.6L109.61,102.61A4.4,4.4 0,0 1,105.21 107.01L105.2,107.01A4.4,4.4 0,0 1,100.8 102.61L100.8,102.6A4.4,4.4 0,0 1,105.2 98.2z" id="path_5"/><path fill="#FF000000" d="M105.2,115.81L105.21,115.81A4.4,4.4 0,0 1,109.61 120.21L109.61,120.22A4.4,4.4 0,0 1,105.21 124.62L105.2,124.62A4.4,4.4 0,0 1,100.8 120.22L100.8,120.21A4.4,4.4 0,0 1,105.2 115.81z" id="path_6"/><path fill="#FF000000" d="M122.81,115.81L122.82,115.81A4.4,4.4 0,0 1,127.22 120.21L127.22,120.22A4.4,4.4 0,0 1,122.82 124.62L122.81,124.62A4.4,4.4 0,0 1,118.41 120.22L118.41,120.21A4.4,4.4 0,0 1,122.81 115.81z" id="path_7"/><path fill="#FF000000" d="M122.81,98.2L122.82,98.2A4.4,4.4 0,0 1,127.22 102.6L127.22,102.61A4.4,4.4 0,0 1,122.82 107.01L122.81,107.01A4.4,4.4 0,0 1,118.41 102.61L118.41,102.6A4.4,4.4 0,0 1,122.81 98.2z" id="path_8"/><path fill="#00000000" d="M20,42l0,-22l22,0" stroke-linejoin="round" stroke-width="8" stroke="#000" stroke-linecap="round" id="path_9"/><path fill="#00000000" d="M172,150l0,22l-22,0" stroke-linejoin="round" stroke-width="8" stroke="#000" stroke-linecap="round" id="path_10"/><path fill="#00000000" d="M150,20l22,0l0,22" stroke-linejoin="round" stroke-width="8" stroke="#000" stroke-linecap="round" id="path_11"/><path fill="#00000000" d="M42,172l-22,0l0,-22" stroke-linejoin="round" stroke-width="8" stroke="#000" stroke-linecap="round" id="path_12"/></svg>