<svg id="vector" xmlns="http://www.w3.org/2000/svg" width="192" height="192" viewBox="0 0 50.8 50.800003"><path fill="#00000000" d="m14.3768,17.4505c7.6009,-0.3024 15.0027,-6.4806 22.1658,-6.4806 2.6265,0 5.1734,0.8641 7.3621,2.4194 0.6765,0.4752 1.0745,1.2529 1.0745,2.117l-0.0398,20.3922c0,0.6481 -0.2388,0.8209 -0.7561,0.4752 -2.3479,-1.5121 -4.8152,-2.333 -7.6009,-2.333 -7.7202,0 -14.6844,5.7893 -22.6036,5.7893 -2.6265,0 -5.1336,-0.7777 -7.3621,-2.333C6.1392,37.1946 5.8208,36.5898 5.8208,35.9417V15.6791c0,-1.0801 0.3184,-1.1665 1.0347,-0.6481 2.1489,1.5985 4.9346,2.4194 7.5213,2.4194z" stroke-linejoin="round" stroke-width="3.175" stroke="#000000" stroke-linecap="round" id="path_0"/></svg>