<svg id="vector" xmlns="http://www.w3.org/2000/svg" width="192" height="192" viewBox="0 0 50.8 50.8"><path fill="#111111" d="M39,12.806L44.98,12.806A1.587,1.587 0,0 1,46.568 14.394L46.568,14.394A1.587,1.587 0,0 1,44.98 15.981L39,15.981A1.587,1.587 0,0 1,37.413 14.394L37.413,14.394A1.587,1.587 0,0 1,39 12.806z" stroke-linejoin="miter" stroke-width="2.74469" stroke="#00000000" id="path_0"/><path fill="#111111" d="M5.82,34.819L11.8,34.819A1.587,1.587 0,0 1,13.387 36.406L13.387,36.406A1.587,1.587 0,0 1,11.8 37.994L5.82,37.994A1.587,1.587 0,0 1,4.232 36.406L4.232,36.406A1.587,1.587 0,0 1,5.82 34.819z" stroke-linejoin="miter" stroke-width="2.74469" stroke="#00000000" id="path_1"/><path fill="#111111" d="M16.873,34.819L22.852,34.819A1.587,1.587 0,0 1,24.44 36.406L24.44,36.406A1.587,1.587 0,0 1,22.852 37.994L16.873,37.994A1.587,1.587 0,0 1,15.285 36.406L15.285,36.406A1.587,1.587 0,0 1,16.873 34.819z" stroke-linejoin="miter" stroke-width="2.74469" stroke="#00000000" id="path_2"/><path fill="#111111" d="M16.874,27.481L22.853,27.481A1.587,1.587 0,0 1,24.441 29.069L24.441,29.069A1.587,1.587 0,0 1,22.853 30.656L16.874,30.656A1.587,1.587 0,0 1,15.286 29.069L15.286,29.069A1.587,1.587 0,0 1,16.874 27.481z" stroke-linejoin="miter" stroke-width="2.74469" stroke="#00000000" id="path_3"/><path fill="#111111" d="M16.873,20.144L22.852,20.144A1.587,1.587 0,0 1,24.44 21.731L24.44,21.731A1.587,1.587 0,0 1,22.852 23.319L16.873,23.319A1.587,1.587 0,0 1,15.285 21.731L15.285,21.731A1.587,1.587 0,0 1,16.873 20.144z" stroke-linejoin="miter" stroke-width="2.74469" stroke="#00000000" id="path_4"/><path fill="#111111" d="M27.947,34.819L33.926,34.819A1.587,1.587 0,0 1,35.514 36.406L35.514,36.406A1.587,1.587 0,0 1,33.926 37.994L27.947,37.994A1.587,1.587 0,0 1,26.359 36.406L26.359,36.406A1.587,1.587 0,0 1,27.947 34.819z" stroke-linejoin="miter" stroke-width="2.74469" stroke="#00000000" id="path_5"/><path fill="#111111" d="M39,34.819L44.98,34.819A1.587,1.587 0,0 1,46.568 36.406L46.568,36.406A1.587,1.587 0,0 1,44.98 37.994L39,37.994A1.587,1.587 0,0 1,37.413 36.406L37.413,36.406A1.587,1.587 0,0 1,39 34.819z" stroke-linejoin="miter" stroke-width="2.74469" stroke="#00000000" id="path_6"/><path fill="#111111" d="M27.948,27.481L33.927,27.481A1.587,1.587 0,0 1,35.515 29.069L35.515,29.069A1.587,1.587 0,0 1,33.927 30.656L27.948,30.656A1.587,1.587 0,0 1,26.36 29.069L26.36,29.069A1.587,1.587 0,0 1,27.948 27.481z" stroke-linejoin="miter" stroke-width="2.74469" stroke="#00000000" id="path_7"/><path fill="#111111" d="M39,27.481L44.98,27.481A1.587,1.587 0,0 1,46.568 29.069L46.568,29.069A1.587,1.587 0,0 1,44.98 30.656L39,30.656A1.587,1.587 0,0 1,37.413 29.069L37.413,29.069A1.587,1.587 0,0 1,39 27.481z" stroke-linejoin="miter" stroke-width="2.74469" stroke="#00000000" id="path_8"/><path fill="#111111" d="M39,20.144L44.98,20.144A1.587,1.587 0,0 1,46.568 21.731L46.568,21.731A1.587,1.587 0,0 1,44.98 23.319L39,23.319A1.587,1.587 0,0 1,37.413 21.731L37.413,21.731A1.587,1.587 0,0 1,39 20.144z" stroke-linejoin="miter" stroke-width="2.74469" stroke="#00000000" id="path_9"/></svg>