<?xml version="1.0" encoding="UTF-8" standalone="no"?><svg xmlns:android="http://schemas.android.com/apk/res/android" height="192" width="192" xmlns="http://www.w3.org/2000/svg">
  <path android:fillAlpha="0.98" android:strokeAlpha="0.98" d="m96.012,63.628c-3.316,0 -6.122,2.715 -6.122,6.098 0,3.383 2.742,6.122 6.122,6.122 3.38,0 6.098,-2.803 6.098,-6.122 0,-3.319 -2.782,-6.098 -6.098,-6.098z" fill="#000000" stroke="#000000" stroke-linecap="round" stroke-linejoin="round" stroke-width="3.78002"/>
  <path d="M83.435,122.372H108.565M87.48,90.961h8.54v31.411" fill="#000000" fill-opacity="0.0" stroke="#000000" stroke-linecap="round" stroke-linejoin="round" stroke-width="12"/>
  <path d="m54,46h84" fill="#000000" fill-opacity="0.0" stroke="#000000" stroke-linejoin="round" stroke-width="12"/>
  <path d="m60,22h72c5.54,0 10,4.46 10,10v128c0,5.54 -4.46,10 -10,10H60c-5.54,0 -10,-4.46 -10,-10V32c0,-5.54 4.46,-10 10,-10z" fill="#000000" fill-opacity="0.0" stroke="#000000" stroke-linejoin="round" stroke-width="12"/>
  <path d="m54,146h84" fill="#000000" fill-opacity="0.0" stroke="#000000" stroke-linejoin="round" stroke-width="12"/>
</svg>