<svg id="vector" xmlns="http://www.w3.org/2000/svg" width="192" height="192" viewBox="0 0 192 192"><path fill="#000000" d="m96.012,63.628c-3.316,0 -6.122,2.715 -6.122,6.098 0,3.383 2.742,6.122 6.122,6.122 3.38,0 6.098,-2.803 6.098,-6.122 0,-3.319 -2.782,-6.098 -6.098,-6.098z" stroke-linejoin="round" stroke-width="3.78002" stroke="#000000" stroke-linecap="round" id="path_0"/><path fill="#00000000" d="M83.435,122.372H108.565M87.48,90.961h8.54v31.411" stroke-linejoin="round" stroke-width="12" stroke="#000000" stroke-linecap="round" id="path_1"/><path fill="#00000000" d="m54,46h84" stroke-linejoin="round" stroke-width="12" stroke="#000000" id="path_2"/><path fill="#00000000" d="m60,22h72c5.54,0 10,4.46 10,10v128c0,5.54 -4.46,10 -10,10H60c-5.54,0 -10,-4.46 -10,-10V32c0,-5.54 4.46,-10 10,-10z" stroke-linejoin="round" stroke-width="12" stroke="#000000" id="path_3"/><path fill="#00000000" d="m54,146h84" stroke-linejoin="round" stroke-width="12" stroke="#000000" id="path_4"/></svg>