<?xml version="1.0" encoding="UTF-8" standalone="no"?><svg xmlns:android="http://schemas.android.com/apk/res/android" height="192" width="192" xmlns="http://www.w3.org/2000/svg">
  <path d="M125.19,30.49a0.37,0.37 0,0 1,0.24 0.1l41,41a0.34,0.34 0,0 1,0 0.48L73.05,165.41a0.34,0.34 0,0 1,-0.48 0l-41,-41a0.34,0.34 0,0 1,0 -0.48L125,30.59a0.37,0.37 0,0 1,0.24 -0.1m0,-12a12.25,12.25 0,0 0,-8.72 3.62L23.11,115.47a12.34,12.34 0,0 0,0 17.44l41,41a12.31,12.31 0,0 0,17.44 0l93.36,-93.36a12.34,12.34 0,0 0,0 -17.44l-41,-41a12.23,12.23 0,0 0,-8.72 -3.62Z" fill="#000000" fill-opacity="1.0"/>
  <path d="M126.42,69.65m-9.04,0a9.04,9.04 0,1 1,18.08 0a9.04,9.04 0,1 1,-18.08 0" fill="#000000" fill-opacity="1.0"/>
  <path d="M87.49,124.23m-9.04,0a9.04,9.04 0,1 1,18.08 0a9.04,9.04 0,1 1,-18.08 0" fill="#000000" fill-opacity="1.0"/>
  <path d="M56.49,124.23m-9.04,0a9.04,9.04 0,1 1,18.08 0a9.04,9.04 0,1 1,-18.08 0" fill="#000000" fill-opacity="1.0"/>
  <path d="M79.74,67.64l48.01,48.01l-11.04,11.04l-48.01,-48.01z" fill="#000000" fill-opacity="1.0"/>
</svg>