<svg id="vector" xmlns="http://www.w3.org/2000/svg" width="192" height="192" viewBox="0 0 192 192"><path fill="#FF000000" d="M125.19,30.49a0.37,0.37 0,0 1,0.24 0.1l41,41a0.34,0.34 0,0 1,0 0.48L73.05,165.41a0.34,0.34 0,0 1,-0.48 0l-41,-41a0.34,0.34 0,0 1,0 -0.48L125,30.59a0.37,0.37 0,0 1,0.24 -0.1m0,-12a12.25,12.25 0,0 0,-8.72 3.62L23.11,115.47a12.34,12.34 0,0 0,0 17.44l41,41a12.31,12.31 0,0 0,17.44 0l93.36,-93.36a12.34,12.34 0,0 0,0 -17.44l-41,-41a12.23,12.23 0,0 0,-8.72 -3.62Z" id="path_0"/><path fill="#FF000000" d="M126.42,69.65m-9.04,0a9.04,9.04 0,1 1,18.08 0a9.04,9.04 0,1 1,-18.08 0" id="path_1"/><path fill="#FF000000" d="M87.49,124.23m-9.04,0a9.04,9.04 0,1 1,18.08 0a9.04,9.04 0,1 1,-18.08 0" id="path_2"/><path fill="#FF000000" d="M56.49,124.23m-9.04,0a9.04,9.04 0,1 1,18.08 0a9.04,9.04 0,1 1,-18.08 0" id="path_3"/><path fill="#FF000000" d="M79.74,67.64l48.01,48.01l-11.04,11.04l-48.01,-48.01z" id="path_4"/></svg>