<svg id="vector" xmlns="http://www.w3.org/2000/svg" width="192" height="192" viewBox="0 0 192 192"><path fill="#00000000" d="M96,156m-14,0a14,14 0,1 1,28 0a14,14 0,1 1,-28 0" stroke-width="12" stroke="#000000" id="path_0"/><path fill="#00000000" d="M96,140V22M96,22L82,36M96,22L110,36" stroke-linejoin="round" stroke-width="12" stroke="#000000" stroke-linecap="round" id="path_1"/><path fill="#00000000" d="M96,108L134,88V64" stroke-linejoin="round" stroke-width="12" stroke="#000000" stroke-linecap="round" id="path_2"/><path fill="#00000000" d="M96,120L58,100V76" stroke-linejoin="round" stroke-width="12" stroke="#000000" stroke-linecap="round" id="path_3"/><path fill="#000000" d="M128,48L140,48A6,6 0,0 1,146 54L146,66A6,6 0,0 1,140 72L128,72A6,6 0,0 1,122 66L122,54A6,6 0,0 1,128 48z" id="path_4"/><path fill="#000000" d="M58,76m-12,0a12,12 0,1 1,24 0a12,12 0,1 1,-24 0" id="path_5"/></svg>