<svg id="vector" xmlns="http://www.w3.org/2000/svg" width="192" height="192" viewBox="0 0 50.8 50.800003"><path fill="#00000000" d="m13.4445,17.7899h23.911c2.1984,0 3.9769,1.7339 3.9769,3.8773v19.4106c0,2.1434 -1.7785,3.9014 -3.9769,3.9014h-23.911c-2.1737,0 -3.9769,-1.758 -3.9769,-3.9014L9.4676,21.6672c0,-2.1434 1.8032,-3.8773 3.9769,-3.8773zM17.125,17.7899L17.125,13.8885c0,-4.4553 3.7052,-8.0677 8.275,-8.0677 4.5698,0 8.275,3.6124 8.275,8.0677v3.9014M25.4,27.4952c2.1984,0 4.0016,1.7339 4.0016,3.8773 0,2.1434 -1.8032,3.9014 -4.0016,3.9014 -2.1984,0 -3.9769,-1.758 -3.9769,-3.9014 0,-2.1434 1.7785,-3.8773 3.9769,-3.8773z" stroke-linejoin="miter" stroke-width="3.175" stroke="#000000" stroke-linecap="butt" id="path_0"/></svg>