<svg id="vector" xmlns="http://www.w3.org/2000/svg" width="192" height="192" viewBox="0 0 192 192"><path fill="#00000000" d="M105,22L105,64" stroke-width="12" stroke="#000000" stroke-linecap="round" id="path_0"/><path fill="#00000000" d="M101,108L126,150" stroke-width="12" stroke="#000000" stroke-linecap="round" id="path_1"/><path fill="#00000000" d="M151,108L126,150" stroke-width="12" stroke="#000000" stroke-linecap="round" id="path_2"/><path fill="#00000000" d="M126,150L114.095,170" stroke-width="12" stroke="#000000" stroke-linecap="round" id="path_3"/><path fill="#00000000" d="M127,64m-22,0a22,22 0,1 1,44 0a22,22 0,1 1,-44 0" stroke-width="12" stroke="#000000" id="path_4"/><path fill="#00000000" d="M63,128m-22,0a22,22 0,1 1,44 0a22,22 0,1 1,-44 0" stroke-width="12" stroke="#000000" id="path_5"/><path fill="#00000000" d="M63,86C50.85,86 41,76.15 41,64M41,64C41,51.85 50.85,42 63,42C75.15,42 85,51.85 85,64H63H41Z" stroke-linejoin="round" stroke-width="12" stroke="#000000" stroke-linecap="round" id="path_6"/><path fill="#00000000" d="M85,150V127" stroke-width="12" stroke="#000000" stroke-linecap="round" id="path_7"/><path fill="#00000000" d="M62,86C67.401,86 72.507,84.741 77.042,82.5" stroke-width="12" stroke="#000000" stroke-linecap="round" id="path_8"/></svg>