<svg id="vector" xmlns="http://www.w3.org/2000/svg" width="192" height="192" viewBox="0 0 192 192"><path fill="#00000000" d="M48,78V114C48,140.51 69.49,162 96,162V162C122.51,162 144,140.51 144,114V78" stroke-width="12" stroke="#000000" stroke-linecap="round" id="path_0"/><path fill="#00000000" d="M48,120H44.5C32.07,120 22,109.93 22,97.5V97.5C22,60.22 52.22,30 89.5,30H102.5C139.78,30 170,60.22 170,97.5V97.5C170,109.93 159.93,120 147.5,120H145" stroke-width="12" stroke="#000000" id="path_1"/><path fill="#00000000" d="M96,138L105,124H87L96,138ZM96,138V160" stroke-linejoin="round" stroke-width="12" stroke="#000000" stroke-linecap="round" id="path_2"/><path fill="#000000" d="M76,96m-8,0a8,8 0,1 1,16 0a8,8 0,1 1,-16 0" id="path_3"/><path fill="#000000" d="M116,96m-8,0a8,8 0,1 1,16 0a8,8 0,1 1,-16 0" id="path_4"/></svg>