<svg id="vector" xmlns="http://www.w3.org/2000/svg" width="192" height="192" viewBox="0 0 192 192"><path fill="#00000000" d="M34,102C34,93.163 41.163,86 50,86H142C150.837,86 158,93.163 158,102V154C158,162.837 150.837,170 142,170H50C41.163,170 34,162.837 34,154V102Z" stroke-width="12" stroke="#000000" id="path_0"/><path fill="#00000000" d="M34,54C34,45.163 41.163,38 50,38H142C150.837,38 158,45.163 158,54V70C158,78.837 150.837,86 142,86H50C41.163,86 34,78.837 34,70V54Z" stroke-width="12" stroke="#000000" id="path_1"/><path fill="#00000000" d="M36,40L22,22" stroke-width="12" stroke="#000000" stroke-linecap="round" id="path_2"/><path fill="#00000000" d="M156,40L170,22" stroke-width="12" stroke="#000000" stroke-linecap="round" id="path_3"/><path fill="#000000" d="M66,62m-9.5,0a9.5,9.5 0,1 1,19 0a9.5,9.5 0,1 1,-19 0" id="path_4"/><path fill="#00000000" stroke-width="1" d="M66,62m-9.5,0a9.5,9.5 0,1 1,19 0a9.5,9.5 0,1 1,-19 0" stroke="#000000" id="path_5"/><path fill="#00000000" stroke-width="1" d="M66,62m-9.5,0a9.5,9.5 0,1 1,19 0a9.5,9.5 0,1 1,-19 0" stroke="#000000" id="path_6"/><path fill="#000000" d="M126,62m-9.5,0a9.5,9.5 0,1 1,19 0a9.5,9.5 0,1 1,-19 0" id="path_7"/><path fill="#00000000" stroke-width="1" d="M126,62m-9.5,0a9.5,9.5 0,1 1,19 0a9.5,9.5 0,1 1,-19 0" stroke="#000000" id="path_8"/><path fill="#00000000" stroke-width="1" d="M126,62m-9.5,0a9.5,9.5 0,1 1,19 0a9.5,9.5 0,1 1,-19 0" stroke="#000000" id="path_9"/><path fill="#00000000" d="M78.202,140.931C80.932,144.69 84.783,147.488 89.202,148.923C93.62,150.359 98.38,150.359 102.798,148.923C107.217,147.488 111.068,144.69 113.798,140.931C116.529,137.173 118,132.646 118,128C118,123.354 116.529,118.827 113.798,115.069C111.068,111.31 107.217,108.512 102.798,107.077C98.38,105.641 93.62,105.641 89.202,107.077C84.783,108.512 80.932,111.31 78.202,115.069" stroke-width="12" stroke="#000000" stroke-linecap="round" id="path_10"/></svg>