<svg id="vector" xmlns="http://www.w3.org/2000/svg" width="192" height="192" viewBox="0 0 192 192"><path fill="#00000000" d="M96,22C79.109,22 62.218,28.437 49.331,41.31C23.556,67.056 23.556,108.799 49.331,134.545C56.444,141.65 62.666,145.45 69.321,149.513L69.322,149.514L69.324,149.515C76.974,154.187 85.196,159.208 96,170C106.804,159.208 115.027,154.187 122.676,149.515L122.678,149.515C129.333,145.45 135.556,141.65 142.67,134.545C168.443,108.798 168.443,67.056 142.67,41.31C129.782,28.437 112.891,22 96,22Z" stroke-linejoin="round" stroke-width="12" fill-rule="evenodd" stroke="#000000" id="path_0"/><path fill="#00000000" d="M74,118V58C74,55.791 75.791,54 78,54H114C116.209,54 118,55.791 118,58V118C118,120.209 116.209,122 114,122H78C75.791,122 74,120.209 74,118Z" stroke-width="12" stroke="#000000" stroke-linecap="round" id="path_1"/></svg>