<svg id="vector" xmlns="http://www.w3.org/2000/svg" width="192" height="192" viewBox="0 0 192 192"><path fill="#00000000" d="M87.15,22.57C60.3,17.72 50.84,40.59 52.96,73.76l6.16,96.24M80.52,89.21 L34.67,75.48" stroke-linejoin="round" stroke-width="12" stroke="#000000" stroke-linecap="round" id="path_0"/><path fill="#00000000" d="m157.33,121.28c-4.15,4.2 -9.67,6.82 -15.88,7.54 -6.2,0.72 -12.81,-0.5 -18.97,-3.5 -6.17,-3 -11.62,-7.65 -15.68,-13.36 -4.05,-5.71 -6.52,-12.22 -7.09,-18.71 -0.57,-6.49 0.78,-12.67 3.88,-17.76 3.1,-5.09 7.81,-8.85 13.54,-10.82 5.73,-1.97 12.22,-2.05 18.64,-0.24 6.43,1.81 12.5,5.44 17.46,10.43" stroke-width="12" stroke="#000000" stroke-linecap="round" id="path_1"/></svg>