<svg id="vector" xmlns="http://www.w3.org/2000/svg" width="192" height="192" viewBox="0 0 192 192"><path fill="#FF000000" d="M96,27.8c0.7,0 1.4,0.2 2,0.5l55.6,32.1c1.2,0.7 2,2 2,3.5v64.2c0,1.4 -0.8,2.8 -2,3.5L98,163.7c-0.6,0.4 -1.3,0.5 -2,0.5s-1.4,-0.2 -2,-0.5l-55.6,-32.1c-1.2,-0.7 -2,-2 -2,-3.5V63.9c0,-1.4 0.8,-2.8 2,-3.5L94,28.3C94.6,28 95.3,27.8 96,27.8M96,15.8c-2.8,0 -5.5,0.7 -8,2.1L32.4,50c-5,2.9 -8,8.1 -8,13.9v64.2c0,5.7 3,11 8,13.9L88,174.1c2.5,1.4 5.2,2.1 8,2.1c2.8,0 5.5,-0.7 8,-2.1l55.6,-32.1c5,-2.9 8,-8.1 8,-13.9V63.9c0,-5.7 -3,-11 -8,-13.9L104,17.9C101.5,16.5 98.8,15.8 96,15.8L96,15.8z" id="path_0"/><path fill="#00000000" d="M30,58l132,76M30,134l132,-76M96,20v152" stroke-width="12" stroke="#000000" id="path_1"/></svg>