<svg id="vector" xmlns="http://www.w3.org/2000/svg" width="192" height="192" viewBox="0 0 192 192"><path fill="#00000000" d="M122,22H70C65.58,22 62,25.58 62,30V60.69C62,62.81 62.84,64.84 64.34,66.34L75.66,77.66C77.16,79.16 78,81.19 78,83.31V162C78,166.42 81.58,170 86,170H106C110.42,170 114,166.42 114,162V83.31C114,81.19 114.84,79.16 116.34,77.66L127.66,66.34C129.16,64.84 130,62.81 130,60.69V30C130,25.58 126.42,22 122,22Z" stroke-linejoin="round" stroke-width="12" stroke="#000000" id="path_0"/><path fill="#00000000" d="M62,46H128" stroke-width="12" stroke="#000000" stroke-linecap="round" id="path_1"/><path fill="#00000000" d="M96,84V102" stroke-width="8" stroke="#000000" stroke-linecap="round" id="path_2"/></svg>