<svg id="vector" xmlns="http://www.w3.org/2000/svg" width="192" height="192" viewBox="0 0 50.8 50.8"><path fill="#00000000" d="M77.908,51.636 L80.479,32.247 65.537,44.881a19.579,19.579 0,0 0,12.371 6.755z" stroke-linejoin="round" stroke-width="3.175" stroke="#000000" stroke-linecap="round" id="path_0"/><path fill="#00000000" d="M25.4,5.821A19.579,19.579 0,0 0,5.821 25.4A19.579,19.579 56.384,0 0,10.458 38.034L25.4,25.4L22.829,44.788A19.579,19.579 68.189,0 0,25.4 44.979A19.579,19.579 0,0 0,44.979 25.4A19.579,19.579 0,0 0,25.4 5.821z" stroke-linejoin="round" stroke-width="3.175" stroke="#000000" stroke-linecap="round" id="path_1"/><path fill="#00000000" d="M76.942,25.4 L78.496,13.685 69.477,21.311a11.824,11.824 135,0 0,7.466 4.089z" stroke-linejoin="round" stroke-width="3.175" stroke="#000000" stroke-linecap="round" id="path_2"/><path fill="#00000000" d="M25.4,13.576A11.824,11.824 0,0 0,13.576 25.4A11.824,11.824 0,0 0,16.381 33.026L25.4,25.4L23.847,37.115A11.824,11.824 45,0 0,25.4 37.224A11.824,11.824 0,0 0,37.224 25.4A11.824,11.824 45,0 0,25.4 13.576z" stroke-linejoin="round" stroke-width="3.175" stroke="#000000" stroke-linecap="round" id="path_3"/><path fill="#00000000" d="M58.808,29.543 L59.624,23.392 54.874,27.408a6.222,6.222 0,0 0,3.934 2.135z" stroke-linejoin="round" stroke-width="3.175" stroke="#000000" stroke-linecap="round" id="path_4"/><path fill="#00000000" d="M25.4,19.178A6.222,6.222 0,0 0,19.178 25.4A6.222,6.222 0,0 0,20.65 29.416L25.4,25.4L24.585,31.551A6.222,6.222 0,0 0,25.4 31.622A6.222,6.222 0,0 0,31.622 25.4A6.222,6.222 0,0 0,25.4 19.178z" stroke-linejoin="round" stroke-width="3.175" stroke="#000000" stroke-linecap="round" id="path_5"/><path fill="#000000" d="M10.103,30.898m-1.587,0a1.587,1.587 0,1 1,3.175 0a1.587,1.587 0,1 1,-3.175 0" stroke-linejoin="round" stroke-width="3.175" stroke="#00000000" stroke-linecap="round" id="path_6"/><path fill="#000000" d="M31.767,11.19m-1.587,0a1.587,1.587 0,1 1,3.175 0a1.587,1.587 0,1 1,-3.175 0" stroke-linejoin="round" stroke-width="3.175" stroke="#00000000" stroke-linecap="round" id="path_7"/><path fill="#000000" d="M16.263,21.508m-1.587,0a1.587,1.587 0,1 1,3.175 0a1.587,1.587 0,1 1,-3.175 0" stroke-linejoin="round" stroke-width="3.175" stroke="#00000000" stroke-linecap="round" id="path_8"/><path fill="#000000" d="M33.209,26.987m-1.587,0a1.587,1.587 0,1 1,3.175 0a1.587,1.587 0,1 1,-3.175 0" stroke-linejoin="round" stroke-width="3.175" stroke="#00000000" stroke-linecap="round" id="path_9"/><path fill="#000000" d="M29.175,35.421m-1.587,0a1.587,1.587 0,1 1,3.175 0a1.587,1.587 0,1 1,-3.175 0" stroke-linejoin="round" stroke-width="3.175" stroke="#00000000" stroke-linecap="round" id="path_10"/><path fill="#ff0000" d="M-9.589,30.923m-1.587,0a1.587,1.587 0,1 1,3.175 0a1.587,1.587 0,1 1,-3.175 0" stroke-linejoin="round" stroke-width="3.175" stroke="#00000000" stroke-linecap="round" id="path_11"/><path fill="#00000000" d="m-6.325,-2.717 l-17.964,1.797 16.859,7.255a12.067,12.067 45,0 0,1.536 -5.863,12.067 12.067,45 0,0 -0.431,-3.189z" stroke-linejoin="round" stroke-width="0.265" stroke="#ff0000" stroke-linecap="round" id="path_12"/><path fill="#00000000" d="M-39.326,-6.885A12.067,12.067 0,0 0,-51.393 5.182A12.067,12.067 0,0 0,-39.326 17.25A12.067,12.067 0,0 0,-28.795 11.045L-45.654,3.79L-27.69,1.993A12.067,12.067 135,0 0,-39.326 -6.885z" stroke-linejoin="round" stroke-width="0.265" stroke="#ff0000" stroke-linecap="round" id="path_13"/><path fill="#00000000" d="m-78.48,46.376 l2.571,-19.388 -14.942,12.634a19.579,19.579 0,0 0,12.371 6.755z" stroke-linejoin="round" stroke-width="3.175" stroke="#000000" stroke-linecap="round" id="path_14"/><path fill="#00000000" d="M-89.032,-26.697A19.579,19.579 0,0 0,-108.611 -7.117A19.579,19.579 0,0 0,-103.974 5.516L-89.032,-7.117L-91.603,12.271A19.579,19.579 0,0 0,-89.032 12.462A19.579,19.579 0,0 0,-69.453 -7.117A19.579,19.579 0,0 0,-89.032 -26.697z" stroke-linejoin="round" stroke-width="3.175" stroke="#000000" stroke-linecap="round" id="path_15"/></svg>