<svg id="vector" xmlns="http://www.w3.org/2000/svg" width="192" height="192" viewBox="0 0 50.8 50.8"><path fill="#FF000000" d="m17.038,7.369c-0.289,0 -0.523,0.234 -0.523,0.523l0,12.946c0,0.181 0.094,0.349 0.248,0.444l8.637,5.344 8.637,-5.344c0.154,-0.095 0.248,-0.263 0.248,-0.444l0,-12.946c0,-0.289 -0.234,-0.523 -0.523,-0.523zM13.38,7.892c0,-2.021 1.638,-3.658 3.658,-3.658l16.724,0c2.021,0 3.658,1.638 3.658,3.658l0,12.946c0,1.267 -0.656,2.444 -1.734,3.111l-8.912,5.514c-0.843,0.521 -1.908,0.521 -2.75,0l-8.912,-5.514c-1.078,-0.667 -1.733,-1.844 -1.733,-3.111zM8.676,23.571c-0.577,0 -1.045,0.468 -1.045,1.045l0,17.77c0,0.577 0.468,1.045 1.045,1.045l33.449,0c0.577,0 1.045,-0.468 1.045,-1.045l0,-17.77c0,-0.577 -0.468,-1.045 -1.045,-1.045l-1.045,0c-0.866,0 -1.568,-0.702 -1.568,-1.568s0.702,-1.568 1.568,-1.568l1.045,0c2.309,0 4.181,1.872 4.181,4.181l0,17.77c0,2.309 -1.872,4.181 -4.181,4.181l-33.449,0c-2.309,0 -4.181,-1.872 -4.181,-4.181l0,-17.77c0,-2.309 1.872,-4.181 4.181,-4.181l1.045,0c0.866,0 1.568,0.702 1.568,1.568s-0.702,1.568 -1.568,1.568zM14.947,39.773c0,-0.866 0.702,-1.568 1.568,-1.568l17.77,0c0.866,0 1.568,0.702 1.568,1.568s-0.702,1.568 -1.568,1.568l-17.77,0c-0.866,0 -1.568,-0.702 -1.568,-1.568zM12.857,36.114c1.155,0 2.091,-0.936 2.091,-2.091s-0.936,-2.091 -2.091,-2.091 -2.091,0.936 -2.091,2.091 0.936,2.091 2.091,2.091zM14.947,27.752c0,1.155 -0.936,2.091 -2.091,2.091s-2.091,-0.936 -2.091,-2.091 0.936,-2.091 2.091,-2.091 2.091,0.936 2.091,2.091zM19.129,36.114c1.155,0 2.091,-0.936 2.091,-2.091s-0.936,-2.091 -2.091,-2.091 -2.091,0.936 -2.091,2.091 0.936,2.091 2.091,2.091zM33.763,34.024c0,1.155 -0.936,2.091 -2.091,2.091s-2.091,-0.936 -2.091,-2.091 0.936,-2.091 2.091,-2.091 2.091,0.936 2.091,2.091zM37.944,36.114c1.155,0 2.091,-0.936 2.091,-2.091s-0.936,-2.091 -2.091,-2.091 -2.091,0.936 -2.091,2.091 0.936,2.091 2.091,2.091zM40.034,27.752c0,1.155 -0.936,2.091 -2.091,2.091s-2.091,-0.936 -2.091,-2.091 0.936,-2.091 2.091,-2.091 2.091,0.936 2.091,2.091zM25.4,36.114c1.155,0 2.091,-0.936 2.091,-2.091s-0.936,-2.091 -2.091,-2.091c-1.155,0 -2.091,0.936 -2.091,2.091s0.936,2.091 2.091,2.091z" fill-rule="evenodd" id="path_0"/><path fill="#FF000000" d="m23.02,10.616 l6.01,-0.044z" stroke-linejoin="round" stroke-width="2.1167" stroke="#000" stroke-linecap="round" id="path_1"/><path fill="#FF000000" d="m23.081,14.817 l3.957,0.037z" stroke-linejoin="round" stroke-width="2.117" stroke="#000" stroke-linecap="round" id="path_2"/><path fill="#00000000" d="m23.02,19.997v-9.381" stroke-linejoin="round" stroke-width="2.1167" stroke="#000" stroke-linecap="round" id="path_3"/></svg>