<?xml version="1.0" encoding="UTF-8" standalone="no"?><svg xmlns:android="http://schemas.android.com/apk/res/android" height="192" width="192" xmlns="http://www.w3.org/2000/svg">
  <path d="m43.5,66.24 l105,-40v0,0 0M111.22,137.63h39.8M111.22,116h39.8M111.22,94.37h39.8M90.22,116A24.62,24.83 0,0 1,65.6 140.83,24.62 24.83,0 0,1 40.98,116 24.62,24.83 0,0 1,65.6 91.17,24.62 24.83,0 0,1 90.22,116ZM40.66,66.24H151.34c10.34,0 18.66,8.32 18.66,18.66v62.2c0,10.34 -8.32,18.66 -18.66,18.66H40.66c-10.34,0 -18.66,-8.32 -18.66,-18.66V84.9c0,-10.34 8.32,-18.66 18.66,-18.66z" fill="#000000" fill-opacity="0.0" stroke="#000000" stroke-linecap="round" stroke-linejoin="miter" stroke-width="12"/>
</svg>