<svg id="vector" xmlns="http://www.w3.org/2000/svg" width="192" height="192" viewBox="0 0 192 192"><path fill="#00000000" d="m91.226,22c-9.436,0 -17.032,7.596 -17.032,17.032v8.516h-36.194v36.194h8.516c9.436,0 17.032,7.596 17.032,17.032 0,9.436 -7.596,17.032 -17.032,17.032h-8.516v36.194h36.194v-8.516c0,-9.436 7.596,-17.032 17.032,-17.032s17.032,7.596 17.032,17.032v8.516h36.194v-36.194h8.516c9.436,0 17.032,-7.596 17.032,-17.032 0,-9.436 -7.596,-17.032 -17.032,-17.032h-8.516v-36.194h-36.194v-8.516c0,-9.436 -7.596,-17.032 -17.032,-17.032z" stroke-linejoin="round" stroke-width="12" stroke="#000" stroke-linecap="round" id="path_0"/></svg>