<svg id="vector" xmlns="http://www.w3.org/2000/svg" width="192" height="192" viewBox="0 0 192 192"><path fill="#00000000" d="M21.87,116.01L21.87,75.98L49.68,75.98" stroke-linejoin="round" stroke-width="12" stroke="#000000" stroke-linecap="round" id="path_0"/><path fill="#00000000" d="m21.87,95.99 l17.44,0" stroke-linejoin="round" stroke-width="12" stroke="#000000" stroke-linecap="round" id="path_1"/><path fill="#00000000" d="M65.03,116.42L65.03,75.58l14.31,0a13.78,14.86 90,1 1,0 27.57l-14.31,0" stroke-linejoin="round" stroke-width="12" stroke="#000000" stroke-linecap="round" id="path_2"/><path fill="#00000000" d="M94.21,116.42 L80.4,103.1" stroke-linejoin="round" stroke-width="12" stroke="#000000" stroke-linecap="round" id="path_3"/><path fill="#00000000" d="M146.33,76.58 L170.62,76.58l0,-0" stroke-linejoin="round" stroke-width="12" stroke="#000000" stroke-linecap="round" id="path_4"/><path fill="#00000000" d="M146.33,95.99 L170.62,95.99l0,-0" stroke-linejoin="round" stroke-width="12" stroke="#000000" stroke-linecap="round" id="path_5"/><path fill="#00000000" d="M146.33,115.41 L170.62,115.41l0,-0" stroke-linejoin="round" stroke-width="12" stroke="#000000" stroke-linecap="round" id="path_6"/><path fill="#00000000" d="M109.05,76.59 L133.34,76.59l0,-0" stroke-linejoin="round" stroke-width="12" stroke="#000000" stroke-linecap="round" id="path_7"/><path fill="#00000000" d="M109.05,96 L133.34,96l0,-0" stroke-linejoin="round" stroke-width="12" stroke="#000000" stroke-linecap="round" id="path_8"/><path fill="#00000000" d="M109.05,115.42 L133.34,115.42l0,-0" stroke-linejoin="round" stroke-width="12" stroke="#000000" stroke-linecap="round" id="path_9"/></svg>