<?xml version="1.0" encoding="UTF-8" standalone="no"?><svg xmlns:android="http://schemas.android.com/apk/res/android" height="192" width="192" xmlns="http://www.w3.org/2000/svg">
  <path d="m112,22a58,58 0,0 0,-58 58v42a16,16 0,0 0,16 16h42a58,58 0,0 0,58 -58,58 58,0 0,0 -58,-58zM33.95,120.768a17,17 0,0 0,-11.95 16.232,17 17,0 0,0 16.066,16.934 17,17 0,0 0,16.934 16.066,17 17,0 0,0 16.232,-11.95" fill="#000000" fill-opacity="0.0" stroke="#000" stroke-linecap="round" stroke-linejoin="round" stroke-width="12"/>
</svg>