<svg id="vector" xmlns="http://www.w3.org/2000/svg" width="192" height="192" viewBox="0 0 50.8 50.8"><path fill="#00000000" d="M-15.179,6.086L-27.136,6.086c0,0 -18.551,-0.389 -18.551,19.496 0,19.884 18.551,19.662 18.551,19.662l12.044,0z" stroke-linejoin="round" stroke-width="3.175" stroke="#000000" stroke-linecap="round" id="path_0"/><path fill="#00000000" d="M36.884,13.572L36.884,5.817L25.014,5.817c0,0 -16.143,-0.473 -16.143,19.349 0,19.822 15.036,19.819 17.656,19.819L41.929,44.984l0,-22.247L26.165,22.737l0,7.207l7.882,0l0,7.207L25.849,37.151c0,0 -3.56,-0.091 -5.442,-2.654 0,0 -1.81,-2.109 -1.81,-6.715 0,-4.606 0.079,-5.935 0.079,-5.935 0,0 -0.59,-6.987 6.779,-8.197z" stroke-linejoin="round" stroke-width="3.175" stroke="#000000" stroke-linecap="round" id="path_1"/></svg>