<?xml version="1.0" encoding="UTF-8" standalone="no"?><svg xmlns:android="http://schemas.android.com/apk/res/android" height="192" width="192" xmlns="http://www.w3.org/2000/svg">
  <path d="M59.336,160.279C45.157,152.191 34.05,139.643 27.745,124.587C21.439,109.531 20.288,92.813 24.472,77.035C28.655,61.257 37.938,47.305 50.875,37.351C63.812,27.397 79.677,22 96,22C112.323,22 128.188,27.397 141.125,37.351C154.062,47.305 163.345,61.257 167.528,77.035C171.712,92.813 170.561,109.531 164.255,124.587C157.95,139.643 146.843,152.191 132.664,160.279" fill="#000000" fill-opacity="0.0" stroke="#000000" stroke-linecap="round" stroke-width="12"/>
  <path d="M96,96m-32,0a32,32 0,1 1,64 0a32,32 0,1 1,-64 0" fill="#000000" fill-opacity="0.0" stroke="#000000" stroke-width="12"/>
</svg>