<svg id="vector" xmlns="http://www.w3.org/2000/svg" width="192" height="192" viewBox="0 0 192 192"><path fill="#00000000" d="M68,89H124" stroke-linejoin="round" stroke-width="12" stroke="#000000" stroke-linecap="round" id="path_0"/><path fill="#00000000" d="M68,113H124" stroke-linejoin="round" stroke-width="12" stroke="#000000" stroke-linecap="round" id="path_1"/><path fill="#00000000" d="M68,137H104" stroke-linejoin="round" stroke-width="12" stroke="#000000" stroke-linecap="round" id="path_2"/><path fill="#000000" d="M52,28C50.895,28 50,28.895 50,30V162C50,163.105 50.895,164 52,164H140C141.105,164 142,163.105 142,162V62H114C110.686,62 108,59.314 108,56V28H52ZM120,36.485L133.515,50H120V36.485ZM38,30C38,22.268 44.268,16 52,16H114C115.591,16 117.117,16.632 118.243,17.757L152.243,51.757C153.368,52.883 154,54.409 154,56V162C154,169.732 147.732,176 140,176H52C44.268,176 38,169.732 38,162V30Z" fill-rule="evenodd" id="path_3"/></svg>