<svg id="vector" xmlns="http://www.w3.org/2000/svg" width="192" height="192" viewBox="0 0 192 192"><path fill="#00000000" d="M74,30H62C44.327,30 30,44.327 30,62V74" stroke-width="12" stroke="#000000" stroke-linecap="round" id="path_0"/><path fill="#00000000" d="M118,30H130C147.673,30 162,44.327 162,62V74" stroke-width="12" stroke="#000000" stroke-linecap="round" id="path_1"/><path fill="#00000000" d="M74,162H62C44.327,162 30,147.673 30,130V118" stroke-width="12" stroke="#000000" stroke-linecap="round" id="path_2"/><path fill="#00000000" d="M96,96m-28,0a28,28 0,1 1,56 0a28,28 0,1 1,-56 0" stroke-width="12" stroke="#000000" id="path_3"/><path fill="#000000" d="M145,145m-17,0a17,17 0,1 1,34 0a17,17 0,1 1,-34 0" id="path_4"/></svg>