<svg id="vector" xmlns="http://www.w3.org/2000/svg" width="192" height="192" viewBox="0 0 192 192"><path fill="#00000000" d="M66,70m-44,0a44,44 0,1 1,88 0a44,44 0,1 1,-88 0" stroke-width="12" stroke="#000000" id="path_0"/><path fill="#00000000" d="M138,148m-18,0a18,18 0,1 1,36 0a18,18 0,1 1,-36 0" stroke-width="12" stroke="#000000" id="path_1"/><path fill="#000000" d="M167,73m-9,0a9,9 0,1 1,18 0a9,9 0,1 1,-18 0" id="path_2"/><path fill="#00000000" d="M138,97m-13,0a13,13 0,1 1,26 0a13,13 0,1 1,-26 0" stroke-width="12" stroke="#000000" id="path_3"/></svg>