<svg id="vector" xmlns="http://www.w3.org/2000/svg" width="192" height="192" viewBox="0 0 192 192"><path fill="#00000000" d="M96,170C136.869,170 170,136.869 170,96C170,55.131 136.869,22 96,22C55.131,22 22,55.131 22,96C22,136.869 55.131,170 96,170Z" stroke-linejoin="round" stroke-width="12" stroke="#000000" stroke-linecap="round" id="path_0"/><path fill="#00000000" d="M96,124C111.464,124 124,111.464 124,96C124,80.536 111.464,68 96,68C80.536,68 68,80.536 68,96C68,111.464 80.536,124 96,124Z" stroke-linejoin="round" stroke-width="12" stroke="#000000" stroke-linecap="round" id="path_1"/><path fill="#00000000" d="M96,68H162" stroke-width="12" stroke="#000000" id="path_2"/><path fill="#00000000" d="M120.249,110L87.249,167.158" stroke-width="12" stroke="#000000" id="path_3"/><path fill="#00000000" d="M71.751,110L38.751,52.842" stroke-width="12" stroke="#000000" id="path_4"/></svg>