<svg id="vector" xmlns="http://www.w3.org/2000/svg" width="192" height="192" viewBox="0 0 192 192"><path fill="#00000000" d="M133.26,62.86c3.5,3.92 13.15,16.27 13.15,33.14 0,19.61 -11.51,32.3 -14.2,35.08a55.53,55.53 0,0 0,-8.46 16.72c-2.13,7 -1.61,10.73 -4.63,14.8 -3.74,5.05 -10,6.75 -14.8,7.4H87.67c-4.89,-0.67 -11.1,-2.41 -14.8,-7.4 -3,-4 -2.48,-7.74 -4.62,-14.8a56,56 0,0 0,-8.31 -16.57C57.44,128.65 45.59,115.9 45.59,96A51.44,51.44 0,0 1,58.12 62.73,50.2 50.2,0 0,0 68.25,44.2c1.9,-6.62 1.41,-10.58 4.62,-14.8 3.79,-5 10,-6.72 14.8,-7.4h16.65c4.84,0.68 11,2.43 14.8,7.4 3.18,4.17 2.76,8.09 4.63,14.8A54.55,54.55 0,0 0,133.26 62.86Z" stroke-width="12" stroke="#000" id="path_0"/><path fill="#FF000000" d="M96,63.76A32.24,32.24 0,1 1,63.76 96,32.27 32.27,0 0,1 96,63.76m0,-8A40.24,40.24 0,1 0,136.24 96,40.25 40.25,0 0,0 96,55.76Z" id="path_1"/><path fill="#00000000" d="M82,86L96,96" stroke-width="8" stroke="#000" stroke-linecap="round" id="path_2"/><path fill="#00000000" d="M96,96L117,82" stroke-width="8" stroke="#000" stroke-linecap="round" id="path_3"/></svg>