<svg id="vector" xmlns="http://www.w3.org/2000/svg" width="192" height="192" viewBox="0 0 192 192"><path fill="#00000000" d="M63.5,25.5L114.5,25.5A41.5,41.5 0,0 1,156 67L156,67A41.5,41.5 0,0 1,114.5 108.5L63.5,108.5A41.5,41.5 0,0 1,22 67L22,67A41.5,41.5 0,0 1,63.5 25.5z" stroke-width="12" stroke="#000" id="path_0"/><path fill="#00000000" d="M128.5,131.5H94v35c-16.49,0 -47.23,-44.61 -53.92,-58.54A41.24,41.24 0,0 1,36 90h0A41.5,41.5 0,0 1,77.5 48.5h51A41.5,41.5 0,0 1,170 90h0A41.5,41.5 0,0 1,128.5 131.5Z" stroke-linejoin="round" stroke-width="12" stroke="#000" id="path_1"/></svg>