<svg id="vector" xmlns="http://www.w3.org/2000/svg" width="192" height="192" viewBox="0 0 192 192"><path fill="#00000000" d="M96,22L96,96C116.435,96 133,79.435 133,59C133,38.565 116.435,22 96,22Z" stroke-linejoin="round" stroke-width="12" stroke="#000000" id="path_0"/><path fill="#00000000" d="M96,96L96,170C75.565,170 59,153.435 59,133C59,112.565 75.565,96 96,96Z" stroke-linejoin="round" stroke-width="12" stroke="#000000" id="path_1"/><path fill="#00000000" d="M170,96L96,96C96,116.435 112.565,133 133,133C153.435,133 170,116.435 170,96Z" stroke-linejoin="round" stroke-width="12" stroke="#000000" id="path_2"/><path fill="#00000000" d="M96,96L22,96C22,75.565 38.565,59 59,59C79.435,59 96,75.565 96,96Z" stroke-linejoin="round" stroke-width="12" stroke="#000000" id="path_3"/></svg>