<svg id="vector" xmlns="http://www.w3.org/2000/svg" width="192" height="192" viewBox="0 0 192 192"><defs><clipPath id="clip_path_0"><path d="M0,0h192v192h-192z"/></clipPath></defs><g id="g_0"><path fill="#00000000" d="M135.214,33.244C121.118,24.436 104.467,20.63 87.944,22.44C71.421,24.249 55.988,31.569 44.133,43.22C32.277,54.87 24.689,70.172 22.592,86.661C20.494,103.15 24.009,119.865 32.57,134.113C41.131,148.36 54.239,159.311 69.783,165.2C85.326,171.089 102.4,171.573 118.252,166.575C134.105,161.577 147.813,151.387 157.168,137.648C166.522,123.908 170.979,107.419 169.82,90.838" stroke-width="12" stroke="#000000" stroke-linecap="round" clip-path="url(#clip_path_0)"/><path fill="#00000000" d="M67.716,90.343L96,118.627L169.539,45.088" stroke-linejoin="round" stroke-width="12" stroke="#000000" stroke-linecap="round"/></g></svg>