<?xml version="1.0" encoding="UTF-8" standalone="no"?><svg xmlns:android="http://schemas.android.com/apk/res/android" height="192" width="192" xmlns="http://www.w3.org/2000/svg">
  <path d="M74,30H62C44.327,30 30,44.327 30,62V74" fill="#000000" fill-opacity="0.0" stroke="#000000" stroke-linecap="round" stroke-width="12"/>
  <path d="M118,30H130C147.673,30 162,44.327 162,62V74" fill="#000000" fill-opacity="0.0" stroke="#000000" stroke-linecap="round" stroke-width="12"/>
  <path d="M74,162H62C44.327,162 30,147.673 30,130V118" fill="#000000" fill-opacity="0.0" stroke="#000000" stroke-linecap="round" stroke-width="12"/>
  <path d="M96,96m-28,0a28,28 0,1 1,56 0a28,28 0,1 1,-56 0" fill="#000000" fill-opacity="0.0" stroke="#000000" stroke-width="12"/>
  <path d="M145,145m-17,0a17,17 0,1 1,34 0a17,17 0,1 1,-34 0" fill="#000000"/>
</svg>