<svg id="vector" xmlns="http://www.w3.org/2000/svg" width="192" height="192" viewBox="0 0 192 192"><path fill="#00000000" d="M38,42L154,42A16,16 0,0 1,170 58L170,134A16,16 0,0 1,154 150L38,150A16,16 0,0 1,22 134L22,58A16,16 0,0 1,38 42z" stroke-width="12" stroke="#000000" id="path_0"/><path fill="#00000000" d="M57,74h78v44h-78z" stroke-linejoin="round" stroke-width="12" stroke="#000000" id="path_1"/><path fill="#00000000" d="M57,85V62C57,50.954 65.954,42 77,42V42" stroke-linejoin="round" stroke-width="12" stroke="#000000" stroke-linecap="round" id="path_2"/><path fill="#00000000" d="M125.5,74H150C161.046,74 170,82.954 170,94V94" stroke-linejoin="round" stroke-width="12" stroke="#000000" stroke-linecap="round" id="path_3"/><path fill="#00000000" d="M65,118L42,118C30.954,118 22,109.046 22,98V98" stroke-linejoin="round" stroke-width="12" stroke="#000000" stroke-linecap="round" id="path_4"/><path fill="#00000000" d="M135,106V130C135,141.046 126.046,150 115,150V150" stroke-linejoin="round" stroke-width="12" stroke="#000000" stroke-linecap="round" id="path_5"/></svg>