<?xml version="1.0" encoding="UTF-8" standalone="no"?><svg xmlns:android="http://schemas.android.com/apk/res/android" height="192" width="192" xmlns="http://www.w3.org/2000/svg">
  <path d="M96,28A19.8,19.8 0,1 1,76.21 47.79,19.82 19.82,0 0,1 96,28m0,-12a31.8,31.8 0,1 0,31.79 31.79A31.79,31.79 0,0 0,96 16Z" fill="#000000" fill-opacity="1.0"/>
  <path d="M88.89,100h11a32.82,32.82 0,0 1,32.82 32.82v4.31A32.82,32.82 0,0 1,99.9 169.95H46.31a8,8 0,0 1,-8 -8V150.59A50.59,50.59 0,0 1,88.89 100Z" fill="#000000" fill-opacity="0.0" stroke="#000" stroke-linejoin="round" stroke-width="12"/>
  <path d="M92.1,100h28.79a32.82,32.82 0,0 1,32.82 32.82v4.31a32.82,32.82 0,0 1,-32.82 32.82H67.23a8,8 0,0 1,-8 -8V132.82A32.82,32.82 0,0 1,92.1 100Z" fill="#000000" fill-opacity="0.0" stroke="#000" stroke-linejoin="round" stroke-width="12"/>
</svg>