<svg id="vector" xmlns="http://www.w3.org/2000/svg" width="192" height="192" viewBox="0 0 192 192"><path fill="#FF000000" d="M153.58,40A10.43,10.43 0,0 1,164 50.42v91.16A10.43,10.43 0,0 1,153.58 152H38.42A10.43,10.43 0,0 1,28 141.58V50.42A10.43,10.43 0,0 1,38.42 40H153.58m0,-12H38.42A22.42,22.42 0,0 0,16 50.42v91.16A22.42,22.42 0,0 0,38.42 164H153.58A22.42,22.42 0,0 0,176 141.58V50.42A22.42,22.42 0,0 0,153.58 28Z" id="path_0"/><path fill="#00000000" d="M24,85.5l104,24.79l43,-22.79" stroke-linejoin="round" stroke-width="12" stroke="#000" id="path_1"/><path fill="#00000000" d="M170,80.5l-14.57,-10.21l-117.72,0l-13.71,8.21" stroke-linejoin="round" stroke-width="12" stroke="#000" id="path_2"/><path fill="#00000000" d="M170,62.21l-14.57,-10.21l-117.72,0l-13.71,8.21" stroke-linejoin="round" stroke-width="12" stroke="#000" id="path_3"/></svg>