<?xml version="1.0" encoding="UTF-8" standalone="no"?><svg xmlns:android="http://schemas.android.com/apk/res/android" height="192" width="192" xmlns="http://www.w3.org/2000/svg">
  <path d="M29.56,78.961L22.42,135.193C20.979,146.54 34.722,153.278 42.81,145.19L70,118H122L149.19,145.19C157.278,153.278 171.021,146.54 169.58,135.193L162.44,78.961C159.902,58.978 142.901,44 122.758,44H69.242C49.099,44 32.098,58.978 29.56,78.961Z" fill="#000000" fill-opacity="0.0" stroke="#000000" stroke-linejoin="round" stroke-width="12"/>
  <path d="M66,69V81M66,93V81M66,81H54M66,81H78" fill="#000000" fill-opacity="0.0" stroke="#000000" stroke-linecap="round" stroke-width="12"/>
  <path d="M126,69m-6,0a6,6 0,1 1,12 0a6,6 0,1 1,-12 0" fill="#000000"/>
  <path d="M126,93m-6,0a6,6 0,1 1,12 0a6,6 0,1 1,-12 0" fill="#000000"/>
  <path d="M138,81m-0,-6a6,6 0,1 1,-0 12a6,6 0,1 1,-0 -12" fill="#000000"/>
  <path d="M114,81m-0,-6a6,6 0,1 1,-0 12a6,6 0,1 1,-0 -12" fill="#000000"/>
</svg>