<?xml version="1.0" encoding="UTF-8" standalone="no"?><svg xmlns:android="http://schemas.android.com/apk/res/android" height="192" width="192" xmlns="http://www.w3.org/2000/svg">
  <path d="M96,28c37.5,0 68,30.5 68,68s-30.5,68 -68,68S28,133.5 28,96 58.5,28 96,28m0,-12c-44.18,0 -80,35.82 -80,80s35.82,80 80,80 80,-35.82 80,-80S140.18,16 96,16h0Z" fill="#000000" fill-opacity="1.0"/>
  <path d="M65,29c23.02,5.94 35.64,16.23 43,25 11.65,13.89 12.61,26.97 27,37 10.28,7.17 21.71,8.8 30,9" fill="#000000" fill-opacity="0.0" stroke="#000" stroke-width="12"/>
  <path d="M29,68c8.34,-2.82 20.66,-5.43 33,-1 27.43,9.85 27.88,44.73 57,59 8.14,3.99 20.83,7.5 40,4" fill="#000000" fill-opacity="0.0" stroke="#000" stroke-width="12"/>
  <path d="M27,111c5.61,-4.04 14.02,-8.64 23,-7 14.95,2.74 18.81,20.5 35,36 8.31,7.96 21.97,17.33 45,22" fill="#000000" fill-opacity="0.0" stroke="#000" stroke-width="12"/>
  <path d="M122,28c2.24,6.57 7.4,18.8 19,30 9.29,8.98 18.92,13.63 25,16" fill="#000000" fill-opacity="0.0" stroke="#000" stroke-width="12"/>
</svg>