<svg id="vector" xmlns="http://www.w3.org/2000/svg" width="192" height="192" viewBox="0 0 50.8 50.8"><path fill="#00000000" d="M28.922,38.093a4.785,4.785 89.145,1 0,9.57 0a4.785,4.785 89.145,1 0,-9.57 0z" stroke-linejoin="round" stroke-width="3.175" stroke="#000000" stroke-linecap="round" id="path_0"/><path fill="#00000000" d="M11.656,13.103a4.785,4.785 89.145,1 0,9.57 0a4.785,4.785 89.145,1 0,-9.57 0z" stroke-linejoin="round" stroke-width="3.175" stroke="#000000" stroke-linecap="round" id="path_1"/><path fill="#00000000" d="m44.877,5.857c0,0 -4.375,25.839 -7.656,28.915" stroke-linejoin="miter" stroke-width="3.175" stroke="#000000" stroke-linecap="round" id="path_2"/><path fill="#00000000" d="m6.039,45.003c0,0 3.533,-24.997 6.814,-28.073" stroke-linejoin="miter" stroke-width="3.175" stroke="#000000" stroke-linecap="round" id="path_3"/><path fill="#00000000" d="m20.406,15.905c0,0 2.461,2.598 4.648,9.091 0,0 2.256,7.177 5.058,9.912" stroke-linejoin="miter" stroke-width="3.175" stroke="#000000" stroke-linecap="butt" id="path_4"/></svg>