<?xml version="1.0" encoding="utf-8" standalone="no"?><svg xmlns:android="http://schemas.android.com/apk/res/android" height="192" width="192" xmlns="http://www.w3.org/2000/svg">

    <path android:strokeMiterLimit="57.5" d="M 103.79342,48.641385 a 53.058105,53.058105 0 0 1 64.24371,29.752824 53.058105,53.058105 0 0 1 -22.52341,67.120651" stroke="#000000" stroke-linecap="round" stroke-linejoin="round" stroke-width="8"/>
    <path android:strokeMiterLimit="57.5" d="M 107.91575,58.831986 a 41.721878,41.721878 0 0 1 49.73249,23.40233 41.721878,41.721878 0 0 1 -16.61932,52.390714" stroke="#000000" stroke-linecap="round" stroke-linejoin="round" stroke-width="8"/>
    <path android:strokeMiterLimit="57.5" d="M 113.10133,70.999112 a 29.19136,29.19136 0 0 1 33.77095,16.544216 29.19136,29.19136 0 0 1 -10.55467,36.094142" stroke="#000000" stroke-linecap="round" stroke-linejoin="round" stroke-width="8"/>
    <path android:strokeMiterLimit="57.5" d="M 72.490665,104.02667 A 26.568031,26.568031 0 0 1 46.758527,125.52301 26.568031,26.568031 0 0 1 20.4725,104.70763 a 26.568031,26.568031 0 0 1 15.026272,-29.9741 26.568031,26.568031 0 0 1 32.40598,8.607426" stroke="#000000" stroke-linecap="round" stroke-linejoin="round" stroke-width="8"/>
    <path android:strokeMiterLimit="57.5" d="M 76.284975,125.375 100.21473,72.157021 124.16079,125.375" stroke="#000000" stroke-linecap="round" stroke-linejoin="round" stroke-width="8"/>
    <path android:strokeMiterLimit="57.5" d="M 87.960717,104.005 H 102.50409" stroke="#000000" stroke-linecap="round" stroke-linejoin="round" stroke-width="8"/>
    <path android:strokeMiterLimit="57.5" d="M 72.440588,104.04283 H 43.034807" stroke="#000000" stroke-linecap="round" stroke-linejoin="round" stroke-width="8.07566"/>
</svg>