<svg id="vector" xmlns="http://www.w3.org/2000/svg" width="192" height="192" viewBox="0 0 50.8 50.8"><path fill="#00000000" d="M10.186,10.236h26.033v34.743h-26.033z" stroke-linejoin="round" stroke-width="3.175" stroke="#000000" stroke-linecap="round" id="path_0"/><path fill="#00000000" d="m10.186,10.236 l4.454,-4.416H40.491V40.345l-4.272,4.635" stroke-linejoin="round" stroke-width="3.175" stroke="#000000" stroke-linecap="round" id="path_1"/><path fill="#00000000" d="m26.484,18.887c0,0 -0.645,-3.252 -3.176,-3.252 0,0 -3.279,0 -3.279,3.51 0,0 -0.31,2.529 3.795,4.464 0,0 2.685,1.187 2.685,3.897 0,0 0.062,3.491 -3.966,3.027" stroke-linejoin="round" stroke-width="3.175" stroke="#000000" stroke-linecap="round" id="path_2"/><path fill="#00000000" d="m19.885,35.256c0,0 0.645,3.252 3.176,3.252 0,0 3.279,0 3.279,-3.51 0,0 0.31,-2.529 -3.795,-4.464 0,0 -2.685,-1.187 -2.685,-3.897 0,0 -0.06,-3.389 3.79,-3.045" stroke-linejoin="round" stroke-width="3.175" stroke="#000000" stroke-linecap="round" id="path_3"/><path fill="#00000000" d="M20.538,28.621a3.553,3.068 59.632,1 0,5.294 -3.102a3.553,3.068 59.632,1 0,-5.294 3.102z" stroke-linejoin="round" stroke-width="3.175" stroke="#000000" stroke-linecap="round" id="path_4"/></svg>