<svg id="vector" xmlns="http://www.w3.org/2000/svg" width="192" height="192" viewBox="0 0 50.8 50.8"><path fill="#00000000" d="m29.656,18.978v-8.333c0,0 0.34,-4.762 -4.422,-4.762 0,0 -4.166,-0.135 -4.166,4.166V22.634L17.071,12.43c0,0 -1.574,-4.146 -5.697,-2.381 0,0 -3.996,1.19 -2.636,5.442L14.691,30.967v9.438c0,0 0,4.592 3.826,4.507l16.332,0.029c0,0 3.608,0.331 4.419,-3.036l2.375,-9.62c0.271,-0.956 0.06,-4.85 0.09,-7.275 0,0 -0.12,-4.539 -5.351,-3.457 0,0 -1.547,-5.48 -6.726,-2.575z" stroke-linejoin="round" stroke-width="3.175" stroke="#000000" stroke-linecap="round" id="path_0"/><path fill="#00000000" d="m14.895,33.805 l3.856,-3.856c0,0 1.109,-0.951 2.271,-1.004 1.162,-0.053 6.761,-0.106 6.761,-0.106 0,0 3.013,-0.025 3.116,3.116 0,0 0.236,2.641 -2.43,2.958h-5.757" stroke-linejoin="miter" stroke-width="1.5875" stroke="#000000" stroke-linecap="round" id="path_1"/><path fill="#00000000" d="m26.146,28.945 l4.792,-10.789 -2.073,0.621 -0.056,4.118" stroke-linejoin="miter" stroke-width="1.5875" stroke="#000000" stroke-linecap="butt" id="path_2"/><path fill="#00000000" d="M36.181,21.656 L31.086,32.238c0,0 -0.997,2.209 1.081,3.626 0,0 2.958,1.796 4.542,-1.056l4.12,-9.138" stroke-linejoin="miter" stroke-width="1.5875" stroke="#000000" stroke-linecap="square" id="path_3"/><path fill="#00000000" d="m29.638,21.065a3.077,3.077 68.92,0 1,2.487 -1.812,3.077 3.077,68.92 0,1 2.813,1.248 3.077,3.077 68.92,0 1,0.326 3.06" stroke-linejoin="round" stroke-width="1.5875" stroke="#000000" stroke-linecap="butt" id="path_4"/><path fill="#00000000" d="m34.743,24.646a2.986,2.986 71.62,0 1,2.493 -1.643,2.986 2.986,71.62 0,1 2.669,1.338 2.986,2.986 71.62,0 1,0.176 2.981" stroke-linejoin="round" stroke-width="1.5875" stroke="#000000" stroke-linecap="butt" id="path_5"/></svg>