<?xml version="1.0" encoding="UTF-8" standalone="no"?><svg xmlns:android="http://schemas.android.com/apk/res/android" height="50.8" width="50.8" xmlns="http://www.w3.org/2000/svg">
  <path d="M5.844,44.98L5.844,23.769" fill="#000000" fill-opacity="0.0" stroke="#010000" stroke-linecap="round" stroke-linejoin="round" stroke-width="3.175"/>
  <path d="M5.844,18.874m-1.631,0a1.631,1.631 0,1 1,3.262 0a1.631,1.631 0,1 1,-3.262 0" fill="#000000" fill-opacity="1.0" stroke-width="3.175"/>
  <path d="M16.449,44.98L16.449,20.506" fill="#000000" fill-opacity="0.0" stroke="#010000" stroke-linecap="round" stroke-linejoin="round" stroke-width="3.175"/>
  <path d="M30.726,20.098m-14.277,0a14.277,14.277 135,1 1,28.554 0a14.277,14.277 0,1 1,-28.554 0" fill="#000000" fill-opacity="0.0" stroke="#010000" stroke-linecap="round" stroke-linejoin="round" stroke-width="3.175"/>
  <path d="M30.726,20.098m-5.71,0a5.71,5.71 0,1 1,11.421 0a5.71,5.71 0,1 1,-11.421 0" fill="#000000" fill-opacity="0.0" stroke="#010000" stroke-linecap="round" stroke-linejoin="round" stroke-width="3.175"/>
</svg>