<svg id="vector" xmlns="http://www.w3.org/2000/svg" width="192" height="192" viewBox="0 0 50.8 50.8"><path fill="#00000000" d="M5.844,44.98L5.844,23.769" stroke-linejoin="round" stroke-width="3.175" stroke="#010000" stroke-linecap="round" id="path_0"/><path fill="#FF000000" d="M5.844,18.874m-1.631,0a1.631,1.631 0,1 1,3.262 0a1.631,1.631 0,1 1,-3.262 0" stroke-width="3.175" id="path_1"/><path fill="#00000000" d="M16.449,44.98L16.449,20.506" stroke-linejoin="round" stroke-width="3.175" stroke="#010000" stroke-linecap="round" id="path_2"/><path fill="#00000000" d="M30.726,20.098m-14.277,0a14.277,14.277 135,1 1,28.554 0a14.277,14.277 0,1 1,-28.554 0" stroke-linejoin="round" stroke-width="3.175" stroke="#010000" stroke-linecap="round" id="path_3"/><path fill="#00000000" d="M30.726,20.098m-5.71,0a5.71,5.71 0,1 1,11.421 0a5.71,5.71 0,1 1,-11.421 0" stroke-linejoin="round" stroke-width="3.175" stroke="#010000" stroke-linecap="round" id="path_4"/></svg>