<svg id="vector" xmlns="http://www.w3.org/2000/svg" width="108" height="108" viewBox="0 0 108 108"><path fill="#3DDC84" d="M0,0h108v108h-108z" id="path_0"/><path fill="#00000000" d="M9,0L9,108" stroke-width="0.8" stroke="#33FFFFFF" id="path_1"/><path fill="#00000000" d="M19,0L19,108" stroke-width="0.8" stroke="#33FFFFFF" id="path_2"/><path fill="#00000000" d="M29,0L29,108" stroke-width="0.8" stroke="#33FFFFFF" id="path_3"/><path fill="#00000000" d="M39,0L39,108" stroke-width="0.8" stroke="#33FFFFFF" id="path_4"/><path fill="#00000000" d="M49,0L49,108" stroke-width="0.8" stroke="#33FFFFFF" id="path_5"/><path fill="#00000000" d="M59,0L59,108" stroke-width="0.8" stroke="#33FFFFFF" id="path_6"/><path fill="#00000000" d="M69,0L69,108" stroke-width="0.8" stroke="#33FFFFFF" id="path_7"/><path fill="#00000000" d="M79,0L79,108" stroke-width="0.8" stroke="#33FFFFFF" id="path_8"/><path fill="#00000000" d="M89,0L89,108" stroke-width="0.8" stroke="#33FFFFFF" id="path_9"/><path fill="#00000000" d="M99,0L99,108" stroke-width="0.8" stroke="#33FFFFFF" id="path_10"/><path fill="#00000000" d="M0,9L108,9" stroke-width="0.8" stroke="#33FFFFFF" id="path_11"/><path fill="#00000000" d="M0,19L108,19" stroke-width="0.8" stroke="#33FFFFFF" id="path_12"/><path fill="#00000000" d="M0,29L108,29" stroke-width="0.8" stroke="#33FFFFFF" id="path_13"/><path fill="#00000000" d="M0,39L108,39" stroke-width="0.8" stroke="#33FFFFFF" id="path_14"/><path fill="#00000000" d="M0,49L108,49" stroke-width="0.8" stroke="#33FFFFFF" id="path_15"/><path fill="#00000000" d="M0,59L108,59" stroke-width="0.8" stroke="#33FFFFFF" id="path_16"/><path fill="#00000000" d="M0,69L108,69" stroke-width="0.8" stroke="#33FFFFFF" id="path_17"/><path fill="#00000000" d="M0,79L108,79" stroke-width="0.8" stroke="#33FFFFFF" id="path_18"/><path fill="#00000000" d="M0,89L108,89" stroke-width="0.8" stroke="#33FFFFFF" id="path_19"/><path fill="#00000000" d="M0,99L108,99" stroke-width="0.8" stroke="#33FFFFFF" id="path_20"/><path fill="#00000000" d="M19,29L89,29" stroke-width="0.8" stroke="#33FFFFFF" id="path_21"/><path fill="#00000000" d="M19,39L89,39" stroke-width="0.8" stroke="#33FFFFFF" id="path_22"/><path fill="#00000000" d="M19,49L89,49" stroke-width="0.8" stroke="#33FFFFFF" id="path_23"/><path fill="#00000000" d="M19,59L89,59" stroke-width="0.8" stroke="#33FFFFFF" id="path_24"/><path fill="#00000000" d="M19,69L89,69" stroke-width="0.8" stroke="#33FFFFFF" id="path_25"/><path fill="#00000000" d="M19,79L89,79" stroke-width="0.8" stroke="#33FFFFFF" id="path_26"/><path fill="#00000000" d="M29,19L29,89" stroke-width="0.8" stroke="#33FFFFFF" id="path_27"/><path fill="#00000000" d="M39,19L39,89" stroke-width="0.8" stroke="#33FFFFFF" id="path_28"/><path fill="#00000000" d="M49,19L49,89" stroke-width="0.8" stroke="#33FFFFFF" id="path_29"/><path fill="#00000000" d="M59,19L59,89" stroke-width="0.8" stroke="#33FFFFFF" id="path_30"/><path fill="#00000000" d="M69,19L69,89" stroke-width="0.8" stroke="#33FFFFFF" id="path_31"/><path fill="#00000000" d="M79,19L79,89" stroke-width="0.8" stroke="#33FFFFFF" id="path_32"/></svg>