<svg id="vector" xmlns="http://www.w3.org/2000/svg" width="192" height="192" viewBox="0 0 192 192"><path fill="#00000000" d="M45,103V137" stroke-width="12" stroke="#000000" stroke-linecap="round" id="path_0"/><path fill="#00000000" d="M65.419,103C65.419,103 65.419,126.247 65.419,131.827C65.419,137.406 69.484,139.731 74,138.801M60,112.764H71.29" stroke-width="12" stroke="#000000" stroke-linecap="round" id="path_1"/><path fill="#00000000" d="M87.438,112.995C100.854,108.815 109,110.673 109,123.675M109,123.675C109,123.675 86,120.889 86,132.499C86,141.593 108.042,137.607 109,133.427M109,123.675C109,123.675 109,127.987 109,133.427M109,139C109,139 109,135.604 109,133.427" stroke-width="12" stroke="#000000" stroke-linecap="round" id="path_2"/><path fill="#00000000" d="M147,111.647C147,111.647 147,120.215 147,128.118M147,138C147,138 147,130.507 147,128.118M124.098,111.647C124.098,111.647 123.878,120.218 124.098,128.118C124.556,144.588 147,137.529 147,128.118M136.007,103.647L140.129,98" stroke-width="12" stroke="#000000" stroke-linecap="round" id="path_3"/><path fill="#00000000" d="M54,30L138,30A24,24 0,0 1,162 54L162,138A24,24 0,0 1,138 162L54,162A24,24 0,0 1,30 138L30,54A24,24 0,0 1,54 30z" stroke-width="12" stroke="#000000" id="path_4"/></svg>