<svg id="vector" xmlns="http://www.w3.org/2000/svg" width="24" height="24" viewBox="0 0 24 24"><path fill="#000000" d="m12.0012,9.6628c-0.8768,0 -3.7047,5.1272 -3.2749,5.9911 0.4298,0.8638 6.1242,0.8552 6.5496,0 0.4254,-0.8553 -2.3938,-5.9911 -3.2748,-5.9911z" id="path_0"/><path fill="#000000" d="M12.0011,2C9.3538,2 0.8358,17.446 2.1337,20.0548c1.2979,2.6087 18.4499,2.5785 19.7349,0C23.1536,17.4761 14.6486,2 12.0011,2ZM18.4692,17.7941c-0.8423,1.689 -12.0808,1.7105 -12.9317,0C4.6865,16.0836 10.2692,5.9625 12.0011,5.9625c1.732,0 7.3104,10.1383 6.4681,11.8316z" id="path_1"/></svg>