<svg id="vector" xmlns="http://www.w3.org/2000/svg" width="192" height="192" viewBox="0 0 192 192"><path fill="#00000000" d="M42,30h30v132h-30z" stroke-width="12" stroke="#000000" id="path_0"/><path fill="#000000" d="M152,162V168L157.603,159.854L152,162ZM118,162L112.345,164.006L118,168V162ZM96,100L90.92,96.807C89.943,98.361 89.732,100.277 90.345,102.006L96,100ZM110.397,70.146L146.397,164.146L157.603,159.854L121.603,65.854L110.397,70.146ZM152,156H118V168H152V156ZM123.655,159.994L101.655,97.993L90.345,102.006L112.345,164.006L123.655,159.994ZM101.08,103.193L145.08,33.193L134.92,26.807L90.92,96.807L101.08,103.193Z" id="path_1"/><path fill="#00000000" d="M30,30H84" stroke-width="12" stroke="#000000" stroke-linecap="round" id="path_2"/><path fill="#00000000" d="M114,30L152,30" stroke-width="12" stroke="#000000" stroke-linecap="round" id="path_3"/><path fill="#00000000" d="M30,162H84" stroke-width="12" stroke="#000000" stroke-linecap="round" id="path_4"/><path fill="#00000000" d="M104,162H162" stroke-width="12" stroke="#000000" stroke-linecap="round" id="path_5"/></svg>