<svg id="vector" xmlns="http://www.w3.org/2000/svg" width="192" height="192" viewBox="0 0 192 192"><path fill="#000" d="M40.5,96m-16.5,0a16.5,16.5 0,1 1,33 0a16.5,16.5 0,1 1,-33 0" id="path_0"/><path fill="#000" d="M85.125,96m-16.5,0a16.5,16.5 0,1 1,33 0a16.5,16.5 0,1 1,-33 0" id="path_1"/><path fill="#000" d="M130.125,96m-16.5,0a16.5,16.5 0,1 1,33 0a16.5,16.5 0,1 1,-33 0" id="path_2"/><path fill="#000" d="M161.94,60L166.56,60A1.44,1.44 0,0 1,168 61.44L168,130.56A1.44,1.44 0,0 1,166.56 132L161.94,132A1.44,1.44 0,0 1,160.5 130.56L160.5,61.44A1.44,1.44 0,0 1,161.94 60z" id="path_3"/></svg>