<?xml version="1.0" encoding="UTF-8" standalone="no"?><svg xmlns:android="http://schemas.android.com/apk/res/android" height="50.8" width="50.8" xmlns="http://www.w3.org/2000/svg">
  <path android:fillAlpha="0" android:strokeAlpha="0.996" d="M14.523,16.698a8.703,8.703 0,0 1,0 17.404,8.703 8.703,0 0,1 0,-17.404z" fill="#000000" fill-opacity="0.0" stroke="#000" stroke-linecap="square" stroke-width="3.17505468"/>
  <path android:fillAlpha="0" d="M36.277,16.698a8.703,8.703 0,0 1,0 17.404,8.703 8.703,0 0,1 0,-17.404z" fill="#000000" fill-opacity="0.0" stroke="#000" stroke-linecap="square" stroke-width="3.17505468"/>
  <path android:fillAlpha="0" d="M29.75,38.453H21.05l4.35,6.526z" fill="#000000" fill-opacity="0.0" stroke="#000" stroke-linecap="round" stroke-linejoin="round" stroke-width="3.17505468"/>
  <path android:fillAlpha="0" android:strokeAlpha="0.996" d="M14.523,21.049v8.702" fill="#000000" fill-opacity="0.0" stroke="#000" stroke-linecap="round" stroke-linejoin="round" stroke-width="3.17505468"/>
  <path android:fillAlpha="0" d="M10.172,25.4h8.701" fill="#000000" fill-opacity="0.0" stroke="#000" stroke-linecap="round" stroke-linejoin="round" stroke-width="3.17505468"/>
  <path d="M36.276,29.751m-1.588,0a1.588,1.588 0,1 1,3.175 0a1.588,1.588 0,1 1,-3.175 0" fill="#000000" fill-opacity="1.0" stroke-linecap="round" stroke-linejoin="round" stroke-width="3.089"/>
  <path d="M36.276,21.049m-1.588,0a1.588,1.588 0,1 1,3.175 0a1.588,1.588 0,1 1,-3.175 0" fill="#000000" fill-opacity="1.0" stroke-linecap="round" stroke-linejoin="round" stroke-width="3.089"/>
  <path d="M40.627,25.4m0,1.588a1.588,1.588 0,1 1,0 -3.175a1.588,1.588 0,1 1,0 3.175" fill="#000000" fill-opacity="1.0" stroke-linecap="round" stroke-linejoin="round" stroke-width="3.089"/>
  <path d="M31.926,25.4m0,1.588a1.588,1.588 0,1 1,0 -3.175a1.588,1.588 0,1 1,0 3.175" fill="#000000" fill-opacity="1.0" stroke-linecap="round" stroke-linejoin="round" stroke-width="3.089"/>
</svg>