<svg id="vector" xmlns="http://www.w3.org/2000/svg" width="192" height="192" viewBox="0 0 50.8 50.8"><path fill="#00000000" d="M14.523,16.698a8.703,8.703 0,0 1,0 17.404,8.703 8.703,0 0,1 0,-17.404z" stroke-width="3.17505468" stroke="#000" stroke-linecap="square" id="path_0"/><path fill="#00000000" d="M36.277,16.698a8.703,8.703 0,0 1,0 17.404,8.703 8.703,0 0,1 0,-17.404z" stroke-width="3.17505468" stroke="#000" stroke-linecap="square" id="path_1"/><path fill="#00000000" d="M29.75,38.453H21.05l4.35,6.526z" stroke-linejoin="round" stroke-width="3.17505468" stroke="#000" stroke-linecap="round" id="path_2"/><path fill="#00000000" d="M14.523,21.049v8.702" stroke-linejoin="round" stroke-width="3.17505468" stroke="#000" stroke-linecap="round" id="path_3"/><path fill="#00000000" d="M10.172,25.4h8.701" stroke-linejoin="round" stroke-width="3.17505468" stroke="#000" stroke-linecap="round" id="path_4"/><path fill="#FF000000" d="M36.276,29.751m-1.588,0a1.588,1.588 0,1 1,3.175 0a1.588,1.588 0,1 1,-3.175 0" stroke-linejoin="round" stroke-width="3.089" stroke-linecap="round" id="path_5"/><path fill="#FF000000" d="M36.276,21.049m-1.588,0a1.588,1.588 0,1 1,3.175 0a1.588,1.588 0,1 1,-3.175 0" stroke-linejoin="round" stroke-width="3.089" stroke-linecap="round" id="path_6"/><path fill="#FF000000" d="M40.627,25.4m0,1.588a1.588,1.588 0,1 1,0 -3.175a1.588,1.588 0,1 1,0 3.175" stroke-linejoin="round" stroke-width="3.089" stroke-linecap="round" id="path_7"/><path fill="#FF000000" d="M31.926,25.4m0,1.588a1.588,1.588 0,1 1,0 -3.175a1.588,1.588 0,1 1,0 3.175" stroke-linejoin="round" stroke-width="3.089" stroke-linecap="round" id="path_8"/></svg>