<svg id="vector" xmlns="http://www.w3.org/2000/svg" width="192" height="192" viewBox="0 0 192 192"><path fill="#00000000" d="M46,30L146,30A16,16 0,0 1,162 46L162,146A16,16 0,0 1,146 162L46,162A16,16 0,0 1,30 146L30,46A16,16 0,0 1,46 30z" stroke-width="12" stroke="#000000" id="path_0"/><path fill="#00000000" d="M66,86L66,130" stroke-linejoin="round" stroke-width="12" stroke="#000000" stroke-linecap="round" id="path_1"/><path fill="#000000" d="M66,64m-8,0a8,8 0,1 1,16 0a8,8 0,1 1,-16 0" id="path_2"/><path fill="#00000000" d="M126,130V104C126,94.059 117.941,86 108,86V86C98.059,86 90,94.059 90,104V130" stroke-width="12" stroke="#000000" stroke-linecap="round" id="path_3"/></svg>