<?xml version="1.0" encoding="UTF-8" standalone="no"?><svg xmlns:android="http://schemas.android.com/apk/res/android" height="192" width="192" xmlns="http://www.w3.org/2000/svg">
  <path d="M46,30L146,30A16,16 0,0 1,162 46L162,146A16,16 0,0 1,146 162L46,162A16,16 0,0 1,30 146L30,46A16,16 0,0 1,46 30z" fill="#000000" fill-opacity="0.0" stroke="#000000" stroke-width="12"/>
  <path d="M66,86L66,130" fill="#000000" fill-opacity="0.0" stroke="#000000" stroke-linecap="round" stroke-linejoin="round" stroke-width="12"/>
  <path d="M66,64m-8,0a8,8 0,1 1,16 0a8,8 0,1 1,-16 0" fill="#000000"/>
  <path d="M126,130V104C126,94.059 117.941,86 108,86V86C98.059,86 90,94.059 90,104V130" fill="#000000" fill-opacity="0.0" stroke="#000000" stroke-linecap="round" stroke-width="12"/>
</svg>