<svg id="vector" xmlns="http://www.w3.org/2000/svg" width="192" height="192" viewBox="0 0 192 192"><path fill="#00000000" d="M64,72L78,86" stroke-linejoin="round" stroke-width="12" stroke="#000000" stroke-linecap="round" id="path_0"/><path fill="#00000000" d="M128,72L114,86" stroke-linejoin="round" stroke-width="12" stroke="#000000" stroke-linecap="round" id="path_1"/><path fill="#00000000" d="M96,176V136" stroke-linejoin="round" stroke-width="12" stroke="#000000" stroke-linecap="round" id="path_2"/><path fill="#00000000" d="M45.847,112C42.147,101.261 40,89.631 40,78C40,47.072 65.072,22 96,22C126.928,22 152,47.072 152,78C152,89.631 149.853,101.261 146.153,112M126.486,146C125.853,146.685 125.214,147.352 124.567,148C115.88,156.707 105.94,162 96,162C86.06,162 76.12,156.707 67.433,148C66.786,147.352 66.147,146.685 65.515,146" stroke-width="12" stroke="#000000" stroke-linecap="round" id="path_3"/><path fill="#00000000" d="M86,112C64,112 64,132 44,132C32,132 22,124 22,112" stroke-linejoin="round" stroke-width="12" stroke="#000000" stroke-linecap="round" id="path_4"/><path fill="#00000000" d="M106,112C128.076,112 128,132 148,132C160,132 170,124 170,112" stroke-linejoin="round" stroke-width="12" stroke="#000000" stroke-linecap="round" id="path_5"/></svg>