<svg id="vector" xmlns="http://www.w3.org/2000/svg" width="192" height="192" viewBox="0 0 192 192"><path fill="#000000" d="M55.22,96m-6.04,0a6.04,6.04 90,1 1,12.08 0a6.04,6.04 90,1 1,-12.08 0" stroke-linejoin="round" stroke-width="12" stroke="#000000" stroke-linecap="square" id="path_0"/><path fill="#000000" d="M109.59,96m-6.04,0a6.04,6.04 90,1 1,12.08 0a6.04,6.04 90,1 1,-12.08 0" stroke-linejoin="round" stroke-width="12" stroke="#000000" stroke-linecap="square" id="path_1"/><path fill="#000000" d="M82.41,96m-6.04,0a6.04,6.04 90,1 1,12.08 0a6.04,6.04 90,1 1,-12.08 0" stroke-linejoin="round" stroke-width="12" stroke="#000000" stroke-linecap="square" id="path_2"/><path fill="#000000" d="M22.06,96.84a6.04,6.04 81.99,1 0,11.96 -1.68a6.04,6.04 81.99,1 0,-11.96 1.68z" stroke-linejoin="round" stroke-width="11.9182" stroke="#000000" stroke-linecap="square" id="path_3"/><path fill="#000000" d="M163.96,96m-6.04,0a6.04,6.04 90,1 1,12.08 0a6.04,6.04 90,1 1,-12.08 0" stroke-linejoin="round" stroke-width="12" stroke="#000000" stroke-linecap="square" id="path_4"/><path fill="#000000" d="M136.78,96m-6.04,0a6.04,6.04 90,1 1,12.08 0a6.04,6.04 90,1 1,-12.08 0" stroke-linejoin="round" stroke-width="12" stroke="#000000" stroke-linecap="square" id="path_5"/><path fill="#000000" d="M82.41,41.63m-6.04,0a6.04,6.04 90,1 1,12.08 0a6.04,6.04 90,1 1,-12.08 0" stroke-linejoin="round" stroke-width="12" stroke="#000000" stroke-linecap="square" id="path_6"/><path fill="#00000000" d="M82.41,68.81m-6.04,0a6.04,6.04 90,1 1,12.08 0a6.04,6.04 90,1 1,-12.08 0" stroke-linejoin="round" stroke-width="12" stroke="#000000" stroke-linecap="square" id="path_7"/><path fill="#000000" d="M82.41,123.19m-6.04,0a6.04,6.04 90,1 1,12.08 0a6.04,6.04 90,1 1,-12.08 0" stroke-linejoin="round" stroke-width="12" stroke="#000000" stroke-linecap="square" id="path_8"/><path fill="#000000" d="M82.41,150.37m-6.04,0a6.04,6.04 90,1 1,12.08 0a6.04,6.04 90,1 1,-12.08 0" stroke-linejoin="round" stroke-width="12" stroke="#000000" stroke-linecap="square" id="path_9"/><path fill="#000000" d="M109.59,150.37m-6.04,0a6.04,6.04 90,1 1,12.08 0a6.04,6.04 90,1 1,-12.08 0" stroke-linejoin="round" stroke-width="12" stroke="#000000" stroke-linecap="square" id="path_10"/><path fill="#000000" d="M109.59,123.19m-6.04,0a6.04,6.04 90,1 1,12.08 0a6.04,6.04 90,1 1,-12.08 0" stroke-linejoin="round" stroke-width="12" stroke="#000000" stroke-linecap="square" id="path_11"/><path fill="#000000" d="M109.59,41.63m-6.04,0a6.04,6.04 90,1 1,12.08 0a6.04,6.04 90,1 1,-12.08 0" stroke-linejoin="round" stroke-width="12" stroke="#000000" stroke-linecap="square" id="path_12"/><path fill="#000000" d="M109.59,68.81m-6.04,0a6.04,6.04 90,1 1,12.08 0a6.04,6.04 90,1 1,-12.08 0" stroke-linejoin="round" stroke-width="12" stroke="#000000" stroke-linecap="square" id="path_13"/></svg>