<svg id="vector" xmlns="http://www.w3.org/2000/svg" width="192" height="192" viewBox="0 0 192 192"><path fill="#00000000" d="M96,22C82.208,22.001 68.982,27.505 59.23,37.303C49.478,47.101 44,60.39 44,74.246C44,90.841 48.296,102.915 64.811,123.144C72.48,131.861 79.202,141.375 84.864,151.524C90.852,163.721 90.146,172 96,172C101.854,172 101.148,163.721 107.136,151.524C112.798,141.375 119.52,131.861 127.189,123.144C143.704,102.915 148,90.841 148,74.246C148,60.39 142.522,47.101 132.77,37.303C123.018,27.505 109.792,22.001 96,22Z" stroke-width="12" stroke="#000000" id="path_0"/><path fill="#00000000" d="M96,74m-20,0a20,20 0,1 1,40 0a20,20 0,1 1,-40 0" stroke-width="12" stroke="#000000" id="path_1"/></svg>