<svg id="vector" xmlns="http://www.w3.org/2000/svg" width="192" height="192" viewBox="0 0 192 192"><path fill="#00000000" d="M96,62H68C50.327,62 35.611,76.46 38.698,93.862C47.497,143.453 75.94,170 96,170" stroke-linejoin="round" stroke-width="12" stroke="#000000" stroke-linecap="round" id="path_0"/><path fill="#00000000" d="M96,62H124C141.673,62 156.389,76.46 153.302,93.862C144.503,143.453 116.06,170 96,170" stroke-linejoin="round" stroke-width="12" stroke="#000000" stroke-linecap="round" id="path_1"/><path fill="#000000" d="M68,56C68,40.536 80.536,28 96,28C111.464,28 124,40.536 124,56C124,58.06 123.778,60.067 123.356,62H135.553C135.847,60.043 136,58.039 136,56C136,33.909 118.091,16 96,16C73.909,16 56,33.909 56,56C56,58.039 56.153,60.043 56.447,62H68.644C68.222,60.067 68,58.06 68,56Z" fill-rule="evenodd" id="path_2"/><path fill="#000000" d="M67.633,154.946C70.417,141.836 82.06,132 96,132C108.903,132 119.838,140.427 123.601,152.077L132.583,142.469C125.816,129.136 111.975,120 96,120C80.077,120 66.275,129.076 59.484,142.338L65.5,152L67.633,154.946Z" fill-rule="evenodd" id="path_3"/><path fill="#00000000" d="M96,94m-14,0a14,14 0,1 1,28 0a14,14 0,1 1,-28 0" stroke-width="12" stroke="#000000" id="path_4"/></svg>