<svg id="vector" xmlns="http://www.w3.org/2000/svg" width="192" height="192" viewBox="0 0 192 192"><path fill="#00000000" d="m56,30c0,-1.66 1.34,-3 3,-3h108c1.66,0 3,1.34 3,3v132c0,1.66 -1.34,3 -3,3H59c-1.66,0 -3,-1.34 -3,-3V130M56,62V30" stroke-width="12" stroke="#000000" stroke-linecap="round" id="path_0"/><path fill="#00000000" d="M25,62L87,62A3,3 0,0 1,90 65L90,127A3,3 0,0 1,87 130L25,130A3,3 0,0 1,22 127L22,65A3,3 0,0 1,25 62z" stroke-linejoin="miter" stroke-width="12" stroke="#000000" stroke-linecap="round" id="path_1"/><path fill="#00000000" d="M138.79,164.72V58.79H170" stroke-linejoin="round" stroke-width="12" stroke="#000000" stroke-linecap="round" id="path_2"/><path fill="#00000000" d="M170,96H138.79" stroke-linejoin="round" stroke-width="12" stroke="#000000" stroke-linecap="round" id="path_3"/><path fill="#00000000" d="M169,133.21H138.79" stroke-linejoin="round" stroke-width="12" stroke="#000000" stroke-linecap="round" id="path_4"/><path fill="#00000000" d="M44.5,110V82l23,28V82" stroke-linejoin="round" stroke-width="12" stroke="#000000" stroke-linecap="round" id="path_5"/></svg>