<svg id="vector" xmlns="http://www.w3.org/2000/svg" width="192" height="192" viewBox="0 0 192 192"><path fill="#00000000" d="M26,62L86,62A4,4 0,0 1,90 66L90,126A4,4 0,0 1,86 130L26,130A4,4 0,0 1,22 126L22,66A4,4 0,0 1,26 62z" stroke-linejoin="round" stroke-width="12" stroke="#000000" id="path_0"/><path fill="#000000" d="M50,130V160C50,165.523 54.477,170 60,170H166C171.523,170 176,165.523 176,160V100C176,97.869 174.87,95.898 173.031,94.822C171.192,93.746 168.921,93.725 167.063,94.768L113,125.119L90,112.207V125.969L110.063,137.232L147.056,158H62V130H50ZM164,153.751L125.257,132L164,110.249V153.751Z" fill-rule="evenodd" id="path_1"/><path fill="#00000000" d="M158,104V30C158,27.791 156.209,26 154,26H72C69.791,26 68,27.791 68,30V62.5" stroke-linejoin="round" stroke-width="12" stroke="#000000" id="path_2"/><path fill="#00000000" d="M56,96m-14,0a14,14 0,1 1,28 0a14,14 0,1 1,-28 0" stroke-width="12" stroke="#000000" id="path_3"/></svg>