<svg id="vector" xmlns="http://www.w3.org/2000/svg" width="24" height="24" viewBox="0 0 24 24"><path fill="#FF000000" d="M8.07,3.05h9v4h-4.1A1.79,1.79 0,0 0,11.27 6H7.18A0.15,0.15 0,0 1,7 5.8V4.09A1,1 0,0 1,8.07 3.05Z" id="path_0"/><path fill="#FF000000" d="M13.08,8.06h3.95v3.44h-3.95z" id="path_1"/><path fill="#FF000000" d="M13.08,12.5h3.95v3.44h-3.95z" id="path_2"/><path fill="#FF000000" d="M13,17H17v3.94h-9a1,1 0,0 1,-1 -1V18.14A0.15,0.15 0,0 1,7.18 18h4.23A1.68,1.68 0,0 0,13 17Z" id="path_3"/><path fill="#FF000000" d="M22,4.09V19.85a1,1 0,0 1,-1 1H18V17H22v-1H18V12.5H22v-1H18V8.06H22v-1H18v-4H21A1,1 0,0 1,22 4.09Z" id="path_4"/><path fill="#FF000000" d="M11.47,7H2.86A0.87,0.87 0,0 0,2 7.84v8.34a0.86,0.86 0,0 0,0.86 0.86h8.61a0.6,0.6 0,0 0,0.6 -0.6V7.57A0.6,0.6 0,0 0,11.47 7ZM8.18,14.79 L7,12.56 5.8,14.79H4.54L6.27,12 4.67,9.21H6l1.07,2 1.2,-2H9.44L7.77,12l1.76,2.78Z" id="path_5"/></svg>