<svg id="vector" xmlns="http://www.w3.org/2000/svg" width="192" height="192" viewBox="0 0 192 192"><path fill="#00000000" d="M78,153a24,17 0,0 1,-24 17,24 17,0 0,1 -24,-17 24,17 0,0 1,24 -17,24 17,0 0,1 24,17zM158,126a24,17 0,0 1,-24 17,24 17,0 0,1 -24,-17 24,17 0,0 1,24 -17,24 17,0 0,1 24,17z" stroke-width="12" stroke="#000" id="path_0"/><path fill="#00000000" d="M78,153V45l80,-20v101" stroke-linejoin="round" stroke-width="12" stroke="#000" id="path_1"/><path fill="#00000000" d="m78,69 l80,-20" stroke-width="12" stroke="#000" id="path_2"/></svg>