<svg id="vector" xmlns="http://www.w3.org/2000/svg" width="192" height="192" viewBox="0 0 192 192"><path fill="#00000000" d="M89.139,122.684C92.498,138.601 112.847,141.496 134.904,129.077C156.697,116.788 172.029,94.129 169.781,77.881C168.893,84.361 162.603,92.359 154.176,97.112C145.228,102.144 136.947,101.734 134.485,96.571C140.733,89.289 145.177,81.335 147.065,73.878C148.117,69.7 148.373,65.679 147.672,62.016C144.621,45.803 124.307,42.698 102.215,54.995L99.198,39L22,82.495L35.298,153L89.139,122.684ZM89.139,122.684L85.815,105.057M75.841,52.178L79.486,71.5" stroke-linejoin="round" stroke-width="12" stroke="#000000" stroke-linecap="round" id="path_0"/><path fill="#00000000" d="M72,83.321a20,12 120,1 0,20.785 12a20,12 120,1 0,-20.785 -12z" stroke-width="12" stroke="#000000" id="path_1"/></svg>