<svg id="vector" xmlns="http://www.w3.org/2000/svg" width="192" height="192" viewBox="0 0 50.8 50.8"><path fill="#FF000000" d="m45.274,25.4a8.701,8.677 90,0 1,-8.677 8.701,8.701 8.677,90 0,1 -8.677,-8.701 8.701,8.677 90,0 1,8.677 -8.701,8.701 8.677,90 0,1 8.677,8.701z" stroke-linejoin="round" stroke-width="3.175" stroke="#000000" stroke-linecap="round" id="path_0"/><path fill="#00000000" d="m15.162,25.399l7.975,0c0,3.929 -2.642,7.374 -6.457,8.418 -3.814,1.044 -7.861,-0.571 -9.887,-3.945 -2.027,-3.374 -1.534,-7.678 1.203,-10.514 2.737,-2.837 7.045,-3.509 10.526,-1.642" stroke-linejoin="round" stroke-width="3.175" stroke="#000000" stroke-linecap="round" id="path_1"/><path fill="#00000000" d="m-97.724,41.888l7.975,0c0,3.929 -2.642,7.374 -6.457,8.418 -3.814,1.044 -7.861,-0.571 -9.887,-3.945 -2.027,-3.374 -1.534,-7.678 1.203,-10.514 2.737,-2.837 7.045,-3.509 10.526,-1.642" stroke-linejoin="round" stroke-width="3.175" stroke="#000000" stroke-linecap="round" id="path_2"/></svg>