<svg id="vector" xmlns="http://www.w3.org/2000/svg" width="192" height="192" viewBox="0 0 50.8 50.800003"><path fill="#00000000" d="m36.4604,34.699h5.0901c1.9119,0 3.4674,-1.5512 3.4674,-3.4579 0,-1.9067 -1.5555,-3.4579 -3.4674,-3.4579m-5.0901,-6.9157h5.0901c1.9119,0 3.4674,1.5512 3.4674,3.4579 0,1.9067 -1.5555,3.4579 -3.4674,3.4579h-3.111" stroke-linejoin="round" stroke-width="3.175" stroke="#000000" stroke-linecap="round" id="path_0"/><path fill="#00000000" d="m31.1737,34.6989v-8.887c0,-2.7146 -2.236,-4.9444 -4.9581,-4.9444 -2.7545,0 -4.9905,2.2298 -4.9905,4.9444m-9.9162,8.887v-8.887c0,-2.7146 2.236,-4.9444 4.9581,-4.9444 2.7545,0 4.9581,2.2298 4.9581,4.9444v8.887" stroke-linejoin="round" stroke-width="3.175" stroke="#000000" stroke-linecap="round" id="path_1"/><path fill="#000000" d="M5.7816,14.5135A1.5091,1.5062 0,0 0,4.2721 16.0201,1.5091 1.5062,0 0,0 5.7816,17.5267 1.5091,1.5062 0,0 0,7.291 16.0201,1.5091 1.5062,0 0,0 5.7816,14.5135Z" stroke-linejoin="round" stroke-width="0.999997" stroke-linecap="round" id="path_2"/><path fill="#00000000" d="M5.782,20.9644V34.6989" stroke-linejoin="round" stroke-width="3.175" stroke="#000000" stroke-linecap="round" id="path_3"/></svg>