<svg id="vector" xmlns="http://www.w3.org/2000/svg" width="192" height="192" viewBox="0 0 192 192"><path fill="#00000000" d="M22.02,157 L55,103.44C58.49,97.77 65.2,94.91 75.01,95 83.11,95.07 100,95 100,95L67,150c-2.7,4.78 -8.13,7 -14.99,7z" stroke-linejoin="round" stroke-width="12" stroke="#000000" id="path_0"/><path fill="#00000000" d="m105,135.13 l20.51,-32.4C129.07,97.1 135.84,95 145.65,95H170l-20.39,33.61c-2.7,4.78 -7.76,6.51 -14.62,6.51z" stroke-linejoin="round" stroke-width="12" stroke="#000000" id="path_1"/><path fill="#00000000" d="m105,35 l20.51,32.53C129.05,73.16 135.84,75 145.65,75h24.35L149.61,41.64c-2.7,-4.78 -8.41,-6.64 -15.27,-6.64z" stroke-linejoin="round" stroke-width="12" stroke="#000000" id="path_2"/></svg>