<svg id="vector" xmlns="http://www.w3.org/2000/svg" width="192" height="192" viewBox="0 0 192 192"><path fill="#00000000" d="M118,72H144M158,32C139,26 118,32 118,52V162" stroke-width="12" stroke="#000000" stroke-linecap="round" id="path_0"/><path fill="#00000000" d="M92,68C84,62 75,60 65,60C48,60 35,68 35,81C35,93 40,98 64,103C88,108 98,118 98,134C98,151 84,162 62,162C49,162 37,156 30,148" stroke-width="12" stroke="#000000" stroke-linecap="round" id="path_1"/><path fill="#000000" d="M160,160m-8,0a8,8 0,1 1,16 0a8,8 0,1 1,-16 0" id="path_2"/></svg>