<?xml version="1.0" encoding="UTF-8" standalone="no"?><svg xmlns:android="http://schemas.android.com/apk/res/android" height="192" width="192" xmlns="http://www.w3.org/2000/svg">
  <path d="M118,72H144M158,32C139,26 118,32 118,52V162" fill="#000000" fill-opacity="0.0" stroke="#000000" stroke-linecap="round" stroke-width="12"/>
  <path d="M92,68C84,62 75,60 65,60C48,60 35,68 35,81C35,93 40,98 64,103C88,108 98,118 98,134C98,151 84,162 62,162C49,162 37,156 30,148" fill="#000000" fill-opacity="0.0" stroke="#000000" stroke-linecap="round" stroke-width="12"/>
  <path d="M160,160m-8,0a8,8 0,1 1,16 0a8,8 0,1 1,-16 0" fill="#000000"/>
</svg>