<svg id="vector" xmlns="http://www.w3.org/2000/svg" width="192" height="192" viewBox="0 0 50.8 50.8"><path fill="#00000000" d="M44.914,26.991A19.579,19.579 0,0 1,25.398 44.979,19.579 19.579,0 0,1 5.885,26.987Z" stroke-linejoin="round" stroke-width="3.175" stroke="#000000" stroke-linecap="round" id="path_0"/><path fill="#000000" d="m43.364,25.402c-0.014,-2.969 -2.389,-5.371 -5.326,-5.385 -2.123,0 -3.944,1.301 -4.798,3.131 -0.981,-3.46 -4.113,-6.027 -7.841,-6.024 -3.748,0 -6.896,2.594 -7.859,6.081C16.703,21.339 14.855,20.017 12.707,20.017 9.77,20.031 7.394,22.433 7.381,25.397v0.004c0,0 35.983,0.002 35.983,0.002zM10.506,25.422v-0.023c0,-1.249 0.966,-2.224 2.2,-2.224 1.232,0 2.2,0.975 2.2,2.224zM20.337,25.422v-0.023c0,-2.846 2.249,-5.119 5.063,-5.119 2.816,0 5.065,2.272 5.065,5.119zM35.838,25.422v-0.023c0,-1.249 0.964,-2.224 2.199,-2.224 1.234,0 2.2,0.975 2.2,2.224z" stroke-width="3.175" id="path_1"/></svg>