<?xml version="1.0" encoding="UTF-8" standalone="no"?><svg xmlns:android="http://schemas.android.com/apk/res/android" height="192" width="192" xmlns="http://www.w3.org/2000/svg">
  <g>
    <clip-path android:pathData="M0,0h192v192h-192z"/>
    <path d="M133,160.086C168.394,139.651 180.52,94.394 160.086,59C139.651,23.606 94.394,11.479 59,31.914C23.606,52.349 11.48,97.606 31.914,133C52.349,168.394 97.606,180.52 133,160.086Z" fill="#000000" fill-opacity="0.0" stroke="#000000" stroke-linecap="round" stroke-linejoin="round" stroke-width="12"/>
    <path d="M65.038,162.373C53.038,141.589 44.241,93.551 52.555,88.752C60.869,83.951 76.899,96.251 83.876,103C93.268,95.268 96.732,93.268 108.124,89C105.767,79.584 103.131,59.551 111.445,54.751C119.759,49.951 156.961,81.589 168.961,102.373" fill="#000000" fill-opacity="0.0" stroke="#000000" stroke-linejoin="round" stroke-width="12"/>
    <path d="M82.421,138.481a10,8 60,1 0,13.856 -8a10,8 60,1 0,-13.856 8z" fill="#000000"/>
    <path d="M125.723,113.481a10,8 60,1 0,13.856 -8a10,8 60,1 0,-13.856 8z" fill="#000000"/>
  </g>
</svg>