<svg id="vector" xmlns="http://www.w3.org/2000/svg" width="192" height="192" viewBox="0 0 192 192"><defs><clipPath id="clip_path_0"><path d="M0,0h192v192h-192z"/></clipPath></defs><g id="g_0"><path fill="#00000000" d="M133,160.086C168.394,139.651 180.52,94.394 160.086,59C139.651,23.606 94.394,11.479 59,31.914C23.606,52.349 11.48,97.606 31.914,133C52.349,168.394 97.606,180.52 133,160.086Z" stroke-linejoin="round" stroke-width="12" stroke="#000000" stroke-linecap="round" clip-path="url(#clip_path_0)"/><path fill="#00000000" d="M65.038,162.373C53.038,141.589 44.241,93.551 52.555,88.752C60.869,83.951 76.899,96.251 83.876,103C93.268,95.268 96.732,93.268 108.124,89C105.767,79.584 103.131,59.551 111.445,54.751C119.759,49.951 156.961,81.589 168.961,102.373" stroke-linejoin="round" stroke-width="12" stroke="#000000"/><path fill="#000000" d="M82.421,138.481a10,8 60,1 0,13.856 -8a10,8 60,1 0,-13.856 8z"/><path fill="#000000" d="M125.723,113.481a10,8 60,1 0,13.856 -8a10,8 60,1 0,-13.856 8z"/></g></svg>