<svg id="vector" xmlns="http://www.w3.org/2000/svg" width="192" height="192" viewBox="0 0 50.8 50.8"><path fill="#00000000" d="m30.162,25.664 l5.027,2.381 5.027,-2.381" stroke-linejoin="round" stroke-width="2.117" stroke="#000" stroke-linecap="round" id="path_0"/><path fill="#00000000" d="m30.162,29.104 l5.027,2.381 5.027,-2.381" stroke-linejoin="round" stroke-width="2.1167" stroke="#000" stroke-linecap="round" id="path_1"/><path fill="#00000000" d="m40.217,22.201 l-5.027,2.405 -5.027,-2.405 5.027,-2.886z" stroke-linejoin="round" stroke-width="2.1167" stroke="#000" id="path_2"/><path fill="#FF000000" d="M11.906,20.902L19.844,20.902A1.058,1.058 0,0 1,20.902 21.96L20.902,21.96A1.058,1.058 0,0 1,19.844 23.018L11.906,23.018A1.058,1.058 0,0 1,10.848 21.96L10.848,21.96A1.058,1.058 0,0 1,11.906 20.902z" id="path_3"/><path fill="#FF000000" d="M11.906,28.31L19.844,28.31A1.058,1.058 0,0 1,20.902 29.368L20.902,29.368A1.058,1.058 0,0 1,19.844 30.427L11.906,30.427A1.058,1.058 0,0 1,10.848 29.368L10.848,29.368A1.058,1.058 0,0 1,11.906 28.31z" id="path_4"/><path fill="#FF000000" d="M8.996,24.606L21.96,24.606A1.058,1.058 0,0 1,23.018 25.664L23.018,25.664A1.058,1.058 0,0 1,21.96 26.723L8.996,26.723A1.058,1.058 0,0 1,7.937 25.664L7.937,25.664A1.058,1.058 0,0 1,8.996 24.606z" id="path_5"/><path fill="#FF000000" d="m24.338,30.961c-0.447,-0.804 -1.927,-0.885 -2.53,-0.19 -1.504,1.733 -3.723,2.829 -6.198,2.829 -4.53,0 -8.202,-3.672 -8.202,-8.202 0,-4.53 3.672,-8.202 8.202,-8.202s8.202,3.672 8.202,8.202c0,0.252 0.217,0.454 0.466,0.422l2.634,-0.338c0.043,-0.005 0.075,-0.042 0.075,-0.084 0,-6.283 -5.094,-11.377 -11.377,-11.377s-11.377,5.094 -11.377,11.377c0,6.283 5.094,11.377 11.377,11.377 3.448,0 6.538,-1.534 8.625,-3.957 0.445,-0.516 0.434,-1.261 0.103,-1.857z" fill-rule="evenodd" id="path_6"/><path fill="#FF000000" d="m26.503,19.464c0.584,0.875 2.106,0.928 2.844,0.179 1.487,-1.509 3.555,-2.445 5.842,-2.445 4.53,0 8.202,3.672 8.202,8.202 0,4.53 -3.672,8.202 -8.202,8.202s-8.202,-3.672 -8.202,-8.202c0,-0.925 -0.854,-1.75 -1.745,-1.502l-0.417,0.116c-0.578,0.161 -1.006,0.66 -1.012,1.26 -0,0.042 -0.001,0.084 -0.001,0.127 0,6.283 5.094,11.377 11.377,11.377s11.377,-5.094 11.377,-11.377c0,-6.283 -5.094,-11.377 -11.377,-11.377 -3.464,0 -6.567,1.549 -8.654,3.991 -0.349,0.409 -0.33,1.003 -0.032,1.45z" fill-rule="evenodd" id="path_7"/></svg>