<svg id="vector" xmlns="http://www.w3.org/2000/svg" width="192" height="192" viewBox="0 0 192 192"><path fill="#00000000" d="M82,96V166C82,168.209 80.209,170 78,170H54C51.791,170 50,168.209 50,166V26C50,23.791 51.791,22 54,22H66" stroke-linejoin="round" stroke-width="12" stroke="#000000" id="path_0"/><path fill="#00000000" d="M79.372,22H56.088C53.21,22 51.274,24.947 52.416,27.588L112.957,167.588C113.59,169.052 115.033,170 116.628,170H139.912C142.79,170 144.726,167.053 143.584,164.412L83.043,24.412C82.41,22.948 80.967,22 79.372,22Z" stroke-linejoin="round" stroke-width="12" stroke="#000000" id="path_1"/><path fill="#00000000" d="M114,96V26C114,23.791 115.791,22 118,22H142C144.209,22 146,23.791 146,26V166C146,168.209 144.209,170 142,170H130" stroke-linejoin="round" stroke-width="12" stroke="#000000" id="path_2"/></svg>