<svg id="vector" xmlns="http://www.w3.org/2000/svg" width="192" height="192" viewBox="0 0 192 192"><path fill="#00000000" d="m72,83m-18,0a18,18 0,1 1,36 0,18 18,0 1,1 -36,0" stroke-linejoin="round" stroke-width="12" stroke="#000" stroke-linecap="round" id="path_0"/><path fill="#00000000" d="m88,91 l-22,36" stroke-linejoin="round" stroke-width="12" stroke="#000" stroke-linecap="round" id="path_1"/><path fill="#00000000" d="m120,83m-18,0a18,18 0,1 1,36 0,18 18,0 1,1 -36,0" stroke-linejoin="round" stroke-width="12" stroke="#000" stroke-linecap="round" id="path_2"/><path fill="#00000000" d="m136,91 l-22,36" stroke-linejoin="round" stroke-width="12" stroke="#000" stroke-linecap="round" id="path_3"/><path fill="#00000000" d="m170,96a74,74 0,0 1,-74 74,74 74,0 0,1 -74,-74 74,74 0,0 1,74 -74,74 74,0 0,1 74,74z" stroke-linejoin="round" stroke-width="12" stroke="#000" stroke-linecap="round" id="path_4"/></svg>