<svg id="vector" xmlns="http://www.w3.org/2000/svg" width="192" height="192" viewBox="0 0 192 192"><defs><clipPath id="clip_path_0"><path d="M31,24L161,24A7,7 0,0 1,168 31L168,161A7,7 0,0 1,161 168L31,168A7,7 0,0 1,24 161L24,31A7,7 0,0 1,31 24z"/></clipPath></defs><g id="g_0"><path fill="#00000000" d="M31,24L161,24A7,7 0,0 1,168 31L168,161A7,7 0,0 1,161 168L31,168A7,7 0,0 1,24 161L24,31A7,7 0,0 1,31 24z" stroke-linejoin="round" stroke-width="24" stroke="#000000" clip-path="url(#clip_path_0)"/></g><path fill="#00000000" d="M47,52H145" stroke-linejoin="round" stroke-width="12" stroke="#000000" stroke-linecap="round" id="path_0"/><path fill="#00000000" d="M47,76H145" stroke-linejoin="round" stroke-width="12" stroke="#000000" stroke-linecap="round" id="path_1"/><path fill="#00000000" d="M47,100H86" stroke-linejoin="round" stroke-width="12" stroke="#000000" stroke-linecap="round" id="path_2"/></svg>