<?xml version="1.0" encoding="UTF-8" standalone="no"?><svg xmlns:android="http://schemas.android.com/apk/res/android" height="192" width="192" xmlns="http://www.w3.org/2000/svg">
  <path d="M93.57,27.91h0m-0.41,0.18 l63.43,24.52v93.78L98.88,164 35.41,146.18V52.36L93.16,28.09m0,-12.09a10.87,10.87 0,0 0,-4.23 0.85L30.09,41.58a10.9,10.9 0,0 0,-6.68 10.05V147a10.91,10.91 0,0 0,8 10.49L96,175.6a10.86,10.86 0,0 0,2.94 0.4,11 11,0 0,0 3.17,-0.47l58.79,-17.9a10.89,10.89 0,0 0,7.73 -10.42V51.86a10.89,10.89 0,0 0,-7 -10.17l-64.54,-25A10.9,10.9 0,0 0,93.15 16Z" fill="#000000" fill-opacity="1.0"/>
  <path d="M50.02,118.55l0,-43.47l26.83,37l0,-43.48" fill="#000000" fill-opacity="0.0" stroke="#000" stroke-linecap="round" stroke-linejoin="round" stroke-width="12"/>
  <path d="M107.23,81.14L143,90" fill="#000000" fill-opacity="0.0" stroke="#000" stroke-linecap="round" stroke-linejoin="round" stroke-width="12"/>
  <path d="M107.23,113.14L143,122" fill="#000000" fill-opacity="0.0" stroke="#000" stroke-linecap="round" stroke-linejoin="round" stroke-width="12"/>
  <path d="M107.25,97.09L132,103" fill="#000000" fill-opacity="0.0" stroke="#000" stroke-linecap="round" stroke-linejoin="round" stroke-width="12"/>
  <path d="M32,149l61.22,-17.85l66.78,17.85" fill="#000000" fill-opacity="0.0" stroke="#000" stroke-linecap="round" stroke-linejoin="round" stroke-width="12"/>
  <path d="M93.22,128L93.22,24" fill="#000000" fill-opacity="0.0" stroke="#000" stroke-linecap="round" stroke-linejoin="round" stroke-width="12"/>
</svg>