<?xml version="1.0" encoding="UTF-8" standalone="no"?><svg xmlns:android="http://schemas.android.com/apk/res/android" height="24" width="24" xmlns="http://www.w3.org/2000/svg">
  <path d="M18.17,8.05H15.88L19,11.14H15a1,1 0,0 1,-0.7 -0.28L11.64,8.33a1,1 0,0 0,-0.7 -0.28H6L2,12 5.83,16h2.3L5,12.86h4a1,1 0,0 1,0.69 0.28l0.68,0.65 1.93,1.88a1,1 0,0 0,0.7 0.28h5l4,-4ZM19,12.74l-1.5,1.61H13.63a1,1 0,0 1,-0.7 -0.28l-2.57,-2.52a1,1 0,0 0,-0.7 -0.29H5L6.5,9.65h3.87a1,1 0,0 1,0.7 0.28l2.57,2.52a1,1 0,0 0,0.7 0.29Z" fill="#000000" fill-opacity="1.0"/>
</svg>