<?xml version="1.0" encoding="UTF-8" standalone="no"?><svg xmlns:android="http://schemas.android.com/apk/res/android" height="192" width="192" xmlns="http://www.w3.org/2000/svg">
  <path d="M156,36V156H36V36H156m6,-12H30a6,6 0,0 0,-6 6V162a6,6 0,0 0,6 6H162a6,6 0,0 0,6 -6V30a6,6 0,0 0,-6 -6Z" fill="#000000" fill-opacity="1.0"/>
  <path d="M50,78c0.72,-1 7.29,-9.76 19,-10 12.32,-0.26 19.38,9.15 20,10" fill="#000000" fill-opacity="0.0" stroke="#000" stroke-linecap="round" stroke-linejoin="round" stroke-width="12"/>
  <path d="M106,78c0.72,-1 7.29,-9.76 19,-10 12.32,-0.26 19.38,9.15 20,10" fill="#000000" fill-opacity="0.0" stroke="#000" stroke-linecap="round" stroke-linejoin="round" stroke-width="12"/>
</svg>