<svg id="vector" xmlns="http://www.w3.org/2000/svg" width="192" height="192" viewBox="0 0 192 192"><path fill="#FF000000" d="M156,36V156H36V36H156m6,-12H30a6,6 0,0 0,-6 6V162a6,6 0,0 0,6 6H162a6,6 0,0 0,6 -6V30a6,6 0,0 0,-6 -6Z" id="path_0"/><path fill="#00000000" d="M50,78c0.72,-1 7.29,-9.76 19,-10 12.32,-0.26 19.38,9.15 20,10" stroke-linejoin="round" stroke-width="12" stroke="#000" stroke-linecap="round" id="path_1"/><path fill="#00000000" d="M106,78c0.72,-1 7.29,-9.76 19,-10 12.32,-0.26 19.38,9.15 20,10" stroke-linejoin="round" stroke-width="12" stroke="#000" stroke-linecap="round" id="path_2"/></svg>