<svg id="vector" xmlns="http://www.w3.org/2000/svg" width="192" height="192" viewBox="0 0 192 192"><path fill="#00000000" d="M137.706,70.773l0,50.588c25.833,0 32.448,-2.283 32.448,-13.138 0,-10.099 -10.905,-14.067 -32.448,-14.067 21.543,0 30.584,-0.836 30.584,-11.678 0,-10.948 -9.041,-11.705 -30.584,-11.705z" stroke-linejoin="round" stroke-width="12" stroke="#000" stroke-linecap="round" id="path_0"/><path fill="#00000000" d="M88.849,70.773l0,50.588c25.833,0 32.448,-2.283 32.448,-13.138 0,-10.099 -10.905,-14.067 -32.448,-14.067 21.543,0 30.584,-0.836 30.584,-11.678 0,-10.948 -9.041,-11.705 -30.584,-11.705z" stroke-linejoin="round" stroke-width="12" stroke="#000" id="path_1"/><path fill="#00000000" d="M72.44,95.483a24.829,25.284 90,0 1,-15.617 22.945,24.829 25.284,90 0,1 -27.557,-5.388 24.829,25.284 90,0 1,-5.491 -27.072,24.829 25.284,90 0,1 23.369,-15.314" stroke-linejoin="round" stroke-width="12" stroke="#000" stroke-linecap="round" id="path_2"/><path fill="#00000000" d="M55.124,88.649 L72.389,70.707" stroke-width="12" stroke="#000" stroke-linecap="round" id="path_3"/></svg>