<?xml version="1.0" encoding="UTF-8" standalone="no"?><svg xmlns:android="http://schemas.android.com/apk/res/android" height="50.8" width="50.8" xmlns="http://www.w3.org/2000/svg">
  <path d="m7.859,29.266a14.947,14.947 0,0 1,5.865 -16.113,14.947 14.947,0 0,1 17.147,0 14.947,14.947 0,0 1,5.865 16.113" fill="#000000" fill-opacity="0.0" fill-rule="evenOdd" stroke="#000000" stroke-linecap="round" stroke-linejoin="round" stroke-width="3.175"/>
  <path d="M28.469,29.266H42.598" fill="#000000" fill-opacity="0.0" fill-rule="evenOdd" stroke="#000000" stroke-linecap="round" stroke-linejoin="round" stroke-width="3.175"/>
  <path d="M5.301,29.266H9.787" fill="#000000" fill-opacity="0.0" fill-rule="evenOdd" stroke="#000000" stroke-linecap="round" stroke-linejoin="round" stroke-width="3.175"/>
  <path d="m9.79,34.861 l8.944,0" fill="#000000" fill-opacity="0.0" fill-rule="evenOdd" stroke="#000000" stroke-linecap="round" stroke-linejoin="round" stroke-width="3.175"/>
  <path d="m34.131,34.861h2.514" fill="#000000" fill-opacity="0.0" fill-rule="evenOdd" stroke="#000000" stroke-linecap="round" stroke-linejoin="round" stroke-width="3.175"/>
  <path d="M41.945,34.861H44.459" fill="#000000" fill-opacity="0.0" fill-rule="evenOdd" stroke="#000000" stroke-linecap="round" stroke-linejoin="round" stroke-width="3.175"/>
  <path d="m12.688,40.454h23.757" fill="#000000" fill-opacity="0.0" fill-rule="evenOdd" stroke="#000000" stroke-linecap="round" stroke-linejoin="round" stroke-width="3.175"/>
  <path d="m27.151,34.861h1.844" fill="#000000" fill-opacity="0.0" fill-rule="evenOdd" stroke="#000000" stroke-linecap="round" stroke-linejoin="round" stroke-width="3.175"/>
  <path d="m9.79,29.266a2.797,2.797 0,0 1,2.797 2.797,2.797 2.797,0 0,1 -2.797,2.797" fill="#000000" fill-opacity="0.0" fill-rule="evenOdd" stroke="#000000" stroke-linecap="round" stroke-linejoin="round" stroke-width="3.175"/>
  <path d="m18.733,34.861a2.797,2.797 0,0 1,2.797 2.797,2.797 2.797,0 0,1 -2.797,2.797" fill="#000000" fill-opacity="0.0" fill-rule="evenOdd" stroke="#000000" stroke-linecap="round" stroke-linejoin="round" stroke-width="3.175"/>
  <path d="m27.151,40.455a2.797,2.797 0,0 1,-2.423 -1.399,2.797 2.797,0 0,1 0,-2.797 2.797,2.797 0,0 1,2.423 -1.399" fill="#000000" fill-opacity="0.0" fill-rule="evenOdd" stroke="#000000" stroke-linecap="round" stroke-linejoin="round" stroke-width="3.175"/>
  <path d="m28.471,34.861a2.797,2.797 0,0 1,-2.423 -1.399,2.797 2.797,0 0,1 0,-2.797 2.797,2.797 0,0 1,2.423 -1.399" fill="#000000" fill-opacity="0.0" fill-rule="evenOdd" stroke="#000000" stroke-linecap="round" stroke-linejoin="round" stroke-width="3.175"/>
</svg>