<svg id="vector" xmlns="http://www.w3.org/2000/svg" width="192" height="192" viewBox="0 0 50.8 50.8"><path fill="#00000000" d="m7.859,29.266a14.947,14.947 0,0 1,5.865 -16.113,14.947 14.947,0 0,1 17.147,0 14.947,14.947 0,0 1,5.865 16.113" stroke-linejoin="round" stroke-width="3.175" stroke="#000000" fill-rule="evenodd" stroke-linecap="round" id="path_0"/><path fill="#00000000" d="M28.469,29.266H42.598" stroke-linejoin="round" stroke-width="3.175" stroke="#000000" fill-rule="evenodd" stroke-linecap="round" id="path_1"/><path fill="#00000000" d="M5.301,29.266H9.787" stroke-linejoin="round" stroke-width="3.175" stroke="#000000" fill-rule="evenodd" stroke-linecap="round" id="path_2"/><path fill="#00000000" d="m9.79,34.861 l8.944,0" stroke-linejoin="round" stroke-width="3.175" stroke="#000000" fill-rule="evenodd" stroke-linecap="round" id="path_3"/><path fill="#00000000" d="m34.131,34.861h2.514" stroke-linejoin="round" stroke-width="3.175" stroke="#000000" fill-rule="evenodd" stroke-linecap="round" id="path_4"/><path fill="#00000000" d="M41.945,34.861H44.459" stroke-linejoin="round" stroke-width="3.175" stroke="#000000" fill-rule="evenodd" stroke-linecap="round" id="path_5"/><path fill="#00000000" d="m12.688,40.454h23.757" stroke-linejoin="round" stroke-width="3.175" stroke="#000000" fill-rule="evenodd" stroke-linecap="round" id="path_6"/><path fill="#00000000" d="m27.151,34.861h1.844" stroke-linejoin="round" stroke-width="3.175" stroke="#000000" fill-rule="evenodd" stroke-linecap="round" id="path_7"/><path fill="#00000000" d="m9.79,29.266a2.797,2.797 0,0 1,2.797 2.797,2.797 2.797,0 0,1 -2.797,2.797" stroke-linejoin="round" stroke-width="3.175" stroke="#000000" fill-rule="evenodd" stroke-linecap="round" id="path_8"/><path fill="#00000000" d="m18.733,34.861a2.797,2.797 0,0 1,2.797 2.797,2.797 2.797,0 0,1 -2.797,2.797" stroke-linejoin="round" stroke-width="3.175" stroke="#000000" fill-rule="evenodd" stroke-linecap="round" id="path_9"/><path fill="#00000000" d="m27.151,40.455a2.797,2.797 0,0 1,-2.423 -1.399,2.797 2.797,0 0,1 0,-2.797 2.797,2.797 0,0 1,2.423 -1.399" stroke-linejoin="round" stroke-width="3.175" stroke="#000000" fill-rule="evenodd" stroke-linecap="round" id="path_10"/><path fill="#00000000" d="m28.471,34.861a2.797,2.797 0,0 1,-2.423 -1.399,2.797 2.797,0 0,1 0,-2.797 2.797,2.797 0,0 1,2.423 -1.399" stroke-linejoin="round" stroke-width="3.175" stroke="#000000" fill-rule="evenodd" stroke-linecap="round" id="path_11"/></svg>