<svg id="vector" xmlns="http://www.w3.org/2000/svg" width="192" height="192" viewBox="0 0 192 192"><path fill="#00000000" d="M96,96m-74,0a74,74 0,1 1,148 0a74,74 0,1 1,-148 0" stroke-width="12" stroke="#000000" id="path_0"/><path fill="#00000000" d="M120.749,132.062C123.999,127.327 126.577,121.704 128.336,115.517C130.095,109.329 131,102.697 131,96C131,89.303 130.095,82.671 128.336,76.483C126.577,70.296 123.999,64.673 120.749,59.938" stroke-width="12" stroke="#000000" stroke-linecap="round" id="path_1"/><path fill="#00000000" d="M61,96a54.5,64 0,1 0,109 0a54.5,64 0,1 0,-109 0z" stroke-width="12" stroke="#000000" id="path_2"/></svg>