<svg id="vector" xmlns="http://www.w3.org/2000/svg" width="192" height="192" viewBox="0 0 192 192"><path fill="#00000000" d="M96,96m-67,0a67,67 0,1 1,134 0a67,67 0,1 1,-134 0" stroke-width="12" stroke="#000" id="path_0"/><path fill="#00000000" d="M106.84,103.05c6.09,-3.68 10.16,-10.36 10.16,-17.99 0,-11.6 -9.4,-21 -21,-21s-21,9.4 -21,21c0,7.63 4.07,14.31 10.16,17.99l-10.16,24.88h42l-10.16,-24.88Z" stroke-linejoin="round" stroke-width="12" stroke="#000" id="path_1"/><path fill="#00000000" d="M22,22L48,48" stroke-width="12" stroke="#000" stroke-linecap="round" id="path_2"/><path fill="#00000000" d="M144,144L170,170" stroke-width="12" stroke="#000" stroke-linecap="round" id="path_3"/><path fill="#00000000" d="M22,170L48,144" stroke-width="12" stroke="#000" stroke-linecap="round" id="path_4"/><path fill="#00000000" d="M144,48L170,22" stroke-width="12" stroke="#000" stroke-linecap="round" id="path_5"/></svg>