<?xml version="1.0" encoding="UTF-8" standalone="no"?><svg xmlns:android="http://schemas.android.com/apk/res/android" height="192" width="192" xmlns="http://www.w3.org/2000/svg">
  <path d="M133.33,85.34A5.67,5.67 0,0 1,139 91v67.33a5.67,5.67 0,0 1,-5.67 5.67H58.67A5.67,5.67 0,0 1,53 158.33V91a5.67,5.67 0,0 1,5.67 -5.66h74.66m0,-12H58.67A17.67,17.67 0,0 0,41 91v67.33A17.67,17.67 0,0 0,58.67 176h74.66A17.67,17.67 0,0 0,151 158.33V91a17.67,17.67 0,0 0,-17.67 -17.66Z" fill="#000000" fill-opacity="1.0"/>
  <path d="M96,37.89" fill="#ff0"/>
  <path d="M50.78,63.56a44.72,44.72 0,0 1,89.22 0" fill="#000000" fill-opacity="0.0" stroke="#000" stroke-linecap="round" stroke-width="12"/>
</svg>