<svg id="vector" xmlns="http://www.w3.org/2000/svg" width="192" height="192" viewBox="0 0 192 192"><path fill="#FF000000" d="M133.33,85.34A5.67,5.67 0,0 1,139 91v67.33a5.67,5.67 0,0 1,-5.67 5.67H58.67A5.67,5.67 0,0 1,53 158.33V91a5.67,5.67 0,0 1,5.67 -5.66h74.66m0,-12H58.67A17.67,17.67 0,0 0,41 91v67.33A17.67,17.67 0,0 0,58.67 176h74.66A17.67,17.67 0,0 0,151 158.33V91a17.67,17.67 0,0 0,-17.67 -17.66Z" id="path_0"/><path fill="#ff0" d="M96,37.89" id="path_1"/><path fill="#00000000" d="M50.78,63.56a44.72,44.72 0,0 1,89.22 0" stroke-width="12" stroke="#000" stroke-linecap="round" id="path_2"/></svg>