<svg id="vector" xmlns="http://www.w3.org/2000/svg" width="192" height="192" viewBox="0 0 50.8 50.8"><path fill="#00000000" d="M31.085,40.558L5.822,40.558L5.822,15.295l35.368,0l0,5.053" stroke-linejoin="round" stroke-width="3.175" stroke="#000" stroke-linecap="round" id="path_0"/><path fill="#00000000" d="M23.506,22.874c2.792,0 5.053,2.261 5.053,5.053s-2.261,5.053 -5.053,5.053 -5.053,-2.261 -5.053,-5.053 2.261,-5.053 5.053,-5.053zM10.874,10.242l2.526,0" stroke-linejoin="round" stroke-width="3.175" stroke="#000" stroke-linecap="round" id="path_1"/><path fill="#00000000" d="M31.085,20.347l5.053,0" stroke-linejoin="round" stroke-width="3.175" stroke="#000" stroke-linecap="round" id="path_2"/><path fill="#00000000" d="m36.137,25.4 l7.579,10.105M43.716,34.242c0.698,0 1.263,0.565 1.263,1.263s-0.565,1.263 -1.263,1.263 -1.263,-0.565 -1.263,-1.263 0.565,-1.263 1.263,-1.263zM36.137,34.242c0.698,0 1.263,0.565 1.263,1.263s-0.565,1.263 -1.263,1.263 -1.263,-0.565 -1.263,-1.263 0.565,-1.263 1.263,-1.263zM36.137,35.505l7.579,-10.105" stroke-linejoin="round" stroke-width="3.175" stroke="#000" stroke-linecap="round" id="path_3"/><path fill="#FF000000" d="M13.78,20.347m-1.895,0a1.895,1.895 0,1 1,3.789 0a1.895,1.895 0,1 1,-3.789 0" stroke-width="3.175" id="path_4"/></svg>