<svg id="vector" xmlns="http://www.w3.org/2000/svg" width="192" height="192" viewBox="0 0 192 192"><path fill="#000000" d="M80,162H112V170C112,173.314 109.314,176 106,176H86C82.686,176 80,173.314 80,170V162Z" id="path_0"/><path fill="#000000" d="M120,111.578L116.996,106.385L114,108.118V111.578H120ZM72,111.578H78V108.118L75.004,106.385L72,111.578ZM138,70C138,85.538 129.565,99.114 116.996,106.385L123.004,116.772C139.129,107.444 150,89.995 150,70H138ZM96,28C119.196,28 138,46.804 138,70H150C150,40.177 125.823,16 96,16V28ZM54,70C54,46.804 72.804,28 96,28V16C66.177,16 42,40.177 42,70H54ZM75.004,106.385C62.435,99.114 54,85.538 54,70H42C42,89.995 52.871,107.444 68.996,116.772L75.004,106.385ZM78,150V111.578H66V150H78ZM80,152C78.895,152 78,151.105 78,150H66C66,157.732 72.268,164 80,164V152ZM112,152H80V164H112V152ZM114,150C114,151.105 113.105,152 112,152V164C119.732,164 126,157.732 126,150H114ZM114,111.578V150H126V111.578H114Z" id="path_1"/><path fill="#00000000" d="M96,136L96,86M96,86L76,86M96,86L115.5,86" stroke-linejoin="round" stroke-width="12" stroke="#000000" stroke-linecap="round" id="path_2"/></svg>