<svg id="vector" xmlns="http://www.w3.org/2000/svg" width="192" height="192" viewBox="0 0 192 192"><path fill="#00000000" d="M46,115L146,115A24,24 0,0 1,170 139L170,139A24,24 0,0 1,146 163L46,163A24,24 0,0 1,22 139L22,139A24,24 0,0 1,46 115z" stroke-width="12" stroke="#000000" id="path_0"/><path fill="#00000000" d="M46,139L114,139" stroke-width="12" stroke="#000000" stroke-linecap="round" id="path_1"/><path fill="#000000" d="M48,85m-8,0a8,8 0,1 1,16 0a8,8 0,1 1,-16 0" id="path_2"/><path fill="#000000" d="M48,53m-8,0a8,8 0,1 1,16 0a8,8 0,1 1,-16 0" id="path_3"/><path fill="#000000" d="M80,69m-8,0a8,8 0,1 1,16 0a8,8 0,1 1,-16 0" id="path_4"/><path fill="#000000" d="M80,37m-8,0a8,8 0,1 1,16 0a8,8 0,1 1,-16 0" id="path_5"/><path fill="#000000" d="M112,85m-8,0a8,8 0,1 1,16 0a8,8 0,1 1,-16 0" id="path_6"/><path fill="#000000" d="M112,53m-8,0a8,8 0,1 1,16 0a8,8 0,1 1,-16 0" id="path_7"/><path fill="#000000" d="M144,69m-8,0a8,8 0,1 1,16 0a8,8 0,1 1,-16 0" id="path_8"/><path fill="#000000" d="M144,37m-8,0a8,8 0,1 1,16 0a8,8 0,1 1,-16 0" id="path_9"/></svg>