<svg id="vector" xmlns="http://www.w3.org/2000/svg" width="192" height="192" viewBox="0 0 192 192"><path fill="#00000000" d="M30,37C30,34.791 31.791,33 34,33H50C52.209,33 54,34.791 54,37V153C54,155.209 52.209,157 50,157H34C31.791,157 30,155.209 30,153V37Z" stroke-width="12" stroke="#000000" id="path_0"/><path fill="#00000000" d="M78,37C78,34.791 79.791,33 82,33H116C150.242,33 178,60.758 178,95V95C178,129.242 150.242,157 116,157H82C79.791,157 78,155.209 78,153V37Z" stroke-width="12" stroke="#000000" id="path_1"/></svg>