<?xml version="1.0" encoding="UTF-8" standalone="no"?><svg xmlns:android="http://schemas.android.com/apk/res/android" height="192" width="192" xmlns="http://www.w3.org/2000/svg">
  <path d="M30,37C30,34.791 31.791,33 34,33H50C52.209,33 54,34.791 54,37V153C54,155.209 52.209,157 50,157H34C31.791,157 30,155.209 30,153V37Z" fill="#000000" fill-opacity="0.0" stroke="#000000" stroke-width="12"/>
  <path d="M78,37C78,34.791 79.791,33 82,33H116C150.242,33 178,60.758 178,95V95C178,129.242 150.242,157 116,157H82C79.791,157 78,155.209 78,153V37Z" fill="#000000" fill-opacity="0.0" stroke="#000000" stroke-width="12"/>
</svg>