<?xml version="1.0" encoding="UTF-8" standalone="no"?><svg xmlns:android="http://schemas.android.com/apk/res/android" height="192" width="192" xmlns="http://www.w3.org/2000/svg">
  <path d="M108,108H131.23Z" fill="#000000"/>
  <path d="M108,108H131.23" fill="#000000" fill-opacity="0.0" stroke="#000000" stroke-linecap="round" stroke-linejoin="round" stroke-width="12"/>
  <path d="M148.65,108H168Z" fill="#000000"/>
  <path d="M148.65,108H168" fill="#000000" fill-opacity="0.0" stroke="#000000" stroke-linecap="round" stroke-linejoin="round" stroke-width="12"/>
  <path d="M108,128H119.61Z" fill="#000000"/>
  <path d="M108,128H119.61" fill="#000000" fill-opacity="0.0" stroke="#000000" stroke-linecap="round" stroke-linejoin="round" stroke-width="12"/>
  <path d="M137.03,128H168Z" fill="#000000"/>
  <path d="M137.03,128H168" fill="#000000" fill-opacity="0.0" stroke="#000000" stroke-linecap="round" stroke-linejoin="round" stroke-width="12"/>
  <path d="M108,148H131.23Z" fill="#000000"/>
  <path d="M108,148H131.23" fill="#000000" fill-opacity="0.0" stroke="#000000" stroke-linecap="round" stroke-linejoin="round" stroke-width="12"/>
  <path d="M148.65,148H168Z" fill="#000000"/>
  <path d="M148.65,148H168" fill="#000000" fill-opacity="0.0" stroke="#000000" stroke-linecap="round" stroke-linejoin="round" stroke-width="12"/>
  <path d="M108,168H113.81Z" fill="#000000"/>
  <path d="M108,168H113.81" fill="#000000" fill-opacity="0.0" stroke="#000000" stroke-linecap="round" stroke-linejoin="round" stroke-width="12"/>
  <path d="M131.23,168H168Z" fill="#000000"/>
  <path d="M131.23,168H168" fill="#000000" fill-opacity="0.0" stroke="#000000" stroke-linecap="round" stroke-linejoin="round" stroke-width="12"/>
  <path d="M32,22L74,22A10,10 0,0 1,84 32L84,74A10,10 0,0 1,74 84L32,84A10,10 0,0 1,22 74L22,32A10,10 0,0 1,32 22z" fill="#000000" fill-opacity="0.0" stroke="#000000" stroke-width="12"/>
  <path d="M32,108L74,108A10,10 0,0 1,84 118L84,160A10,10 0,0 1,74 170L32,170A10,10 0,0 1,22 160L22,118A10,10 0,0 1,32 108z" fill="#000000" fill-opacity="0.0" stroke="#000000" stroke-width="12"/>
  <path d="M118,22L160,22A10,10 0,0 1,170 32L170,74A10,10 0,0 1,160 84L118,84A10,10 0,0 1,108 74L108,32A10,10 0,0 1,118 22z" fill="#000000" fill-opacity="0.0" stroke="#000000" stroke-width="12"/>
  <path d="M45,42L61,42A3,3 0,0 1,64 45L64,61A3,3 0,0 1,61 64L45,64A3,3 0,0 1,42 61L42,45A3,3 0,0 1,45 42z" fill="#000000"/>
  <path d="M45,128L61,128A3,3 0,0 1,64 131L64,147A3,3 0,0 1,61 150L45,150A3,3 0,0 1,42 147L42,131A3,3 0,0 1,45 128z" fill="#000000"/>
  <path d="M131,42L147,42A3,3 0,0 1,150 45L150,61A3,3 0,0 1,147 64L131,64A3,3 0,0 1,128 61L128,45A3,3 0,0 1,131 42z" fill="#000000"/>
</svg>