<svg id="vector" xmlns="http://www.w3.org/2000/svg" width="192" height="192" viewBox="0 0 192 192"><path fill="#000000" d="M108,108H131.23Z" id="path_0"/><path fill="#00000000" d="M108,108H131.23" stroke-linejoin="round" stroke-width="12" stroke="#000000" stroke-linecap="round" id="path_1"/><path fill="#000000" d="M148.65,108H168Z" id="path_2"/><path fill="#00000000" d="M148.65,108H168" stroke-linejoin="round" stroke-width="12" stroke="#000000" stroke-linecap="round" id="path_3"/><path fill="#000000" d="M108,128H119.61Z" id="path_4"/><path fill="#00000000" d="M108,128H119.61" stroke-linejoin="round" stroke-width="12" stroke="#000000" stroke-linecap="round" id="path_5"/><path fill="#000000" d="M137.03,128H168Z" id="path_6"/><path fill="#00000000" d="M137.03,128H168" stroke-linejoin="round" stroke-width="12" stroke="#000000" stroke-linecap="round" id="path_7"/><path fill="#000000" d="M108,148H131.23Z" id="path_8"/><path fill="#00000000" d="M108,148H131.23" stroke-linejoin="round" stroke-width="12" stroke="#000000" stroke-linecap="round" id="path_9"/><path fill="#000000" d="M148.65,148H168Z" id="path_10"/><path fill="#00000000" d="M148.65,148H168" stroke-linejoin="round" stroke-width="12" stroke="#000000" stroke-linecap="round" id="path_11"/><path fill="#000000" d="M108,168H113.81Z" id="path_12"/><path fill="#00000000" d="M108,168H113.81" stroke-linejoin="round" stroke-width="12" stroke="#000000" stroke-linecap="round" id="path_13"/><path fill="#000000" d="M131.23,168H168Z" id="path_14"/><path fill="#00000000" d="M131.23,168H168" stroke-linejoin="round" stroke-width="12" stroke="#000000" stroke-linecap="round" id="path_15"/><path fill="#00000000" d="M32,22L74,22A10,10 0,0 1,84 32L84,74A10,10 0,0 1,74 84L32,84A10,10 0,0 1,22 74L22,32A10,10 0,0 1,32 22z" stroke-width="12" stroke="#000000" id="path_16"/><path fill="#00000000" d="M32,108L74,108A10,10 0,0 1,84 118L84,160A10,10 0,0 1,74 170L32,170A10,10 0,0 1,22 160L22,118A10,10 0,0 1,32 108z" stroke-width="12" stroke="#000000" id="path_17"/><path fill="#00000000" d="M118,22L160,22A10,10 0,0 1,170 32L170,74A10,10 0,0 1,160 84L118,84A10,10 0,0 1,108 74L108,32A10,10 0,0 1,118 22z" stroke-width="12" stroke="#000000" id="path_18"/><path fill="#000000" d="M45,42L61,42A3,3 0,0 1,64 45L64,61A3,3 0,0 1,61 64L45,64A3,3 0,0 1,42 61L42,45A3,3 0,0 1,45 42z" id="path_19"/><path fill="#000000" d="M45,128L61,128A3,3 0,0 1,64 131L64,147A3,3 0,0 1,61 150L45,150A3,3 0,0 1,42 147L42,131A3,3 0,0 1,45 128z" id="path_20"/><path fill="#000000" d="M131,42L147,42A3,3 0,0 1,150 45L150,61A3,3 0,0 1,147 64L131,64A3,3 0,0 1,128 61L128,45A3,3 0,0 1,131 42z" id="path_21"/></svg>