<?xml version="1.0" encoding="UTF-8" standalone="no"?><svg xmlns:android="http://schemas.android.com/apk/res/android" height="192" width="192" xmlns="http://www.w3.org/2000/svg">
  <path d="M45.95,22h100.1v148h-100.1z" fill="#000000" fill-opacity="0.0" stroke="#000000" stroke-linecap="round" stroke-linejoin="round" stroke-width="12"/>
  <path d="m96.02,85c6.07,0 11.01,4.93 11.01,11 0,6.07 -4.93,11 -11.01,11 -6.09,0 -11.01,-4.93 -11.01,-11 0,-6.07 4.92,-11 11.01,-11z" fill="#000000" fill-opacity="0.0" stroke="#000000" stroke-linecap="round" stroke-linejoin="round" stroke-width="12"/>
  <path d="m96.01,142c3.99,-10.02 29.39,-18.41 29.39,-31.62V81.62C125.4,68.43 100,60.02 96.01,50 92,60.02 66.6,68.43 66.6,81.62v28.75c0,13.21 25.4,21.61 29.41,31.62z" fill="#000000" fill-opacity="0.0" stroke="#000000" stroke-linecap="round" stroke-linejoin="round" stroke-width="12"/>
</svg>