<?xml version="1.0" encoding="UTF-8" standalone="no"?><svg xmlns:android="http://schemas.android.com/apk/res/android" height="192" width="192" xmlns="http://www.w3.org/2000/svg">
    <path d="M160.54 85.6718L54.1097 22.7128C46.1103 17.9808 36 23.7468 36 33.041V158.959C36 168.253 46.1103 174.019 54.1096 169.287L160.54 106.328C168.394 101.682 168.394 90.3177 160.54 85.6718Z" fill="#000000" fill-opacity="0.0" stroke="#000000" stroke-width="12"/>
	<path d="M74 64H38.1393C36.9578 64 36 64.9578 36 66.1393V113.861C36 115.042 36.9578 116 38.1393 116H74C88.3594 116 100 104.359 100 90C100 75.6406 88.3594 64 74 64Z" fill="#000000" fill-opacity="0.0" stroke="#000000" stroke-width="12"/>
	<path d="M82 116L98 144" fill="#000000" fill-opacity="0.0" stroke="#000000" stroke-width="12"/>
</svg>