<?xml version="1.0" encoding="UTF-8" standalone="no"?><svg xmlns:android="http://schemas.android.com/apk/res/android" height="192" width="192" xmlns="http://www.w3.org/2000/svg">
  <path d="M48,30h96a18,18 45,0 1,18 18v60a14.49,14.49 112.5,0 1,-4.243 10.24l-39.51,39.51a14.49,14.49 157.5,0 1,-10.24 4.243h-60a18,18 45,0 1,-18 -18v-96a18,18 135,0 1,18 -18z" fill="#000000" fill-opacity="0.0" stroke="#000" stroke-width="12"/>
  <path d="M110,162v-34a18,18 135,0 1,18 -18h34" fill="#000000" fill-opacity="0.0" stroke="#000" stroke-width="12"/>
  <path d="M32,130h16M32,62h16M32,96h16" fill="#000000" fill-opacity="0.0" stroke="#000" stroke-linecap="round" stroke-width="12"/>
</svg>