<svg id="vector" xmlns="http://www.w3.org/2000/svg" width="192" height="192" viewBox="0 0 50.8 50.8"><path fill="#00000000" d="m7.256,38.041c0,0 1.059,-4.772 2.835,-9.029 1.578,-3.782 4.835,-10.117 6.792,-11.234 1.306,-0.745 2.98,-1.489 4.194,-1.786 1.266,-0.309 4.088,-0.322 4.349,-0.375" stroke-linejoin="round" stroke-width="3.175" stroke="#000000" stroke-linecap="round" id="path_0"/><path fill="#00000000" d="m43.597,38.041c0,0 -1.059,-4.772 -2.835,-9.029C39.184,25.23 35.927,18.896 33.97,17.779 32.665,17.034 30.99,16.29 29.776,15.993 28.51,15.684 25.688,15.671 25.427,15.619" stroke-linejoin="round" stroke-width="3.175" stroke="#000000" stroke-linecap="round" id="path_1"/><path fill="#00000000" d="m8.554,37.666c0,0 0.806,0.57 1.257,0.761 0.695,0.295 1.438,0.524 2.191,0.578 1.036,0.075 2.065,-0.485 3.096,-0.353 1.301,0.167 2.486,0.857 3.671,1.418 1.181,0.56 2.14,1.63 3.411,1.935 1.051,0.253 3.241,-0.143 3.241,-0.143" stroke-linejoin="round" stroke-width="3.175" stroke="#000000" stroke-linecap="round" id="path_2"/><path fill="#00000000" d="m42.288,37.666c0,0 -0.806,0.57 -1.257,0.761 -0.695,0.295 -1.438,0.524 -2.191,0.578 -1.036,0.075 -2.065,-0.485 -3.096,-0.353 -1.301,0.167 -2.486,0.857 -3.671,1.418 -1.181,0.56 -2.14,1.63 -3.411,1.935 -1.051,0.253 -3.241,-0.143 -3.241,-0.143" stroke-linejoin="round" stroke-width="3.175" stroke="#000000" stroke-linecap="round" id="path_3"/><path fill="#00000000" d="m15.084,38.637c0,0 3.233,-9.312 6.077,-13.307 0.501,-0.704 4.266,-0.646 4.266,-0.646" stroke-linejoin="round" stroke-width="3.175" stroke="#000000" stroke-linecap="round" id="path_4"/><path fill="#00000000" d="m35.769,38.637c0,0 -3.233,-9.312 -6.077,-13.307 -0.501,-0.704 -4.266,-0.646 -4.266,-0.646" stroke-linejoin="round" stroke-width="3.175" stroke="#000000" stroke-linecap="round" id="path_5"/><path fill="#00000000" d="m29.692,25.329c0,0 1.645,-1.715 2.588,-2.43 0.872,-0.661 2.809,-1.699 2.809,-1.699" stroke-linejoin="round" stroke-width="3.175" stroke="#000000" stroke-linecap="round" id="path_6"/><path fill="#00000000" d="m21.161,25.329c0,0 -1.645,-1.715 -2.588,-2.43 -0.872,-0.661 -2.809,-1.699 -2.809,-1.699" stroke-linejoin="round" stroke-width="3.175" stroke="#000000" stroke-linecap="round" id="path_7"/><path fill="#00000000" d="m7.887,39.553c0,0 -0.379,0.437 -0.502,0.696 -0.336,0.71 -0.302,1.551 -0.603,2.276 -0.152,0.365 -0.602,0.629 -0.597,1.024 0.003,0.331 0.219,0.704 0.518,0.847 0.449,0.215 0.988,-0.266 1.48,-0.194 0.625,0.091 1.099,0.82 1.729,0.774 2.169,-0.16 4.226,-0.286 6.103,-0.418 0.399,-0.028 0.644,-0.485 1.008,-0.651 1.258,-0.573 2.636,-0.84 3.983,-1.151 0.229,-0.053 0.696,-0.121 0.696,-0.121" stroke-linejoin="round" stroke-width="3.175" stroke="#000000" stroke-linecap="round" id="path_8"/><path fill="#00000000" d="m42.913,39.54c0,0 0.379,0.437 0.502,0.696 0.336,0.71 0.302,1.551 0.603,2.276 0.152,0.365 0.602,0.629 0.597,1.024 -0.003,0.331 -0.219,0.704 -0.518,0.847 -0.449,0.215 -0.988,-0.266 -1.48,-0.194 -0.625,0.091 -1.099,0.82 -1.729,0.774 -2.169,-0.16 -4.226,-0.286 -6.103,-0.418 -0.399,-0.028 -0.644,-0.485 -1.008,-0.651 -1.258,-0.573 -2.636,-0.84 -3.983,-1.151 -0.229,-0.053 -0.696,-0.121 -0.696,-0.121" stroke-linejoin="round" stroke-width="3.175" stroke="#000000" stroke-linecap="round" id="path_9"/><path fill="#00000000" d="m12.991,23.026c0,0 -0.963,-1.863 -1.223,-3.077C11.188,17.249 12.382,14.304 11.564,11.667 10.875,9.446 7.758,5.821 7.758,5.821l8.107,1.402 8.107,1.402c0,0 -4.188,2.342 -5.548,4.228 -1.704,2.363 -1.385,4.837 -1.385,4.837" stroke-linejoin="round" stroke-width="3.175" stroke="#000000" stroke-linecap="round" id="path_10"/></svg>