<svg id="vector" xmlns="http://www.w3.org/2000/svg" width="192" height="192" viewBox="0 0 50.8 50.8"><path fill="#00000000" d="M45.037,22.34 L25.4,34.58 10.13,25.062 5.763,22.34 25.4,10.099Z" stroke-linejoin="round" stroke-width="3.06015" stroke="#000000" stroke-linecap="round" id="path_0"/><path fill="#00000000" d="M10.13,25.062 L25.4,21.575" stroke-linejoin="round" stroke-width="3.06015" stroke="#000000" stroke-linecap="round" id="path_1"/><path fill="#000000" d="M23.759,21.575a1.641,1.237 0,1 0,3.281 0a1.641,1.237 0,1 0,-3.281 0z" stroke-linejoin="round" stroke-width="3.06015" stroke="#000000" stroke-linecap="round" id="path_2"/><path fill="#00000000" d="m9.366,24.52 l-0.031,7.001 -1.795,7.888c0,0 0.265,0.782 1.795,0.782 1.53,0 1.785,-0.765 1.785,-0.765L9.335,31.52" stroke-linejoin="round" stroke-width="3.06015" stroke="#000000" stroke-linecap="round" id="path_3"/><path fill="#00000000" d="m13.925,27.44v7.143c0,0 3.802,6.957 11.474,6.957 7.672,0 11.477,-6.959 11.477,-6.959v-7.14" stroke-linejoin="round" stroke-width="3.06015" stroke="#000000" stroke-linecap="round" id="path_4"/><path fill="#000000" d="M8.731,37.835h1.058v1.323h-1.058z" stroke-linejoin="round" stroke-width="3.175" stroke="#000000" stroke-linecap="round" id="path_5"/></svg>