<svg id="vector" xmlns="http://www.w3.org/2000/svg" width="192" height="192" viewBox="0 0 50.8 50.8"><path fill="#00000000" d="M16.743,36.276q-2.175,4.351 -6.526,4.351 -2.175,4.351 6.526,4.351 6.526,0 6.526,-8.702M8.041,40.627q-4.351,-10.877 2.175,-8.702" stroke-linejoin="round" stroke-width="3.175" stroke="#000" stroke-linecap="round" id="path_0"/><path fill="#00000000" d="M12.392,38.452q-4.351,-8.702 2.175,-17.404 -2.175,-4.351 2.175,-6.526 2.175,-8.702 10.877,-8.702t8.702,10.877q10.877,30.456 -13.053,26.105" stroke-linejoin="round" stroke-width="3.175" stroke="#000" stroke-linecap="round" id="path_1"/><path fill="#00000000" d="M34.146,42.803q2.175,2.175 6.526,2.175 8.702,0 -2.175,-6.526M23.269,11.259l1.088,1.088" stroke-linejoin="round" stroke-width="3.175" stroke="#000" stroke-linecap="round" id="path_2"/><path fill="#00000000" d="m28.707,12.347 l1.088,-1.088" stroke-linejoin="round" stroke-width="3.175" stroke="#000" stroke-linecap="round" id="path_3"/><path fill="#00000000" d="M24.357,22.136q2.175,-2.175 4.351,0" stroke-linejoin="round" stroke-width="3.175" stroke="#000" stroke-linecap="round" id="path_4"/><path fill="#FF000000" d="M21.272,17.197m-1.588,0a1.588,1.588 0,1 1,3.175 0a1.588,1.588 0,1 1,-3.175 0" stroke-linejoin="round" stroke-linecap="round" id="path_5"/><path fill="#FF000000" d="M31.062,17.197m-1.588,0a1.588,1.588 0,1 1,3.175 0a1.588,1.588 0,1 1,-3.175 0" stroke-linejoin="round" stroke-linecap="round" id="path_6"/></svg>