<?xml version="1.0" encoding="UTF-8" standalone="no"?><svg xmlns:android="http://schemas.android.com/apk/res/android" height="192" width="192" xmlns="http://www.w3.org/2000/svg">
  <path android:fillAlpha="0" d="m76.27,79.67c0,0 1.48,1.46 1.48,3.65 0,2.19 -1.48,3.71 -1.48,3.71 0,0 -1.48,-1.53 -1.48,-3.71 0,-2.18 1.48,-3.65 1.48,-3.65z" fill="#000000" stroke="#000000" stroke-linecap="round" stroke-linejoin="round" stroke-width="8"/>
  <path android:fillAlpha="0" d="m50.13,62.78c0,0 -10.87,9.38 -11.93,41.23" fill="#000000" stroke="#000000" stroke-linecap="round" stroke-linejoin="round" stroke-width="8"/>
  <path android:fillAlpha="0" d="m48.9,59.96c0,0 45.43,-86.88 94.69,2.06l-1.76,1.91 -16.01,-12.58 -10.44,8.68 -9.01,-5.52 -8.01,6.42 -6.14,-9.4 -12.09,8.34 -6.22,-6.28 -6.85,5.98 -3.37,-12.77c-5.08,5.65 -9.38,9.97 -14.26,13.9" fill="#000000" stroke="#000000" stroke-linecap="round" stroke-linejoin="round" stroke-width="12"/>
  <path android:fillAlpha="0" d="m156.48,107.65c0,0 -4.54,62.42 -59.34,62.42 -57.89,0 -62.27,-63.42 -62.27,-63.42l9.06,4.22 14.44,-11.35 5.74,14.55 7.71,-6.71 10.76,5.65 8.06,-8.84 9.23,12.45 10.85,-9 10.81,9.22 14.81,-17.64 11.94,17.03z" fill="#000000" stroke="#000000" stroke-linecap="round" stroke-linejoin="round" stroke-width="12"/>
  <path android:fillAlpha="0" d="m141.76,64.16c0,0 10.87,9.38 11.93,41.23" fill="#000000" stroke="#000000" stroke-linecap="round" stroke-linejoin="round" stroke-width="8"/>
  <path android:fillAlpha="0" d="m116.19,79.67c0,0 1.48,1.46 1.48,3.65 0,2.19 -1.48,3.71 -1.48,3.71 0,0 -1.48,-1.53 -1.48,-3.71 0,-2.18 1.48,-3.65 1.48,-3.65z" fill="#000000" stroke="#000000" stroke-linecap="round" stroke-linejoin="round" stroke-width="8"/>
</svg>