<?xml version="1.0" encoding="UTF-8" standalone="no"?><svg xmlns:android="http://schemas.android.com/apk/res/android" height="192" width="192" xmlns="http://www.w3.org/2000/svg">
  <path d="m62.34,124.41a60,60 100.11,0 1,0 -84.85,60 60,100.11 0,1 84.85,0" fill="#000000" fill-opacity="0.0" stroke="#000000" stroke-linecap="round" stroke-linejoin="round" stroke-width="12"/>
  <path d="m129.66,67.59a60,60 112.24,0 1,0 84.85,60 60,0 0,1 -84.85,0" fill="#000000" fill-opacity="0.0" stroke="#000000" stroke-linecap="round" stroke-linejoin="round" stroke-width="12"/>
  <path d="M68.54,98.91A40,40 90,0 1,76.5 53.72,40 40,90 0,1 121.69,45.75" fill="#000000" fill-opacity="0.0" stroke="#000000" stroke-linecap="round" stroke-linejoin="round" stroke-width="12"/>
  <path d="m124,88.06a40,40 79.73,0 1,-7.97 45.19,40 40,55.44 0,1 -45.19,7.97" fill="#000000" fill-opacity="0.0" stroke="#000000" stroke-linecap="round" stroke-linejoin="round" stroke-width="12"/>
  <path d="m129.31,68.27 l18,-28.75" fill="#000000" fill-opacity="0.0" stroke="#000000" stroke-linecap="butt" stroke-linejoin="round" stroke-width="12"/>
  <path d="M62.31,124.52 L44.81,152.52" fill="#000000" fill-opacity="0.0" stroke="#000000" stroke-linecap="butt" stroke-linejoin="round" stroke-width="12"/>
</svg>