<svg id="vector" xmlns="http://www.w3.org/2000/svg" width="192" height="192" viewBox="0 0 192 192"><path fill="#00000000" d="m62.34,124.41a60,60 100.11,0 1,0 -84.85,60 60,100.11 0,1 84.85,0" stroke-linejoin="round" stroke-width="12" stroke="#000000" stroke-linecap="round" id="path_0"/><path fill="#00000000" d="m129.66,67.59a60,60 112.24,0 1,0 84.85,60 60,0 0,1 -84.85,0" stroke-linejoin="round" stroke-width="12" stroke="#000000" stroke-linecap="round" id="path_1"/><path fill="#00000000" d="M68.54,98.91A40,40 90,0 1,76.5 53.72,40 40,90 0,1 121.69,45.75" stroke-linejoin="round" stroke-width="12" stroke="#000000" stroke-linecap="round" id="path_2"/><path fill="#00000000" d="m124,88.06a40,40 79.73,0 1,-7.97 45.19,40 40,55.44 0,1 -45.19,7.97" stroke-linejoin="round" stroke-width="12" stroke="#000000" stroke-linecap="round" id="path_3"/><path fill="#00000000" d="m129.31,68.27 l18,-28.75" stroke-linejoin="round" stroke-width="12" stroke="#000000" stroke-linecap="butt" id="path_4"/><path fill="#00000000" d="M62.31,124.52 L44.81,152.52" stroke-linejoin="round" stroke-width="12" stroke="#000000" stroke-linecap="butt" id="path_5"/></svg>