<svg id="vector" xmlns="http://www.w3.org/2000/svg" width="192" height="192" viewBox="0 0 192 192"><path fill="#00000000" d="M117,22L117,22A11,11 0,0 1,128 33L128,75A11,11 0,0 1,117 86L117,86A11,11 0,0 1,106 75L106,33A11,11 0,0 1,117 22z" stroke-width="12" stroke="#000000" id="path_0"/><path fill="#00000000" d="M75,106L75,106A11,11 0,0 1,86 117L86,159A11,11 0,0 1,75 170L75,170A11,11 0,0 1,64 159L64,117A11,11 0,0 1,75 106z" stroke-width="12" stroke="#000000" id="path_1"/><path fill="#00000000" d="M170,117L170,117A11,11 0,0 1,159 128L117,128A11,11 0,0 1,106 117L106,117A11,11 0,0 1,117 106L159,106A11,11 0,0 1,170 117z" stroke-width="12" stroke="#000000" id="path_2"/><path fill="#00000000" d="M86,75L86,75A11,11 0,0 1,75 86L33,86A11,11 0,0 1,22 75L22,75A11,11 0,0 1,33 64L75,64A11,11 0,0 1,86 75z" stroke-width="12" stroke="#000000" id="path_3"/><path fill="#00000000" d="M75,44C68.925,44 64,39.075 64,33C64,26.925 68.925,22 75,22C81.075,22 86,26.925 86,33L86,44L75,44Z" stroke-linejoin="round" stroke-width="12" stroke="#000000" id="path_4"/><path fill="#00000000" d="M117,148C123.075,148 128,152.925 128,159C128,165.075 123.075,170 117,170C110.925,170 106,165.075 106,159L106,148L117,148Z" stroke-linejoin="round" stroke-width="12" stroke="#000000" id="path_5"/><path fill="#00000000" d="M148,75C148,68.925 152.925,64 159,64C165.075,64 170,68.925 170,75C170,81.075 165.075,86 159,86L148,86L148,75Z" stroke-linejoin="round" stroke-width="12" stroke="#000000" id="path_6"/><path fill="#00000000" d="M44,117C44,123.075 39.075,128 33,128C26.925,128 22,123.075 22,117C22,110.925 26.925,106 33,106L44,106L44,117Z" stroke-linejoin="round" stroke-width="12" stroke="#000000" id="path_7"/></svg>