<?xml version="1.0" encoding="UTF-8" standalone="no"?><svg xmlns:android="http://schemas.android.com/apk/res/android" height="192" width="192" xmlns="http://www.w3.org/2000/svg">
  <path d="M30,104C30,67.549 59.549,38 96,38V38C132.451,38 162,67.549 162,104V160.613C162,165.797 157.797,170 152.613,170H39.387C34.203,170 30,165.797 30,160.613V104Z" fill="#000000" fill-opacity="0.0" stroke="#000000" stroke-linejoin="round" stroke-width="12"/>
  <path d="M60,48L46,22" fill="#000000" fill-opacity="0.0" stroke="#000000" stroke-linecap="round" stroke-linejoin="round" stroke-width="12"/>
  <path d="M132,48L146,22" fill="#000000" fill-opacity="0.0" stroke="#000000" stroke-linecap="round" stroke-linejoin="round" stroke-width="12"/>
  <path d="M96,110H32L80,138L96,110ZM96,110H160L112,138L96,110Z" fill="#000000" fill-opacity="0.0" stroke="#000000" stroke-linejoin="round" stroke-width="12"/>
  <path d="M58.913,82.592C59.516,84.048 60.4,85.371 61.515,86.485C62.629,87.6 63.952,88.483 65.408,89.087C66.864,89.69 68.424,90 70,90C71.576,90 73.136,89.69 74.592,89.087C76.048,88.483 77.371,87.6 78.485,86.485C79.6,85.371 80.483,84.048 81.087,82.592" fill="#000000" fill-opacity="0.0" stroke="#000000" stroke-linecap="round" stroke-linejoin="round" stroke-width="12"/>
  <path d="M110.913,82.592C111.516,84.048 112.4,85.371 113.515,86.485C114.629,87.6 115.952,88.483 117.408,89.087C118.864,89.69 120.424,90 122,90C123.576,90 125.136,89.69 126.592,89.087C128.048,88.483 129.371,87.6 130.485,86.485C131.6,85.371 132.483,84.048 133.087,82.592" fill="#000000" fill-opacity="0.0" stroke="#000000" stroke-linecap="round" stroke-linejoin="round" stroke-width="12"/>
</svg>