<svg id="vector" xmlns="http://www.w3.org/2000/svg" width="192" height="192" viewBox="0 0 50.8 50.8"><path fill="#00000000" d="M30.834,23.723m-9.681,0a9.688,9.681 89.997,1 1,19.362 0a9.688,9.681 89.997,1 1,-19.362 0" stroke-linejoin="round" stroke-width="3.175" stroke="#000000" stroke-linecap="round" id="path_0"/><path fill="#00000000" d="m20.098,49.212c0,0 -0.221,-1.481 0.138,-4.63 0.287,-2.519 1.058,-5.062 1.863,-6.997 0.968,-2.328 2.682,-5.121 2.682,-5.121" stroke-linejoin="miter" stroke-width="3.175" stroke="#000000" stroke-linecap="round" id="path_1"/><path fill="#00000000" d="m23.26,17.297c0,0 -4.58,-0.171 -10.731,0.543 -6.111,0.71 -10.942,2.749 -10.942,2.749" stroke-linejoin="miter" stroke-width="3.175" stroke="#000000" stroke-linecap="round" id="path_2"/><path fill="#00000000" d="m22.06,29.436c0,0 -4.819,-0.291 -10.088,0.654 -6.952,1.248 -10.386,3.726 -10.386,3.726" stroke-linejoin="round" stroke-width="3.175" stroke="#000000" stroke-linecap="round" id="path_3"/></svg>