<svg id="vector" xmlns="http://www.w3.org/2000/svg" width="192" height="192" viewBox="0 0 192 192"><defs><clipPath id="clip_path_0"><path d="M0,0h192v192h-192z"/></clipPath></defs><g id="g_0"><path fill="#00000000" d="M45.5,150C34.5,140 25.78,124.16 23.18,109.68C20.58,95.19 22.31,80.26 28.14,66.76C33.98,53.26 43.67,41.81 55.98,33.85C68.29,25.89 82.66,21.78 97.29,22.05C111.92,22.31 126.15,26.93 138.17,35.32C150.19,43.71 159.47,55.5 164.83,69.2C170.18,82.89 171.39,97.88 168.28,112.26C165.17,126.65 158,139 146.5,150" stroke-width="12" stroke="#000000" stroke-linecap="round" clip-path="url(#clip_path_0)"/><path fill="#00000000" d="M61,132C54.13,124.85 48.54,115.18 46.79,105.39C45.03,95.6 46.2,85.51 50.15,76.39C54.09,67.27 60.63,59.53 68.95,54.16C77.27,48.78 86.98,46 96.87,46.18C106.75,46.35 116.36,49.47 124.49,55.15C132.61,60.82 138.88,68.78 142.5,78.04C146.12,87.29 146.93,97.42 144.83,107.14C142.73,116.86 138.11,125.09 131,132" stroke-width="12" stroke="#000000" stroke-linecap="round"/><path fill="#00000000" d="M96,78C91.23,78 86.65,79.9 83.27,83.27C79.9,86.65 78,91.23 78,96C78,100.77 79.9,105.35 83.27,108.73C86.65,112.1 91.23,114 96,114C100.77,114 105.35,112.1 108.73,108.73C112.1,105.35 114,100.77 114,96C114,91.23 112.1,86.65 108.73,83.27C105.35,79.9 100.77,78 96,78Z" stroke-width="12" stroke="#000000"/></g></svg>