<svg id="vector" xmlns="http://www.w3.org/2000/svg" width="192" height="192" viewBox="0 0 50.8 50.8"><path fill="#00000000" d="m5.843,32.571 l9.373,-4.476 6.699,1.627 9.736,-9.691" stroke-linejoin="round" stroke-width="3.175" stroke="#000000" stroke-linecap="round" id="path_0"/><path fill="#000000" d="M32.092,14.549a4.042,4.042 58.078,1 0,8.083 0a4.042,4.042 58.078,1 0,-8.083 0z" stroke-linejoin="round" stroke-width="3.175" stroke="#00000000" stroke-linecap="round" id="path_1"/><path fill="#00000000" d="M29.699,15.782 L26.378,16.603" stroke-linejoin="round" stroke-width="1.852" stroke="#000000" stroke-linecap="round" id="path_2"/><path fill="#00000000" d="M30.373,11.417 L27.212,9.816" stroke-linejoin="round" stroke-width="1.852" stroke="#000000" stroke-linecap="round" id="path_3"/><path fill="#00000000" d="M33.707,8.665 L32.371,5.305" stroke-linejoin="round" stroke-width="1.852" stroke="#000000" stroke-linecap="round" id="path_4"/><path fill="#00000000" d="m38.073,8.506 l1.072,-3.347" stroke-linejoin="round" stroke-width="1.852" stroke="#000000" stroke-linecap="round" id="path_5"/><path fill="#00000000" d="m41.565,11.218 l3.016,-1.879" stroke-linejoin="round" stroke-width="1.852" stroke="#000000" stroke-linecap="round" id="path_6"/><path fill="#00000000" d="m42.377,15.397 l3.254,0.476" stroke-linejoin="round" stroke-width="1.852" stroke="#000000" stroke-linecap="round" id="path_7"/><path fill="#00000000" d="m40.295,19.381 l2.302,2.553" stroke-linejoin="round" stroke-width="1.852" stroke="#000000" stroke-linecap="round" id="path_8"/><path fill="#00000000" d="M8.758,41.81L8.758,37.063" stroke-linejoin="miter" stroke-width="3.175" stroke="#000000" stroke-linecap="round" id="path_9"/><path fill="#00000000" d="M15.383,41.81L15.383,33.796" stroke-linejoin="miter" stroke-width="3.175" stroke="#000000" stroke-linecap="round" id="path_10"/><path fill="#00000000" d="m21.916,41.81 l0,-6.796" stroke-linejoin="miter" stroke-width="3.175" stroke="#000000" stroke-linecap="round" id="path_11"/><path fill="#00000000" d="m28.586,41.81 l0,-11.2" stroke-linejoin="miter" stroke-width="3.175" stroke="#000000" stroke-linecap="round" id="path_12"/><path fill="#00000000" d="M35.29,41.81L35.29,24.638" stroke-linejoin="miter" stroke-width="3.175" stroke="#000000" stroke-linecap="round" id="path_13"/></svg>