<svg id="vector" xmlns="http://www.w3.org/2000/svg" width="192" height="192" viewBox="0 0 192 192"><path fill="#00000000" d="M74.07,146.39C87.31,146.39 98.04,135.66 98.04,122.42C98.04,109.18 87.31,98.44 74.07,98.44C60.83,98.44 50.1,109.18 50.1,122.42C50.1,135.66 60.83,146.39 74.07,146.39Z" stroke-linejoin="round" stroke-width="12.0001" stroke="#000000" stroke-linecap="round" id="path_0"/><path fill="#00000000" d="M121.14,132.31C118.97,142.48 113.53,151.67 105.65,158.46C97.77,165.26 87.88,169.28 77.49,169.91C67.11,170.55 56.8,167.76 48.15,161.98C39.5,156.2 32.98,147.74 29.59,137.9C26.21,128.07 26.14,117.39 29.39,107.51C32.65,97.63 39.06,89.09 47.63,83.19C56.21,77.3 66.48,74.38 76.87,74.88C87.26,75.38 97.21,79.27 105.18,85.96" stroke-linejoin="round" stroke-width="12.0001" stroke="#000000" stroke-linecap="round" id="path_1"/><path fill="#00000000" d="M105.18,85.96L108.94,65.7C108.94,65.7 120.43,62.43 133.99,59.93" stroke-linejoin="round" stroke-width="12.0001" stroke="#000000" stroke-linecap="round" id="path_2"/><path fill="#00000000" d="M121.14,132.31L133.99,59.93" stroke-linejoin="round" stroke-width="12.0001" stroke="#000000" stroke-linecap="round" id="path_3"/><path fill="#00000000" d="M115,28.38L111.43,50.76" stroke-linejoin="round" stroke-width="12.0001" stroke="#000000" stroke-linecap="round" id="path_4"/><path fill="#00000000" d="M115,28.38C115,28.38 136.85,22.08 164.48,22" stroke-linejoin="round" stroke-width="12.0001" stroke="#000000" stroke-linecap="round" id="path_5"/><path fill="#00000000" d="M164.48,22L161.15,43.58" stroke-linejoin="round" stroke-width="12.0001" stroke="#000000" stroke-linecap="round" id="path_6"/><path fill="#00000000" d="M111.43,50.76C111.43,50.76 135.02,43.59 161.15,43.58" stroke-linejoin="round" stroke-width="12.0001" stroke="#000000" stroke-linecap="round" id="path_7"/></svg>