<svg id="vector" xmlns="http://www.w3.org/2000/svg" width="192" height="192" viewBox="0 0 192 192"><path fill="#00000000" d="M106.27,169.95H98.37L99.95,126.99L93.63,130.71H74.14L64.66,149.27L53.07,159.87L60.98,130.71L31.48,138.13L42.01,126.99L60.98,117.45V97.3L64.66,91.47L22,93.06V85.1L27.79,79.27L170,22L112.06,163.58L106.27,169.95Z" stroke-linejoin="round" stroke-width="12" stroke="#000000" id="path_0"/><path fill="#00000000" d="M104.16,164.11L98.37,169.95L99.95,126.99L94.16,130.71H60.98V97.83L64.66,91.47L22,93.06L27.27,87.22L72.56,79.27V89.34L139.98,52.23L101,119.04H111.54L104.16,164.11Z" stroke-linejoin="round" stroke-width="12" stroke="#000000" id="path_1"/></svg>