<?xml version="1.0" encoding="UTF-8" standalone="no"?><svg xmlns:android="http://schemas.android.com/apk/res/android" height="192" width="192" xmlns="http://www.w3.org/2000/svg">
  <path d="M67.03,149.84L67.03,149.83C67.03,149.83 66.96,149.77 67.03,149.84C71.73,154.31 79.17,154.24 83.79,149.63C83.79,149.63 164.49,68.93 164.49,68.93C169.17,64.24 169.17,56.64 164.49,51.96C164.49,51.96 154.91,42.37 154.91,42.37C150.22,37.69 142.61,37.69 137.93,42.37L75.3,105L54.04,83.75C49.36,79.06 41.76,79.06 37.07,83.75C37.07,83.75 27.49,93.33 27.49,93.33C22.8,98.01 22.8,105.62 27.49,110.3C27.49,110.3 67.03,149.84 67.03,149.84ZM35.97,101.82C35.97,101.82 45.56,92.23 45.56,92.23C45.56,92.23 71.06,117.73 71.06,117.73C73.4,120.07 77.2,120.07 79.54,117.73L146.42,50.86C146.42,50.86 156,60.44 156,60.44C156,60.44 74.3,141.14 74.3,141.14L35.97,101.82Z" fill="#000000" fill-opacity="1.0"/>
</svg>