<svg id="vector" xmlns="http://www.w3.org/2000/svg" width="192" height="192" viewBox="0 0 50.8 50.8"><path fill="#00000000" d="M9.276,30.697a14.281,16.125 90,1 0,32.249 0a14.281,16.125 90,1 0,-32.249 0z" stroke-linejoin="round" stroke-width="3.175" stroke="#000" stroke-linecap="round" id="path_0"/><path fill="#FF000000" d="M19.565,24.077m-1.588,0a1.588,1.588 0,1 1,3.176 0a1.588,1.588 0,1 1,-3.176 0" stroke-width="3.175" id="path_1"/><path fill="#FF000000" d="M31.236,24.077m-1.588,0a1.588,1.588 0,1 1,3.176 0a1.588,1.588 0,1 1,-3.176 0" stroke-width="3.175" id="path_2"/><path fill="#00000000" d="M22.981,28.048s5.183,10.482 8.869,4.031" stroke-linejoin="round" stroke-width="3.175" stroke="#000" stroke-linecap="round" id="path_3"/><path fill="#00000000" d="M27.819,28.048s-5.183,10.482 -8.869,4.031" stroke-linejoin="round" stroke-width="3.175" stroke="#000" stroke-linecap="round" id="path_4"/><path fill="#00000000" d="M21.369,34.5s1.266,5.643 4.031,5.643M29.432,34.5S28.165,40.142 25.4,40.142" stroke-linejoin="round" stroke-width="3.175" stroke="#000" stroke-linecap="round" id="path_5"/><path fill="#00000000" d="m14.113,19.987 l0.346,-14.166 8.523,10.135M36.688,19.526L36.688,5.82l-8.869,9.674" stroke-linejoin="round" stroke-width="3.175" stroke="#000" stroke-linecap="round" id="path_6"/></svg>