<?xml version="1.0" encoding="utf-8" standalone="no"?><svg xmlns:android="http://schemas.android.com/apk/res/android" height="24.0" width="24.0" xmlns="http://www.w3.org/2000/svg">
    <path d="M10.4,13.9L2.7,9.3c-0.9,-0.5 -0.9,-1.4 0,-1.9l7.7,-4.6c0.9,-0.5 2.3,-0.5 3.2,0l7.7,4.6c0.9,0.5 0.9,1.4 0,1.9l-7.7,4.6C12.7,14.4 11.3,14.4 10.4,13.9z" fill="#000000" fill-opacity="1.0"/>
    <path android:fillAlpha="0.7" android:strokeAlpha="0.7" d="M10.4,17.5L2.7,13c-0.9,-0.5 -0.9,-1.4 0,-1.9l7.7,-4.6c0.9,-0.5 2.3,-0.5 3.2,0l7.7,4.6c0.9,0.5 0.9,1.4 0,1.9l-7.7,4.6C12.7,18.1 11.3,18.1 10.4,17.5z" fill="#000000" fill-opacity="1.0"/>
    <path android:fillAlpha="0.5" android:strokeAlpha="0.5" d="M10.4,21.2l-7.7,-4.6c-0.9,-0.5 -0.9,-1.4 0,-1.9l7.7,-4.6c0.9,-0.5 2.3,-0.5 3.2,0l7.7,4.6c0.9,0.5 0.9,1.4 0,1.9l-7.7,4.6C12.7,21.7 11.3,21.7 10.4,21.2z" fill="#000000" fill-opacity="1.0"/>
</svg>