<?xml version="1.0" encoding="utf-8" standalone="no"?><svg xmlns:aapt="http://schemas.android.com/aapt" xmlns:android="http://schemas.android.com/apk/res/android" height="36.0" width="36.0" xmlns="http://www.w3.org/2000/svg">
    <path d="M1.1,11.1v16.7c0,0.9 0.3,1.9 1,2.5c0,0 0,0 0,0c0.7,0.8 1.5,1.1 1.9,1.2h23.6V9.7L15.1,20.4c-0.3,0.1 -0.7,0.2 -1.3,0.2c-1,0 -1.8,-0.6 -2,-0.8C8.3,16.9 4.7,14 1.1,11.1z" fill="#231f20" fill-opacity="1.0"/>
    <path d="M1.1,11.1V5.2c0,-0.1 0.2,-0.4 0.6,-0.6c0.4,-0.1 0.8,0.1 0.9,0.1l13.9,11.4c0.2,0.2 0.5,0.3 0.7,0.4c0.3,0.1 0.6,0.1 0.8,0.1c0.7,0 1.2,-0.2 1.6,-0.4c0.6,-0.2 0.9,-0.5 0.9,-0.4c0,0.1 -1,1.1 -5.4,4.7c-0.2,0.1 -0.6,0.2 -1.1,0.2c0,0 -0.9,0 -1.8,-0.5C11.2,19.5 6.8,16 1.1,11.1z" fill=""/>
    <path d="M27.6,9.7c2,-1.7 3.9,-3.3 5.9,-5c0,0 0.3,-0.3 0.7,-0.2c0.3,0.1 0.5,0.3 0.6,0.7c0,7.8 0.1,15.6 0.1,23.5c-0.1,0.4 -0.3,0.9 -0.7,1.5c-0.7,0.9 -1.5,1.2 -1.8,1.4c-1.6,0 -3.2,0 -4.8,0C27.6,24.2 27.6,16.9 27.6,9.7z" fill=""/>
</svg>