<?xml version="1.0" encoding="utf-8" standalone="no"?><svg xmlns:android="http://schemas.android.com/apk/res/android" height="36.0" width="36.0" xmlns="http://www.w3.org/2000/svg">
    <path d="M8.9,25.7 L8.9,23.1 C8.9,23.1,8.9,22.3,9.4,22.1 S16,18.9,16,18.9 L16,28.3 C16,28.3,16.1,28.9,15.2,29.4 C14.3,29.9,8.9,32.5,8.9,32.5 L8.9,25.7 Z" fill="#000000" fill-opacity="1.0"/>
    <path d="M19.8,20.1 L19.8,8 C19.8,8,19.8,7.2,20.3,7 C20.8,6.8,27.1,3.6,27.1,3.6 L27.1,22.5 C27.1,22.5,27.2,23.1,26.3,23.6 C25.4,24.1,19.8,26.9,19.8,26.9 L19.8,20.1 Z" fill="#000000" fill-opacity="1.0"/>
</svg>