<?xml version="1.0" encoding="utf-8" standalone="no"?><svg xmlns:android="http://schemas.android.com/apk/res/android" height="36.0" width="36.0" xmlns="http://www.w3.org/2000/svg">
    <path d="M21 3H9C7.35 3 6.015 4.35 6.015 6L6 30C6 31.65 7.335 33 8.985 33H27C28.65 33 30 31.65 30 30V12L21 3ZM9 30V6H19.5V13.5H27V30H9Z" fill=""/>
    <path d="M23.25 18.75V24.75H12.75V18.75H23.25ZM25.5 16.5H10.5V27H25.5V16.5Z" fill=""/>
    <path d="M19.125 18H16.875V27H19.125V18Z" fill=""/>
    <path d="M24 20.625H12V22.875H24V20.625Z" fill=""/>
</svg>