<?xml version="1.0" encoding="utf-8" standalone="no"?><svg xmlns:aapt="http://schemas.android.com/aapt" xmlns:android="http://schemas.android.com/apk/res/android" height="1080.0" width="1080.0" xmlns="http://www.w3.org/2000/svg">
    <g transform="translate(213.0, 101.0)">
        <path android:fillAlpha="0.7529412" android:strokeAlpha="0.7529412" d="M399.5 1L403 1.5Q391.3 3.3 383.5 9L384.5 7L399.5 1Z" fill="#ffffff" fill-opacity="1.0" stroke="#ffffffff" stroke-width="1.0"/>
        <path android:fillAlpha="0.7529412" android:strokeAlpha="0.7529412" d="M408.5 1L413.5 2L421 9.5Q423.5 13 422 20.5L416 34.5L401 57.5L345 117.5L340 123.5L339 128L349.5 123L373.5 105L371.5 108L364.5 112L335.5 136L327.5 139L328 137.5L332 129.5L346 114.5L346 113L349 111.5L393 65.5L405 50.5L418 27.5L421 19.5L421 12.5L414.5 4L408.5 2L408.5 1Z" fill="#ffffff" fill-opacity="1.0" stroke="#ffffffff" stroke-width="1.0"/>
        <path android:fillAlpha="0.7529412" android:strokeAlpha="0.7529412" d="M381.5 9L380.5 11L377.5 13L379.5 10L381.5 9Z" fill="#ffffff" fill-opacity="1.0" stroke="#ffffffff" stroke-width="1.0"/>
        <path android:fillAlpha="0.7529412" android:strokeAlpha="0.7529412" d="M375.5 13L373.5 16Q352 32 334 51.5L324.5 63L326 60.5L351.5 33L375.5 13Z" fill="#ffffff" fill-opacity="1.0" stroke="#ffffffff" stroke-width="1.0"/>
        <path android:fillAlpha="0.7529412" android:strokeAlpha="0.7529412" d="M323.5 64L322 66.5L318.5 71L321 67.5L323.5 64Z" fill="#ffffff" fill-opacity="1.0" stroke="#ffffffff" stroke-width="1.0"/>
        <path android:fillAlpha="0.7529412" android:strokeAlpha="0.7529412" d="M317.5 72L315.5 75L317.5 72Z" fill="#ffffff" fill-opacity="1.0" stroke="#ffffffff" stroke-width="1.0"/>
        <path android:fillAlpha="0.7529412" android:strokeAlpha="0.7529412" d="M448.5 74L463 74.5L448.5 75L448.5 74Z" fill="#ffffff" fill-opacity="1.0" stroke="#ffffffff" stroke-width="1.0"/>
        <path android:fillAlpha="0.7529412" android:strokeAlpha="0.7529412" d="M440.5 75L447 75.5L436.5 77L436.5 76L440.5 75Z" fill="#ffffff" fill-opacity="1.0" stroke="#ffffffff" stroke-width="1.0"/>
        <path android:fillAlpha="0.7529412" android:strokeAlpha="0.7529412" d="M467.5 75L470 75.5L467.5 76L467.5 75Z" fill="#ffffff" fill-opacity="1.0" stroke="#ffffffff" stroke-width="1.0"/>
        <path android:fillAlpha="0.7529412" android:strokeAlpha="0.7529412" d="M314.5 76L313 78.5L292.5 109L293 107.5Q302.2 90.2 314.5 76Z" fill="#ffffff" fill-opacity="1.0" stroke="#ffffffff" stroke-width="1.0"/>
        <path android:fillAlpha="0.7529412" android:strokeAlpha="0.7529412" d="M471.5 76L479 81.5L480 88.5L471.5 98L435.5 118L427.5 120L380 140L381 149L389 150.5L382.5 151L376 147.5Q375.4 142.1 377 140L399.5 130L404.5 129L413.5 124L434.5 117L462.5 103L477 91.5L479 84.5L474.5 78Q470.8 77.8 471.5 76Z" fill="#ffffff" fill-opacity="1.0" stroke="#ffffffff" stroke-width="1.0"/>
        <path android:fillAlpha="0.7529412" android:strokeAlpha="0.7529412" d="M431.5 77L435 77.5L431.5 78L431.5 77Z" fill="#ffffff" fill-opacity="1.0" stroke="#ffffffff" stroke-width="1.0"/>
        <path android:fillAlpha="0.7529412" android:strokeAlpha="0.7529412" d="M427.5 78L430 78.5L427.5 79L427.5 78Z" fill="#ffffff" fill-opacity="1.0" stroke="#ffffffff" stroke-width="1.0"/>
        <path android:fillAlpha="0.7529412" android:strokeAlpha="0.7529412" d="M423.5 79L426 79.5Q412.8 82.3 402.5 88L402.5 87L423.5 79Z" fill="#ffffff" fill-opacity="1.0" stroke="#ffffffff" stroke-width="1.0"/>
        <path android:fillAlpha="0.7529412" android:strokeAlpha="0.7529412" d="M400.5 88L399.5 90L395.5 92L396.5 90L400.5 88Z" fill="#ffffff" fill-opacity="1.0" stroke="#ffffffff" stroke-width="1.0"/>
        <path android:fillAlpha="0.7529412" android:strokeAlpha="0.7529412" d="M393.5 92L392.5 94L390.5 95L391.5 93L393.5 92Z" fill="#ffffff" fill-opacity="1.0" stroke="#ffffffff" stroke-width="1.0"/>
        <path android:fillAlpha="0.7529412" android:strokeAlpha="0.7529412" d="M388.5 95L387.5 97L388.5 95Z" fill="#ffffff" fill-opacity="1.0" stroke="#ffffffff" stroke-width="1.0"/>
        <path android:fillAlpha="0.7529412" android:strokeAlpha="0.7529412" d="M385.5 97L384.5 99L375.5 105L377.5 102L385.5 97Z" fill="#ffffff" fill-opacity="1.0" stroke="#ffffffff" stroke-width="1.0"/>
        <path android:fillAlpha="0.7529412" android:strokeAlpha="0.7529412" d="M291.5 110L291 111.5L289.5 114L290 112.5L291.5 110Z" fill="#ffffff" fill-opacity="1.0" stroke="#ffffffff" stroke-width="1.0"/>
        <path android:fillAlpha="0.7529412" android:strokeAlpha="0.7529412" d="M286.5 119L286 120.5L285.5 122L285 120.5L286.5 119Z" fill="#ffffff" fill-opacity="1.0" stroke="#ffffffff" stroke-width="1.0"/>
        <path android:fillAlpha="0.7529412" android:strokeAlpha="0.7529412" d="M282.5 127L283 128.5L281.5 131L281 129.5L282.5 127Z" fill="#ffffff" fill-opacity="1.0" stroke="#ffffffff" stroke-width="1.0"/>
        <path android:fillAlpha="0.7529412" android:strokeAlpha="0.7529412" d="M280.5 132L281 133.5L278.5 138L278 136.5L280.5 132Z" fill="#ffffff" fill-opacity="1.0" stroke="#ffffffff" stroke-width="1.0"/>
        <path android:fillAlpha="0.7529412" android:strokeAlpha="0.7529412" d="M277.5 139L278 141.5L275 146.5L271 161.5L263.5 172L258.5 176L262.5 171L265 169.5L269 163.5L277.5 139Z" fill="#ffffff" fill-opacity="1.0" stroke="#ffffffff" stroke-width="1.0"/>
        <path android:fillAlpha="0.7529412" android:strokeAlpha="0.7529412" d="M421.5 147L428 147.5L421.5 148L421.5 147Z" fill="#ffffff" fill-opacity="1.0" stroke="#ffffffff" stroke-width="1.0"/>
        <path android:fillAlpha="0.7529412" android:strokeAlpha="0.7529412" d="M438.5 147L441 147.5L438.5 148L438.5 147Z" fill="#ffffff" fill-opacity="1.0" stroke="#ffffffff" stroke-width="1.0"/>
        <path android:fillAlpha="0.7529412" android:strokeAlpha="0.7529412" d="M443.5 147L446 147.5L443.5 148L443.5 147Z" fill="#ffffff" fill-opacity="1.0" stroke="#ffffffff" stroke-width="1.0"/>
        <path android:fillAlpha="0.7529412" android:strokeAlpha="0.7529412" d="M466.5 148L471 148.5L466.5 149L466.5 148Z" fill="#ffffff" fill-opacity="1.0" stroke="#ffffffff" stroke-width="1.0"/>
        <path android:fillAlpha="0.7529412" android:strokeAlpha="0.7529412" d="M393.5 149L398 149.5L393.5 150L393.5 149Z" fill="#ffffff" fill-opacity="1.0" stroke="#ffffffff" stroke-width="1.0"/>
        <path android:fillAlpha="0.7529412" android:strokeAlpha="0.7529412" d="M475.5 149L478 149.5L475.5 150L475.5 149Z" fill="#ffffff" fill-opacity="1.0" stroke="#ffffffff" stroke-width="1.0"/>
        <path android:fillAlpha="0.7529412" android:strokeAlpha="0.7529412" d="M484.5 151L487 151.5L484.5 152L484.5 151Z" fill="#ffffff" fill-opacity="1.0" stroke="#ffffffff" stroke-width="1.0"/>
        <path android:fillAlpha="0.7529412" android:strokeAlpha="0.7529412" d="M508.5 157Q526.9 162.6 541 172.5L539.5 172L517.5 161L508.5 158L508.5 157Z" fill="#ffffff" fill-opacity="1.0" stroke="#ffffffff" stroke-width="1.0"/>
        <path android:fillAlpha="0.7529412" android:strokeAlpha="0.7529412" d="M542.5 173L555 181.5L552.5 180L543.5 175L542.5 173Z" fill="#ffffff" fill-opacity="1.0" stroke="#ffffffff" stroke-width="1.0"/>
        <path android:fillAlpha="0.7529412" android:strokeAlpha="0.7529412" d="M556.5 182L567 191.5Q585.1 209.9 593 238.5L592 238.5L587 223.5L579 208.5L573 199.5L556.5 182Z" fill="#ffffff" fill-opacity="1.0" stroke="#ffffffff" stroke-width="1.0"/>
        <path android:fillAlpha="0.7529412" android:strokeAlpha="0.7529412" d="M235.5 183L237 183.5L232.5 185L232.5 184L235.5 183Z" fill="#ffffff" fill-opacity="1.0" stroke="#ffffffff" stroke-width="1.0"/>
        <path android:fillAlpha="0.7529412" android:strokeAlpha="0.7529412" d="M219.5 188L222 188.5L190.5 199L190.5 198L219.5 188Z" fill="#ffffff" fill-opacity="1.0" stroke="#ffffffff" stroke-width="1.0"/>
        <path android:fillAlpha="0.7529412" android:strokeAlpha="0.7529412" d="M187.5 199L189 199.5L182.5 202L182.5 201L187.5 199Z" fill="#ffffff" fill-opacity="1.0" stroke="#ffffffff" stroke-width="1.0"/>
        <path android:fillAlpha="0.7529412" android:strokeAlpha="0.7529412" d="M164.5 208L166 208.5L162.5 210L162.5 209L164.5 208Z" fill="#ffffff" fill-opacity="1.0" stroke="#ffffffff" stroke-width="1.0"/>
        <path android:fillAlpha="0.7529412" android:strokeAlpha="0.7529412" d="M159.5 210L161 210.5L155.5 213L155.5 212L159.5 210Z" fill="#ffffff" fill-opacity="1.0" stroke="#ffffffff" stroke-width="1.0"/>
        <path android:fillAlpha="0.7529412" android:strokeAlpha="0.7529412" d="M152.5 213L154 213.5L148.5 216L148.5 215L152.5 213Z" fill="#ffffff" fill-opacity="1.0" stroke="#ffffffff" stroke-width="1.0"/>
        <path android:fillAlpha="0.7529412" android:strokeAlpha="0.7529412" d="M145.5 216L147 216.5L128.5 225L128.5 224L145.5 216Z" fill="#ffffff" fill-opacity="1.0" stroke="#ffffffff" stroke-width="1.0"/>
        <path android:fillAlpha="0.7529412" android:strokeAlpha="0.7529412" d="M126.5 225L125.5 227L114.5 233L115.5 231L126.5 225Z" fill="#ffffff" fill-opacity="1.0" stroke="#ffffffff" stroke-width="1.0"/>
        <path android:fillAlpha="0.7529412" android:strokeAlpha="0.7529412" d="M108.5 235L107.5 237L103.5 239L104.5 237L108.5 235Z" fill="#ffffff" fill-opacity="1.0" stroke="#ffffffff" stroke-width="1.0"/>
        <path android:fillAlpha="0.7529412" android:strokeAlpha="0.7529412" d="M100.5 239L102 239.5L97.5 242L98.5 240L100.5 239Z" fill="#ffffff" fill-opacity="1.0" stroke="#ffffffff" stroke-width="1.0"/>
        <path android:fillAlpha="0.7529412" android:strokeAlpha="0.7529412" d="M593.5 240L594 243.5L593 243.5L593.5 240Z" fill="#ffffff" fill-opacity="1.0" stroke="#ffffffff" stroke-width="1.0"/>
        <path android:fillAlpha="0.7529412" android:strokeAlpha="0.7529412" d="M92.5 243L94 243.5L91.5 245L92.5 243Z" fill="#ffffff" fill-opacity="1.0" stroke="#ffffffff" stroke-width="1.0"/>
        <path android:fillAlpha="0.7529412" android:strokeAlpha="0.7529412" d="M89.5 245L88.5 247L75.5 254L76.5 252L89.5 245Z" fill="#ffffff" fill-opacity="1.0" stroke="#ffffffff" stroke-width="1.0"/>
        <path android:fillAlpha="0.7529412" android:strokeAlpha="0.7529412" d="M595.5 250L596 253.5L595 253.5L595.5 250Z" fill="#ffffff" fill-opacity="1.0" stroke="#ffffffff" stroke-width="1.0"/>
        <path android:fillAlpha="0.7529412" android:strokeAlpha="0.7529412" d="M73.5 254L72.5 256L68.5 258L69.5 256L73.5 254Z" fill="#ffffff" fill-opacity="1.0" stroke="#ffffffff" stroke-width="1.0"/>
        <path android:fillAlpha="0.7529412" android:strokeAlpha="0.7529412" d="M596.5 257L597 260.5L596 260.5L596.5 257Z" fill="#ffffff" fill-opacity="1.0" stroke="#ffffffff" stroke-width="1.0"/>
        <path android:fillAlpha="0.7529412" android:strokeAlpha="0.7529412" d="M64.5 259L63.5 261L64.5 259Z" fill="#ffffff" fill-opacity="1.0" stroke="#ffffffff" stroke-width="1.0"/>
        <path android:fillAlpha="0.7529412" android:strokeAlpha="0.7529412" d="M57.5 263L56.5 265L54.5 266L55.5 264L57.5 263Z" fill="#ffffff" fill-opacity="1.0" stroke="#ffffffff" stroke-width="1.0"/>
        <path android:fillAlpha="0.7529412" android:strokeAlpha="0.7529412" d="M597.5 264L598 278.5L597 279.5L596.5 293L596 279.5L597 278.5L597.5 264Z" fill="#ffffff" fill-opacity="1.0" stroke="#ffffffff" stroke-width="1.0"/>
        <path android:fillAlpha="0.7529412" android:strokeAlpha="0.7529412" d="M52.5 266L51.5 268L24.5 284L25.5 282L52.5 266Z" fill="#ffffff" fill-opacity="1.0" stroke="#ffffffff" stroke-width="1.0"/>
        <path android:fillAlpha="0.7529412" android:strokeAlpha="0.7529412" d="M22.5 284L21.5 286L16.5 289L17.5 287L22.5 284Z" fill="#ffffff" fill-opacity="1.0" stroke="#ffffffff" stroke-width="1.0"/>
        <path android:fillAlpha="0.7529412" android:strokeAlpha="0.7529412" d="M14.5 289L13.5 291L14.5 289Z" fill="#ffffff" fill-opacity="1.0" stroke="#ffffffff" stroke-width="1.0"/>
        <path android:fillAlpha="0.7529412" android:strokeAlpha="0.7529412" d="M11.5 291L4 299.5L1 305.5L1 312.5Q3.2 313.7 2 318.5L1 318.5L0 305.5L7.5 294L11.5 291Z" fill="#ffffff" fill-opacity="1.0" stroke="#ffffffff" stroke-width="1.0"/>
        <path android:fillAlpha="0.7529412" android:strokeAlpha="0.7529412" d="M595.5 294L596 306.5L595 306.5L595.5 294Z" fill="#ffffff" fill-opacity="1.0" stroke="#ffffffff" stroke-width="1.0"/>
        <path android:fillAlpha="0.7529412" android:strokeAlpha="0.7529412" d="M594.5 310L595 313.5L594 313.5L594.5 310Z" fill="#ffffff" fill-opacity="1.0" stroke="#ffffffff" stroke-width="1.0"/>
        <path android:fillAlpha="0.7529412" android:strokeAlpha="0.7529412" d="M593.5 317L594 319.5L593 319.5L593.5 317Z" fill="#ffffff" fill-opacity="1.0" stroke="#ffffffff" stroke-width="1.0"/>
        <path android:fillAlpha="0.7529412" android:strokeAlpha="0.7529412" d="M94.5 319L98 320L97 326L58.5 353L47 363.5L43 373.5L47 383.5L71 419.5L81 439.5L79 438.5L70 419.5L46 383.5Q42.5 379 42 371.5Q45.4 360.4 54.5 355L79.5 336L82 336L83.5 333L87 330.5L87 326L80.5 326L45.5 342L23.5 335Q20.9 338.4 13.5 337L5 329.5L2 320.5L3 320.5Q4.1 329.9 10.5 334Q13.5 337 20.5 336Q21.9 333.4 26.5 334L38.5 339L48.5 340L84.5 322Q91.3 322.3 94.5 319Z" fill="#ffffff" fill-opacity="1.0" stroke="#ffffffff" stroke-width="1.0"/>
        <path android:fillAlpha="0.7529412" android:strokeAlpha="0.7529412" d="M592.5 321L593 324.5L587.5 347L587 343.5L592.5 321Z" fill="#ffffff" fill-opacity="1.0" stroke="#ffffffff" stroke-width="1.0"/>
        <path android:fillAlpha="0.7529412" android:strokeAlpha="0.7529412" d="M586.5 348L587 350.5L586 350.5L586.5 348Z" fill="#ffffff" fill-opacity="1.0" stroke="#ffffffff" stroke-width="1.0"/>
        <path android:fillAlpha="0.7529412" android:strokeAlpha="0.7529412" d="M585.5 352L586 354.5L579.5 376L579 373.5L585.5 352Z" fill="#ffffff" fill-opacity="1.0" stroke="#ffffffff" stroke-width="1.0"/>
        <path android:fillAlpha="0.7529412" android:strokeAlpha="0.7529412" d="M578.5 377L579 378.5L575.5 387L575 385.5L578.5 377Z" fill="#ffffff" fill-opacity="1.0" stroke="#ffffffff" stroke-width="1.0"/>
        <path android:fillAlpha="0.7529412" android:strokeAlpha="0.7529412" d="M572.5 393L573 394.5L569.5 401L569 399.5L572.5 393Z" fill="#ffffff" fill-opacity="1.0" stroke="#ffffffff" stroke-width="1.0"/>
        <path android:fillAlpha="0.7529412" android:strokeAlpha="0.7529412" d="M568.5 402L569 403.5L566.5 408L566 406.5L568.5 402Z" fill="#ffffff" fill-opacity="1.0" stroke="#ffffffff" stroke-width="1.0"/>
        <path android:fillAlpha="0.7529412" android:strokeAlpha="0.7529412" d="M565.5 409L566 410.5L544 452.5L535 466.5L505 506.5L485.5 528Q483.3 527.3 484 529.5L436.5 574L381.5 617L323.5 656L312 666.5L314.5 670L316.5 671L329.5 668L329.5 669L317.5 673L311.5 673L309 672L308 667.5L322.5 655L333.5 649L357.5 631L379.5 617L412.5 592Q424.2 579.3 439.5 570L478.5 533L480 533L480 531.5L502 508.5L536 463.5L562 417.5L565.5 409Z" fill="#ffffff" fill-opacity="1.0" stroke="#ffffffff" stroke-width="1.0"/>
        <path android:fillAlpha="0.7529412" android:strokeAlpha="0.7529412" d="M240.5 425L243.5 426L244.5 425L264.5 425L264.5 426L245.5 426L244.5 427L215.5 429L215.5 428L231.5 427L240.5 425Z" fill="#ffffff" fill-opacity="1.0" stroke="#ffffffff" stroke-width="1.0"/>
        <path android:fillAlpha="0.7529412" android:strokeAlpha="0.7529412" d="M269.5 425L274 425.5L269.5 426L269.5 425Z" fill="#ffffff" fill-opacity="1.0" stroke="#ffffffff" stroke-width="1.0"/>
        <path android:fillAlpha="0.7529412" android:strokeAlpha="0.7529412" d="M277.5 425L289.5 425L290.5 426L297.5 426L307.5 428L320.5 432L330 438.5L328.5 438L310.5 430L289.5 426L277.5 426L277.5 425Z" fill="#ffffff" fill-opacity="1.0" stroke="#ffffffff" stroke-width="1.0"/>
        <path android:fillAlpha="0.7529412" android:strokeAlpha="0.7529412" d="M207.5 429L214 429.5L183.5 435L183.5 434L207.5 429Z" fill="#ffffff" fill-opacity="1.0" stroke="#ffffffff" stroke-width="1.0"/>
        <path android:fillAlpha="0.7529412" android:strokeAlpha="0.7529412" d="M178.5 435L182 435.5L175.5 437L175.5 436L178.5 435Z" fill="#ffffff" fill-opacity="1.0" stroke="#ffffffff" stroke-width="1.0"/>
        <path android:fillAlpha="0.7529412" android:strokeAlpha="0.7529412" d="M171.5 437L174 437.5L171.5 438L171.5 437Z" fill="#ffffff" fill-opacity="1.0" stroke="#ffffffff" stroke-width="1.0"/>
        <path android:fillAlpha="0.7529412" android:strokeAlpha="0.7529412" d="M167.5 438L170 438.5L141.5 447L117.5 458L117.5 457L135.5 448L167.5 438Z" fill="#ffffff" fill-opacity="1.0" stroke="#ffffffff" stroke-width="1.0"/>
        <path android:fillAlpha="0.7529412" android:strokeAlpha="0.7529412" d="M331.5 439L344 450.5L350 460.5L351 465.5L350 465.5L347 456.5L335.5 443L331.5 439Z" fill="#ffffff" fill-opacity="1.0" stroke="#ffffffff" stroke-width="1.0"/>
        <path android:fillAlpha="0.7529412" android:strokeAlpha="0.7529412" d="M81.5 441L85 446.5L83 445.5L81.5 441Z" fill="#ffffff" fill-opacity="1.0" stroke="#ffffffff" stroke-width="1.0"/>
        <path android:fillAlpha="0.7529412" android:strokeAlpha="0.7529412" d="M85.5 448L89 453.5L87 452.5L85.5 448Z" fill="#ffffff" fill-opacity="1.0" stroke="#ffffffff" stroke-width="1.0"/>
        <path android:fillAlpha="0.7529412" android:strokeAlpha="0.7529412" d="M89.5 455L93.5 460L101 463.5L98.5 464L90 457.5L89.5 455Z" fill="#ffffff" fill-opacity="1.0" stroke="#ffffffff" stroke-width="1.0"/>
        <path android:fillAlpha="0.7529412" android:strokeAlpha="0.7529412" d="M110.5 460L112 460.5L105.5 464L102.5 464L102.5 463Q108.6 463.6 110.5 460Z" fill="#ffffff" fill-opacity="1.0" stroke="#ffffffff" stroke-width="1.0"/>
        <path android:fillAlpha="0.7529412" android:strokeAlpha="0.7529412" d="M351.5 467L352 478.5L351 478.5L351.5 467Z" fill="#ffffff" fill-opacity="1.0" stroke="#ffffffff" stroke-width="1.0"/>
        <path android:fillAlpha="0.7529412" android:strokeAlpha="0.7529412" d="M350.5 480L351 482.5L349.5 486L349 483.5L350.5 480Z" fill="#ffffff" fill-opacity="1.0" stroke="#ffffffff" stroke-width="1.0"/>
        <path android:fillAlpha="0.7529412" android:strokeAlpha="0.7529412" d="M348.5 487L349 488.5L347.5 491L347 489.5L348.5 487Z" fill="#ffffff" fill-opacity="1.0" stroke="#ffffffff" stroke-width="1.0"/>
        <path android:fillAlpha="0.7529412" android:strokeAlpha="0.7529412" d="M346.5 492L347 493.5L345.5 496L345 494.5L346.5 492Z" fill="#ffffff" fill-opacity="1.0" stroke="#ffffffff" stroke-width="1.0"/>
        <path android:fillAlpha="0.7529412" android:strokeAlpha="0.7529412" d="M344.5 497L344 498.5L342.5 501L343 499.5L344.5 497Z" fill="#ffffff" fill-opacity="1.0" stroke="#ffffffff" stroke-width="1.0"/>
        <path android:fillAlpha="0.7529412" android:strokeAlpha="0.7529412" d="M339.5 506L338.5 508L339.5 506Z" fill="#ffffff" fill-opacity="1.0" stroke="#ffffffff" stroke-width="1.0"/>
        <path android:fillAlpha="0.7529412" android:strokeAlpha="0.7529412" d="M337.5 509L337 510.5L321.5 533L323 530.5L337.5 509Z" fill="#ffffff" fill-opacity="1.0" stroke="#ffffffff" stroke-width="1.0"/>
        <path android:fillAlpha="0.7529412" android:strokeAlpha="0.7529412" d="M320.5 534L319 536.5L308 552.5L279 588.5L236.5 631L213 653.5L176.5 691L163.5 702L169.5 695Q191.2 678.2 209 657.5L238.5 627L277 589.5L320.5 534Z" fill="#ffffff" fill-opacity="1.0" stroke="#ffffffff" stroke-width="1.0"/>
        <path android:fillAlpha="0.7529412" android:strokeAlpha="0.7529412" d="M646.5 595Q652.7 594.3 654 598.5Q655.8 605.3 652.5 607L639.5 613L618.5 618L618.5 617L641.5 611L651 605.5Q651.9 598.6 647.5 597L642 596.5L646.5 595Z" fill="#ffffff" fill-opacity="1.0" stroke="#ffffffff" stroke-width="1.0"/>
        <path android:fillAlpha="0.7529412" android:strokeAlpha="0.7529412" d="M633.5 596L636 596.5L633.5 597L633.5 596Z" fill="#ffffff" fill-opacity="1.0" stroke="#ffffffff" stroke-width="1.0"/>
        <path android:fillAlpha="0.7529412" android:strokeAlpha="0.7529412" d="M623.5 597L627 597.5L623.5 598L623.5 597Z" fill="#ffffff" fill-opacity="1.0" stroke="#ffffffff" stroke-width="1.0"/>
        <path android:fillAlpha="0.7529412" android:strokeAlpha="0.7529412" d="M616.5 598L622 598.5L616.5 599L616.5 598Z" fill="#ffffff" fill-opacity="1.0" stroke="#ffffffff" stroke-width="1.0"/>
        <path android:fillAlpha="0.7529412" android:strokeAlpha="0.7529412" d="M608.5 599L614 599.5L608.5 600L608.5 599Z" fill="#ffffff" fill-opacity="1.0" stroke="#ffffffff" stroke-width="1.0"/>
        <path android:fillAlpha="0.7529412" android:strokeAlpha="0.7529412" d="M601.5 600L607 600.5L601.5 601L601.5 600Z" fill="#ffffff" fill-opacity="1.0" stroke="#ffffffff" stroke-width="1.0"/>
        <path android:fillAlpha="0.7529412" android:strokeAlpha="0.7529412" d="M594.5 601L600 601.5L590.5 603L590.5 602L594.5 601Z" fill="#ffffff" fill-opacity="1.0" stroke="#ffffffff" stroke-width="1.0"/>
        <path android:fillAlpha="0.7529412" android:strokeAlpha="0.7529412" d="M583.5 603L589 603.5L583.5 604L583.5 603Z" fill="#ffffff" fill-opacity="1.0" stroke="#ffffffff" stroke-width="1.0"/>
        <path android:fillAlpha="0.7529412" android:strokeAlpha="0.7529412" d="M577.5 604L582 604.5L572.5 607L566.5 607L548.5 611L543.5 611L539.5 613L528.5 614L528.5 613L539.5 612L543.5 610L548.5 610L559.5 607L572.5 606L577.5 604Z" fill="#ffffff" fill-opacity="1.0" stroke="#ffffffff" stroke-width="1.0"/>
        <path android:fillAlpha="0.7529412" android:strokeAlpha="0.7529412" d="M524.5 614L527 614.5L520.5 616L520.5 615L524.5 614Z" fill="#ffffff" fill-opacity="1.0" stroke="#ffffffff" stroke-width="1.0"/>
        <path android:fillAlpha="0.7529412" android:strokeAlpha="0.7529412" d="M614.5 618L617 618.5L614.5 619L614.5 618Z" fill="#ffffff" fill-opacity="1.0" stroke="#ffffffff" stroke-width="1.0"/>
        <path android:fillAlpha="0.7529412" android:strokeAlpha="0.7529412" d="M502.5 619L506 619.5L502.5 620L502.5 619Z" fill="#ffffff" fill-opacity="1.0" stroke="#ffffffff" stroke-width="1.0"/>
        <path android:fillAlpha="0.7529412" android:strokeAlpha="0.7529412" d="M609.5 619L613 619.5Q606.5 619.5 604 623.5Q605.8 629.8 603 631.5L609 642.5L607.5 646Q606.2 635.8 599.5 631L596 631L596 624.5L609.5 619Z" fill="#ffffff" fill-opacity="1.0" stroke="#ffffffff" stroke-width="1.0"/>
        <path android:fillAlpha="0.7529412" android:strokeAlpha="0.7529412" d="M489.5 622L492 622.5L489.5 623L489.5 622Z" fill="#ffffff" fill-opacity="1.0" stroke="#ffffffff" stroke-width="1.0"/>
        <path android:fillAlpha="0.7529412" android:strokeAlpha="0.7529412" d="M482.5 624L485 624.5L478.5 626L478.5 625L482.5 624Z" fill="#ffffff" fill-opacity="1.0" stroke="#ffffffff" stroke-width="1.0"/>
        <path android:fillAlpha="0.7529412" android:strokeAlpha="0.7529412" d="M473.5 626L476 626.5L466.5 629L466.5 628L473.5 626Z" fill="#ffffff" fill-opacity="1.0" stroke="#ffffffff" stroke-width="1.0"/>
        <path android:fillAlpha="0.7529412" android:strokeAlpha="0.7529412" d="M461.5 629L465 629.5L445.5 634L445.5 633L457.5 631L461.5 629Z" fill="#ffffff" fill-opacity="1.0" stroke="#ffffffff" stroke-width="1.0"/>
        <path android:fillAlpha="0.7529412" android:strokeAlpha="0.7529412" d="M440.5 634L444 634.5L440.5 635L440.5 634Z" fill="#ffffff" fill-opacity="1.0" stroke="#ffffffff" stroke-width="1.0"/>
        <path android:fillAlpha="0.7529412" android:strokeAlpha="0.7529412" d="M436.5 635L439 635.5L436.5 636L436.5 635Z" fill="#ffffff" fill-opacity="1.0" stroke="#ffffffff" stroke-width="1.0"/>
        <path android:fillAlpha="0.7529412" android:strokeAlpha="0.7529412" d="M432.5 636L435 636.5L432.5 637L432.5 636Z" fill="#ffffff" fill-opacity="1.0" stroke="#ffffffff" stroke-width="1.0"/>
        <path android:fillAlpha="0.7529412" android:strokeAlpha="0.7529412" d="M427.5 637L431 637.5L420.5 640L420.5 639L427.5 637Z" fill="#ffffff" fill-opacity="1.0" stroke="#ffffffff" stroke-width="1.0"/>
        <path android:fillAlpha="0.7529412" android:strokeAlpha="0.7529412" d="M409.5 642L411 642.5L406.5 644L406.5 643L409.5 642Z" fill="#ffffff" fill-opacity="1.0" stroke="#ffffffff" stroke-width="1.0"/>
        <path android:fillAlpha="0.7529412" android:strokeAlpha="0.7529412" d="M392.5 647L395 647.5L392.5 648L392.5 647Z" fill="#ffffff" fill-opacity="1.0" stroke="#ffffffff" stroke-width="1.0"/>
        <path android:fillAlpha="0.7529412" android:strokeAlpha="0.7529412" d="M606.5 647Q606.3 653.2 610 655.5L606 652.5L606.5 647Z" fill="#ffffff" fill-opacity="1.0" stroke="#ffffffff" stroke-width="1.0"/>
        <path android:fillAlpha="0.7529412" android:strokeAlpha="0.7529412" d="M385.5 649L388 649.5L385.5 650L385.5 649Z" fill="#ffffff" fill-opacity="1.0" stroke="#ffffffff" stroke-width="1.0"/>
        <path android:fillAlpha="0.7529412" android:strokeAlpha="0.7529412" d="M378.5 651L381 651.5L378.5 652L378.5 651Z" fill="#ffffff" fill-opacity="1.0" stroke="#ffffffff" stroke-width="1.0"/>
        <path android:fillAlpha="0.7529412" android:strokeAlpha="0.7529412" d="M372.5 653L374 653.5L366.5 656L366.5 655L372.5 653Z" fill="#ffffff" fill-opacity="1.0" stroke="#ffffffff" stroke-width="1.0"/>
        <path android:fillAlpha="0.7529412" android:strokeAlpha="0.7529412" d="M363.5 656L365 656.5L331.5 668L331.5 667L363.5 656Z" fill="#ffffff" fill-opacity="1.0" stroke="#ffffffff" stroke-width="1.0"/>
        <path android:fillAlpha="0.7529412" android:strokeAlpha="0.7529412" d="M610.5 657L612.5 660L610.5 657Z" fill="#ffffff" fill-opacity="1.0" stroke="#ffffffff" stroke-width="1.0"/>
        <path android:fillAlpha="0.7529412" android:strokeAlpha="0.7529412" d="M613.5 661L614.5 663L613.5 661Z" fill="#ffffff" fill-opacity="1.0" stroke="#ffffffff" stroke-width="1.0"/>
        <path android:fillAlpha="0.7529412" android:strokeAlpha="0.7529412" d="M615.5 664L616.5 666L615.5 664Z" fill="#ffffff" fill-opacity="1.0" stroke="#ffffffff" stroke-width="1.0"/>
        <path android:fillAlpha="0.7529412" android:strokeAlpha="0.7529412" d="M618.5 675L619 678.5L618 678.5L618.5 675Z" fill="#ffffff" fill-opacity="1.0" stroke="#ffffffff" stroke-width="1.0"/>
        <path android:fillAlpha="0.7529412" android:strokeAlpha="0.7529412" d="M617.5 681L618 685.5L617 685.5L617.5 681Z" fill="#ffffff" fill-opacity="1.0" stroke="#ffffffff" stroke-width="1.0"/>
        <path android:fillAlpha="0.7529412" android:strokeAlpha="0.7529412" d="M616.5 687L617 690.5L616 690.5L616.5 687Z" fill="#ffffff" fill-opacity="1.0" stroke="#ffffffff" stroke-width="1.0"/>
        <path android:fillAlpha="0.7529412" android:strokeAlpha="0.7529412" d="M615.5 692L616 697.5L611 715.5L599.5 729Q583.6 737.1 573 750.5L571.5 753L572 751.5L579.5 742L599.5 728L605 722.5L611 712.5L611 708.5L615 697.5L615.5 692Z" fill="#ffffff" fill-opacity="1.0" stroke="#ffffffff" stroke-width="1.0"/>
        <path android:fillAlpha="0.7529412" android:strokeAlpha="0.7529412" d="M161.5 702L100 764.5L95.5 773L95 771.5L103 759L107 756.5L110.5 752L161.5 702Z" fill="#ffffff" fill-opacity="1.0" stroke="#ffffffff" stroke-width="1.0"/>
        <path android:fillAlpha="0.7529412" android:strokeAlpha="0.7529412" d="M566.5 764L567 765.5L559.5 774L553.5 777L541.5 778L541.5 777L546.5 777L557.5 774L565 766.5L566.5 764Z" fill="#ffffff" fill-opacity="1.0" stroke="#ffffffff" stroke-width="1.0"/>
        <path android:fillAlpha="0.7529412" android:strokeAlpha="0.7529412" d="M535.5 778L540 778.5L535.5 779L535.5 778Z" fill="#ffffff" fill-opacity="1.0" stroke="#ffffffff" stroke-width="1.0"/>
        <path android:fillAlpha="0.7529412" android:strokeAlpha="0.7529412" d="M528.5 779L534 779.5L522.5 781L522.5 780Q527.2 781.2 528.5 779Z" fill="#ffffff" fill-opacity="1.0" stroke="#ffffffff" stroke-width="1.0"/>
        <path android:fillAlpha="0.7529412" android:strokeAlpha="0.7529412" d="M514.5 781L521 781.5L507.5 783L507.5 782Q513 783.5 514.5 781Z" fill="#ffffff" fill-opacity="1.0" stroke="#ffffffff" stroke-width="1.0"/>
        <path android:fillAlpha="0.7529412" android:strokeAlpha="0.7529412" d="M500.5 783L506 783.5L500.5 784L500.5 783Z" fill="#ffffff" fill-opacity="1.0" stroke="#ffffffff" stroke-width="1.0"/>
        <path android:fillAlpha="0.7529412" android:strokeAlpha="0.7529412" d="M493.5 784L499 784.5L493.5 785L493.5 784Z" fill="#ffffff" fill-opacity="1.0" stroke="#ffffffff" stroke-width="1.0"/>
        <path android:fillAlpha="0.7529412" android:strokeAlpha="0.7529412" d="M486.5 785L492 785.5L481.5 787L481.5 786L486.5 785Z" fill="#ffffff" fill-opacity="1.0" stroke="#ffffffff" stroke-width="1.0"/>
        <path android:fillAlpha="0.7529412" android:strokeAlpha="0.7529412" d="M475.5 787L480 787.5L475.5 788L475.5 787Z" fill="#ffffff" fill-opacity="1.0" stroke="#ffffffff" stroke-width="1.0"/>
        <path android:fillAlpha="0.7529412" android:strokeAlpha="0.7529412" d="M468.5 788L473 788.5L468.5 789L468.5 788Z" fill="#ffffff" fill-opacity="1.0" stroke="#ffffffff" stroke-width="1.0"/>
        <path android:fillAlpha="0.7529412" android:strokeAlpha="0.7529412" d="M464.5 789L467 789.5L464.5 790L464.5 789Z" fill="#ffffff" fill-opacity="1.0" stroke="#ffffffff" stroke-width="1.0"/>
        <path android:fillAlpha="0.7529412" android:strokeAlpha="0.7529412" d="M456.5 790L461 790.5L456.5 791L456.5 790Z" fill="#ffffff" fill-opacity="1.0" stroke="#ffffffff" stroke-width="1.0"/>
        <path android:fillAlpha="0.7529412" android:strokeAlpha="0.7529412" d="M450.5 791L454 791.5L450.5 792L450.5 791Z" fill="#ffffff" fill-opacity="1.0" stroke="#ffffffff" stroke-width="1.0"/>
        <path android:fillAlpha="0.7529412" android:strokeAlpha="0.7529412" d="M445.5 792L449 792.5L445.5 793L445.5 792Z" fill="#ffffff" fill-opacity="1.0" stroke="#ffffffff" stroke-width="1.0"/>
        <path android:fillAlpha="0.7529412" android:strokeAlpha="0.7529412" d="M438.5 793L443 793.5L438.5 794L438.5 793Z" fill="#ffffff" fill-opacity="1.0" stroke="#ffffffff" stroke-width="1.0"/>
        <path android:fillAlpha="0.7529412" android:strokeAlpha="0.7529412" d="M433.5 794L437 794.5L433.5 795L433.5 794Z" fill="#ffffff" fill-opacity="1.0" stroke="#ffffffff" stroke-width="1.0"/>
        <path android:fillAlpha="0.7529412" android:strokeAlpha="0.7529412" d="M429.5 795L432 795.5L429.5 796L429.5 795Z" fill="#ffffff" fill-opacity="1.0" stroke="#ffffffff" stroke-width="1.0"/>
        <path android:fillAlpha="0.7529412" android:strokeAlpha="0.7529412" d="M423.5 796L427 796.5L423.5 797L423.5 796Z" fill="#ffffff" fill-opacity="1.0" stroke="#ffffffff" stroke-width="1.0"/>
        <path android:fillAlpha="0.7529412" android:strokeAlpha="0.7529412" d="M418.5 797L421 797.5L415.5 799L415.5 798L418.5 797Z" fill="#ffffff" fill-opacity="1.0" stroke="#ffffffff" stroke-width="1.0"/>
        <path android:fillAlpha="0.7529412" android:strokeAlpha="0.7529412" d="M410.5 799L414 799.5L410.5 800L410.5 799Z" fill="#ffffff" fill-opacity="1.0" stroke="#ffffffff" stroke-width="1.0"/>
        <path android:fillAlpha="0.7529412" android:strokeAlpha="0.7529412" d="M404.5 800L409 800.5L404.5 801L404.5 800Z" fill="#ffffff" fill-opacity="1.0" stroke="#ffffffff" stroke-width="1.0"/>
        <path android:fillAlpha="0.7529412" android:strokeAlpha="0.7529412" d="M400.5 801L403 801.5L395.5 803L395.5 802L400.5 801Z" fill="#ffffff" fill-opacity="1.0" stroke="#ffffffff" stroke-width="1.0"/>
        <path android:fillAlpha="0.7529412" android:strokeAlpha="0.7529412" d="M390.5 803L394 803.5L390.5 804L390.5 803Z" fill="#ffffff" fill-opacity="1.0" stroke="#ffffffff" stroke-width="1.0"/>
        <path android:fillAlpha="0.7529412" android:strokeAlpha="0.7529412" d="M386.5 804L389 804.5L386.5 805L386.5 804Z" fill="#ffffff" fill-opacity="1.0" stroke="#ffffffff" stroke-width="1.0"/>
        <path android:fillAlpha="0.7529412" android:strokeAlpha="0.7529412" d="M381.5 805L385 805.5L381.5 806L381.5 805Z" fill="#ffffff" fill-opacity="1.0" stroke="#ffffffff" stroke-width="1.0"/>
        <path android:fillAlpha="0.7529412" android:strokeAlpha="0.7529412" d="M376.5 806L380 806.5L376.5 807L376.5 806Z" fill="#ffffff" fill-opacity="1.0" stroke="#ffffffff" stroke-width="1.0"/>
        <path android:fillAlpha="0.7529412" android:strokeAlpha="0.7529412" d="M371.5 807L375 807.5L371.5 808L371.5 807Z" fill="#ffffff" fill-opacity="1.0" stroke="#ffffffff" stroke-width="1.0"/>
        <path android:fillAlpha="0.7529412" android:strokeAlpha="0.7529412" d="M362.5 809L365 809.5L362.5 810L362.5 809Z" fill="#ffffff" fill-opacity="1.0" stroke="#ffffffff" stroke-width="1.0"/>
        <path android:fillAlpha="0.7529412" android:strokeAlpha="0.7529412" d="M357.5 810L361 810.5L357.5 811L357.5 810Z" fill="#ffffff" fill-opacity="1.0" stroke="#ffffffff" stroke-width="1.0"/>
        <path android:fillAlpha="0.7529412" android:strokeAlpha="0.7529412" d="M352.5 811L356 811.5L339.5 815L339.5 814L352.5 811Z" fill="#ffffff" fill-opacity="1.0" stroke="#ffffffff" stroke-width="1.0"/>
        <path android:fillAlpha="0.7529412" android:strokeAlpha="0.7529412" d="M333.5 815L337 815.5L333.5 816L333.5 815Z" fill="#ffffff" fill-opacity="1.0" stroke="#ffffffff" stroke-width="1.0"/>
        <path android:fillAlpha="0.7529412" android:strokeAlpha="0.7529412" d="M95.5 822L96 825.5L95 825.5L95.5 822Z" fill="#ffffff" fill-opacity="1.0" stroke="#ffffffff" stroke-width="1.0"/>
        <path android:fillAlpha="0.7529412" android:strokeAlpha="0.7529412" d="M302.5 822L305 822.5L282.5 828L282.5 827L302.5 822Z" fill="#ffffff" fill-opacity="1.0" stroke="#ffffffff" stroke-width="1.0"/>
        <path android:fillAlpha="0.7529412" android:strokeAlpha="0.7529412" d="M278.5 828L281 828.5L278.5 829L278.5 828Z" fill="#ffffff" fill-opacity="1.0" stroke="#ffffffff" stroke-width="1.0"/>
        <path android:fillAlpha="0.7529412" android:strokeAlpha="0.7529412" d="M96.5 829L97 831.5L96 831.5L96.5 829Z" fill="#ffffff" fill-opacity="1.0" stroke="#ffffffff" stroke-width="1.0"/>
        <path android:fillAlpha="0.7529412" android:strokeAlpha="0.7529412" d="M274.5 829L277 829.5L258.5 834L258.5 833L274.5 829Z" fill="#ffffff" fill-opacity="1.0" stroke="#ffffffff" stroke-width="1.0"/>
        <path android:fillAlpha="0.7529412" android:strokeAlpha="0.7529412" d="M253.5 834L257 834.5L227.5 842L227.5 841L253.5 834Z" fill="#ffffff" fill-opacity="1.0" stroke="#ffffffff" stroke-width="1.0"/>
        <path android:fillAlpha="0.7529412" android:strokeAlpha="0.7529412" d="M99.5 843L104 848.5L99 844.5L99.5 843Z" fill="#ffffff" fill-opacity="1.0" stroke="#ffffffff" stroke-width="1.0"/>
        <path android:fillAlpha="0.7529412" android:strokeAlpha="0.7529412" d="M220.5 843L223 843.5L220.5 844L220.5 843Z" fill="#ffffff" fill-opacity="1.0" stroke="#ffffffff" stroke-width="1.0"/>
        <path android:fillAlpha="0.7529412" android:strokeAlpha="0.7529412" d="M216.5 844L219 844.5L216.5 845L216.5 844Z" fill="#ffffff" fill-opacity="1.0" stroke="#ffffffff" stroke-width="1.0"/>
        <path android:fillAlpha="0.7529412" android:strokeAlpha="0.7529412" d="M105.5 849L110 851.5L108.5 852L105.5 849Z" fill="#ffffff" fill-opacity="1.0" stroke="#ffffffff" stroke-width="1.0"/>
        <path android:fillAlpha="0.7529412" android:strokeAlpha="0.7529412" d="M120.5 850L138 850L138 857L130.5 859L117.5 866L114 869.5Q113.5 875 116.5 877L124.5 876L124.5 877L116.5 879L112 874.5L112 869.5L117.5 864L121.5 863L127 859Q128.5 853.6 125.5 852L120.5 851Q118.2 853.7 112.5 853L112.5 852Q118.2 852.7 120.5 850Z" fill="#ffffff" fill-opacity="1.0" stroke="#ffffffff" stroke-width="1.0"/>
        <path android:fillAlpha="0.7529412" android:strokeAlpha="0.7529412" d="M191.5 852L194 852.5L173.5 858L145.5 869L145.5 868L164.5 860L191.5 852Z" fill="#ffffff" fill-opacity="1.0" stroke="#ffffffff" stroke-width="1.0"/>
        <path android:fillAlpha="0.7529412" android:strokeAlpha="0.7529412" d="M139.5 870L141 870.5L134.5 873L134.5 872L139.5 870Z" fill="#ffffff" fill-opacity="1.0" stroke="#ffffffff" stroke-width="1.0"/>
        <path android:fillAlpha="0.7529412" android:strokeAlpha="0.7529412" d="M131.5 873L133 873.5L129.5 875L129.5 874L131.5 873Z" fill="#ffffff" fill-opacity="1.0" stroke="#ffffffff" stroke-width="1.0"/>
        <path d="M403.5 1Q413.9 1.1 418 7.5Q422.3 10.7 421 19.5Q414.8 36.8 405 50.5L393 65.5L347.5 113Q345.3 112.3 346 114.5Q333.9 123.9 327 138.5L329.5 139Q349.2 127.7 364.5 112L401.5 88L430.5 78L447.5 75L466.5 75Q474.3 76.2 478 81.5L479 87.5L472.5 96L462.5 103L434.5 117L413.5 124L404.5 129L399.5 130L377 140Q375.4 142.1 376 147.5Q379.4 152.1 388.5 151L404.5 148L437.5 147L440.5 148L442.5 147L443.5 148L465.5 148L466.5 149L480.5 150L484.5 152L489.5 152L504.5 156L517.5 161Q538.2 169.8 555.5 182L573 199.5L582 213.5L593 239.5L597 261.5L597 278.5L596 279.5L596 293.5L595 294.5L594 316.5L590 328.5L590 334.5Q586.5 341.5 586 351.5L579 376.5L562 417.5L536 463.5L502 508.5L480 531.5L480 533L478.5 533L439.5 570Q424.2 579.3 412.5 592L379.5 617L357.5 631L333.5 649L322.5 655L308 667.5L309 672Q311.4 673.8 317.5 673L377.5 652L408.5 644L414.5 641L418.5 641L448.5 633L457.5 632L500.5 620L505.5 620L517.5 616L523.5 616L527.5 614L539.5 613L543.5 611L548.5 611L559.5 608L572.5 607L582.5 604L588.5 604L594.5 602L613.5 600L614.5 599L621.5 599L627.5 597L641.5 596Q642.8 598.3 647.5 597L650 599.5L651 605.5L641.5 611L617.5 618L609.5 619L596 624.5L596 631L599.5 631L607 641.5L607 646.5Q604.7 647.7 606 652.5L617 666.5Q619.7 668.8 619 674.5L611 712.5Q607.1 722.1 599.5 728Q585.8 734.8 576 745.5Q569.2 752.2 567 763.5L557.5 774L534.5 779L486.5 785L480.5 787L468.5 788L463.5 790L456.5 790L444.5 793L438.5 793Q430.2 796.7 418.5 797L414.5 799L404.5 800L385.5 805L371.5 807L367.5 809L346.5 812L326.5 818L316.5 819L312.5 821L293.5 824L216.5 844L194.5 852L164.5 860L125.5 876L116.5 877Q113.5 875 114 869.5L117.5 866L130.5 859L138 857L138 850L120.5 850Q117.5 853 110.5 852Q103.8 849.8 100 844.5L98 839.5L96 822.5L94 816.5L94 776.5L100 764.5L162.5 702L176.5 691L213 654.5L235.5 631L279 588.5Q310.2 552.2 337 511.5L349 488.5L352 478.5L352 467.5Q347.9 450.6 335.5 442L320.5 432L297.5 426Q291.2 427.8 289.5 425L244.5 425L241.5 426L239.5 426L220.5 427Q215.9 429.9 207.5 429L163.5 439L135.5 448L129.5 452L101.5 464L91 457.5L71 419.5L47 383.5L43 372.5Q45.1 362.6 52.5 358L97 326L98 320L94.5 319Q91.3 322.3 84.5 322L48.5 340L43.5 340L35.5 338L30.5 335L23.5 334Q21.2 337.2 14.5 336L6 329.5L2 319.5L1 305.5Q4.6 296.1 12.5 291L65.5 259L135.5 221L189.5 199L256.5 177L267 168.5L271 161.5L275 146.5L278 141.5L278 138.5L283 126.5L297 101.5L328 58.5L350.5 35L382.5 9L403.5 1Z" fill="#ffffff" fill-opacity="1.0" stroke="#ffffffff" stroke-width="1.0"/>
    </g>
</svg>