<?xml version="1.0" encoding="utf-8" standalone="no"?><svg xmlns:android="http://schemas.android.com/apk/res/android" height="36.0" width="36.0" xmlns="http://www.w3.org/2000/svg">
    <path d="M18.4,4.1v5.1C18,9,17.5,8.8,17.1,8.8H8.5C11,6.1,14.5,4.3,18.4,4.1z" fill="#000000" fill-opacity="1.0"/>
    <path d="M33,17.2H19.9V4.1C26.9,4.5,32.6,10.2,33,17.2z" fill="#000000" fill-opacity="1.0"/>
    <path d="M19.8,18.8H33C32.6,26.1,26.5,32,19,32c-4.2,0-8-1.9-10.5-4.8h8.5c0.7,0,1.4-0.3,2-0.8c0.5-0.5,0.8-1.2,0.8-2V18.8z" fill="#000000" fill-opacity="1.0"/>
    <path d="M11.1,15.3c-0.2,0-0.6-0.1-1.2-0.1H9.2v2.2H10c0.6,0,1,0,1.3-0.1c0.2-0.1,0.4-0.2,0.5-0.4c0.1-0.2,0.2-0.4,0.2-0.6 c0-0.3-0.1-0.5-0.2-0.7C11.5,15.5,11.3,15.4,11.1,15.3z" fill="#000000" fill-opacity="1.0"/>
    <path d="M18,10.7c-0.2-0.2-0.6-0.4-0.9-0.4H4.3c-0.3,0-0.7,0.1-0.9,0.4C3.1,10.9,3,11.3,3,11.6v12.8c0,0.3,0.1,0.7,0.4,0.9 s0.6,0.4,0.9,0.4h12.8c0.3,0,0.7-0.1,0.9-0.4c0.2-0.2,0.4-0.6,0.4-0.9V11.6C18.3,11.3,18.2,10.9,18,10.7z M13.5,17.7 c-0.2,0.4-0.4,0.7-0.7,0.9c-0.3,0.2-0.6,0.4-0.9,0.4c-0.4,0.1-1,0.1-1.7,0.1h-1v3.2H7.4v-8.8h2.7c1,0,1.6,0,2,0.1 c0.5,0.1,0.9,0.4,1.2,0.9c0.3,0.4,0.5,1,0.5,1.7C13.8,16.9,13.7,17.4,13.5,17.7z" fill="#000000" fill-opacity="1.0"/>
</svg>