<?xml version="1.0" encoding="utf-8" standalone="no"?><svg xmlns:android="http://schemas.android.com/apk/res/android" height="36.0" width="36.0" xmlns="http://www.w3.org/2000/svg">
    <path d="M 16.5 7.3 L 19.5 7.3 L 19.5 10.3 L 20.3 10.3 L 20.3 4 L 19.5 4 L 19.5 6.6 L 16.5 6.6 L 16.5 4 L 15.7 4 L 15.7 10.3 L 16.5 10.3 Z" fill="#010202" fill-opacity="1.0"/>
    <path d="M 6.7 21.1 L 6.7 15.5 L 8.7 15.5 L 8.7 14.9 L 4 14.9 L 4 15.5 L 5.9 15.5 L 5.9 21.1 Z" fill="#010202" fill-opacity="1.0"/>
    <path d="M 29.3 20.5 L 29.3 18.2 L 31.7 18.2 L 31.7 17.5 L 29.3 17.5 L 29.3 15.5 L 31.9 15.5 L 31.9 14.9 L 28.5 14.9 L 28.5 21.1 L 32 21.1 L 32 20.5 Z" fill="#010202" fill-opacity="1.0"/>
    <path d="M19.6,28.3c0,1,0,1.7,0.1,2.6l0,0c-0.3-0.6-0.7-1.3-1.1-2l-2-3.2h-0.9V32h0.8v-2.7c0-1,0-1.8-0.1-2.6l0,0 c0.3,0.7,0.7,1.4,1.2,2.1l2,3.2h0.8v-6.3h-0.8V28.3z" fill="#010202" fill-opacity="1.0"/>
    <path d="M 29.4 7.7 L 28.3 6.6 L 18 16.9 L 7.7 6.6 L 6.6 7.7 L 16.9 18 L 6.6 28.3 L 7.7 29.4 L 18 19.1 L 28.3 29.4 L 29.4 28.3 L 19.1 18 Z" fill="#010202" fill-opacity="1.0"/>
</svg>