<?xml version="1.0" encoding="utf-8" standalone="no"?><svg xmlns:aapt="http://schemas.android.com/aapt" xmlns:android="http://schemas.android.com/apk/res/android" height="1080.0" width="1080.0" xmlns="http://www.w3.org/2000/svg">
    <g transform="translate(99.0, 100.0)">
        <path android:fillAlpha="0.7921569" android:strokeAlpha="0.7921569" d="M407.5 0L414 0.5L407.5 1L407.5 0Z" fill="#ffffff" fill-opacity="1.0" stroke="#ffffffff" stroke-width="1.0"/>
        <path android:fillAlpha="0.7921569" android:strokeAlpha="0.7921569" d="M468.5 0L476 0.5L468.5 1L468.5 0Z" fill="#ffffff" fill-opacity="1.0" stroke="#ffffffff" stroke-width="1.0"/>
        <path android:fillAlpha="0.7921569" android:strokeAlpha="0.7921569" d="M396.5 1L401 1.5L396.5 2L396.5 1Z" fill="#ffffff" fill-opacity="1.0" stroke="#ffffffff" stroke-width="1.0"/>
        <path android:fillAlpha="0.7921569" android:strokeAlpha="0.7921569" d="M482.5 1L486 1.5L482.5 2L482.5 1Z" fill="#ffffff" fill-opacity="1.0" stroke="#ffffffff" stroke-width="1.0"/>
        <path android:fillAlpha="0.7921569" android:strokeAlpha="0.7921569" d="M387.5 2L391 2.5L387.5 3L387.5 2Z" fill="#ffffff" fill-opacity="1.0" stroke="#ffffffff" stroke-width="1.0"/>
        <path android:fillAlpha="0.7921569" android:strokeAlpha="0.7921569" d="M491.5 2L496 2.5L491.5 3L491.5 2Z" fill="#ffffff" fill-opacity="1.0" stroke="#ffffffff" stroke-width="1.0"/>
        <path android:fillAlpha="0.7921569" android:strokeAlpha="0.7921569" d="M380.5 3L383 3.5L380.5 4L380.5 3Z" fill="#ffffff" fill-opacity="1.0" stroke="#ffffffff" stroke-width="1.0"/>
        <path android:fillAlpha="0.7921569" android:strokeAlpha="0.7921569" d="M500.5 3L503 3.5L500.5 4L500.5 3Z" fill="#ffffff" fill-opacity="1.0" stroke="#ffffffff" stroke-width="1.0"/>
        <path android:fillAlpha="0.7921569" android:strokeAlpha="0.7921569" d="M373.5 4L376 4.5L373.5 5L373.5 4Z" fill="#ffffff" fill-opacity="1.0" stroke="#ffffffff" stroke-width="1.0"/>
        <path android:fillAlpha="0.7921569" android:strokeAlpha="0.7921569" d="M507.5 4L510 4.5L507.5 5L507.5 4Z" fill="#ffffff" fill-opacity="1.0" stroke="#ffffffff" stroke-width="1.0"/>
        <path android:fillAlpha="0.7921569" android:strokeAlpha="0.7921569" d="M367.5 5L370 5.5L367.5 6L367.5 5Z" fill="#ffffff" fill-opacity="1.0" stroke="#ffffffff" stroke-width="1.0"/>
        <path android:fillAlpha="0.7921569" android:strokeAlpha="0.7921569" d="M513.5 5L516 5.5L513.5 6L513.5 5Z" fill="#ffffff" fill-opacity="1.0" stroke="#ffffffff" stroke-width="1.0"/>
        <path android:fillAlpha="0.7921569" android:strokeAlpha="0.7921569" d="M361.5 6L364 6.5L361.5 7L361.5 6Z" fill="#ffffff" fill-opacity="1.0" stroke="#ffffffff" stroke-width="1.0"/>
        <path android:fillAlpha="0.7921569" android:strokeAlpha="0.7921569" d="M519.5 6L522 6.5L519.5 7L519.5 6Z" fill="#ffffff" fill-opacity="1.0" stroke="#ffffffff" stroke-width="1.0"/>
        <path android:fillAlpha="0.7921569" android:strokeAlpha="0.7921569" d="M524.5 7L527 7.5L524.5 8L524.5 7Z" fill="#ffffff" fill-opacity="1.0" stroke="#ffffffff" stroke-width="1.0"/>
        <path android:fillAlpha="0.7921569" android:strokeAlpha="0.7921569" d="M529.5 8L532 8.5L529.5 9L529.5 8Z" fill="#ffffff" fill-opacity="1.0" stroke="#ffffffff" stroke-width="1.0"/>
        <path android:fillAlpha="0.7921569" android:strokeAlpha="0.7921569" d="M341.5 10L344 10.5L341.5 11L341.5 10Z" fill="#ffffff" fill-opacity="1.0" stroke="#ffffffff" stroke-width="1.0"/>
        <path android:fillAlpha="0.7921569" android:strokeAlpha="0.7921569" d="M234.5 50L233.5 52L234.5 50Z" fill="#ffffff" fill-opacity="1.0" stroke="#ffffffff" stroke-width="1.0"/>
        <path android:fillAlpha="0.7921569" android:strokeAlpha="0.7921569" d="M225.5 55L224.5 57L225.5 55Z" fill="#ffffff" fill-opacity="1.0" stroke="#ffffffff" stroke-width="1.0"/>
        <path android:fillAlpha="0.7921569" android:strokeAlpha="0.7921569" d="M213.5 62L212.5 64L213.5 62Z" fill="#ffffff" fill-opacity="1.0" stroke="#ffffffff" stroke-width="1.0"/>
        <path android:fillAlpha="0.7921569" android:strokeAlpha="0.7921569" d="M675.5 66L676.5 68L675.5 66Z" fill="#ffffff" fill-opacity="1.0" stroke="#ffffffff" stroke-width="1.0"/>
        <path android:fillAlpha="0.7921569" android:strokeAlpha="0.7921569" d="M205.5 67L204.5 69L205.5 67Z" fill="#ffffff" fill-opacity="1.0" stroke="#ffffffff" stroke-width="1.0"/>
        <path android:fillAlpha="0.7921569" android:strokeAlpha="0.7921569" d="M678.5 68L679.5 70L678.5 68Z" fill="#ffffff" fill-opacity="1.0" stroke="#ffffffff" stroke-width="1.0"/>
        <path android:fillAlpha="0.7921569" android:strokeAlpha="0.7921569" d="M690.5 76L691.5 78L690.5 76Z" fill="#ffffff" fill-opacity="1.0" stroke="#ffffffff" stroke-width="1.0"/>
        <path android:fillAlpha="0.7921569" android:strokeAlpha="0.7921569" d="M190.5 77L189.5 79L190.5 77Z" fill="#ffffff" fill-opacity="1.0" stroke="#ffffffff" stroke-width="1.0"/>
        <path android:fillAlpha="0.7921569" android:strokeAlpha="0.7921569" d="M693.5 78L694.5 80L693.5 78Z" fill="#ffffff" fill-opacity="1.0" stroke="#ffffffff" stroke-width="1.0"/>
        <path android:fillAlpha="0.7921569" android:strokeAlpha="0.7921569" d="M183.5 82L182.5 84L183.5 82Z" fill="#ffffff" fill-opacity="1.0" stroke="#ffffffff" stroke-width="1.0"/>
        <path android:fillAlpha="0.7921569" android:strokeAlpha="0.7921569" d="M700.5 83L701.5 85L700.5 83Z" fill="#ffffff" fill-opacity="1.0" stroke="#ffffffff" stroke-width="1.0"/>
        <path android:fillAlpha="0.7921569" android:strokeAlpha="0.7921569" d="M179.5 85L178.5 87L179.5 85Z" fill="#ffffff" fill-opacity="1.0" stroke="#ffffffff" stroke-width="1.0"/>
        <path android:fillAlpha="0.7921569" android:strokeAlpha="0.7921569" d="M704.5 86L705.5 88L704.5 86Z" fill="#ffffff" fill-opacity="1.0" stroke="#ffffffff" stroke-width="1.0"/>
        <path android:fillAlpha="0.7921569" android:strokeAlpha="0.7921569" d="M176.5 87L175.5 89L176.5 87Z" fill="#ffffff" fill-opacity="1.0" stroke="#ffffffff" stroke-width="1.0"/>
        <path android:fillAlpha="0.7921569" android:strokeAlpha="0.7921569" d="M708.5 89L709.5 91L708.5 89Z" fill="#ffffff" fill-opacity="1.0" stroke="#ffffffff" stroke-width="1.0"/>
        <path android:fillAlpha="0.7921569" android:strokeAlpha="0.7921569" d="M171.5 91L170.5 93L171.5 91Z" fill="#ffffff" fill-opacity="1.0" stroke="#ffffffff" stroke-width="1.0"/>
        <path android:fillAlpha="0.7921569" android:strokeAlpha="0.7921569" d="M712.5 92L714.5 95L712.5 92Z" fill="#ffffff" fill-opacity="1.0" stroke="#ffffffff" stroke-width="1.0"/>
        <path android:fillAlpha="0.7921569" android:strokeAlpha="0.7921569" d="M167.5 94L165.5 97L167.5 94Z" fill="#ffffff" fill-opacity="1.0" stroke="#ffffffff" stroke-width="1.0"/>
        <path android:fillAlpha="0.7921569" android:strokeAlpha="0.7921569" d="M717.5 96L719.5 99L717.5 96Z" fill="#ffffff" fill-opacity="1.0" stroke="#ffffffff" stroke-width="1.0"/>
        <path android:fillAlpha="0.7921569" android:strokeAlpha="0.7921569" d="M162.5 98L160.5 101L162.5 98Z" fill="#ffffff" fill-opacity="1.0" stroke="#ffffffff" stroke-width="1.0"/>
        <path android:fillAlpha="0.7921569" android:strokeAlpha="0.7921569" d="M722.5 100L725.5 104L722.5 100Z" fill="#ffffff" fill-opacity="1.0" stroke="#ffffffff" stroke-width="1.0"/>
        <path android:fillAlpha="0.7921569" android:strokeAlpha="0.7921569" d="M156.5 103L153.5 107L156.5 103Z" fill="#ffffff" fill-opacity="1.0" stroke="#ffffffff" stroke-width="1.0"/>
        <path android:fillAlpha="0.7921569" android:strokeAlpha="0.7921569" d="M729.5 106L732.5 110L729.5 106Z" fill="#ffffff" fill-opacity="1.0" stroke="#ffffffff" stroke-width="1.0"/>
        <path android:fillAlpha="0.7921569" android:strokeAlpha="0.7921569" d="M148.5 110L144.5 115L148.5 110Z" fill="#ffffff" fill-opacity="1.0" stroke="#ffffffff" stroke-width="1.0"/>
        <path android:fillAlpha="0.7921569" android:strokeAlpha="0.7921569" d="M737.5 113L744.5 121L737.5 113Z" fill="#ffffff" fill-opacity="1.0" stroke="#ffffffff" stroke-width="1.0"/>
        <path android:fillAlpha="0.7921569" android:strokeAlpha="0.7921569" d="M138.5 119L120.5 138L138.5 119Z" fill="#ffffff" fill-opacity="1.0" stroke="#ffffffff" stroke-width="1.0"/>
        <path android:fillAlpha="0.7921569" android:strokeAlpha="0.7921569" d="M761.5 137L767.5 144L761.5 137Z" fill="#ffffff" fill-opacity="1.0" stroke="#ffffffff" stroke-width="1.0"/>
        <path android:fillAlpha="0.7921569" android:strokeAlpha="0.7921569" d="M114.5 144L111.5 148L114.5 144Z" fill="#ffffff" fill-opacity="1.0" stroke="#ffffffff" stroke-width="1.0"/>
        <path android:fillAlpha="0.7921569" android:strokeAlpha="0.7921569" d="M772.5 149L774.5 152L772.5 149Z" fill="#ffffff" fill-opacity="1.0" stroke="#ffffffff" stroke-width="1.0"/>
        <path android:fillAlpha="0.7921569" android:strokeAlpha="0.7921569" d="M107.5 152L104.5 156L107.5 152Z" fill="#ffffff" fill-opacity="1.0" stroke="#ffffffff" stroke-width="1.0"/>
        <path android:fillAlpha="0.7921569" android:strokeAlpha="0.7921569" d="M778.5 156L780.5 159L778.5 156Z" fill="#ffffff" fill-opacity="1.0" stroke="#ffffffff" stroke-width="1.0"/>
        <path android:fillAlpha="0.7921569" android:strokeAlpha="0.7921569" d="M101.5 159L99.5 162L101.5 159Z" fill="#ffffff" fill-opacity="1.0" stroke="#ffffffff" stroke-width="1.0"/>
        <path android:fillAlpha="0.7921569" android:strokeAlpha="0.7921569" d="M783.5 162L784.5 164L783.5 162Z" fill="#ffffff" fill-opacity="1.0" stroke="#ffffffff" stroke-width="1.0"/>
        <path android:fillAlpha="0.7921569" android:strokeAlpha="0.7921569" d="M97.5 164L95.5 167L97.5 164Z" fill="#ffffff" fill-opacity="1.0" stroke="#ffffffff" stroke-width="1.0"/>
        <path android:fillAlpha="0.7921569" android:strokeAlpha="0.7921569" d="M787.5 167L788.5 169L787.5 167Z" fill="#ffffff" fill-opacity="1.0" stroke="#ffffffff" stroke-width="1.0"/>
        <path android:fillAlpha="0.7921569" android:strokeAlpha="0.7921569" d="M93.5 169L92.5 171L93.5 169Z" fill="#ffffff" fill-opacity="1.0" stroke="#ffffffff" stroke-width="1.0"/>
        <path android:fillAlpha="0.7921569" android:strokeAlpha="0.7921569" d="M527.5 171L556 171.5L527.5 172L527.5 171Z" fill="#ffffff" fill-opacity="1.0" stroke="#ffffffff" stroke-width="1.0"/>
        <path android:fillAlpha="0.7921569" android:strokeAlpha="0.7921569" d="M516.5 172L520 172.5L516.5 173L516.5 172Z" fill="#ffffff" fill-opacity="1.0" stroke="#ffffffff" stroke-width="1.0"/>
        <path android:fillAlpha="0.7921569" android:strokeAlpha="0.7921569" d="M567.5 172L574 172.5L567.5 173L567.5 172Z" fill="#ffffff" fill-opacity="1.0" stroke="#ffffffff" stroke-width="1.0"/>
        <path android:fillAlpha="0.7921569" android:strokeAlpha="0.7921569" d="M791.5 172L792.5 174L791.5 172Z" fill="#ffffff" fill-opacity="1.0" stroke="#ffffffff" stroke-width="1.0"/>
        <path android:fillAlpha="0.7921569" android:strokeAlpha="0.7921569" d="M507.5 173L511 173.5L507.5 174L507.5 173Z" fill="#ffffff" fill-opacity="1.0" stroke="#ffffffff" stroke-width="1.0"/>
        <path android:fillAlpha="0.7921569" android:strokeAlpha="0.7921569" d="M580.5 173L586 173.5L580.5 174L580.5 173Z" fill="#ffffff" fill-opacity="1.0" stroke="#ffffffff" stroke-width="1.0"/>
        <path android:fillAlpha="0.7921569" android:strokeAlpha="0.7921569" d="M592.5 174L596 174.5L592.5 175L592.5 174Z" fill="#ffffff" fill-opacity="1.0" stroke="#ffffffff" stroke-width="1.0"/>
        <path android:fillAlpha="0.7921569" android:strokeAlpha="0.7921569" d="M495.5 175L498 175.5L495.5 176L495.5 175Z" fill="#ffffff" fill-opacity="1.0" stroke="#ffffffff" stroke-width="1.0"/>
        <path android:fillAlpha="0.7921569" android:strokeAlpha="0.7921569" d="M602.5 175L606 175.5L602.5 176L602.5 175Z" fill="#ffffff" fill-opacity="1.0" stroke="#ffffffff" stroke-width="1.0"/>
        <path android:fillAlpha="0.7921569" android:strokeAlpha="0.7921569" d="M611.5 176L614 176.5L611.5 177L611.5 176Z" fill="#ffffff" fill-opacity="1.0" stroke="#ffffffff" stroke-width="1.0"/>
        <path android:fillAlpha="0.7921569" android:strokeAlpha="0.7921569" d="M794.5 176L795.5 178L794.5 176Z" fill="#ffffff" fill-opacity="1.0" stroke="#ffffffff" stroke-width="1.0"/>
        <path android:fillAlpha="0.7921569" android:strokeAlpha="0.7921569" d="M619.5 177L622 177.5L619.5 178L619.5 177Z" fill="#ffffff" fill-opacity="1.0" stroke="#ffffffff" stroke-width="1.0"/>
        <path android:fillAlpha="0.7921569" android:strokeAlpha="0.7921569" d="M629.5 179L630.5 181L629.5 179Z" fill="#ffffff" fill-opacity="1.0" stroke="#ffffffff" stroke-width="1.0"/>
        <path android:fillAlpha="0.7921569" android:strokeAlpha="0.7921569" d="M797.5 180L798.5 182L797.5 180Z" fill="#ffffff" fill-opacity="1.0" stroke="#ffffffff" stroke-width="1.0"/>
        <path android:fillAlpha="0.7921569" android:strokeAlpha="0.7921569" d="M84.5 181L83.5 183L84.5 181Z" fill="#ffffff" fill-opacity="1.0" stroke="#ffffffff" stroke-width="1.0"/>
        <path android:fillAlpha="0.7921569" android:strokeAlpha="0.7921569" d="M799.5 183L800.5 185L799.5 183Z" fill="#ffffff" fill-opacity="1.0" stroke="#ffffffff" stroke-width="1.0"/>
        <path android:fillAlpha="0.7921569" android:strokeAlpha="0.7921569" d="M79.5 188L78.5 190L79.5 188Z" fill="#ffffff" fill-opacity="1.0" stroke="#ffffffff" stroke-width="1.0"/>
        <path android:fillAlpha="0.7921569" android:strokeAlpha="0.7921569" d="M804.5 190L805.5 192L804.5 190Z" fill="#ffffff" fill-opacity="1.0" stroke="#ffffffff" stroke-width="1.0"/>
        <path android:fillAlpha="0.7921569" android:strokeAlpha="0.7921569" d="M806.5 193L807.5 195L806.5 193Z" fill="#ffffff" fill-opacity="1.0" stroke="#ffffffff" stroke-width="1.0"/>
        <path android:fillAlpha="0.7921569" android:strokeAlpha="0.7921569" d="M808.5 196L809.5 198L808.5 196Z" fill="#ffffff" fill-opacity="1.0" stroke="#ffffffff" stroke-width="1.0"/>
        <path android:fillAlpha="0.7921569" android:strokeAlpha="0.7921569" d="M810.5 199L811.5 201L810.5 199Z" fill="#ffffff" fill-opacity="1.0" stroke="#ffffffff" stroke-width="1.0"/>
        <path android:fillAlpha="0.7921569" android:strokeAlpha="0.7921569" d="M433.5 202L432.5 204L433.5 202Z" fill="#ffffff" fill-opacity="1.0" stroke="#ffffffff" stroke-width="1.0"/>
        <path android:fillAlpha="0.7921569" android:strokeAlpha="0.7921569" d="M69.5 203L68.5 205L69.5 203Z" fill="#ffffff" fill-opacity="1.0" stroke="#ffffffff" stroke-width="1.0"/>
        <path android:fillAlpha="0.7921569" android:strokeAlpha="0.7921569" d="M429.5 205L428.5 207L429.5 205Z" fill="#ffffff" fill-opacity="1.0" stroke="#ffffffff" stroke-width="1.0"/>
        <path android:fillAlpha="0.7921569" android:strokeAlpha="0.7921569" d="M422.5 211L413.5 221L422.5 211Z" fill="#ffffff" fill-opacity="1.0" stroke="#ffffffff" stroke-width="1.0"/>
        <path android:fillAlpha="0.7921569" android:strokeAlpha="0.7921569" d="M408.5 226L407.5 228L408.5 226Z" fill="#ffffff" fill-opacity="1.0" stroke="#ffffffff" stroke-width="1.0"/>
        <path android:fillAlpha="0.7921569" android:strokeAlpha="0.7921569" d="M405.5 230L404.5 232L405.5 230Z" fill="#ffffff" fill-opacity="1.0" stroke="#ffffffff" stroke-width="1.0"/>
        <path android:fillAlpha="0.7921569" android:strokeAlpha="0.7921569" d="M400.5 237L399.5 239L400.5 237Z" fill="#ffffff" fill-opacity="1.0" stroke="#ffffffff" stroke-width="1.0"/>
        <path android:fillAlpha="0.7921569" android:strokeAlpha="0.7921569" d="M572.5 289L577 289.5L572.5 290L572.5 289Z" fill="#ffffff" fill-opacity="1.0" stroke="#ffffffff" stroke-width="1.0"/>
        <path android:fillAlpha="0.7921569" android:strokeAlpha="0.7921569" d="M564.5 290L567 290.5L564.5 291L564.5 290Z" fill="#ffffff" fill-opacity="1.0" stroke="#ffffffff" stroke-width="1.0"/>
        <path android:fillAlpha="0.7921569" android:strokeAlpha="0.7921569" d="M377.5 291L378 293.5L377 293.5L377.5 291Z" fill="#ffffff" fill-opacity="1.0" stroke="#ffffffff" stroke-width="1.0"/>
        <path android:fillAlpha="0.7921569" android:strokeAlpha="0.7921569" d="M533.5 303L524.5 313L533.5 303Z" fill="#ffffff" fill-opacity="1.0" stroke="#ffffffff" stroke-width="1.0"/>
        <path android:fillAlpha="0.7921569" android:strokeAlpha="0.7921569" d="M374.5 307L375 309.5L374 309.5L374.5 307Z" fill="#ffffff" fill-opacity="1.0" stroke="#ffffffff" stroke-width="1.0"/>
        <path android:fillAlpha="0.7921569" android:strokeAlpha="0.7921569" d="M373.5 315L374 318.5L373 318.5L373.5 315Z" fill="#ffffff" fill-opacity="1.0" stroke="#ffffffff" stroke-width="1.0"/>
        <path android:fillAlpha="0.7921569" android:strokeAlpha="0.7921569" d="M372.5 325L373 331.5L372 331.5L372.5 325Z" fill="#ffffff" fill-opacity="1.0" stroke="#ffffffff" stroke-width="1.0"/>
        <path android:fillAlpha="0.7921569" android:strokeAlpha="0.7921569" d="M11.5 340L12 342.5L11 342.5L11.5 340Z" fill="#ffffff" fill-opacity="1.0" stroke="#ffffffff" stroke-width="1.0"/>
        <path android:fillAlpha="0.7921569" android:strokeAlpha="0.7921569" d="M871.5 342L872 344.5L871 344.5L871.5 342Z" fill="#ffffff" fill-opacity="1.0" stroke="#ffffffff" stroke-width="1.0"/>
        <path android:fillAlpha="0.7921569" android:strokeAlpha="0.7921569" d="M511.5 343L512 346.5L511 346.5L511.5 343Z" fill="#ffffff" fill-opacity="1.0" stroke="#ffffffff" stroke-width="1.0"/>
        <path android:fillAlpha="0.7921569" android:strokeAlpha="0.7921569" d="M9.5 349L10 351.5L9 351.5L9.5 349Z" fill="#ffffff" fill-opacity="1.0" stroke="#ffffffff" stroke-width="1.0"/>
        <path android:fillAlpha="0.7921569" android:strokeAlpha="0.7921569" d="M510.5 351L511 429.5L517 437.5L512 433.5L510 429.5L510.5 351Z" fill="#ffffff" fill-opacity="1.0" stroke="#ffffffff" stroke-width="1.0"/>
        <path android:fillAlpha="0.7921569" android:strokeAlpha="0.7921569" d="M8.5 354L9 356.5L8 356.5L8.5 354Z" fill="#ffffff" fill-opacity="1.0" stroke="#ffffffff" stroke-width="1.0"/>
        <path android:fillAlpha="0.7921569" android:strokeAlpha="0.7921569" d="M7.5 359L8 361.5L7 361.5L7.5 359Z" fill="#ffffff" fill-opacity="1.0" stroke="#ffffffff" stroke-width="1.0"/>
        <path android:fillAlpha="0.7921569" android:strokeAlpha="0.7921569" d="M875.5 362L876 364.5L875 364.5L875.5 362Z" fill="#ffffff" fill-opacity="1.0" stroke="#ffffffff" stroke-width="1.0"/>
        <path android:fillAlpha="0.7921569" android:strokeAlpha="0.7921569" d="M6.5 365L7 367.5L6 367.5L6.5 365Z" fill="#ffffff" fill-opacity="1.0" stroke="#ffffffff" stroke-width="1.0"/>
        <path android:fillAlpha="0.7921569" android:strokeAlpha="0.7921569" d="M5.5 371L6 373.5L5 373.5L5.5 371Z" fill="#ffffff" fill-opacity="1.0" stroke="#ffffffff" stroke-width="1.0"/>
        <path android:fillAlpha="0.7921569" android:strokeAlpha="0.7921569" d="M877.5 374L878 376.5L877 376.5L877.5 374Z" fill="#ffffff" fill-opacity="1.0" stroke="#ffffffff" stroke-width="1.0"/>
        <path android:fillAlpha="0.7921569" android:strokeAlpha="0.7921569" d="M4.5 378L5 380.5L4 380.5L4.5 378Z" fill="#ffffff" fill-opacity="1.0" stroke="#ffffffff" stroke-width="1.0"/>
        <path android:fillAlpha="0.7921569" android:strokeAlpha="0.7921569" d="M878.5 381L879 384.5L878 384.5L878.5 381Z" fill="#ffffff" fill-opacity="1.0" stroke="#ffffffff" stroke-width="1.0"/>
        <path android:fillAlpha="0.7921569" android:strokeAlpha="0.7921569" d="M3.5 386L4 389.5L3 389.5L3.5 386Z" fill="#ffffff" fill-opacity="1.0" stroke="#ffffffff" stroke-width="1.0"/>
        <path android:fillAlpha="0.7921569" android:strokeAlpha="0.7921569" d="M879.5 389L880 392.5L879 392.5L879.5 389Z" fill="#ffffff" fill-opacity="1.0" stroke="#ffffffff" stroke-width="1.0"/>
        <path android:fillAlpha="0.7921569" android:strokeAlpha="0.7921569" d="M2.5 394L3 398.5L2 398.5L2.5 394Z" fill="#ffffff" fill-opacity="1.0" stroke="#ffffffff" stroke-width="1.0"/>
        <path android:fillAlpha="0.7921569" android:strokeAlpha="0.7921569" d="M880.5 399L881 403.5L880 403.5L880.5 399Z" fill="#ffffff" fill-opacity="1.0" stroke="#ffffffff" stroke-width="1.0"/>
        <path android:fillAlpha="0.7921569" android:strokeAlpha="0.7921569" d="M1.5 405L2 410.5L1 410.5L1.5 405Z" fill="#ffffff" fill-opacity="1.0" stroke="#ffffffff" stroke-width="1.0"/>
        <path android:fillAlpha="0.7921569" android:strokeAlpha="0.7921569" d="M881.5 411L882 419.5L881 419.5L881.5 411Z" fill="#ffffff" fill-opacity="1.0" stroke="#ffffffff" stroke-width="1.0"/>
        <path android:fillAlpha="0.7921569" android:strokeAlpha="0.7921569" d="M0.5 418L1 430.5L0 430.5L0.5 418Z" fill="#ffffff" fill-opacity="1.0" stroke="#ffffffff" stroke-width="1.0"/>
        <path android:fillAlpha="0.7921569" android:strokeAlpha="0.7921569" d="M626.5 443L627.5 445L626.5 443Z" fill="#ffffff" fill-opacity="1.0" stroke="#ffffffff" stroke-width="1.0"/>
        <path android:fillAlpha="0.7921569" android:strokeAlpha="0.7921569" d="M0.5 450L1 462.5L0 462.5L0.5 450Z" fill="#ffffff" fill-opacity="1.0" stroke="#ffffffff" stroke-width="1.0"/>
        <path android:fillAlpha="0.7921569" android:strokeAlpha="0.7921569" d="M630.5 453L631 455.5L630 455.5L630.5 453Z" fill="#ffffff" fill-opacity="1.0" stroke="#ffffffff" stroke-width="1.0"/>
        <path android:fillAlpha="0.7921569" android:strokeAlpha="0.7921569" d="M629.5 460L630 462.5L629 462.5L629.5 460Z" fill="#ffffff" fill-opacity="1.0" stroke="#ffffffff" stroke-width="1.0"/>
        <path android:fillAlpha="0.7921569" android:strokeAlpha="0.7921569" d="M881.5 461L882 468.5L881 468.5L881.5 461Z" fill="#ffffff" fill-opacity="1.0" stroke="#ffffffff" stroke-width="1.0"/>
        <path android:fillAlpha="0.7921569" android:strokeAlpha="0.7921569" d="M1.5 469L2 475.5L1 475.5L1.5 469Z" fill="#ffffff" fill-opacity="1.0" stroke="#ffffffff" stroke-width="1.0"/>
        <path android:fillAlpha="0.7921569" android:strokeAlpha="0.7921569" d="M627.5 473L628 475.5L627 475.5L627.5 473Z" fill="#ffffff" fill-opacity="1.0" stroke="#ffffffff" stroke-width="1.0"/>
        <path android:fillAlpha="0.7921569" android:strokeAlpha="0.7921569" d="M880.5 477L881 481.5L880 481.5L880.5 477Z" fill="#ffffff" fill-opacity="1.0" stroke="#ffffffff" stroke-width="1.0"/>
        <path android:fillAlpha="0.7921569" android:strokeAlpha="0.7921569" d="M2.5 481L3 486.5L2 486.5L2.5 481Z" fill="#ffffff" fill-opacity="1.0" stroke="#ffffffff" stroke-width="1.0"/>
        <path android:fillAlpha="0.7921569" android:strokeAlpha="0.7921569" d="M625.5 486L626 488.5L625 488.5L625.5 486Z" fill="#ffffff" fill-opacity="1.0" stroke="#ffffffff" stroke-width="1.0"/>
        <path android:fillAlpha="0.7921569" android:strokeAlpha="0.7921569" d="M879.5 487L880 491.5L879 491.5L879.5 487Z" fill="#ffffff" fill-opacity="1.0" stroke="#ffffffff" stroke-width="1.0"/>
        <path android:fillAlpha="0.7921569" android:strokeAlpha="0.7921569" d="M3.5 491L4 494.5L3 494.5L3.5 491Z" fill="#ffffff" fill-opacity="1.0" stroke="#ffffffff" stroke-width="1.0"/>
        <path android:fillAlpha="0.7921569" android:strokeAlpha="0.7921569" d="M624.5 492L625 494.5L624 494.5L624.5 492Z" fill="#ffffff" fill-opacity="1.0" stroke="#ffffffff" stroke-width="1.0"/>
        <path android:fillAlpha="0.7921569" android:strokeAlpha="0.7921569" d="M878.5 496L879 499.5L878 499.5L878.5 496Z" fill="#ffffff" fill-opacity="1.0" stroke="#ffffffff" stroke-width="1.0"/>
        <path android:fillAlpha="0.7921569" android:strokeAlpha="0.7921569" d="M4.5 499L5 502.5L4 502.5L4.5 499Z" fill="#ffffff" fill-opacity="1.0" stroke="#ffffffff" stroke-width="1.0"/>
        <path android:fillAlpha="0.7921569" android:strokeAlpha="0.7921569" d="M623.5 499L624 501.5L623 501.5L623.5 499Z" fill="#ffffff" fill-opacity="1.0" stroke="#ffffffff" stroke-width="1.0"/>
        <path android:fillAlpha="0.7921569" android:strokeAlpha="0.7921569" d="M877.5 503L878 506.5L877 506.5L877.5 503Z" fill="#ffffff" fill-opacity="1.0" stroke="#ffffffff" stroke-width="1.0"/>
        <path android:fillAlpha="0.7921569" android:strokeAlpha="0.7921569" d="M622.5 505L623 507.5L622 507.5L622.5 505Z" fill="#ffffff" fill-opacity="1.0" stroke="#ffffffff" stroke-width="1.0"/>
        <path android:fillAlpha="0.7921569" android:strokeAlpha="0.7921569" d="M5.5 506L6 509.5L5 509.5L5.5 506Z" fill="#ffffff" fill-opacity="1.0" stroke="#ffffffff" stroke-width="1.0"/>
        <path android:fillAlpha="0.7921569" android:strokeAlpha="0.7921569" d="M876.5 510L877 512.5L876 512.5L876.5 510Z" fill="#ffffff" fill-opacity="1.0" stroke="#ffffffff" stroke-width="1.0"/>
        <path android:fillAlpha="0.7921569" android:strokeAlpha="0.7921569" d="M621.5 512L622 514.5L621 514.5L621.5 512Z" fill="#ffffff" fill-opacity="1.0" stroke="#ffffffff" stroke-width="1.0"/>
        <path android:fillAlpha="0.7921569" android:strokeAlpha="0.7921569" d="M6.5 513L7 515.5L6 515.5L6.5 513Z" fill="#ffffff" fill-opacity="1.0" stroke="#ffffffff" stroke-width="1.0"/>
        <path android:fillAlpha="0.7921569" android:strokeAlpha="0.7921569" d="M875.5 516L876 518.5L875 518.5L875.5 516Z" fill="#ffffff" fill-opacity="1.0" stroke="#ffffffff" stroke-width="1.0"/>
        <path android:fillAlpha="0.7921569" android:strokeAlpha="0.7921569" d="M7.5 518L8 520.5L7 520.5L7.5 518Z" fill="#ffffff" fill-opacity="1.0" stroke="#ffffffff" stroke-width="1.0"/>
        <path android:fillAlpha="0.7921569" android:strokeAlpha="0.7921569" d="M620.5 518L621 521.5L620 521.5L620.5 518Z" fill="#ffffff" fill-opacity="1.0" stroke="#ffffffff" stroke-width="1.0"/>
        <path android:fillAlpha="0.7921569" android:strokeAlpha="0.7921569" d="M619.5 525L620 527.5L619 527.5L619.5 525Z" fill="#ffffff" fill-opacity="1.0" stroke="#ffffffff" stroke-width="1.0"/>
        <path android:fillAlpha="0.7921569" android:strokeAlpha="0.7921569" d="M618.5 532L619 534.5L618 534.5L618.5 532Z" fill="#ffffff" fill-opacity="1.0" stroke="#ffffffff" stroke-width="1.0"/>
        <path android:fillAlpha="0.7921569" android:strokeAlpha="0.7921569" d="M871.5 536L872 538.5L871 538.5L871.5 536Z" fill="#ffffff" fill-opacity="1.0" stroke="#ffffffff" stroke-width="1.0"/>
        <path android:fillAlpha="0.7921569" android:strokeAlpha="0.7921569" d="M617.5 538L618 540.5L617 540.5L617.5 538Z" fill="#ffffff" fill-opacity="1.0" stroke="#ffffffff" stroke-width="1.0"/>
        <path android:fillAlpha="0.7921569" android:strokeAlpha="0.7921569" d="M616.5 545L617 547.5L616 547.5L616.5 545Z" fill="#ffffff" fill-opacity="1.0" stroke="#ffffffff" stroke-width="1.0"/>
        <path android:fillAlpha="0.7921569" android:strokeAlpha="0.7921569" d="M615.5 551L616 553.5L615 553.5L615.5 551Z" fill="#ffffff" fill-opacity="1.0" stroke="#ffffffff" stroke-width="1.0"/>
        <path android:fillAlpha="0.7921569" android:strokeAlpha="0.7921569" d="M516.5 570L513 574.5L511 578.5L510.5 859L510 578.5L516.5 570Z" fill="#ffffff" fill-opacity="1.0" stroke="#ffffffff" stroke-width="1.0"/>
        <path android:fillAlpha="0.7921569" android:strokeAlpha="0.7921569" d="M62.5 666L63.5 668L62.5 666Z" fill="#ffffff" fill-opacity="1.0" stroke="#ffffffff" stroke-width="1.0"/>
        <path android:fillAlpha="0.7921569" android:strokeAlpha="0.7921569" d="M814.5 675L813.5 677L814.5 675Z" fill="#ffffff" fill-opacity="1.0" stroke="#ffffffff" stroke-width="1.0"/>
        <path android:fillAlpha="0.7921569" android:strokeAlpha="0.7921569" d="M804.5 690L803.5 692L804.5 690Z" fill="#ffffff" fill-opacity="1.0" stroke="#ffffffff" stroke-width="1.0"/>
        <path android:fillAlpha="0.7921569" android:strokeAlpha="0.7921569" d="M802.5 693L801.5 695L802.5 693Z" fill="#ffffff" fill-opacity="1.0" stroke="#ffffffff" stroke-width="1.0"/>
        <path android:fillAlpha="0.7921569" android:strokeAlpha="0.7921569" d="M81.5 695L82.5 697L81.5 695Z" fill="#ffffff" fill-opacity="1.0" stroke="#ffffffff" stroke-width="1.0"/>
        <path android:fillAlpha="0.7921569" android:strokeAlpha="0.7921569" d="M797.5 700L796.5 702L797.5 700Z" fill="#ffffff" fill-opacity="1.0" stroke="#ffffffff" stroke-width="1.0"/>
        <path android:fillAlpha="0.7921569" android:strokeAlpha="0.7921569" d="M86.5 702L87.5 704L86.5 702Z" fill="#ffffff" fill-opacity="1.0" stroke="#ffffffff" stroke-width="1.0"/>
        <path android:fillAlpha="0.7921569" android:strokeAlpha="0.7921569" d="M794.5 704L793.5 706L794.5 704Z" fill="#ffffff" fill-opacity="1.0" stroke="#ffffffff" stroke-width="1.0"/>
        <path android:fillAlpha="0.7921569" android:strokeAlpha="0.7921569" d="M89.5 706L90.5 708L89.5 706Z" fill="#ffffff" fill-opacity="1.0" stroke="#ffffffff" stroke-width="1.0"/>
        <path android:fillAlpha="0.7921569" android:strokeAlpha="0.7921569" d="M791.5 708L789.5 711L791.5 708Z" fill="#ffffff" fill-opacity="1.0" stroke="#ffffffff" stroke-width="1.0"/>
        <path android:fillAlpha="0.7921569" android:strokeAlpha="0.7921569" d="M93.5 711L94.5 713L93.5 711Z" fill="#ffffff" fill-opacity="1.0" stroke="#ffffffff" stroke-width="1.0"/>
        <path android:fillAlpha="0.7921569" android:strokeAlpha="0.7921569" d="M787.5 713L786.5 715L787.5 713Z" fill="#ffffff" fill-opacity="1.0" stroke="#ffffffff" stroke-width="1.0"/>
        <path android:fillAlpha="0.7921569" android:strokeAlpha="0.7921569" d="M96.5 715L98.5 718L96.5 715Z" fill="#ffffff" fill-opacity="1.0" stroke="#ffffffff" stroke-width="1.0"/>
        <path android:fillAlpha="0.7921569" android:strokeAlpha="0.7921569" d="M783.5 718L782.5 720L783.5 718Z" fill="#ffffff" fill-opacity="1.0" stroke="#ffffffff" stroke-width="1.0"/>
        <path android:fillAlpha="0.7921569" android:strokeAlpha="0.7921569" d="M101.5 721L102.5 723L101.5 721Z" fill="#ffffff" fill-opacity="1.0" stroke="#ffffffff" stroke-width="1.0"/>
        <path android:fillAlpha="0.7921569" android:strokeAlpha="0.7921569" d="M779.5 723L776.5 727L779.5 723Z" fill="#ffffff" fill-opacity="1.0" stroke="#ffffffff" stroke-width="1.0"/>
        <path android:fillAlpha="0.7921569" android:strokeAlpha="0.7921569" d="M106.5 727L109.5 731L106.5 727Z" fill="#ffffff" fill-opacity="1.0" stroke="#ffffffff" stroke-width="1.0"/>
        <path android:fillAlpha="0.7921569" android:strokeAlpha="0.7921569" d="M773.5 730L769.5 735L773.5 730Z" fill="#ffffff" fill-opacity="1.0" stroke="#ffffffff" stroke-width="1.0"/>
        <path android:fillAlpha="0.7921569" android:strokeAlpha="0.7921569" d="M113.5 735L117.5 740L113.5 735Z" fill="#ffffff" fill-opacity="1.0" stroke="#ffffffff" stroke-width="1.0"/>
        <path android:fillAlpha="0.7921569" android:strokeAlpha="0.7921569" d="M765.5 739L740.5 765L765.5 739Z" fill="#ffffff" fill-opacity="1.0" stroke="#ffffffff" stroke-width="1.0"/>
        <path android:fillAlpha="0.7921569" android:strokeAlpha="0.7921569" d="M141.5 763L146.5 769L141.5 763Z" fill="#ffffff" fill-opacity="1.0" stroke="#ffffffff" stroke-width="1.0"/>
        <path android:fillAlpha="0.7921569" android:strokeAlpha="0.7921569" d="M734.5 769L731.5 773L734.5 769Z" fill="#ffffff" fill-opacity="1.0" stroke="#ffffffff" stroke-width="1.0"/>
        <path android:fillAlpha="0.7921569" android:strokeAlpha="0.7921569" d="M151.5 772L154.5 776L151.5 772Z" fill="#ffffff" fill-opacity="1.0" stroke="#ffffffff" stroke-width="1.0"/>
        <path android:fillAlpha="0.7921569" android:strokeAlpha="0.7921569" d="M727.5 775L724.5 779L727.5 775Z" fill="#ffffff" fill-opacity="1.0" stroke="#ffffffff" stroke-width="1.0"/>
        <path android:fillAlpha="0.7921569" android:strokeAlpha="0.7921569" d="M158.5 778L160.5 781L158.5 778Z" fill="#ffffff" fill-opacity="1.0" stroke="#ffffffff" stroke-width="1.0"/>
        <path android:fillAlpha="0.7921569" android:strokeAlpha="0.7921569" d="M720.5 781L719.5 783L720.5 781Z" fill="#ffffff" fill-opacity="1.0" stroke="#ffffffff" stroke-width="1.0"/>
        <path android:fillAlpha="0.7921569" android:strokeAlpha="0.7921569" d="M164.5 783L165.5 785L164.5 783Z" fill="#ffffff" fill-opacity="1.0" stroke="#ffffffff" stroke-width="1.0"/>
        <path android:fillAlpha="0.7921569" android:strokeAlpha="0.7921569" d="M715.5 785L714.5 787L715.5 785Z" fill="#ffffff" fill-opacity="1.0" stroke="#ffffffff" stroke-width="1.0"/>
        <path android:fillAlpha="0.7921569" android:strokeAlpha="0.7921569" d="M169.5 787L170.5 789L169.5 787Z" fill="#ffffff" fill-opacity="1.0" stroke="#ffffffff" stroke-width="1.0"/>
        <path android:fillAlpha="0.7921569" android:strokeAlpha="0.7921569" d="M711.5 788L709.5 791L711.5 788Z" fill="#ffffff" fill-opacity="1.0" stroke="#ffffffff" stroke-width="1.0"/>
        <path android:fillAlpha="0.7921569" android:strokeAlpha="0.7921569" d="M173.5 790L174.5 792L173.5 790Z" fill="#ffffff" fill-opacity="1.0" stroke="#ffffffff" stroke-width="1.0"/>
        <path android:fillAlpha="0.7921569" android:strokeAlpha="0.7921569" d="M706.5 792L705.5 794L706.5 792Z" fill="#ffffff" fill-opacity="1.0" stroke="#ffffffff" stroke-width="1.0"/>
        <path android:fillAlpha="0.7921569" android:strokeAlpha="0.7921569" d="M177.5 793L178.5 795L177.5 793Z" fill="#ffffff" fill-opacity="1.0" stroke="#ffffffff" stroke-width="1.0"/>
        <path android:fillAlpha="0.7921569" android:strokeAlpha="0.7921569" d="M702.5 795L701.5 797L702.5 795Z" fill="#ffffff" fill-opacity="1.0" stroke="#ffffffff" stroke-width="1.0"/>
        <path android:fillAlpha="0.7921569" android:strokeAlpha="0.7921569" d="M181.5 796L182.5 798L181.5 796Z" fill="#ffffff" fill-opacity="1.0" stroke="#ffffffff" stroke-width="1.0"/>
        <path android:fillAlpha="0.7921569" android:strokeAlpha="0.7921569" d="M695.5 800L694.5 802L695.5 800Z" fill="#ffffff" fill-opacity="1.0" stroke="#ffffffff" stroke-width="1.0"/>
        <path android:fillAlpha="0.7921569" android:strokeAlpha="0.7921569" d="M188.5 801L189.5 803L188.5 801Z" fill="#ffffff" fill-opacity="1.0" stroke="#ffffffff" stroke-width="1.0"/>
        <path android:fillAlpha="0.7921569" android:strokeAlpha="0.7921569" d="M692.5 802L691.5 804L692.5 802Z" fill="#ffffff" fill-opacity="1.0" stroke="#ffffffff" stroke-width="1.0"/>
        <path android:fillAlpha="0.7921569" android:strokeAlpha="0.7921569" d="M677.5 812L676.5 814L677.5 812Z" fill="#ffffff" fill-opacity="1.0" stroke="#ffffffff" stroke-width="1.0"/>
        <path android:fillAlpha="0.7921569" android:strokeAlpha="0.7921569" d="M206.5 813L207.5 815L206.5 813Z" fill="#ffffff" fill-opacity="1.0" stroke="#ffffffff" stroke-width="1.0"/>
        <path android:fillAlpha="0.7921569" android:strokeAlpha="0.7921569" d="M669.5 817L668.5 819L669.5 817Z" fill="#ffffff" fill-opacity="1.0" stroke="#ffffffff" stroke-width="1.0"/>
        <path android:fillAlpha="0.7921569" android:strokeAlpha="0.7921569" d="M664.5 820L663.5 822L664.5 820Z" fill="#ffffff" fill-opacity="1.0" stroke="#ffffffff" stroke-width="1.0"/>
        <path android:fillAlpha="0.7921569" android:strokeAlpha="0.7921569" d="M221.5 822L222.5 824L221.5 822Z" fill="#ffffff" fill-opacity="1.0" stroke="#ffffffff" stroke-width="1.0"/>
        <path android:fillAlpha="0.7921569" android:strokeAlpha="0.7921569" d="M657.5 824L656.5 826L657.5 824Z" fill="#ffffff" fill-opacity="1.0" stroke="#ffffffff" stroke-width="1.0"/>
        <path android:fillAlpha="0.7921569" android:strokeAlpha="0.7921569" d="M230.5 827L231.5 829L230.5 827Z" fill="#ffffff" fill-opacity="1.0" stroke="#ffffffff" stroke-width="1.0"/>
        <path android:fillAlpha="0.7921569" android:strokeAlpha="0.7921569" d="M648.5 829L647.5 831L648.5 829Z" fill="#ffffff" fill-opacity="1.0" stroke="#ffffffff" stroke-width="1.0"/>
        <path android:fillAlpha="0.7921569" android:strokeAlpha="0.7921569" d="M634.5 836L636 836.5L633.5 838L634.5 836Z" fill="#ffffff" fill-opacity="1.0" stroke="#ffffffff" stroke-width="1.0"/>
        <path android:fillAlpha="0.7921569" android:strokeAlpha="0.7921569" d="M537.5 870L540 870.5L537.5 871L537.5 870Z" fill="#ffffff" fill-opacity="1.0" stroke="#ffffffff" stroke-width="1.0"/>
        <path android:fillAlpha="0.7921569" android:strokeAlpha="0.7921569" d="M352.5 872L355 872.5L352.5 873L352.5 872Z" fill="#ffffff" fill-opacity="1.0" stroke="#ffffffff" stroke-width="1.0"/>
        <path android:fillAlpha="0.7921569" android:strokeAlpha="0.7921569" d="M528.5 872L531 872.5L528.5 873L528.5 872Z" fill="#ffffff" fill-opacity="1.0" stroke="#ffffffff" stroke-width="1.0"/>
        <path android:fillAlpha="0.7921569" android:strokeAlpha="0.7921569" d="M357.5 873L360 873.5L357.5 874L357.5 873Z" fill="#ffffff" fill-opacity="1.0" stroke="#ffffffff" stroke-width="1.0"/>
        <path android:fillAlpha="0.7921569" android:strokeAlpha="0.7921569" d="M362.5 874L365 874.5L362.5 875L362.5 874Z" fill="#ffffff" fill-opacity="1.0" stroke="#ffffffff" stroke-width="1.0"/>
        <path android:fillAlpha="0.7921569" android:strokeAlpha="0.7921569" d="M368.5 875L372 875.5L368.5 876L368.5 875Z" fill="#ffffff" fill-opacity="1.0" stroke="#ffffffff" stroke-width="1.0"/>
        <path android:fillAlpha="0.7921569" android:strokeAlpha="0.7921569" d="M511.5 875L514 875.5L511.5 876L511.5 875Z" fill="#ffffff" fill-opacity="1.0" stroke="#ffffffff" stroke-width="1.0"/>
        <path d="M414.5 0L467.5 0L468.5 1L481.5 1L482.5 2L506.5 4L558.5 15L603.5 30Q697.1 68.4 761 136.5Q822 199.5 856 289.5L867 324.5L877 370.5L879 392.5L880 393.5L880 403.5L881 404.5L881 419.5L882 420.5L882 460.5L881 461.5L881 476.5L880 477.5L880 486.5L879 487.5L877 509.5L867 556.5L857 588.5L839 631.5Q799.2 712.2 735.5 769Q689.4 810.4 630.5 839Q604.1 851.6 574.5 861L541.5 870L517.5 875L511 875L511 578.5L517.5 570L521.5 568L604.5 568L614 559.5L617 547.5L617 541.5L619 534.5L622 508.5L630 462.5L631 449.5L626.5 443L622.5 440L521.5 440L513 433.5L511 429.5L511 347.5L514 332.5L519 320.5Q525.5 309.5 535.5 302Q546 294 561.5 291L576.5 290L577.5 289L627.5 289L636 282.5L638 278.5L638 188.5L629.5 179L621.5 177L596.5 175L595.5 174L586.5 174L585.5 173L574.5 173L573.5 172L527.5 171L526.5 172L516.5 172L515.5 173L507.5 173L506.5 174L495.5 175L476.5 180L463.5 185Q433.4 197.9 413 220.5Q387.2 248.2 377 291.5L374 307.5L374 314.5L373 315.5L373 324.5L372 325.5L372 429.5L365.5 438L361.5 440L270.5 440L262 446.5L260 450.5L260 557.5L266.5 566L270.5 568L361.5 568L370 574.5L372 578.5L372 875L365.5 875L345.5 871L314.5 863Q270.1 849.4 232.5 829Q166.8 793.2 118 740.5Q61.7 680.8 29 597.5L15 554.5L6 512.5L4 491.5L3 490.5L3 481.5L2 480.5L2 469.5L1 468.5L0 431.5L1 430.5L1 411.5L2 410.5L2 399.5L3 398.5L4 381.5L12 338.5Q23.1 293.1 41 254.5Q80.1 172.6 143.5 115Q199.7 62.7 276.5 31L313.5 18L339.5 11L376.5 4L400.5 2L401.5 1L413.5 1L414.5 0Z" fill="#ffffff" fill-opacity="1.0" stroke="#ffffffff" stroke-width="1.0"/>
    </g>
</svg>