<?xml version="1.0" encoding="utf-8" standalone="no"?><svg xmlns:android="http://schemas.android.com/apk/res/android" height="36.0" width="36.0" xmlns="http://www.w3.org/2000/svg">
    <path android:fillAlpha="0.6" android:strokeAlpha="0.6" d="M 3.285 9.484 C 8.184 6.637 13.094 3.816 18 0.984 C 17.996 6.66 18.004 12.336 17.996 18.012 L 17.977 17.984 C 13.098 15.125 8.18 12.324 3.285 9.484 Z M 3.285 9.484" fill="#000000" fill-opacity="1.0" stroke="#ff000000" stroke-width="0.0105468"/>
    <path android:fillAlpha="0.5" android:strokeAlpha="0.5" d="M 18 0.984 C 22.894 3.812 27.797 6.629 32.687 9.469 C 27.828 12.363 22.879 15.113 18.016 17.996 L 17.996 18.012 C 18.004 12.336 17.996 6.66 18 0.984 Z M 18 0.984" fill="#000000" fill-opacity="1.0" stroke="#ff000000" stroke-width="0.0105468"/>
    <path android:fillAlpha="0.9" android:strokeAlpha="0.9" d="M 32.687 9.469 L 32.707 9.457 C 32.715 9.473 32.73 9.504 32.738 9.523 L 32.738 26.508 L 32.707 26.488 C 27.809 23.656 22.902 20.844 18.016 17.996 C 22.879 15.113 27.828 12.363 32.687 9.469 Z M 32.687 9.469" fill="#000000" fill-opacity="1.0" stroke="#ff000000" stroke-width="0.0105468"/>
    <path android:fillAlpha="0.7" android:strokeAlpha="0.7" d="M 3.258 9.469 L 3.285 9.484 C 8.18 12.324 13.098 15.125 17.977 17.984 C 13.059 20.797 8.152 23.637 3.258 26.48 C 3.27 20.812 3.266 15.141 3.258 9.469 Z M 3.258 9.469" fill="#000000" fill-opacity="1.0" stroke="#ff000000" stroke-width="0.0105468"/>
    <path android:fillAlpha="0.8" android:strokeAlpha="0.8" d="M 3.258 26.48 C 8.152 23.637 13.059 20.797 17.977 17.984 L 17.996 18.012 C 17.996 23.668 17.988 29.324 18 34.984 L 18 35.016 C 13.09 32.164 8.152 29.355 3.258 26.48 Z M 3.258 26.48" fill="#000000" fill-opacity="1.0" stroke="#ff000000" stroke-width="0.0105468"/>
    <path d="M 17.996 18.012 L 18.016 17.996 C 22.902 20.844 27.809 23.656 32.707 26.488 C 27.812 29.332 22.906 32.16 18 34.984 C 17.988 29.324 17.996 23.668 17.996 18.012 Z M 17.996 18.012" fill="#000000" fill-opacity="1.0" stroke="#ff000000" stroke-width="0.0105468"/>
</svg>