<?xml version="1.0" encoding="utf-8" standalone="no"?><svg xmlns:android="http://schemas.android.com/apk/res/android" height="24.0" width="24.0" xmlns="http://www.w3.org/2000/svg">
    <path d="m4,6v12a2,2 45,0 0,2 2h12a2,2 135,0 0,2 -2V6A2,2 45,0 0,18 4H6A2,2 135,0 0,4 6Z" fill="#000000" fill-opacity="0.0" stroke="#ff000000" stroke-linecap="butt" stroke-linejoin="miter" stroke-width="2.0"/>
    <path d="m6.3254,16.6204 l2.3492,-2.7407a0.4286,0.4286 0,0 1,0.6508 0l2.3492,2.7407A0.23,0.23 114.6993,0 1,11.5 17h-5A0.23,0.23 65.3006,0 1,6.3254 16.6204Z" fill="#000000" fill-opacity="1.0" stroke="#00000000" stroke-linecap="butt" stroke-linejoin="miter" stroke-width="1.0"/>
    <path d="m17.5,17h-7a0.2403,0.2403 64.3299,0 1,-0.1877 -0.3904l3.3753,-4.2191a0.4,0.4 0,0 1,0.6247 0l3.3753,4.2191A0.2403,0.2403 115.6701,0 1,17.5 17Z" fill="#000000" fill-opacity="1.0" stroke="#00000000" stroke-linecap="butt" stroke-linejoin="miter" stroke-width="1.0"/>
</svg>