<?xml version="1.0" encoding="utf-8" standalone="no"?><svg xmlns:android="http://schemas.android.com/apk/res/android" height="360.0" width="360.0" xmlns="http://www.w3.org/2000/svg">
    <path d="M77.33,281.43Q161.62,180.54,76.34,77.71C63.81,58.14,85.21,36.50,104.48,49.88Q215.25,181.73,103.35,310.77C87.51,320.40,63.51,304.25,77.33,281.43z" fill="#000000" fill-opacity="1.0" fill-rule="nonZero" stroke="#ff000000" stroke-linecap="square" stroke-linejoin="miter" stroke-width="0.36"/>
    <path d="M281.72,282.06Q197.43,181.17,282.71,78.34C295.24,58.76,273.84,37.12,254.57,50.51Q143.80,182.36,255.70,311.40C271.54,321.03,295.54,304.88,281.72,282.06z" fill="#000000" fill-opacity="1.0" fill-rule="nonZero" stroke="#ff000000" stroke-linecap="square" stroke-linejoin="miter" stroke-width="0.36"/>
    <path d="M49.34,251.40Q108.78,180.07,49.33,107.40C26.42,92.25,7.38,116.68,19.45,134.65Q59.38,179.00,19.39,225.31C6.66,242.08,27.15,268.10,49.34,251.40zM310.90,251.83C333.09,268.53,353.57,242.50,340.84,225.74Q300.86,179.43,340.79,135.08C352.86,117.10,333.82,92.68,310.90,107.83Q251.46,180.50,310.90,251.83z" fill="#000000" fill-opacity="0.5019607843137255" fill-rule="nonZero" stroke="#ff000000" stroke-linecap="square" stroke-linejoin="miter" stroke-width="0.36"/>
</svg>