<?xml version="1.0" encoding="utf-8" standalone="no"?><svg xmlns:android="http://schemas.android.com/apk/res/android" height="36.0" width="36.0" xmlns="http://www.w3.org/2000/svg">
    <path android:fillAlpha="0.6" android:strokeAlpha="0.6" d="M33,14.9c0,4.1-3.3,7.5-7.5,7.5s-7.5-3.3-7.5-7.5s3.3-7.5,7.5-7.5C29.7,7.4,33,10.7,33,14.9L33,14.9z" fill="#000000" fill-opacity="1.0" stroke-width="1.0"/>
    <path d="M19.1,10.5c4.4,0,8,3.6,8,8v0.1c2.3,0.5,4,2.5,4,4.9c0,2.8-2.2,5-5,5c-0.1,0-0.2,0-0.3,0v0H9.7v0C6,28.4,3,25.3,3,21.6 c0-3.9,3.1-7,7-7c0.7,0,1.3,0.1,1.9,0.3C13.4,12.2,16.1,10.5,19.1,10.5z" fill="#000000" fill-opacity="1.0"/>
</svg>