<?xml version="1.0" encoding="utf-8" standalone="no"?><svg xmlns:aapt="http://schemas.android.com/aapt" xmlns:android="http://schemas.android.com/apk/res/android" height="1080.0" width="1080.0" xmlns="http://www.w3.org/2000/svg">
    <g transform="translate(93.0, 93.0)">
        <path android:fillAlpha="0.9215686" android:strokeAlpha="0.9215686" d="M288.5 4L286.5 7L288.5 4Z" fill="#ffffff" fill-opacity="1.0" stroke="#ffffffff" stroke-width="1.0"/>
        <path android:fillAlpha="0.9215686" android:strokeAlpha="0.9215686" d="M605.5 4L607.5 7L605.5 4Z" fill="#ffffff" fill-opacity="1.0" stroke="#ffffffff" stroke-width="1.0"/>
        <path android:fillAlpha="0.9215686" android:strokeAlpha="0.9215686" d="M285.5 8L284.5 10L285.5 8Z" fill="#ffffff" fill-opacity="1.0" stroke="#ffffffff" stroke-width="1.0"/>
        <path android:fillAlpha="0.9215686" android:strokeAlpha="0.9215686" d="M608.5 8L609.5 10L608.5 8Z" fill="#ffffff" fill-opacity="1.0" stroke="#ffffffff" stroke-width="1.0"/>
        <path android:fillAlpha="0.9215686" android:strokeAlpha="0.9215686" d="M283.5 11L284 237.5L283 237.5L283.5 11Z" fill="#ffffff" fill-opacity="1.0" stroke="#ffffffff" stroke-width="1.0"/>
        <path android:fillAlpha="0.9215686" android:strokeAlpha="0.9215686" d="M610.5 11L611 237.5L610 237.5L610.5 11Z" fill="#ffffff" fill-opacity="1.0" stroke="#ffffffff" stroke-width="1.0"/>
        <path android:fillAlpha="0.9215686" android:strokeAlpha="0.9215686" d="M284.5 239L285.5 241L284.5 239Z" fill="#ffffff" fill-opacity="1.0" stroke="#ffffffff" stroke-width="1.0"/>
        <path android:fillAlpha="0.9215686" android:strokeAlpha="0.9215686" d="M609.5 239L608.5 241L609.5 239Z" fill="#ffffff" fill-opacity="1.0" stroke="#ffffffff" stroke-width="1.0"/>
        <path android:fillAlpha="0.9215686" android:strokeAlpha="0.9215686" d="M286.5 242L288.5 245L286.5 242Z" fill="#ffffff" fill-opacity="1.0" stroke="#ffffffff" stroke-width="1.0"/>
        <path android:fillAlpha="0.9215686" android:strokeAlpha="0.9215686" d="M607.5 242L605.5 245L607.5 242Z" fill="#ffffff" fill-opacity="1.0" stroke="#ffffffff" stroke-width="1.0"/>
        <path android:fillAlpha="0.9215686" android:strokeAlpha="0.9215686" d="M283.5 640L285.5 643L283.5 640Z" fill="#ffffff" fill-opacity="1.0" stroke="#ffffffff" stroke-width="1.0"/>
        <path android:fillAlpha="0.9215686" android:strokeAlpha="0.9215686" d="M610.5 640L608.5 643L610.5 640Z" fill="#ffffff" fill-opacity="1.0" stroke="#ffffffff" stroke-width="1.0"/>
        <path d="M293.5 1L600.5 1L608 7.5L610 10.5L610 238.5L603.5 246L600.5 248L293.5 248L286 241.5L284 238.5L284 10.5L290.5 3L293.5 1Z" fill="#ffffff" fill-opacity="1.0" stroke="#ffffffff" stroke-width="1.0"/>
        <path d="M11.5 397L269.5 397L277 402.5L280 407.5L280 635.5L285.5 643L290.5 646L603.5 646L611 640.5L614 635.5L614 407.5L619.5 400L624.5 397L882.5 397L891 403.5L893 407.5L893 882.5L887.5 890L882.5 893L11.5 893L4 887.5L1 882.5L1 407.5L7.5 399L11.5 397Z" fill="#ffffff" fill-opacity="1.0" stroke="#ffffffff" stroke-width="1.0"/>
        <path android:fillAlpha="0.4509804" android:strokeAlpha="0.4509804" d="M286.5 243L288.5 246L286.5 243Z" fill="#ffffff" fill-opacity="1.0" stroke="#ffffffff" stroke-width="1.0"/>
        <path android:fillAlpha="0.4509804" android:strokeAlpha="0.4509804" d="M607.5 243L605.5 246L607.5 243Z" fill="#ffffff" fill-opacity="1.0" stroke="#ffffffff" stroke-width="1.0"/>
        <path android:fillAlpha="0.4509804" android:strokeAlpha="0.4509804" d="M290.5 246L291.5 248L290.5 246Z" fill="#ffffff" fill-opacity="1.0" stroke="#ffffffff" stroke-width="1.0"/>
        <path android:fillAlpha="0.4509804" android:strokeAlpha="0.4509804" d="M603.5 246L602.5 248L603.5 246Z" fill="#ffffff" fill-opacity="1.0" stroke="#ffffffff" stroke-width="1.0"/>
        <path android:fillAlpha="0.4509804" android:strokeAlpha="0.4509804" d="M293.5 248L601 248.5L293.5 249L293.5 248Z" fill="#ffffff" fill-opacity="1.0" stroke="#ffffffff" stroke-width="1.0"/>
        <path android:fillAlpha="0.4509804" android:strokeAlpha="0.4509804" d="M10.5 396L271 396.5L10.5 397L10.5 396Z" fill="#ffffff" fill-opacity="1.0" stroke="#ffffffff" stroke-width="1.0"/>
        <path android:fillAlpha="0.4509804" android:strokeAlpha="0.4509804" d="M623.5 396L884 396.5L623.5 397L623.5 396Z" fill="#ffffff" fill-opacity="1.0" stroke="#ffffffff" stroke-width="1.0"/>
        <path android:fillAlpha="0.4509804" android:strokeAlpha="0.4509804" d="M8.5 397L7.5 399L8.5 397Z" fill="#ffffff" fill-opacity="1.0" stroke="#ffffffff" stroke-width="1.0"/>
        <path android:fillAlpha="0.4509804" android:strokeAlpha="0.4509804" d="M272.5 397L273.5 399L272.5 397Z" fill="#ffffff" fill-opacity="1.0" stroke="#ffffffff" stroke-width="1.0"/>
        <path android:fillAlpha="0.4509804" android:strokeAlpha="0.4509804" d="M621.5 397L620.5 399L621.5 397Z" fill="#ffffff" fill-opacity="1.0" stroke="#ffffffff" stroke-width="1.0"/>
        <path android:fillAlpha="0.4509804" android:strokeAlpha="0.4509804" d="M885.5 397L886.5 399L885.5 397Z" fill="#ffffff" fill-opacity="1.0" stroke="#ffffffff" stroke-width="1.0"/>
        <path android:fillAlpha="0.4509804" android:strokeAlpha="0.4509804" d="M5.5 399L3.5 402L5.5 399Z" fill="#ffffff" fill-opacity="1.0" stroke="#ffffffff" stroke-width="1.0"/>
        <path android:fillAlpha="0.4509804" android:strokeAlpha="0.4509804" d="M275.5 399L277.5 402L275.5 399Z" fill="#ffffff" fill-opacity="1.0" stroke="#ffffffff" stroke-width="1.0"/>
        <path android:fillAlpha="0.4509804" android:strokeAlpha="0.4509804" d="M618.5 399L616.5 402L618.5 399Z" fill="#ffffff" fill-opacity="1.0" stroke="#ffffffff" stroke-width="1.0"/>
        <path android:fillAlpha="0.4509804" android:strokeAlpha="0.4509804" d="M888.5 399L890.5 402L888.5 399Z" fill="#ffffff" fill-opacity="1.0" stroke="#ffffffff" stroke-width="1.0"/>
        <path android:fillAlpha="0.4509804" android:strokeAlpha="0.4509804" d="M1.5 885L2.5 887L1.5 885Z" fill="#ffffff" fill-opacity="1.0" stroke="#ffffffff" stroke-width="1.0"/>
        <path android:fillAlpha="0.4509804" android:strokeAlpha="0.4509804" d="M892.5 885L891.5 887L892.5 885Z" fill="#ffffff" fill-opacity="1.0" stroke="#ffffffff" stroke-width="1.0"/>
        <path android:fillAlpha="0.4509804" android:strokeAlpha="0.4509804" d="M3.5 888L10.5 893L883.5 893L890.5 888L888.5 891L883.5 894L10.5 894Q5 891.9 3.5 888Z" fill="#ffffff" fill-opacity="1.0" stroke="#ffffffff" stroke-width="1.0"/>
        <path android:fillAlpha="0.545098" android:strokeAlpha="0.545098" d="M9.5 397L11 397.5L8.5 399L9.5 397Z" fill="#ffffff" fill-opacity="1.0" stroke="#ffffffff" stroke-width="1.0"/>
        <path android:fillAlpha="0.545098" android:strokeAlpha="0.545098" d="M271.5 397L272.5 399L271.5 397Z" fill="#ffffff" fill-opacity="1.0" stroke="#ffffffff" stroke-width="1.0"/>
        <path android:fillAlpha="0.545098" android:strokeAlpha="0.545098" d="M622.5 397L621.5 399L622.5 397Z" fill="#ffffff" fill-opacity="1.0" stroke="#ffffffff" stroke-width="1.0"/>
        <path android:fillAlpha="0.545098" android:strokeAlpha="0.545098" d="M883.5 397L886 398.5L884.5 398L883.5 397Z" fill="#ffffff" fill-opacity="1.0" stroke="#ffffffff" stroke-width="1.0"/>
        <path android:fillAlpha="0.545098" android:strokeAlpha="0.545098" d="M6.5 399L3 403.5L1 407.5L1 882.5L3 885.5L1 884.5L0 882.5L0 406.5L6.5 399Z" fill="#ffffff" fill-opacity="1.0" stroke="#ffffffff" stroke-width="1.0"/>
        <path android:fillAlpha="0.545098" android:strokeAlpha="0.545098" d="M274.5 399L281 406.5L281 634.5L286.5 642L291.5 645L602.5 645L610 639.5L613 634.5L613 406.5L619.5 399L616 403.5L614 406.5L614 635.5L605.5 645L603.5 646L290.5 646L281 637.5L280 635.5L280 406.5L274.5 399Z" fill="#ffffff" fill-opacity="1.0" stroke="#ffffffff" stroke-width="1.0"/>
        <path android:fillAlpha="0.545098" android:strokeAlpha="0.545098" d="M887.5 399L894 406.5L894 882.5L891.5 886L892 884.5L893 882.5L893 407.5L887.5 399Z" fill="#ffffff" fill-opacity="1.0" stroke="#ffffffff" stroke-width="1.0"/>
        <path android:fillAlpha="0.545098" android:strokeAlpha="0.545098" d="M3.5 887L5.5 890L3.5 887Z" fill="#ffffff" fill-opacity="1.0" stroke="#ffffffff" stroke-width="1.0"/>
        <path android:fillAlpha="0.545098" android:strokeAlpha="0.545098" d="M890.5 887L888.5 890L890.5 887Z" fill="#ffffff" fill-opacity="1.0" stroke="#ffffffff" stroke-width="1.0"/>
    </g>
</svg>