<?xml version="1.0" encoding="utf-8" standalone="no"?><svg xmlns:aapt="http://schemas.android.com/aapt" xmlns:android="http://schemas.android.com/apk/res/android" height="500.0" width="500.0" xmlns="http://www.w3.org/2000/svg">
    <path android:fillAlpha="0.8235294" android:strokeAlpha="0.8235294" d="M57.5 1L62 1.5L57.5 2L57.5 1Z" fill="#000000" fill-opacity="1.0" stroke="#ff000000" stroke-width="1.0"/>
    <path android:fillAlpha="0.8235294" android:strokeAlpha="0.8235294" d="M439.5 1L443 1.5L439.5 2L439.5 1Z" fill="#000000" fill-opacity="1.0" stroke="#ff000000" stroke-width="1.0"/>
    <path android:fillAlpha="0.8235294" android:strokeAlpha="0.8235294" d="M51.5 2L54 2.5L51.5 3L51.5 2Z" fill="#000000" fill-opacity="1.0" stroke="#ff000000" stroke-width="1.0"/>
    <path android:fillAlpha="0.8235294" android:strokeAlpha="0.8235294" d="M446.5 2L449 2.5L446.5 3L446.5 2Z" fill="#000000" fill-opacity="1.0" stroke="#ff000000" stroke-width="1.0"/>
    <path android:fillAlpha="0.8235294" android:strokeAlpha="0.8235294" d="M459.5 6L465 8.5L463.5 9L459.5 7L459.5 6Z" fill="#000000" fill-opacity="1.0" stroke="#ff000000" stroke-width="1.0"/>
    <path android:fillAlpha="0.8235294" android:strokeAlpha="0.8235294" d="M32.5 10L31.5 12L32.5 10Z" fill="#000000" fill-opacity="1.0" stroke="#ff000000" stroke-width="1.0"/>
    <path android:fillAlpha="0.8235294" android:strokeAlpha="0.8235294" d="M469.5 11L470.5 13L469.5 11Z" fill="#000000" fill-opacity="1.0" stroke="#ff000000" stroke-width="1.0"/>
    <path android:fillAlpha="0.8235294" android:strokeAlpha="0.8235294" d="M29.5 12L28.5 14L29.5 12Z" fill="#000000" fill-opacity="1.0" stroke="#ff000000" stroke-width="1.0"/>
    <path android:fillAlpha="0.8235294" android:strokeAlpha="0.8235294" d="M472.5 13L474.5 16L472.5 13Z" fill="#000000" fill-opacity="1.0" stroke="#ff000000" stroke-width="1.0"/>
    <path android:fillAlpha="0.8235294" android:strokeAlpha="0.8235294" d="M25.5 15L22.5 19L25.5 15Z" fill="#000000" fill-opacity="1.0" stroke="#ff000000" stroke-width="1.0"/>
    <path android:fillAlpha="0.8235294" android:strokeAlpha="0.8235294" d="M478.5 18L482.5 23L478.5 18Z" fill="#000000" fill-opacity="1.0" stroke="#ff000000" stroke-width="1.0"/>
    <path android:fillAlpha="0.8235294" android:strokeAlpha="0.8235294" d="M18.5 22L15.5 26L18.5 22Z" fill="#000000" fill-opacity="1.0" stroke="#ff000000" stroke-width="1.0"/>
    <path android:fillAlpha="0.8235294" android:strokeAlpha="0.8235294" d="M484.5 25L486.5 28L484.5 25Z" fill="#000000" fill-opacity="1.0" stroke="#ff000000" stroke-width="1.0"/>
    <path android:fillAlpha="0.8235294" android:strokeAlpha="0.8235294" d="M13.5 28L12.5 30L13.5 28Z" fill="#000000" fill-opacity="1.0" stroke="#ff000000" stroke-width="1.0"/>
    <path android:fillAlpha="0.8235294" android:strokeAlpha="0.8235294" d="M11.5 31L10.5 33L11.5 31Z" fill="#000000" fill-opacity="1.0" stroke="#ff000000" stroke-width="1.0"/>
    <path android:fillAlpha="0.8235294" android:strokeAlpha="0.8235294" d="M489.5 32L490.5 34L489.5 32Z" fill="#000000" fill-opacity="1.0" stroke="#ff000000" stroke-width="1.0"/>
    <path android:fillAlpha="0.8235294" android:strokeAlpha="0.8235294" d="M498.5 54L499 56.5L498 56.5L498.5 54Z" fill="#000000" fill-opacity="1.0" stroke="#ff000000" stroke-width="1.0"/>
    <path android:fillAlpha="0.8235294" android:strokeAlpha="0.8235294" d="M1.5 57L2 61.5L1 61.5L1.5 57Z" fill="#000000" fill-opacity="1.0" stroke="#ff000000" stroke-width="1.0"/>
    <path android:fillAlpha="0.8235294" android:strokeAlpha="0.8235294" d="M499.5 61L500 439.5L499 439.5L499.5 61Z" fill="#000000" fill-opacity="1.0" stroke="#ff000000" stroke-width="1.0"/>
    <path android:fillAlpha="0.8235294" android:strokeAlpha="0.8235294" d="M238.5 151L262 151.5L238.5 152L238.5 151Z" fill="#000000" fill-opacity="1.0" stroke="#ff000000" stroke-width="1.0"/>
    <path android:fillAlpha="0.8235294" android:strokeAlpha="0.8235294" d="M229.5 152L234 152.5L229.5 153L229.5 152Z" fill="#000000" fill-opacity="1.0" stroke="#ff000000" stroke-width="1.0"/>
    <path android:fillAlpha="0.8235294" android:strokeAlpha="0.8235294" d="M267.5 152L272 152.5L267.5 153L267.5 152Z" fill="#000000" fill-opacity="1.0" stroke="#ff000000" stroke-width="1.0"/>
    <path android:fillAlpha="0.8235294" android:strokeAlpha="0.8235294" d="M223.5 153L226 153.5L223.5 154L223.5 153Z" fill="#000000" fill-opacity="1.0" stroke="#ff000000" stroke-width="1.0"/>
    <path android:fillAlpha="0.8235294" android:strokeAlpha="0.8235294" d="M276.5 153L280 153.5L276.5 154L276.5 153Z" fill="#000000" fill-opacity="1.0" stroke="#ff000000" stroke-width="1.0"/>
    <path android:fillAlpha="0.8235294" android:strokeAlpha="0.8235294" d="M217.5 154L220 154.5L217.5 155L217.5 154Z" fill="#000000" fill-opacity="1.0" stroke="#ff000000" stroke-width="1.0"/>
    <path android:fillAlpha="0.8235294" android:strokeAlpha="0.8235294" d="M284.5 154L288 154.5L284.5 155L284.5 154Z" fill="#000000" fill-opacity="1.0" stroke="#ff000000" stroke-width="1.0"/>
    <path android:fillAlpha="0.8235294" android:strokeAlpha="0.8235294" d="M290.5 155L293 155.5L290.5 156L290.5 155Z" fill="#000000" fill-opacity="1.0" stroke="#ff000000" stroke-width="1.0"/>
    <path android:fillAlpha="0.8235294" android:strokeAlpha="0.8235294" d="M295.5 156L298 156.5L295.5 157L295.5 156Z" fill="#000000" fill-opacity="1.0" stroke="#ff000000" stroke-width="1.0"/>
    <path android:fillAlpha="0.8235294" android:strokeAlpha="0.8235294" d="M300.5 157L303 157.5L300.5 158L300.5 157Z" fill="#000000" fill-opacity="1.0" stroke="#ff000000" stroke-width="1.0"/>
    <path android:fillAlpha="0.8235294" android:strokeAlpha="0.8235294" d="M313.5 160L316 160.5L313.5 161L313.5 160Z" fill="#000000" fill-opacity="1.0" stroke="#ff000000" stroke-width="1.0"/>
    <path android:fillAlpha="0.8235294" android:strokeAlpha="0.8235294" d="M183.5 166L185 166.5L182.5 168L183.5 166Z" fill="#000000" fill-opacity="1.0" stroke="#ff000000" stroke-width="1.0"/>
    <path android:fillAlpha="0.8235294" android:strokeAlpha="0.8235294" d="M172.5 172L171.5 174L172.5 172Z" fill="#000000" fill-opacity="1.0" stroke="#ff000000" stroke-width="1.0"/>
    <path android:fillAlpha="0.8235294" android:strokeAlpha="0.8235294" d="M167.5 175L166.5 177L167.5 175Z" fill="#000000" fill-opacity="1.0" stroke="#ff000000" stroke-width="1.0"/>
    <path android:fillAlpha="0.8235294" android:strokeAlpha="0.8235294" d="M164.5 177L163.5 179L164.5 177Z" fill="#000000" fill-opacity="1.0" stroke="#ff000000" stroke-width="1.0"/>
    <path android:fillAlpha="0.8235294" android:strokeAlpha="0.8235294" d="M234.5 177L241 177.5L234.5 178L234.5 177Z" fill="#000000" fill-opacity="1.0" stroke="#ff000000" stroke-width="1.0"/>
    <path android:fillAlpha="0.8235294" android:strokeAlpha="0.8235294" d="M258.5 177L266 177.5L258.5 178L258.5 177Z" fill="#000000" fill-opacity="1.0" stroke="#ff000000" stroke-width="1.0"/>
    <path android:fillAlpha="0.8235294" android:strokeAlpha="0.8235294" d="M271.5 178L274 178.5L271.5 179L271.5 178Z" fill="#000000" fill-opacity="1.0" stroke="#ff000000" stroke-width="1.0"/>
    <path android:fillAlpha="0.8235294" android:strokeAlpha="0.8235294" d="M222.5 179L225 179.5L222.5 180L222.5 179Z" fill="#000000" fill-opacity="1.0" stroke="#ff000000" stroke-width="1.0"/>
    <path android:fillAlpha="0.8235294" android:strokeAlpha="0.8235294" d="M278.5 179L282 179.5L278.5 180L278.5 179Z" fill="#000000" fill-opacity="1.0" stroke="#ff000000" stroke-width="1.0"/>
    <path android:fillAlpha="0.8235294" android:strokeAlpha="0.8235294" d="M160.5 180L159.5 182L160.5 180Z" fill="#000000" fill-opacity="1.0" stroke="#ff000000" stroke-width="1.0"/>
    <path android:fillAlpha="0.8235294" android:strokeAlpha="0.8235294" d="M218.5 180L221 180.5L218.5 181L218.5 180Z" fill="#000000" fill-opacity="1.0" stroke="#ff000000" stroke-width="1.0"/>
    <path android:fillAlpha="0.8235294" android:strokeAlpha="0.8235294" d="M284.5 180L287 180.5L284.5 181L284.5 180Z" fill="#000000" fill-opacity="1.0" stroke="#ff000000" stroke-width="1.0"/>
    <path android:fillAlpha="0.8235294" android:strokeAlpha="0.8235294" d="M157.5 182L155.5 185L157.5 182Z" fill="#000000" fill-opacity="1.0" stroke="#ff000000" stroke-width="1.0"/>
    <path android:fillAlpha="0.8235294" android:strokeAlpha="0.8235294" d="M294.5 182L298 182.5L294.5 183L294.5 182Z" fill="#000000" fill-opacity="1.0" stroke="#ff000000" stroke-width="1.0"/>
    <path android:fillAlpha="0.8235294" android:strokeAlpha="0.8235294" d="M249.5 183L263 183.5L249.5 184L249.5 183Z" fill="#000000" fill-opacity="1.0" stroke="#ff000000" stroke-width="1.0"/>
    <path android:fillAlpha="0.8235294" android:strokeAlpha="0.8235294" d="M270.5 183L284 183.5L270.5 184L270.5 183Z" fill="#000000" fill-opacity="1.0" stroke="#ff000000" stroke-width="1.0"/>
    <path android:fillAlpha="0.8235294" android:strokeAlpha="0.8235294" d="M299.5 183L302 183.5L299.5 184L299.5 183Z" fill="#000000" fill-opacity="1.0" stroke="#ff000000" stroke-width="1.0"/>
    <path android:fillAlpha="0.8235294" android:strokeAlpha="0.8235294" d="M240.5 184L245 184.5L240.5 185L240.5 184Z" fill="#000000" fill-opacity="1.0" stroke="#ff000000" stroke-width="1.0"/>
    <path android:fillAlpha="0.8235294" android:strokeAlpha="0.8235294" d="M290.5 184L296 184.5L290.5 185L290.5 184Z" fill="#000000" fill-opacity="1.0" stroke="#ff000000" stroke-width="1.0"/>
    <path android:fillAlpha="0.8235294" android:strokeAlpha="0.8235294" d="M304.5 184L306 184.5L302.5 186L302.5 185L304.5 184Z" fill="#000000" fill-opacity="1.0" stroke="#ff000000" stroke-width="1.0"/>
    <path android:fillAlpha="0.8235294" android:strokeAlpha="0.8235294" d="M308.5 185L314 186.5L309.5 187L308.5 185Z" fill="#000000" fill-opacity="1.0" stroke="#ff000000" stroke-width="1.0"/>
    <path android:fillAlpha="0.8235294" android:strokeAlpha="0.8235294" d="M376.5 185L377.5 187L376.5 185Z" fill="#000000" fill-opacity="1.0" stroke="#ff000000" stroke-width="1.0"/>
    <path android:fillAlpha="0.8235294" android:strokeAlpha="0.8235294" d="M152.5 186L146.5 193L152.5 186Z" fill="#000000" fill-opacity="1.0" stroke="#ff000000" stroke-width="1.0"/>
    <path android:fillAlpha="0.8235294" android:strokeAlpha="0.8235294" d="M229.5 186L232 186.5L229.5 187L229.5 186Z" fill="#000000" fill-opacity="1.0" stroke="#ff000000" stroke-width="1.0"/>
    <path android:fillAlpha="0.8235294" android:strokeAlpha="0.8235294" d="M225.5 187L228 187.5L225.5 188L225.5 187Z" fill="#000000" fill-opacity="1.0" stroke="#ff000000" stroke-width="1.0"/>
    <path android:fillAlpha="0.8235294" android:strokeAlpha="0.8235294" d="M379.5 187L380.5 189L379.5 187Z" fill="#000000" fill-opacity="1.0" stroke="#ff000000" stroke-width="1.0"/>
    <path android:fillAlpha="0.8235294" android:strokeAlpha="0.8235294" d="M194.5 189L192.5 192L194.5 189Z" fill="#000000" fill-opacity="1.0" stroke="#ff000000" stroke-width="1.0"/>
    <path android:fillAlpha="0.8235294" android:strokeAlpha="0.8235294" d="M382.5 189L383.5 191L382.5 189Z" fill="#000000" fill-opacity="1.0" stroke="#ff000000" stroke-width="1.0"/>
    <path android:fillAlpha="0.8235294" android:strokeAlpha="0.8235294" d="M386.5 192L387.5 194L386.5 192Z" fill="#000000" fill-opacity="1.0" stroke="#ff000000" stroke-width="1.0"/>
    <path android:fillAlpha="0.8235294" android:strokeAlpha="0.8235294" d="M204.5 195L206 195.5L201.5 198L202.5 196L204.5 195Z" fill="#000000" fill-opacity="1.0" stroke="#ff000000" stroke-width="1.0"/>
    <path android:fillAlpha="0.8235294" android:strokeAlpha="0.8235294" d="M390.5 195L392.5 198L390.5 195Z" fill="#000000" fill-opacity="1.0" stroke="#ff000000" stroke-width="1.0"/>
    <path android:fillAlpha="0.8235294" android:strokeAlpha="0.8235294" d="M142.5 196L137.5 202L142.5 196Z" fill="#000000" fill-opacity="1.0" stroke="#ff000000" stroke-width="1.0"/>
    <path android:fillAlpha="0.8235294" android:strokeAlpha="0.8235294" d="M396.5 200L404.5 209L396.5 200Z" fill="#000000" fill-opacity="1.0" stroke="#ff000000" stroke-width="1.0"/>
    <path android:fillAlpha="0.8235294" android:strokeAlpha="0.8235294" d="M136.5 203L134.5 206L136.5 203Z" fill="#000000" fill-opacity="1.0" stroke="#ff000000" stroke-width="1.0"/>
    <path android:fillAlpha="0.8235294" android:strokeAlpha="0.8235294" d="M406.5 211L409.5 215L406.5 211Z" fill="#000000" fill-opacity="1.0" stroke="#ff000000" stroke-width="1.0"/>
    <path android:fillAlpha="0.8235294" android:strokeAlpha="0.8235294" d="M123.5 216L120.5 220L123.5 216Z" fill="#000000" fill-opacity="1.0" stroke="#ff000000" stroke-width="1.0"/>
    <path android:fillAlpha="0.8235294" android:strokeAlpha="0.8235294" d="M410.5 216L411.5 218L410.5 216Z" fill="#000000" fill-opacity="1.0" stroke="#ff000000" stroke-width="1.0"/>
    <path android:fillAlpha="0.8235294" android:strokeAlpha="0.8235294" d="M412.5 219L413.5 221L412.5 219Z" fill="#000000" fill-opacity="1.0" stroke="#ff000000" stroke-width="1.0"/>
    <path android:fillAlpha="0.8235294" android:strokeAlpha="0.8235294" d="M117.5 221L115.5 224L117.5 221Z" fill="#000000" fill-opacity="1.0" stroke="#ff000000" stroke-width="1.0"/>
    <path android:fillAlpha="0.8235294" android:strokeAlpha="0.8235294" d="M414.5 222L415.5 224L414.5 222Z" fill="#000000" fill-opacity="1.0" stroke="#ff000000" stroke-width="1.0"/>
    <path android:fillAlpha="0.8235294" android:strokeAlpha="0.8235294" d="M112.5 225L111.5 227L112.5 225Z" fill="#000000" fill-opacity="1.0" stroke="#ff000000" stroke-width="1.0"/>
    <path android:fillAlpha="0.8235294" android:strokeAlpha="0.8235294" d="M109.5 227L108.5 229L109.5 227Z" fill="#000000" fill-opacity="1.0" stroke="#ff000000" stroke-width="1.0"/>
    <path android:fillAlpha="0.8235294" android:strokeAlpha="0.8235294" d="M93.5 234L96 234.5L93.5 235L93.5 234Z" fill="#000000" fill-opacity="1.0" stroke="#ff000000" stroke-width="1.0"/>
    <path android:fillAlpha="0.8235294" android:strokeAlpha="0.8235294" d="M85.5 235L90 235.5L85.5 236L85.5 235Z" fill="#000000" fill-opacity="1.0" stroke="#ff000000" stroke-width="1.0"/>
    <path android:fillAlpha="0.8235294" android:strokeAlpha="0.8235294" d="M14.5 236L21 236.5L14.5 237L14.5 236Z" fill="#000000" fill-opacity="1.0" stroke="#ff000000" stroke-width="1.0"/>
    <path android:fillAlpha="0.8235294" android:strokeAlpha="0.8235294" d="M76.5 236L80 236.5L76.5 237L76.5 236Z" fill="#000000" fill-opacity="1.0" stroke="#ff000000" stroke-width="1.0"/>
    <path android:fillAlpha="0.8235294" android:strokeAlpha="0.8235294" d="M47.5 237L59 237.5L47.5 238L47.5 237Z" fill="#000000" fill-opacity="1.0" stroke="#ff000000" stroke-width="1.0"/>
    <path android:fillAlpha="0.8235294" android:strokeAlpha="0.8235294" d="M23.5 263L41 263.5L23.5 264L23.5 263Z" fill="#000000" fill-opacity="1.0" stroke="#ff000000" stroke-width="1.0"/>
    <path android:fillAlpha="0.8235294" android:strokeAlpha="0.8235294" d="M64.5 263L75 263.5L64.5 264L64.5 263Z" fill="#000000" fill-opacity="1.0" stroke="#ff000000" stroke-width="1.0"/>
    <path android:fillAlpha="0.8235294" android:strokeAlpha="0.8235294" d="M2.5 264L13 264.5L2.5 265L2.5 264Z" fill="#000000" fill-opacity="1.0" stroke="#ff000000" stroke-width="1.0"/>
    <path android:fillAlpha="0.8235294" android:strokeAlpha="0.8235294" d="M80.5 264L85 264.5L80.5 265L80.5 264Z" fill="#000000" fill-opacity="1.0" stroke="#ff000000" stroke-width="1.0"/>
    <path android:fillAlpha="0.8235294" android:strokeAlpha="0.8235294" d="M89.5 265L94 265.5L89.5 266L89.5 265Z" fill="#000000" fill-opacity="1.0" stroke="#ff000000" stroke-width="1.0"/>
    <path android:fillAlpha="0.8235294" android:strokeAlpha="0.8235294" d="M113.5 275L114.5 277L113.5 275Z" fill="#000000" fill-opacity="1.0" stroke="#ff000000" stroke-width="1.0"/>
    <path android:fillAlpha="0.8235294" android:strokeAlpha="0.8235294" d="M117.5 278L119.5 281L117.5 278Z" fill="#000000" fill-opacity="1.0" stroke="#ff000000" stroke-width="1.0"/>
    <path android:fillAlpha="0.8235294" android:strokeAlpha="0.8235294" d="M413.5 280L412.5 282L413.5 280Z" fill="#000000" fill-opacity="1.0" stroke="#ff000000" stroke-width="1.0"/>
    <path android:fillAlpha="0.8235294" android:strokeAlpha="0.8235294" d="M123.5 283L134.5 295L123.5 283Z" fill="#000000" fill-opacity="1.0" stroke="#ff000000" stroke-width="1.0"/>
    <path android:fillAlpha="0.8235294" android:strokeAlpha="0.8235294" d="M411.5 283L410.5 285L411.5 283Z" fill="#000000" fill-opacity="1.0" stroke="#ff000000" stroke-width="1.0"/>
    <path android:fillAlpha="0.8235294" android:strokeAlpha="0.8235294" d="M407.5 288L405.5 291L407.5 288Z" fill="#000000" fill-opacity="1.0" stroke="#ff000000" stroke-width="1.0"/>
    <path android:fillAlpha="0.8235294" android:strokeAlpha="0.8235294" d="M136.5 297L138.5 300L136.5 297Z" fill="#000000" fill-opacity="1.0" stroke="#ff000000" stroke-width="1.0"/>
    <path android:fillAlpha="0.8235294" android:strokeAlpha="0.8235294" d="M395.5 300L392.5 304L395.5 300Z" fill="#000000" fill-opacity="1.0" stroke="#ff000000" stroke-width="1.0"/>
    <path android:fillAlpha="0.8235294" android:strokeAlpha="0.8235294" d="M140.5 302L151.5 314L140.5 302Z" fill="#000000" fill-opacity="1.0" stroke="#ff000000" stroke-width="1.0"/>
    <path android:fillAlpha="0.8235294" android:strokeAlpha="0.8235294" d="M389.5 305L387.5 308L389.5 305Z" fill="#000000" fill-opacity="1.0" stroke="#ff000000" stroke-width="1.0"/>
    <path android:fillAlpha="0.8235294" android:strokeAlpha="0.8235294" d="M385.5 308L384.5 310L385.5 308Z" fill="#000000" fill-opacity="1.0" stroke="#ff000000" stroke-width="1.0"/>
    <path android:fillAlpha="0.8235294" android:strokeAlpha="0.8235294" d="M381.5 311L380.5 313L381.5 311Z" fill="#000000" fill-opacity="1.0" stroke="#ff000000" stroke-width="1.0"/>
    <path android:fillAlpha="0.8235294" android:strokeAlpha="0.8235294" d="M376.5 314L375.5 316L376.5 314Z" fill="#000000" fill-opacity="1.0" stroke="#ff000000" stroke-width="1.0"/>
    <path android:fillAlpha="0.8235294" android:strokeAlpha="0.8235294" d="M154.5 315L156.5 318L154.5 315Z" fill="#000000" fill-opacity="1.0" stroke="#ff000000" stroke-width="1.0"/>
    <path android:fillAlpha="0.8235294" android:strokeAlpha="0.8235294" d="M371.5 317L370.5 319L371.5 317Z" fill="#000000" fill-opacity="1.0" stroke="#ff000000" stroke-width="1.0"/>
    <path android:fillAlpha="0.8235294" android:strokeAlpha="0.8235294" d="M159.5 319L160.5 321L159.5 319Z" fill="#000000" fill-opacity="1.0" stroke="#ff000000" stroke-width="1.0"/>
    <path android:fillAlpha="0.8235294" android:strokeAlpha="0.8235294" d="M163.5 322L164.5 324L163.5 322Z" fill="#000000" fill-opacity="1.0" stroke="#ff000000" stroke-width="1.0"/>
    <path android:fillAlpha="0.8235294" android:strokeAlpha="0.8235294" d="M171.5 327L172.5 329L171.5 327Z" fill="#000000" fill-opacity="1.0" stroke="#ff000000" stroke-width="1.0"/>
    <path android:fillAlpha="0.8235294" android:strokeAlpha="0.8235294" d="M304.5 342L307 342.5L304.5 343L304.5 342Z" fill="#000000" fill-opacity="1.0" stroke="#ff000000" stroke-width="1.0"/>
    <path android:fillAlpha="0.8235294" android:strokeAlpha="0.8235294" d="M212.5 345L215 345.5L212.5 346L212.5 345Z" fill="#000000" fill-opacity="1.0" stroke="#ff000000" stroke-width="1.0"/>
    <path android:fillAlpha="0.8235294" android:strokeAlpha="0.8235294" d="M289.5 345L293 345.5L289.5 346L289.5 345Z" fill="#000000" fill-opacity="1.0" stroke="#ff000000" stroke-width="1.0"/>
    <path android:fillAlpha="0.8235294" android:strokeAlpha="0.8235294" d="M283.5 346L286 346.5L283.5 347L283.5 346Z" fill="#000000" fill-opacity="1.0" stroke="#ff000000" stroke-width="1.0"/>
    <path android:fillAlpha="0.8235294" android:strokeAlpha="0.8235294" d="M276.5 347L280 347.5L276.5 348L276.5 347Z" fill="#000000" fill-opacity="1.0" stroke="#ff000000" stroke-width="1.0"/>
    <path android:fillAlpha="0.8235294" android:strokeAlpha="0.8235294" d="M227.5 348L233 348.5L227.5 349L227.5 348Z" fill="#000000" fill-opacity="1.0" stroke="#ff000000" stroke-width="1.0"/>
    <path android:fillAlpha="0.8235294" android:strokeAlpha="0.8235294" d="M266.5 348L273 348.5L266.5 349L266.5 348Z" fill="#000000" fill-opacity="1.0" stroke="#ff000000" stroke-width="1.0"/>
    <path android:fillAlpha="0.8235294" android:strokeAlpha="0.8235294" d="M241.5 349L258 349.5L241.5 350L241.5 349Z" fill="#000000" fill-opacity="1.0" stroke="#ff000000" stroke-width="1.0"/>
    <path android:fillAlpha="0.8235294" android:strokeAlpha="0.8235294" d="M1.5 439L2 443.5L1 443.5L1.5 439Z" fill="#000000" fill-opacity="1.0" stroke="#ff000000" stroke-width="1.0"/>
    <path android:fillAlpha="0.8235294" android:strokeAlpha="0.8235294" d="M498.5 443L499 445.5L498 445.5L498.5 443Z" fill="#000000" fill-opacity="1.0" stroke="#ff000000" stroke-width="1.0"/>
    <path android:fillAlpha="0.8235294" android:strokeAlpha="0.8235294" d="M2.5 446L3 448.5L2 448.5L2.5 446Z" fill="#000000" fill-opacity="1.0" stroke="#ff000000" stroke-width="1.0"/>
    <path android:fillAlpha="0.8235294" android:strokeAlpha="0.8235294" d="M9.5 466L10.5 468L9.5 466Z" fill="#000000" fill-opacity="1.0" stroke="#ff000000" stroke-width="1.0"/>
    <path android:fillAlpha="0.8235294" android:strokeAlpha="0.8235294" d="M488.5 470L487.5 472L488.5 470Z" fill="#000000" fill-opacity="1.0" stroke="#ff000000" stroke-width="1.0"/>
    <path android:fillAlpha="0.8235294" android:strokeAlpha="0.8235294" d="M13.5 472L14.5 474L13.5 472Z" fill="#000000" fill-opacity="1.0" stroke="#ff000000" stroke-width="1.0"/>
    <path android:fillAlpha="0.8235294" android:strokeAlpha="0.8235294" d="M485.5 474L483.5 477L485.5 474Z" fill="#000000" fill-opacity="1.0" stroke="#ff000000" stroke-width="1.0"/>
    <path android:fillAlpha="0.8235294" android:strokeAlpha="0.8235294" d="M16.5 476L23.5 484L16.5 476Z" fill="#000000" fill-opacity="1.0" stroke="#ff000000" stroke-width="1.0"/>
    <path android:fillAlpha="0.8235294" android:strokeAlpha="0.8235294" d="M476.5 483L474.5 486L476.5 483Z" fill="#000000" fill-opacity="1.0" stroke="#ff000000" stroke-width="1.0"/>
    <path android:fillAlpha="0.8235294" android:strokeAlpha="0.8235294" d="M27.5 486L28.5 488L27.5 486Z" fill="#000000" fill-opacity="1.0" stroke="#ff000000" stroke-width="1.0"/>
    <path android:fillAlpha="0.8235294" android:strokeAlpha="0.8235294" d="M471.5 487L470.5 489L471.5 487Z" fill="#000000" fill-opacity="1.0" stroke="#ff000000" stroke-width="1.0"/>
    <path android:fillAlpha="0.8235294" android:strokeAlpha="0.8235294" d="M30.5 488L31.5 490L30.5 488Z" fill="#000000" fill-opacity="1.0" stroke="#ff000000" stroke-width="1.0"/>
    <path android:fillAlpha="0.8235294" android:strokeAlpha="0.8235294" d="M466.5 490L465.5 492L466.5 490Z" fill="#000000" fill-opacity="1.0" stroke="#ff000000" stroke-width="1.0"/>
    <path android:fillAlpha="0.8235294" android:strokeAlpha="0.8235294" d="M49.5 497L52 497.5L49.5 498L49.5 497Z" fill="#000000" fill-opacity="1.0" stroke="#ff000000" stroke-width="1.0"/>
    <path android:fillAlpha="0.8235294" android:strokeAlpha="0.8235294" d="M54.5 498L57 498.5L54.5 499L54.5 498Z" fill="#000000" fill-opacity="1.0" stroke="#ff000000" stroke-width="1.0"/>
    <path android:fillAlpha="0.8235294" android:strokeAlpha="0.8235294" d="M61.5 499L440 499.5L61.5 500L61.5 499Z" fill="#000000" fill-opacity="1.0" stroke="#ff000000" stroke-width="1.0"/>
    <path d="M62.5 1L438.5 1L439.5 2L450.5 3L465.5 9Q476.3 15.3 484 24.5Q495.6 36.9 499 57.5L499 442.5Q494.5 469 477.5 483Q464.6 495.1 443.5 499L57.5 499Q29.4 493.6 15 474.5L6 459.5L1 438.5L1 265L12.5 265L13.5 264L63.5 263L64.5 264L79.5 264L80.5 265L88.5 265L98.5 267Q121.2 277.8 136 296.5L151.5 314Q170.1 329.9 194.5 340L212.5 346L227.5 349L257.5 350L258.5 349L272.5 349L286.5 346L292.5 346L321.5 339L339.5 333L370.5 319L387.5 308L401 297L412 283.5L420 269.5L424 256.5L424 244.5Q421.7 232.3 416 223.5Q408 210 396.5 200L369.5 181Q349.7 170.3 326.5 163L287.5 154L262.5 152L261.5 151L238.5 151L237.5 152L229.5 152L213.5 155L183.5 166Q155.9 179.4 137 201.5L126.5 214L123.5 216Q112.1 229.6 92.5 235L76.5 236L75.5 237L21.5 237L20.5 236L3.5 236L1 235L1 62.5L2 61.5L3 49.5L6 41.5Q11.8 28.3 21.5 19Q29.9 10.9 41.5 6L49.5 3L61.5 2L62.5 1Z" fill="#000000" fill-opacity="1.0" stroke="#ff000000" stroke-width="1.0"/>
    <path d="M241.5 177L270.5 178L304 184.5L296.5 185L295.5 184L284.5 184L283.5 183L249.5 183L248.5 184L240.5 184L225.5 187L196.5 199L193 198L192 192.5L199.5 187L216.5 181L230.5 178L240.5 178L241.5 177Z" fill="#000000" fill-opacity="1.0" stroke="#ff000000" stroke-width="1.0"/>
    <path d="M305.5 185L308 185.5L305.5 186L305.5 185Z" fill="#000000" fill-opacity="1.0" stroke="#ff000000" stroke-width="1.0"/>
    <path android:fillAlpha="0.2117647" android:strokeAlpha="0.2117647" d="M60.5 0L441 0.5L60.5 1L60.5 0Z" fill="#000000" fill-opacity="1.0" stroke="#ff000000" stroke-width="1.0"/>
    <path android:fillAlpha="0.2117647" android:strokeAlpha="0.2117647" d="M53.5 1L57 1.5L53.5 2L53.5 1Z" fill="#000000" fill-opacity="1.0" stroke="#ff000000" stroke-width="1.0"/>
    <path android:fillAlpha="0.2117647" android:strokeAlpha="0.2117647" d="M443.5 1L447 1.5L443.5 2L443.5 1Z" fill="#000000" fill-opacity="1.0" stroke="#ff000000" stroke-width="1.0"/>
    <path android:fillAlpha="0.2117647" android:strokeAlpha="0.2117647" d="M452.5 3L455 3.5L452.5 4L452.5 3Z" fill="#000000" fill-opacity="1.0" stroke="#ff000000" stroke-width="1.0"/>
    <path android:fillAlpha="0.2117647" android:strokeAlpha="0.2117647" d="M465.5 8L469 10.5L467.5 10L465.5 8Z" fill="#000000" fill-opacity="1.0" stroke="#ff000000" stroke-width="1.0"/>
    <path android:fillAlpha="0.2117647" android:strokeAlpha="0.2117647" d="M31.5 10L30.5 12L31.5 10Z" fill="#000000" fill-opacity="1.0" stroke="#ff000000" stroke-width="1.0"/>
    <path android:fillAlpha="0.2117647" android:strokeAlpha="0.2117647" d="M470.5 11L471.5 13L470.5 11Z" fill="#000000" fill-opacity="1.0" stroke="#ff000000" stroke-width="1.0"/>
    <path android:fillAlpha="0.2117647" android:strokeAlpha="0.2117647" d="M28.5 12L26.5 15L28.5 12Z" fill="#000000" fill-opacity="1.0" stroke="#ff000000" stroke-width="1.0"/>
    <path android:fillAlpha="0.2117647" android:strokeAlpha="0.2117647" d="M474.5 14L477.5 18L474.5 14Z" fill="#000000" fill-opacity="1.0" stroke="#ff000000" stroke-width="1.0"/>
    <path android:fillAlpha="0.2117647" android:strokeAlpha="0.2117647" d="M24.5 15L16.5 24L24.5 15Z" fill="#000000" fill-opacity="1.0" stroke="#ff000000" stroke-width="1.0"/>
    <path android:fillAlpha="0.2117647" android:strokeAlpha="0.2117647" d="M483.5 23L485.5 26L483.5 23Z" fill="#000000" fill-opacity="1.0" stroke="#ff000000" stroke-width="1.0"/>
    <path android:fillAlpha="0.2117647" android:strokeAlpha="0.2117647" d="M14.5 26L12.5 29L14.5 26Z" fill="#000000" fill-opacity="1.0" stroke="#ff000000" stroke-width="1.0"/>
    <path android:fillAlpha="0.2117647" android:strokeAlpha="0.2117647" d="M487.5 28L488.5 30L487.5 28Z" fill="#000000" fill-opacity="1.0" stroke="#ff000000" stroke-width="1.0"/>
    <path android:fillAlpha="0.2117647" android:strokeAlpha="0.2117647" d="M11.5 30L10.5 32L11.5 30Z" fill="#000000" fill-opacity="1.0" stroke="#ff000000" stroke-width="1.0"/>
    <path android:fillAlpha="0.2117647" android:strokeAlpha="0.2117647" d="M489.5 31L490.5 33L489.5 31Z" fill="#000000" fill-opacity="1.0" stroke="#ff000000" stroke-width="1.0"/>
    <path android:fillAlpha="0.2117647" android:strokeAlpha="0.2117647" d="M8.5 35L8 36.5L7.5 38L7 36.5L8.5 35Z" fill="#000000" fill-opacity="1.0" stroke="#ff000000" stroke-width="1.0"/>
    <path android:fillAlpha="0.2117647" android:strokeAlpha="0.2117647" d="M1.5 54L2 56.5L1 56.5L1.5 54Z" fill="#000000" fill-opacity="1.0" stroke="#ff000000" stroke-width="1.0"/>
    <path android:fillAlpha="0.2117647" android:strokeAlpha="0.2117647" d="M499.5 56L500 60.5L499 60.5L499.5 56Z" fill="#000000" fill-opacity="1.0" stroke="#ff000000" stroke-width="1.0"/>
    <path android:fillAlpha="0.2117647" android:strokeAlpha="0.2117647" d="M0.5 60L1 235.5L0 235.5L0.5 60Z" fill="#000000" fill-opacity="1.0" stroke="#ff000000" stroke-width="1.0"/>
    <path android:fillAlpha="0.2117647" android:strokeAlpha="0.2117647" d="M234.5 152L242 152.5L234.5 153L234.5 152Z" fill="#000000" fill-opacity="1.0" stroke="#ff000000" stroke-width="1.0"/>
    <path android:fillAlpha="0.2117647" android:strokeAlpha="0.2117647" d="M258.5 152L267 152.5L258.5 153L258.5 152Z" fill="#000000" fill-opacity="1.0" stroke="#ff000000" stroke-width="1.0"/>
    <path android:fillAlpha="0.2117647" android:strokeAlpha="0.2117647" d="M226.5 153L230 153.5L226.5 154L226.5 153Z" fill="#000000" fill-opacity="1.0" stroke="#ff000000" stroke-width="1.0"/>
    <path android:fillAlpha="0.2117647" android:strokeAlpha="0.2117647" d="M271.5 153L276 153.5L271.5 154L271.5 153Z" fill="#000000" fill-opacity="1.0" stroke="#ff000000" stroke-width="1.0"/>
    <path android:fillAlpha="0.2117647" android:strokeAlpha="0.2117647" d="M281.5 154L284 154.5L281.5 155L281.5 154Z" fill="#000000" fill-opacity="1.0" stroke="#ff000000" stroke-width="1.0"/>
    <path android:fillAlpha="0.2117647" android:strokeAlpha="0.2117647" d="M215.5 155L218 155.5L215.5 156L215.5 155Z" fill="#000000" fill-opacity="1.0" stroke="#ff000000" stroke-width="1.0"/>
    <path android:fillAlpha="0.2117647" android:strokeAlpha="0.2117647" d="M286.5 155L290 155.5L286.5 156L286.5 155Z" fill="#000000" fill-opacity="1.0" stroke="#ff000000" stroke-width="1.0"/>
    <path android:fillAlpha="0.2117647" android:strokeAlpha="0.2117647" d="M292.5 156L295 156.5L292.5 157L292.5 156Z" fill="#000000" fill-opacity="1.0" stroke="#ff000000" stroke-width="1.0"/>
    <path android:fillAlpha="0.2117647" android:strokeAlpha="0.2117647" d="M302.5 158L305 158.5L302.5 159L302.5 158Z" fill="#000000" fill-opacity="1.0" stroke="#ff000000" stroke-width="1.0"/>
    <path android:fillAlpha="0.2117647" android:strokeAlpha="0.2117647" d="M315.5 161L318 161.5L315.5 162L315.5 161Z" fill="#000000" fill-opacity="1.0" stroke="#ff000000" stroke-width="1.0"/>
    <path android:fillAlpha="0.2117647" android:strokeAlpha="0.2117647" d="M173.5 172L172.5 174L173.5 172Z" fill="#000000" fill-opacity="1.0" stroke="#ff000000" stroke-width="1.0"/>
    <path android:fillAlpha="0.2117647" android:strokeAlpha="0.2117647" d="M168.5 175L167.5 177L168.5 175Z" fill="#000000" fill-opacity="1.0" stroke="#ff000000" stroke-width="1.0"/>
    <path android:fillAlpha="0.2117647" android:strokeAlpha="0.2117647" d="M241.5 176L258 176.5L241.5 177L241.5 176Z" fill="#000000" fill-opacity="1.0" stroke="#ff000000" stroke-width="1.0"/>
    <path android:fillAlpha="0.2117647" android:strokeAlpha="0.2117647" d="M165.5 177L164.5 179L165.5 177Z" fill="#000000" fill-opacity="1.0" stroke="#ff000000" stroke-width="1.0"/>
    <path android:fillAlpha="0.2117647" android:strokeAlpha="0.2117647" d="M231.5 177L234 177.5L231.5 178L231.5 177Z" fill="#000000" fill-opacity="1.0" stroke="#ff000000" stroke-width="1.0"/>
    <path android:fillAlpha="0.2117647" android:strokeAlpha="0.2117647" d="M266.5 177L270 177.5L266.5 178L266.5 177Z" fill="#000000" fill-opacity="1.0" stroke="#ff000000" stroke-width="1.0"/>
    <path android:fillAlpha="0.2117647" android:strokeAlpha="0.2117647" d="M224.5 178L228 178.5L224.5 179L224.5 178Z" fill="#000000" fill-opacity="1.0" stroke="#ff000000" stroke-width="1.0"/>
    <path android:fillAlpha="0.2117647" android:strokeAlpha="0.2117647" d="M274.5 178L279 178.5L274.5 179L274.5 178Z" fill="#000000" fill-opacity="1.0" stroke="#ff000000" stroke-width="1.0"/>
    <path android:fillAlpha="0.2117647" android:strokeAlpha="0.2117647" d="M162.5 179L161.5 181L162.5 179Z" fill="#000000" fill-opacity="1.0" stroke="#ff000000" stroke-width="1.0"/>
    <path android:fillAlpha="0.2117647" android:strokeAlpha="0.2117647" d="M287.5 180L290 180.5L287.5 181L287.5 180Z" fill="#000000" fill-opacity="1.0" stroke="#ff000000" stroke-width="1.0"/>
    <path android:fillAlpha="0.2117647" android:strokeAlpha="0.2117647" d="M212.5 181L215 181.5L212.5 182L212.5 181Z" fill="#000000" fill-opacity="1.0" stroke="#ff000000" stroke-width="1.0"/>
    <path android:fillAlpha="0.2117647" android:strokeAlpha="0.2117647" d="M292.5 181L295 181.5L292.5 182L292.5 181Z" fill="#000000" fill-opacity="1.0" stroke="#ff000000" stroke-width="1.0"/>
    <path android:fillAlpha="0.2117647" android:strokeAlpha="0.2117647" d="M368.5 181L372 183.5L370.5 183L368.5 181Z" fill="#000000" fill-opacity="1.0" stroke="#ff000000" stroke-width="1.0"/>
    <path android:fillAlpha="0.2117647" android:strokeAlpha="0.2117647" d="M158.5 182L156.5 185L158.5 182Z" fill="#000000" fill-opacity="1.0" stroke="#ff000000" stroke-width="1.0"/>
    <path android:fillAlpha="0.2117647" android:strokeAlpha="0.2117647" d="M263.5 183L270 183.5L263.5 184L263.5 183Z" fill="#000000" fill-opacity="1.0" stroke="#ff000000" stroke-width="1.0"/>
    <path android:fillAlpha="0.2117647" android:strokeAlpha="0.2117647" d="M245.5 184L249 184.5L245.5 185L245.5 184Z" fill="#000000" fill-opacity="1.0" stroke="#ff000000" stroke-width="1.0"/>
    <path android:fillAlpha="0.2117647" android:strokeAlpha="0.2117647" d="M284.5 184L290 184.5L284.5 185L284.5 184Z" fill="#000000" fill-opacity="1.0" stroke="#ff000000" stroke-width="1.0"/>
    <path android:fillAlpha="0.2117647" android:strokeAlpha="0.2117647" d="M154.5 185L150.5 190L154.5 185Z" fill="#000000" fill-opacity="1.0" stroke="#ff000000" stroke-width="1.0"/>
    <path android:fillAlpha="0.2117647" android:strokeAlpha="0.2117647" d="M237.5 185L241 185.5L237.5 186L237.5 185Z" fill="#000000" fill-opacity="1.0" stroke="#ff000000" stroke-width="1.0"/>
    <path android:fillAlpha="0.2117647" android:strokeAlpha="0.2117647" d="M295.5 185L302 185.5L295.5 186L295.5 185Z" fill="#000000" fill-opacity="1.0" stroke="#ff000000" stroke-width="1.0"/>
    <path android:fillAlpha="0.2117647" android:strokeAlpha="0.2117647" d="M375.5 185L376.5 187L375.5 185Z" fill="#000000" fill-opacity="1.0" stroke="#ff000000" stroke-width="1.0"/>
    <path android:fillAlpha="0.2117647" android:strokeAlpha="0.2117647" d="M199.5 186L201 186.5L197.5 188L197.5 187L199.5 186Z" fill="#000000" fill-opacity="1.0" stroke="#ff000000" stroke-width="1.0"/>
    <path android:fillAlpha="0.2117647" android:strokeAlpha="0.2117647" d="M314 186Q317 185 316 188Q313 189 314 186Z" fill="#000000" fill-opacity="1.0" stroke="#ff000000" stroke-width="1.0"/>
    <path android:fillAlpha="0.2117647" android:strokeAlpha="0.2117647" d="M378.5 187L379.5 189L378.5 187Z" fill="#000000" fill-opacity="1.0" stroke="#ff000000" stroke-width="1.0"/>
    <path android:fillAlpha="0.2117647" android:strokeAlpha="0.2117647" d="M193.5 189L192.5 191L193.5 189Z" fill="#000000" fill-opacity="1.0" stroke="#ff000000" stroke-width="1.0"/>
    <path android:fillAlpha="0.2117647" android:strokeAlpha="0.2117647" d="M381.5 189L382.5 191L381.5 189Z" fill="#000000" fill-opacity="1.0" stroke="#ff000000" stroke-width="1.0"/>
    <path android:fillAlpha="0.2117647" android:strokeAlpha="0.2117647" d="M384.5 191L385.5 193L384.5 191Z" fill="#000000" fill-opacity="1.0" stroke="#ff000000" stroke-width="1.0"/>
    <path android:fillAlpha="0.2117647" android:strokeAlpha="0.2117647" d="M388.5 194L390.5 197L388.5 194Z" fill="#000000" fill-opacity="1.0" stroke="#ff000000" stroke-width="1.0"/>
    <path android:fillAlpha="0.2117647" android:strokeAlpha="0.2117647" d="M192.5 197L193.5 199L192.5 197Z" fill="#000000" fill-opacity="1.0" stroke="#ff000000" stroke-width="1.0"/>
    <path android:fillAlpha="0.2117647" android:strokeAlpha="0.2117647" d="M200.5 198L199.5 200L195 199.5L200.5 198Z" fill="#000000" fill-opacity="1.0" stroke="#ff000000" stroke-width="1.0"/>
    <path android:fillAlpha="0.2117647" android:strokeAlpha="0.2117647" d="M393.5 198L405.5 211L393.5 198Z" fill="#000000" fill-opacity="1.0" stroke="#ff000000" stroke-width="1.0"/>
    <path android:fillAlpha="0.2117647" android:strokeAlpha="0.2117647" d="M140.5 199L137.5 203L140.5 199Z" fill="#000000" fill-opacity="1.0" stroke="#ff000000" stroke-width="1.0"/>
    <path android:fillAlpha="0.2117647" android:strokeAlpha="0.2117647" d="M135.5 205L122.5 219L135.5 205Z" fill="#000000" fill-opacity="1.0" stroke="#ff000000" stroke-width="1.0"/>
    <path android:fillAlpha="0.2117647" android:strokeAlpha="0.2117647" d="M407.5 213L409.5 216L407.5 213Z" fill="#000000" fill-opacity="1.0" stroke="#ff000000" stroke-width="1.0"/>
    <path android:fillAlpha="0.2117647" android:strokeAlpha="0.2117647" d="M410.5 217L411.5 219L410.5 217Z" fill="#000000" fill-opacity="1.0" stroke="#ff000000" stroke-width="1.0"/>
    <path android:fillAlpha="0.2117647" android:strokeAlpha="0.2117647" d="M119.5 220L116.5 224L119.5 220Z" fill="#000000" fill-opacity="1.0" stroke="#ff000000" stroke-width="1.0"/>
    <path android:fillAlpha="0.2117647" android:strokeAlpha="0.2117647" d="M412.5 220L413.5 222L412.5 220Z" fill="#000000" fill-opacity="1.0" stroke="#ff000000" stroke-width="1.0"/>
    <path android:fillAlpha="0.2117647" android:strokeAlpha="0.2117647" d="M414.5 223L415.5 225L414.5 223Z" fill="#000000" fill-opacity="1.0" stroke="#ff000000" stroke-width="1.0"/>
    <path android:fillAlpha="0.2117647" android:strokeAlpha="0.2117647" d="M114.5 224L113.5 226L114.5 224Z" fill="#000000" fill-opacity="1.0" stroke="#ff000000" stroke-width="1.0"/>
    <path android:fillAlpha="0.2117647" android:strokeAlpha="0.2117647" d="M90.5 235L94 235.5L90.5 236L90.5 235Z" fill="#000000" fill-opacity="1.0" stroke="#ff000000" stroke-width="1.0"/>
    <path android:fillAlpha="0.2117647" android:strokeAlpha="0.2117647" d="M3.5 236L12 236.5L3.5 237L3.5 236Z" fill="#000000" fill-opacity="1.0" stroke="#ff000000" stroke-width="1.0"/>
    <path android:fillAlpha="0.2117647" android:strokeAlpha="0.2117647" d="M80.5 236L86 236.5L80.5 237L80.5 236Z" fill="#000000" fill-opacity="1.0" stroke="#ff000000" stroke-width="1.0"/>
    <path android:fillAlpha="0.2117647" android:strokeAlpha="0.2117647" d="M25.5 237L47 237.5L25.5 238L25.5 237Z" fill="#000000" fill-opacity="1.0" stroke="#ff000000" stroke-width="1.0"/>
    <path android:fillAlpha="0.2117647" android:strokeAlpha="0.2117647" d="M59.5 237L74 237.5L59.5 238L59.5 237Z" fill="#000000" fill-opacity="1.0" stroke="#ff000000" stroke-width="1.0"/>
    <path android:fillAlpha="0.2117647" android:strokeAlpha="0.2117647" d="M423.5 246L424 254.5L423 254.5L423.5 246Z" fill="#000000" fill-opacity="1.0" stroke="#ff000000" stroke-width="1.0"/>
    <path android:fillAlpha="0.2117647" android:strokeAlpha="0.2117647" d="M42.5 262L63 262.5L42.5 263L42.5 262Z" fill="#000000" fill-opacity="1.0" stroke="#ff000000" stroke-width="1.0"/>
    <path android:fillAlpha="0.2117647" android:strokeAlpha="0.2117647" d="M13.5 263L23 263.5L13.5 264L13.5 263Z" fill="#000000" fill-opacity="1.0" stroke="#ff000000" stroke-width="1.0"/>
    <path android:fillAlpha="0.2117647" android:strokeAlpha="0.2117647" d="M75.5 263L81 263.5L75.5 264L75.5 263Z" fill="#000000" fill-opacity="1.0" stroke="#ff000000" stroke-width="1.0"/>
    <path android:fillAlpha="0.2117647" android:strokeAlpha="0.2117647" d="M1.5 264L1 265.5L0.5 441L0 265.5L1.5 264Z" fill="#000000" fill-opacity="1.0" stroke="#ff000000" stroke-width="1.0"/>
    <path android:fillAlpha="0.2117647" android:strokeAlpha="0.2117647" d="M85.5 264L91 264.5L85.5 265L85.5 264Z" fill="#000000" fill-opacity="1.0" stroke="#ff000000" stroke-width="1.0"/>
    <path android:fillAlpha="0.2117647" android:strokeAlpha="0.2117647" d="M419.5 267L420 268.5L418.5 271L418 269.5L419.5 267Z" fill="#000000" fill-opacity="1.0" stroke="#ff000000" stroke-width="1.0"/>
    <path android:fillAlpha="0.2117647" android:strokeAlpha="0.2117647" d="M108.5 271L109.5 273L108.5 271Z" fill="#000000" fill-opacity="1.0" stroke="#ff000000" stroke-width="1.0"/>
    <path android:fillAlpha="0.2117647" android:strokeAlpha="0.2117647" d="M111.5 273L112.5 275L111.5 273Z" fill="#000000" fill-opacity="1.0" stroke="#ff000000" stroke-width="1.0"/>
    <path android:fillAlpha="0.2117647" android:strokeAlpha="0.2117647" d="M416.5 274L416 275.5L414.5 278L415 276.5L416.5 274Z" fill="#000000" fill-opacity="1.0" stroke="#ff000000" stroke-width="1.0"/>
    <path android:fillAlpha="0.2117647" android:strokeAlpha="0.2117647" d="M114.5 275L116.5 278L114.5 275Z" fill="#000000" fill-opacity="1.0" stroke="#ff000000" stroke-width="1.0"/>
    <path android:fillAlpha="0.2117647" android:strokeAlpha="0.2117647" d="M119.5 279L122.5 283L119.5 279Z" fill="#000000" fill-opacity="1.0" stroke="#ff000000" stroke-width="1.0"/>
    <path android:fillAlpha="0.2117647" android:strokeAlpha="0.2117647" d="M413.5 279L412.5 281L413.5 279Z" fill="#000000" fill-opacity="1.0" stroke="#ff000000" stroke-width="1.0"/>
    <path android:fillAlpha="0.2117647" android:strokeAlpha="0.2117647" d="M411.5 282L410.5 284L411.5 282Z" fill="#000000" fill-opacity="1.0" stroke="#ff000000" stroke-width="1.0"/>
    <path android:fillAlpha="0.2117647" android:strokeAlpha="0.2117647" d="M409.5 285L406.5 289L409.5 285Z" fill="#000000" fill-opacity="1.0" stroke="#ff000000" stroke-width="1.0"/>
    <path android:fillAlpha="0.2117647" android:strokeAlpha="0.2117647" d="M129.5 288L134.5 294L129.5 288Z" fill="#000000" fill-opacity="1.0" stroke="#ff000000" stroke-width="1.0"/>
    <path android:fillAlpha="0.2117647" android:strokeAlpha="0.2117647" d="M404.5 291L396.5 300L404.5 291Z" fill="#000000" fill-opacity="1.0" stroke="#ff000000" stroke-width="1.0"/>
    <path android:fillAlpha="0.2117647" android:strokeAlpha="0.2117647" d="M135.5 295L137.5 298L135.5 295Z" fill="#000000" fill-opacity="1.0" stroke="#ff000000" stroke-width="1.0"/>
    <path android:fillAlpha="0.2117647" android:strokeAlpha="0.2117647" d="M139.5 300L153.5 315L139.5 300Z" fill="#000000" fill-opacity="1.0" stroke="#ff000000" stroke-width="1.0"/>
    <path android:fillAlpha="0.2117647" android:strokeAlpha="0.2117647" d="M392.5 302L390.5 305L392.5 302Z" fill="#000000" fill-opacity="1.0" stroke="#ff000000" stroke-width="1.0"/>
    <path android:fillAlpha="0.2117647" android:strokeAlpha="0.2117647" d="M388.5 305L386.5 308L388.5 305Z" fill="#000000" fill-opacity="1.0" stroke="#ff000000" stroke-width="1.0"/>
    <path android:fillAlpha="0.2117647" android:strokeAlpha="0.2117647" d="M384.5 308L382.5 311L384.5 308Z" fill="#000000" fill-opacity="1.0" stroke="#ff000000" stroke-width="1.0"/>
    <path android:fillAlpha="0.2117647" android:strokeAlpha="0.2117647" d="M380.5 311L379.5 313L380.5 311Z" fill="#000000" fill-opacity="1.0" stroke="#ff000000" stroke-width="1.0"/>
    <path android:fillAlpha="0.2117647" android:strokeAlpha="0.2117647" d="M375.5 314L374.5 316L375.5 314Z" fill="#000000" fill-opacity="1.0" stroke="#ff000000" stroke-width="1.0"/>
    <path android:fillAlpha="0.2117647" android:strokeAlpha="0.2117647" d="M156.5 316L158.5 319L156.5 316Z" fill="#000000" fill-opacity="1.0" stroke="#ff000000" stroke-width="1.0"/>
    <path android:fillAlpha="0.2117647" android:strokeAlpha="0.2117647" d="M370.5 317L369.5 319L370.5 317Z" fill="#000000" fill-opacity="1.0" stroke="#ff000000" stroke-width="1.0"/>
    <path android:fillAlpha="0.2117647" android:strokeAlpha="0.2117647" d="M161.5 320L162.5 322L161.5 320Z" fill="#000000" fill-opacity="1.0" stroke="#ff000000" stroke-width="1.0"/>
    <path android:fillAlpha="0.2117647" android:strokeAlpha="0.2117647" d="M164.5 322L165.5 324L164.5 322Z" fill="#000000" fill-opacity="1.0" stroke="#ff000000" stroke-width="1.0"/>
    <path android:fillAlpha="0.2117647" android:strokeAlpha="0.2117647" d="M167.5 324L168.5 326L167.5 324Z" fill="#000000" fill-opacity="1.0" stroke="#ff000000" stroke-width="1.0"/>
    <path android:fillAlpha="0.2117647" android:strokeAlpha="0.2117647" d="M177.5 330L183 333.5L181.5 333Q177.5 332.5 177.5 330Z" fill="#000000" fill-opacity="1.0" stroke="#ff000000" stroke-width="1.0"/>
    <path android:fillAlpha="0.2117647" android:strokeAlpha="0.2117647" d="M184.5 334L188 335.5L186.5 336L184.5 334Z" fill="#000000" fill-opacity="1.0" stroke="#ff000000" stroke-width="1.0"/>
    <path android:fillAlpha="0.2117647" android:strokeAlpha="0.2117647" d="M297.5 343L300 343.5L297.5 344L297.5 343Z" fill="#000000" fill-opacity="1.0" stroke="#ff000000" stroke-width="1.0"/>
    <path android:fillAlpha="0.2117647" android:strokeAlpha="0.2117647" d="M292.5 344L295 344.5L292.5 345L292.5 344Z" fill="#000000" fill-opacity="1.0" stroke="#ff000000" stroke-width="1.0"/>
    <path android:fillAlpha="0.2117647" android:strokeAlpha="0.2117647" d="M219.5 346L222 346.5L219.5 347L219.5 346Z" fill="#000000" fill-opacity="1.0" stroke="#ff000000" stroke-width="1.0"/>
    <path android:fillAlpha="0.2117647" android:strokeAlpha="0.2117647" d="M279.5 346L283 346.5L279.5 347L279.5 346Z" fill="#000000" fill-opacity="1.0" stroke="#ff000000" stroke-width="1.0"/>
    <path android:fillAlpha="0.2117647" android:strokeAlpha="0.2117647" d="M224.5 347L228 347.5L224.5 348L224.5 347Z" fill="#000000" fill-opacity="1.0" stroke="#ff000000" stroke-width="1.0"/>
    <path android:fillAlpha="0.2117647" android:strokeAlpha="0.2117647" d="M271.5 347L276 347.5L271.5 348L271.5 347Z" fill="#000000" fill-opacity="1.0" stroke="#ff000000" stroke-width="1.0"/>
    <path android:fillAlpha="0.2117647" android:strokeAlpha="0.2117647" d="M233.5 348L237 348.5L233.5 349L233.5 348Z" fill="#000000" fill-opacity="1.0" stroke="#ff000000" stroke-width="1.0"/>
    <path android:fillAlpha="0.2117647" android:strokeAlpha="0.2117647" d="M261.5 348L266 348.5L261.5 349L261.5 348Z" fill="#000000" fill-opacity="1.0" stroke="#ff000000" stroke-width="1.0"/>
    <path android:fillAlpha="0.2117647" android:strokeAlpha="0.2117647" d="M499.5 440L500 443.5L499 443.5L499.5 440Z" fill="#000000" fill-opacity="1.0" stroke="#ff000000" stroke-width="1.0"/>
    <path android:fillAlpha="0.2117647" android:strokeAlpha="0.2117647" d="M1.5 444L2 446.5L1 446.5L1.5 444Z" fill="#000000" fill-opacity="1.0" stroke="#ff000000" stroke-width="1.0"/>
    <path android:fillAlpha="0.2117647" android:strokeAlpha="0.2117647" d="M498.5 446L499 448.5L498 448.5L498.5 446Z" fill="#000000" fill-opacity="1.0" stroke="#ff000000" stroke-width="1.0"/>
    <path android:fillAlpha="0.2117647" android:strokeAlpha="0.2117647" d="M491.5 466L490.5 468L491.5 466Z" fill="#000000" fill-opacity="1.0" stroke="#ff000000" stroke-width="1.0"/>
    <path android:fillAlpha="0.2117647" android:strokeAlpha="0.2117647" d="M9.5 467L10.5 469L9.5 467Z" fill="#000000" fill-opacity="1.0" stroke="#ff000000" stroke-width="1.0"/>
    <path android:fillAlpha="0.2117647" android:strokeAlpha="0.2117647" d="M11.5 470L12.5 472L11.5 470Z" fill="#000000" fill-opacity="1.0" stroke="#ff000000" stroke-width="1.0"/>
    <path android:fillAlpha="0.2117647" android:strokeAlpha="0.2117647" d="M487.5 472L486.5 474L487.5 472Z" fill="#000000" fill-opacity="1.0" stroke="#ff000000" stroke-width="1.0"/>
    <path android:fillAlpha="0.2117647" android:strokeAlpha="0.2117647" d="M13.5 473L15.5 476L13.5 473Z" fill="#000000" fill-opacity="1.0" stroke="#ff000000" stroke-width="1.0"/>
    <path android:fillAlpha="0.2117647" android:strokeAlpha="0.2117647" d="M485.5 475L475.5 486L485.5 475Z" fill="#000000" fill-opacity="1.0" stroke="#ff000000" stroke-width="1.0"/>
    <path android:fillAlpha="0.2117647" android:strokeAlpha="0.2117647" d="M18.5 479L21.5 483L18.5 479Z" fill="#000000" fill-opacity="1.0" stroke="#ff000000" stroke-width="1.0"/>
    <path android:fillAlpha="0.2117647" android:strokeAlpha="0.2117647" d="M24.5 484L27.5 488L24.5 484Z" fill="#000000" fill-opacity="1.0" stroke="#ff000000" stroke-width="1.0"/>
    <path android:fillAlpha="0.2117647" android:strokeAlpha="0.2117647" d="M473.5 486L472.5 488L473.5 486Z" fill="#000000" fill-opacity="1.0" stroke="#ff000000" stroke-width="1.0"/>
    <path android:fillAlpha="0.2117647" android:strokeAlpha="0.2117647" d="M29.5 488L30.5 490L29.5 488Z" fill="#000000" fill-opacity="1.0" stroke="#ff000000" stroke-width="1.0"/>
    <path android:fillAlpha="0.2117647" android:strokeAlpha="0.2117647" d="M467.5 490L466.5 492L467.5 490Z" fill="#000000" fill-opacity="1.0" stroke="#ff000000" stroke-width="1.0"/>
    <path android:fillAlpha="0.2117647" android:strokeAlpha="0.2117647" d="M34.5 491L39 493.5L37.5 494L34.5 491Z" fill="#000000" fill-opacity="1.0" stroke="#ff000000" stroke-width="1.0"/>
    <path android:fillAlpha="0.2117647" android:strokeAlpha="0.2117647" d="M51.5 498L54 498.5L51.5 499L51.5 498Z" fill="#000000" fill-opacity="1.0" stroke="#ff000000" stroke-width="1.0"/>
    <path android:fillAlpha="0.2117647" android:strokeAlpha="0.2117647" d="M446.5 498L449 498.5L446.5 499L446.5 498Z" fill="#000000" fill-opacity="1.0" stroke="#ff000000" stroke-width="1.0"/>
    <path android:fillAlpha="0.2117647" android:strokeAlpha="0.2117647" d="M56.5 499L61 499.5L56.5 500L56.5 499Z" fill="#000000" fill-opacity="1.0" stroke="#ff000000" stroke-width="1.0"/>
    <path android:fillAlpha="0.2117647" android:strokeAlpha="0.2117647" d="M440.5 499L444 499.5L440.5 500L440.5 499Z" fill="#000000" fill-opacity="1.0" stroke="#ff000000" stroke-width="1.0"/>
</svg>