<?xml version="1.0" encoding="utf-8" standalone="no"?><svg xmlns:aapt="http://schemas.android.com/aapt" xmlns:android="http://schemas.android.com/apk/res/android" height="1080.0" width="1080.0" xmlns="http://www.w3.org/2000/svg">
    <g transform="translate(11.0, 280.0)">
        <path android:fillAlpha="0.7882353" android:strokeAlpha="0.7882353" d="M958.5 0L991 0.5L958.5 1L958.5 0Z" fill="#fefdfd" fill-opacity="1.0" stroke="#fffefdfd" stroke-width="1.0"/>
        <path android:fillAlpha="0.7882353" android:strokeAlpha="0.7882353" d="M947.5 1L950 1.5L947.5 2L947.5 1Z" fill="#fefdfd" fill-opacity="1.0" stroke="#fffefdfd" stroke-width="1.0"/>
        <path android:fillAlpha="0.7882353" android:strokeAlpha="0.7882353" d="M998.5 1L1002 1.5L998.5 2L998.5 1Z" fill="#fefdfd" fill-opacity="1.0" stroke="#fffefdfd" stroke-width="1.0"/>
        <path android:fillAlpha="0.7882353" android:strokeAlpha="0.7882353" d="M1052.5 12L1053.5 14L1052.5 12Z" fill="#fefdfd" fill-opacity="1.0" stroke="#fffefdfd" stroke-width="1.0"/>
        <path android:fillAlpha="0.7882353" android:strokeAlpha="0.7882353" d="M1056.5 16L1058.5 19L1056.5 16Z" fill="#fefdfd" fill-opacity="1.0" stroke="#fffefdfd" stroke-width="1.0"/>
        <path android:fillAlpha="0.7882353" android:strokeAlpha="0.7882353" d="M1060.5 23L1061 26.5L1060 26.5L1060.5 23Z" fill="#fefdfd" fill-opacity="1.0" stroke="#fffefdfd" stroke-width="1.0"/>
        <path android:fillAlpha="0.7882353" android:strokeAlpha="0.7882353" d="M878.5 24L877.5 26L878.5 24Z" fill="#fefdfd" fill-opacity="1.0" stroke="#fffefdfd" stroke-width="1.0"/>
        <path android:fillAlpha="0.7882353" android:strokeAlpha="0.7882353" d="M874.5 27L873.5 29L874.5 27Z" fill="#fefdfd" fill-opacity="1.0" stroke="#fffefdfd" stroke-width="1.0"/>
        <path android:fillAlpha="0.7882353" android:strokeAlpha="0.7882353" d="M862.5 39L861.5 41L862.5 39Z" fill="#fefdfd" fill-opacity="1.0" stroke="#fffefdfd" stroke-width="1.0"/>
        <path android:fillAlpha="0.7882353" android:strokeAlpha="0.7882353" d="M267.5 65L268.5 67L267.5 65Z" fill="#fefdfd" fill-opacity="1.0" stroke="#fffefdfd" stroke-width="1.0"/>
        <path android:fillAlpha="0.7882353" android:strokeAlpha="0.7882353" d="M273.5 69L274.5 71L273.5 69Z" fill="#fefdfd" fill-opacity="1.0" stroke="#fffefdfd" stroke-width="1.0"/>
        <path android:fillAlpha="0.7882353" android:strokeAlpha="0.7882353" d="M277.5 72L278.5 74L277.5 72Z" fill="#fefdfd" fill-opacity="1.0" stroke="#fffefdfd" stroke-width="1.0"/>
        <path android:fillAlpha="0.7882353" android:strokeAlpha="0.7882353" d="M281.5 75L282.5 77L281.5 75Z" fill="#fefdfd" fill-opacity="1.0" stroke="#fffefdfd" stroke-width="1.0"/>
        <path android:fillAlpha="0.7882353" android:strokeAlpha="0.7882353" d="M288.5 81L297.5 91L288.5 81Z" fill="#fefdfd" fill-opacity="1.0" stroke="#fffefdfd" stroke-width="1.0"/>
        <path android:fillAlpha="0.7882353" android:strokeAlpha="0.7882353" d="M1037.5 83L1034.5 87L1037.5 83Z" fill="#fefdfd" fill-opacity="1.0" stroke="#fffefdfd" stroke-width="1.0"/>
        <path android:fillAlpha="0.7882353" android:strokeAlpha="0.7882353" d="M948.5 91L943.5 97L948.5 91Z" fill="#fefdfd" fill-opacity="1.0" stroke="#fffefdfd" stroke-width="1.0"/>
        <path android:fillAlpha="0.7882353" android:strokeAlpha="0.7882353" d="M301.5 95L302.5 97L301.5 95Z" fill="#fefdfd" fill-opacity="1.0" stroke="#fffefdfd" stroke-width="1.0"/>
        <path android:fillAlpha="0.7882353" android:strokeAlpha="0.7882353" d="M304.5 99L305.5 101L304.5 99Z" fill="#fefdfd" fill-opacity="1.0" stroke="#fffefdfd" stroke-width="1.0"/>
        <path android:fillAlpha="0.7882353" android:strokeAlpha="0.7882353" d="M203.5 137L204.5 139L203.5 137Z" fill="#fefdfd" fill-opacity="1.0" stroke="#fffefdfd" stroke-width="1.0"/>
        <path android:fillAlpha="0.7882353" android:strokeAlpha="0.7882353" d="M207.5 140L211.5 145L207.5 140Z" fill="#fefdfd" fill-opacity="1.0" stroke="#fffefdfd" stroke-width="1.0"/>
        <path android:fillAlpha="0.7882353" android:strokeAlpha="0.7882353" d="M465.5 151L464.5 153L465.5 151Z" fill="#fefdfd" fill-opacity="1.0" stroke="#fffefdfd" stroke-width="1.0"/>
        <path android:fillAlpha="0.7882353" android:strokeAlpha="0.7882353" d="M1019.5 151L1021.5 154L1019.5 151Z" fill="#fefdfd" fill-opacity="1.0" stroke="#fffefdfd" stroke-width="1.0"/>
        <path android:fillAlpha="0.7882353" android:strokeAlpha="0.7882353" d="M460.5 154L459.5 156L460.5 154Z" fill="#fefdfd" fill-opacity="1.0" stroke="#fffefdfd" stroke-width="1.0"/>
        <path android:fillAlpha="0.7882353" android:strokeAlpha="0.7882353" d="M592.5 154L593.5 156L592.5 154Z" fill="#fefdfd" fill-opacity="1.0" stroke="#fffefdfd" stroke-width="1.0"/>
        <path android:fillAlpha="0.7882353" android:strokeAlpha="0.7882353" d="M626.5 155L627 159.5L626 159.5L626.5 155Z" fill="#fefdfd" fill-opacity="1.0" stroke="#fffefdfd" stroke-width="1.0"/>
        <path android:fillAlpha="0.7882353" android:strokeAlpha="0.7882353" d="M595.5 156L596.5 158L595.5 156Z" fill="#fefdfd" fill-opacity="1.0" stroke="#fffefdfd" stroke-width="1.0"/>
        <path android:fillAlpha="0.7882353" android:strokeAlpha="0.7882353" d="M598.5 158L599.5 160L598.5 158Z" fill="#fefdfd" fill-opacity="1.0" stroke="#fffefdfd" stroke-width="1.0"/>
        <path android:fillAlpha="0.7882353" android:strokeAlpha="0.7882353" d="M451.5 160L450.5 162L451.5 160Z" fill="#fefdfd" fill-opacity="1.0" stroke="#fffefdfd" stroke-width="1.0"/>
        <path android:fillAlpha="0.7882353" android:strokeAlpha="0.7882353" d="M602.5 161L604.5 164L602.5 161Z" fill="#fefdfd" fill-opacity="1.0" stroke="#fffefdfd" stroke-width="1.0"/>
        <path android:fillAlpha="0.7882353" android:strokeAlpha="0.7882353" d="M448.5 162L446.5 165L448.5 162Z" fill="#fefdfd" fill-opacity="1.0" stroke="#fffefdfd" stroke-width="1.0"/>
        <path android:fillAlpha="0.7882353" android:strokeAlpha="0.7882353" d="M795.5 165L794.5 167L795.5 165Z" fill="#fefdfd" fill-opacity="1.0" stroke="#fffefdfd" stroke-width="1.0"/>
        <path android:fillAlpha="0.7882353" android:strokeAlpha="0.7882353" d="M608.5 166L615.5 174L608.5 166Z" fill="#fefdfd" fill-opacity="1.0" stroke="#fffefdfd" stroke-width="1.0"/>
        <path android:fillAlpha="0.7882353" android:strokeAlpha="0.7882353" d="M442.5 167L439.5 171L442.5 167Z" fill="#fefdfd" fill-opacity="1.0" stroke="#fffefdfd" stroke-width="1.0"/>
        <path android:fillAlpha="0.7882353" android:strokeAlpha="0.7882353" d="M626.5 170L627 172.5L624.5 176L618.5 177L617.5 175L621.5 176L625 173.5L626.5 170Z" fill="#fefdfd" fill-opacity="1.0" stroke="#fffefdfd" stroke-width="1.0"/>
        <path android:fillAlpha="0.7882353" android:strokeAlpha="0.7882353" d="M427.5 182L424.5 186L427.5 182Z" fill="#fefdfd" fill-opacity="1.0" stroke="#fffefdfd" stroke-width="1.0"/>
        <path android:fillAlpha="0.7882353" android:strokeAlpha="0.7882353" d="M421.5 189L419.5 192L421.5 189Z" fill="#fefdfd" fill-opacity="1.0" stroke="#fffefdfd" stroke-width="1.0"/>
        <path android:fillAlpha="0.7882353" android:strokeAlpha="0.7882353" d="M418.5 193L417.5 195L418.5 193Z" fill="#fefdfd" fill-opacity="1.0" stroke="#fffefdfd" stroke-width="1.0"/>
        <path android:fillAlpha="0.7882353" android:strokeAlpha="0.7882353" d="M415.5 197L414.5 199L415.5 197Z" fill="#fefdfd" fill-opacity="1.0" stroke="#fffefdfd" stroke-width="1.0"/>
        <path android:fillAlpha="0.7882353" android:strokeAlpha="0.7882353" d="M413.5 200L412.5 202L413.5 200Z" fill="#fefdfd" fill-opacity="1.0" stroke="#fffefdfd" stroke-width="1.0"/>
        <path android:fillAlpha="0.7882353" android:strokeAlpha="0.7882353" d="M522.5 226L521.5 228L522.5 226Z" fill="#fefdfd" fill-opacity="1.0" stroke="#fffefdfd" stroke-width="1.0"/>
        <path android:fillAlpha="0.7882353" android:strokeAlpha="0.7882353" d="M519.5 228L518.5 230L519.5 228Z" fill="#fefdfd" fill-opacity="1.0" stroke="#fffefdfd" stroke-width="1.0"/>
        <path android:fillAlpha="0.7882353" android:strokeAlpha="0.7882353" d="M514.5 232L509.5 238L514.5 232Z" fill="#fefdfd" fill-opacity="1.0" stroke="#fffefdfd" stroke-width="1.0"/>
        <path android:fillAlpha="0.7882353" android:strokeAlpha="0.7882353" d="M599.5 234L605.5 241L599.5 234Z" fill="#fefdfd" fill-opacity="1.0" stroke="#fffefdfd" stroke-width="1.0"/>
        <path android:fillAlpha="0.7882353" android:strokeAlpha="0.7882353" d="M507.5 240L505.5 243L507.5 240Z" fill="#fefdfd" fill-opacity="1.0" stroke="#fffefdfd" stroke-width="1.0"/>
        <path android:fillAlpha="0.7882353" android:strokeAlpha="0.7882353" d="M608.5 244L609.5 246L608.5 244Z" fill="#fefdfd" fill-opacity="1.0" stroke="#fffefdfd" stroke-width="1.0"/>
        <path android:fillAlpha="0.7882353" android:strokeAlpha="0.7882353" d="M302.5 273L301.5 275L302.5 273Z" fill="#fefdfd" fill-opacity="1.0" stroke="#fffefdfd" stroke-width="1.0"/>
        <path android:fillAlpha="0.7882353" android:strokeAlpha="0.7882353" d="M300.5 276L298.5 279L300.5 276Z" fill="#fefdfd" fill-opacity="1.0" stroke="#fffefdfd" stroke-width="1.0"/>
        <path android:fillAlpha="0.7882353" android:strokeAlpha="0.7882353" d="M296.5 281L293.5 285L296.5 281Z" fill="#fefdfd" fill-opacity="1.0" stroke="#fffefdfd" stroke-width="1.0"/>
        <path android:fillAlpha="0.7882353" android:strokeAlpha="0.7882353" d="M488.5 294L489 297.5L488 297.5L488.5 294Z" fill="#fefdfd" fill-opacity="1.0" stroke="#fffefdfd" stroke-width="1.0"/>
        <path android:fillAlpha="0.7882353" android:strokeAlpha="0.7882353" d="M279.5 298L276.5 302L279.5 298Z" fill="#fefdfd" fill-opacity="1.0" stroke="#fffefdfd" stroke-width="1.0"/>
        <path android:fillAlpha="0.7882353" android:strokeAlpha="0.7882353" d="M273.5 303L272.5 305L273.5 303Z" fill="#fefdfd" fill-opacity="1.0" stroke="#fffefdfd" stroke-width="1.0"/>
        <path android:fillAlpha="0.7882353" android:strokeAlpha="0.7882353" d="M269.5 306L268.5 308L269.5 306Z" fill="#fefdfd" fill-opacity="1.0" stroke="#fffefdfd" stroke-width="1.0"/>
        <path android:fillAlpha="0.7882353" android:strokeAlpha="0.7882353" d="M265.5 309L264.5 311L265.5 309Z" fill="#fefdfd" fill-opacity="1.0" stroke="#fffefdfd" stroke-width="1.0"/>
        <path android:fillAlpha="0.7882353" android:strokeAlpha="0.7882353" d="M262.5 311L261.5 313L262.5 311Z" fill="#fefdfd" fill-opacity="1.0" stroke="#fffefdfd" stroke-width="1.0"/>
        <path android:fillAlpha="0.7882353" android:strokeAlpha="0.7882353" d="M488.5 353L489 355.5L488 355.5L488.5 353Z" fill="#fefdfd" fill-opacity="1.0" stroke="#fffefdfd" stroke-width="1.0"/>
        <path android:fillAlpha="0.7882353" android:strokeAlpha="0.7882353" d="M506.5 411L507.5 413L506.5 411Z" fill="#fefdfd" fill-opacity="1.0" stroke="#fffefdfd" stroke-width="1.0"/>
        <path android:fillAlpha="0.7882353" android:strokeAlpha="0.7882353" d="M606.5 415L600.5 422L606.5 415Z" fill="#fefdfd" fill-opacity="1.0" stroke="#fffefdfd" stroke-width="1.0"/>
        <path android:fillAlpha="0.7882353" android:strokeAlpha="0.7882353" d="M511.5 417L513.5 420L511.5 417Z" fill="#fefdfd" fill-opacity="1.0" stroke="#fffefdfd" stroke-width="1.0"/>
        <path android:fillAlpha="0.7882353" android:strokeAlpha="0.7882353" d="M416.5 454L417.5 456L416.5 454Z" fill="#fefdfd" fill-opacity="1.0" stroke="#fffefdfd" stroke-width="1.0"/>
        <path android:fillAlpha="0.7882353" android:strokeAlpha="0.7882353" d="M418.5 457L421 460.5L419 459.5L418.5 457Z" fill="#fefdfd" fill-opacity="1.0" stroke="#fffefdfd" stroke-width="1.0"/>
        <path android:fillAlpha="0.7882353" android:strokeAlpha="0.7882353" d="M421.5 462L423.5 465L421.5 462Z" fill="#fefdfd" fill-opacity="1.0" stroke="#fffefdfd" stroke-width="1.0"/>
        <path android:fillAlpha="0.7882353" android:strokeAlpha="0.7882353" d="M424.5 466L425.5 468L424.5 466Z" fill="#fefdfd" fill-opacity="1.0" stroke="#fffefdfd" stroke-width="1.0"/>
        <path android:fillAlpha="0.7882353" android:strokeAlpha="0.7882353" d="M426.5 469L428.5 472L426.5 469Z" fill="#fefdfd" fill-opacity="1.0" stroke="#fffefdfd" stroke-width="1.0"/>
        <path android:fillAlpha="0.7882353" android:strokeAlpha="0.7882353" d="M622.5 472L621.5 474L622.5 472Z" fill="#fefdfd" fill-opacity="1.0" stroke="#fffefdfd" stroke-width="1.0"/>
        <path android:fillAlpha="0.7882353" android:strokeAlpha="0.7882353" d="M430.5 474L434.5 479L430.5 474Z" fill="#fefdfd" fill-opacity="1.0" stroke="#fffefdfd" stroke-width="1.0"/>
        <path android:fillAlpha="0.7882353" android:strokeAlpha="0.7882353" d="M610.5 483L608.5 486L610.5 483Z" fill="#fefdfd" fill-opacity="1.0" stroke="#fffefdfd" stroke-width="1.0"/>
        <path android:fillAlpha="0.7882353" android:strokeAlpha="0.7882353" d="M442.5 486L445.5 490L442.5 486Z" fill="#fefdfd" fill-opacity="1.0" stroke="#fffefdfd" stroke-width="1.0"/>
        <path android:fillAlpha="0.7882353" android:strokeAlpha="0.7882353" d="M604.5 488L603.5 490L604.5 488Z" fill="#fefdfd" fill-opacity="1.0" stroke="#fffefdfd" stroke-width="1.0"/>
        <path android:fillAlpha="0.7882353" android:strokeAlpha="0.7882353" d="M448.5 491L449.5 493L448.5 491Z" fill="#fefdfd" fill-opacity="1.0" stroke="#fffefdfd" stroke-width="1.0"/>
        <path android:fillAlpha="0.7882353" android:strokeAlpha="0.7882353" d="M645.5 500L649.5 505L645.5 500Z" fill="#fefdfd" fill-opacity="1.0" stroke="#fffefdfd" stroke-width="1.0"/>
        <path android:fillAlpha="0.9882353" android:strokeAlpha="0.9882353" d="M720.5 6L721.5 8L720.5 6Z" fill="#fffffe" fill-opacity="1.0" stroke="#fffffffe" stroke-width="1.0"/>
        <path android:fillAlpha="0.9882353" android:strokeAlpha="0.9882353" d="M725.5 11L729 15.5L729 498.5L725.5 503L727 500.5L728 498.5L728 15.5L725.5 11Z" fill="#fffffe" fill-opacity="1.0" stroke="#fffffffe" stroke-width="1.0"/>
        <path android:fillAlpha="0.9882353" android:strokeAlpha="0.9882353" d="M187.5 40L190 40.5L187.5 41L187.5 40Z" fill="#fffffe" fill-opacity="1.0" stroke="#fffffffe" stroke-width="1.0"/>
        <path android:fillAlpha="0.9882353" android:strokeAlpha="0.9882353" d="M287.5 81L290.5 85L287.5 81Z" fill="#fffffe" fill-opacity="1.0" stroke="#fffffffe" stroke-width="1.0"/>
        <path android:fillAlpha="0.9882353" android:strokeAlpha="0.9882353" d="M293.5 87L298.5 93L293.5 87Z" fill="#fffffe" fill-opacity="1.0" stroke="#fffffffe" stroke-width="1.0"/>
        <path android:fillAlpha="0.9882353" android:strokeAlpha="0.9882353" d="M937.5 109L938 138.5L937 138.5L937.5 109Z" fill="#fffffe" fill-opacity="1.0" stroke="#fffffffe" stroke-width="1.0"/>
        <path android:fillAlpha="0.9882353" android:strokeAlpha="0.9882353" d="M204.5 137L205.5 139L204.5 137Z" fill="#fffffe" fill-opacity="1.0" stroke="#fffffffe" stroke-width="1.0"/>
        <path android:fillAlpha="0.9882353" android:strokeAlpha="0.9882353" d="M938.5 140L939.5 142L938.5 140Z" fill="#fffffe" fill-opacity="1.0" stroke="#fffffffe" stroke-width="1.0"/>
        <path android:fillAlpha="0.9882353" android:strokeAlpha="0.9882353" d="M940.5 143L942.5 146L940.5 143Z" fill="#fffffe" fill-opacity="1.0" stroke="#fffffffe" stroke-width="1.0"/>
        <path android:fillAlpha="0.9882353" android:strokeAlpha="0.9882353" d="M444.5 166L442.5 169L444.5 166Z" fill="#fffffe" fill-opacity="1.0" stroke="#fffffffe" stroke-width="1.0"/>
        <path android:fillAlpha="0.9882353" android:strokeAlpha="0.9882353" d="M437.5 172L430.5 180L437.5 172Z" fill="#fffffe" fill-opacity="1.0" stroke="#fffffffe" stroke-width="1.0"/>
        <path android:fillAlpha="0.9882353" android:strokeAlpha="0.9882353" d="M613.5 172L614.5 174L613.5 172Z" fill="#fffffe" fill-opacity="1.0" stroke="#fffffffe" stroke-width="1.0"/>
        <path android:fillAlpha="0.9882353" android:strokeAlpha="0.9882353" d="M626.5 174L624.5 177L626.5 174Z" fill="#fffffe" fill-opacity="1.0" stroke="#fffffffe" stroke-width="1.0"/>
        <path android:fillAlpha="0.9882353" android:strokeAlpha="0.9882353" d="M427.5 183L423.5 188L427.5 183Z" fill="#fffffe" fill-opacity="1.0" stroke="#fffffffe" stroke-width="1.0"/>
        <path android:fillAlpha="0.9882353" android:strokeAlpha="0.9882353" d="M557.5 218L560 218.5L557.5 219L557.5 218Z" fill="#fffffe" fill-opacity="1.0" stroke="#fffffffe" stroke-width="1.0"/>
        <path android:fillAlpha="0.9882353" android:strokeAlpha="0.9882353" d="M946.5 226L944.5 229L946.5 226Z" fill="#fffffe" fill-opacity="1.0" stroke="#fffffffe" stroke-width="1.0"/>
        <path android:fillAlpha="0.9882353" android:strokeAlpha="0.9882353" d="M943.5 230L942.5 232L943.5 230Z" fill="#fffffe" fill-opacity="1.0" stroke="#fffffffe" stroke-width="1.0"/>
        <path android:fillAlpha="0.9882353" android:strokeAlpha="0.9882353" d="M941.5 233L942 498.5L933.5 508L931.5 509L850.5 509L846 505.5L848.5 507L850.5 508L931.5 508L939 501.5L941 498.5L941.5 233Z" fill="#fffffe" fill-opacity="1.0" stroke="#fffffffe" stroke-width="1.0"/>
        <path android:fillAlpha="0.9882353" android:strokeAlpha="0.9882353" d="M297.5 279L296.5 281L297.5 279Z" fill="#fffffe" fill-opacity="1.0" stroke="#fffffffe" stroke-width="1.0"/>
        <path android:fillAlpha="0.9882353" android:strokeAlpha="0.9882353" d="M291.5 286L283.5 295L291.5 286Z" fill="#fffffe" fill-opacity="1.0" stroke="#fffffffe" stroke-width="1.0"/>
        <path android:fillAlpha="0.9882353" android:strokeAlpha="0.9882353" d="M386.5 288L387 290.5L386 290.5L386.5 288Z" fill="#fffffe" fill-opacity="1.0" stroke="#fffffffe" stroke-width="1.0"/>
        <path android:fillAlpha="0.9882353" android:strokeAlpha="0.9882353" d="M385.5 298L386 300.5L385 300.5L385.5 298Z" fill="#fffffe" fill-opacity="1.0" stroke="#fffffffe" stroke-width="1.0"/>
        <path android:fillAlpha="0.9882353" android:strokeAlpha="0.9882353" d="M384.5 308L385 310.5L384 310.5L384.5 308Z" fill="#fffffe" fill-opacity="1.0" stroke="#fffffffe" stroke-width="1.0"/>
        <path android:fillAlpha="0.9882353" android:strokeAlpha="0.9882353" d="M384.5 337L385 340.5L384 340.5L384.5 337Z" fill="#fffffe" fill-opacity="1.0" stroke="#fffffffe" stroke-width="1.0"/>
        <path android:fillAlpha="0.9882353" android:strokeAlpha="0.9882353" d="M112.5 344L157 344.5L112.5 345L112.5 344Z" fill="#fffffe" fill-opacity="1.0" stroke="#fffffffe" stroke-width="1.0"/>
        <path android:fillAlpha="0.9882353" android:strokeAlpha="0.9882353" d="M110.5 345L109.5 347L110.5 345Z" fill="#fffffe" fill-opacity="1.0" stroke="#fffffffe" stroke-width="1.0"/>
        <path android:fillAlpha="0.9882353" android:strokeAlpha="0.9882353" d="M107.5 347L105.5 350L107.5 347Z" fill="#fffffe" fill-opacity="1.0" stroke="#fffffffe" stroke-width="1.0"/>
        <path android:fillAlpha="0.9882353" android:strokeAlpha="0.9882353" d="M385.5 347L386 349.5L385 349.5L385.5 347Z" fill="#fffffe" fill-opacity="1.0" stroke="#fffffffe" stroke-width="1.0"/>
        <path android:fillAlpha="0.9882353" android:strokeAlpha="0.9882353" d="M386.5 356L387 359.5L386 359.5L386.5 356Z" fill="#fffffe" fill-opacity="1.0" stroke="#fffffffe" stroke-width="1.0"/>
        <path android:fillAlpha="0.9882353" android:strokeAlpha="0.9882353" d="M604.5 418L603.5 420L604.5 418Z" fill="#fffffe" fill-opacity="1.0" stroke="#fffffffe" stroke-width="1.0"/>
        <path android:fillAlpha="0.9882353" android:strokeAlpha="0.9882353" d="M550.5 433L566 433.5L550.5 434L550.5 433Z" fill="#fffffe" fill-opacity="1.0" stroke="#fffffffe" stroke-width="1.0"/>
        <path android:fillAlpha="0.9882353" android:strokeAlpha="0.9882353" d="M625.5 470L628 470.5L625.5 471L625.5 470Z" fill="#fffffe" fill-opacity="1.0" stroke="#fffffffe" stroke-width="1.0"/>
        <path android:fillAlpha="0.9882353" android:strokeAlpha="0.9882353" d="M619.5 474L614.5 480L619.5 474Z" fill="#fffffe" fill-opacity="1.0" stroke="#fffffffe" stroke-width="1.0"/>
        <path android:fillAlpha="0.9882353" android:strokeAlpha="0.9882353" d="M608.5 484L607.5 486L608.5 484Z" fill="#fffffe" fill-opacity="1.0" stroke="#fffffffe" stroke-width="1.0"/>
        <path android:fillAlpha="0.9882353" android:strokeAlpha="0.9882353" d="M445.5 488L446.5 490L445.5 488Z" fill="#fffffe" fill-opacity="1.0" stroke="#fffffffe" stroke-width="1.0"/>
        <path android:fillAlpha="0.9882353" android:strokeAlpha="0.9882353" d="M841.5 500L842.5 502L841.5 500Z" fill="#fffffe" fill-opacity="1.0" stroke="#fffffffe" stroke-width="1.0"/>
        <path android:fillAlpha="0.9882353" android:strokeAlpha="0.9882353" d="M721.5 506L720.5 508L721.5 506Z" fill="#fffffe" fill-opacity="1.0" stroke="#fffffffe" stroke-width="1.0"/>
        <path d="M954.5 1L994.5 1L995.5 2L1015.5 3L1038.5 8L1050.5 12L1057 17.5Q1060.7 20.3 1060 27.5L1040 79.5L1034.5 86Q1031 90 1022.5 89L1014.5 86L990.5 81L971.5 81Q959.3 83.3 950.5 89L941 98.5L937 109.5L937 138.5L942.5 146L947.5 149L1014.5 149L1022 154.5L1025 159.5L1025 212.5L1019.5 220L1014.5 223L951.5 223L944 228.5L941 233.5L941 498.5L934.5 506L931.5 508L850.5 508L843 502.5L840 497.5L840 233.5L833.5 225L829.5 223L795.5 223L788 217.5L785 212.5L785 179.5Q788.3 170.8 795.5 166L830.5 149L836 143.5L840 136.5L840 103.5L847 68.5L858 45.5L875.5 27L895.5 15L917.5 7L936.5 3L953.5 2L954.5 1Z" fill="#ffffff" fill-opacity="1.0" stroke="#ffffffff" stroke-width="1.0"/>
        <path d="M635.5 5L717.5 5L725 10.5L728 15.5L728 498.5L722.5 506L717.5 509L657.5 509L646 500.5L637 476.5L632.5 472L625.5 470L603.5 489Q591 498.5 575.5 505L560.5 510L545.5 513L537.5 513L536.5 514L509.5 514L486.5 510L461.5 500Q443.8 489.7 431 474.5L413 447.5L405 431.5L395 404.5L387 366.5L387 356.5L386 355.5L385 337.5L384 336.5L384 311.5L385 310.5L387 278.5L388 277.5L389 265.5L392 250.5L400 226.5L415 198.5Q426.8 182.3 441.5 169Q458.1 154.1 480.5 145L502.5 139L516.5 138L517.5 137L531.5 137L532.5 138L553.5 140L574.5 146Q597.4 155.1 613 171.5L618.5 178Q625.4 178.9 627 174.5Q629.2 169.7 628 161.5L627 160.5L627 146.5L625 135.5L625 15.5L632.5 7L635.5 5ZM546 218L532 221L518 229Q502 241 495 261L489 286L488 309L487 310L487 343L488 344L489 365L497 395L507 414Q515 423 527 429L536 432L550 433L551 434L566 434L567 433L575 433L585 431Q596 428 604 420Q612 412 617 400L622 385L625 369L625 293L620 268Q616 254 609 244Q591 217 546 218Z" fill="#ffffff" fill-opacity="1.0" stroke="#ffffffff" stroke-width="1.0"/>
        <path d="M11.5 38L157.5 38L158.5 39L174.5 39L175.5 40L186.5 40L187.5 41L201.5 42Q209.5 45.5 220.5 46L244.5 54Q272.9 66.1 293 86.5Q311.4 104.6 321 131.5L327 159.5L327 206.5L322 231.5L312 257.5Q298.2 283.2 276.5 301Q248.7 324.2 209.5 336L192.5 340L174.5 342L173.5 343L166.5 343L165.5 344L112.5 344L105 349.5L102 354.5L102 498.5L96.5 506L91.5 509L11.5 509L4 503.5L1 498.5L1 48.5L6.5 41L11.5 38ZM113 125L108 128L102 136L102 249L104 253L113 259L150 258L151 257L160 257L161 256L173 255L192 249L206 241Q216 233 221 221L226 197Q227 165 214 147L202 135L182 128L171 127L170 126L160 126L159 125L113 125Z" fill="#ffffff" fill-opacity="1.0" stroke="#ffffffff" stroke-width="1.0"/>
        <path android:fillAlpha="0.9529412" android:strokeAlpha="0.9529412" d="M950.5 1L953 1.5L950.5 2L950.5 1Z" fill="#fefefd" fill-opacity="1.0" stroke="#fffefefd" stroke-width="1.0"/>
        <path android:fillAlpha="0.9529412" android:strokeAlpha="0.9529412" d="M1054.5 14L1055.5 16L1054.5 14Z" fill="#fefefd" fill-opacity="1.0" stroke="#fffefefd" stroke-width="1.0"/>
        <path android:fillAlpha="0.9529412" android:strokeAlpha="0.9529412" d="M872.5 29L871.5 31L872.5 29Z" fill="#fefefd" fill-opacity="1.0" stroke="#fffefefd" stroke-width="1.0"/>
        <path android:fillAlpha="0.9529412" android:strokeAlpha="0.9529412" d="M107.5 128L105.5 131L107.5 128Z" fill="#fefefd" fill-opacity="1.0" stroke="#fffefefd" stroke-width="1.0"/>
        <path android:fillAlpha="0.9529412" android:strokeAlpha="0.9529412" d="M104.5 132L103.5 134L104.5 132Z" fill="#fefefd" fill-opacity="1.0" stroke="#fffefefd" stroke-width="1.0"/>
        <path android:fillAlpha="0.9529412" android:strokeAlpha="0.9529412" d="M102.5 135L103 248.5L102 248.5L102.5 135Z" fill="#fefefd" fill-opacity="1.0" stroke="#fffefefd" stroke-width="1.0"/>
        <path android:fillAlpha="0.9529412" android:strokeAlpha="0.9529412" d="M941.5 143L943.5 146L941.5 143Z" fill="#fefefd" fill-opacity="1.0" stroke="#fffefefd" stroke-width="1.0"/>
        <path android:fillAlpha="0.9529412" android:strokeAlpha="0.9529412" d="M833.5 145L832.5 147L833.5 145Z" fill="#fefefd" fill-opacity="1.0" stroke="#fffefefd" stroke-width="1.0"/>
        <path android:fillAlpha="0.9529412" android:strokeAlpha="0.9529412" d="M945.5 146L946.5 148L945.5 146Z" fill="#fefefd" fill-opacity="1.0" stroke="#fffefefd" stroke-width="1.0"/>
        <path android:fillAlpha="0.9529412" android:strokeAlpha="0.9529412" d="M948.5 148L1014.5 148L1019 151.5L1016.5 150L1014.5 149L948.5 149L948.5 148Z" fill="#fefefd" fill-opacity="1.0" stroke="#fffefefd" stroke-width="1.0"/>
        <path android:fillAlpha="0.9529412" android:strokeAlpha="0.9529412" d="M1022.5 155L1023.5 157L1022.5 155Z" fill="#fefefd" fill-opacity="1.0" stroke="#fffefefd" stroke-width="1.0"/>
        <path android:fillAlpha="0.9529412" android:strokeAlpha="0.9529412" d="M327.5 163L328 169.5L327 169.5L327.5 163Z" fill="#fefefd" fill-opacity="1.0" stroke="#fffefefd" stroke-width="1.0"/>
        <path android:fillAlpha="0.9529412" android:strokeAlpha="0.9529412" d="M605.5 164L606.5 166L605.5 164Z" fill="#fefefd" fill-opacity="1.0" stroke="#fffefefd" stroke-width="1.0"/>
        <path android:fillAlpha="0.9529412" android:strokeAlpha="0.9529412" d="M793.5 167L790.5 171L793.5 167Z" fill="#fefefd" fill-opacity="1.0" stroke="#fffefefd" stroke-width="1.0"/>
        <path android:fillAlpha="0.9529412" android:strokeAlpha="0.9529412" d="M616.5 175L617.5 177L616.5 175Z" fill="#fefefd" fill-opacity="1.0" stroke="#fffefefd" stroke-width="1.0"/>
        <path android:fillAlpha="0.9529412" android:strokeAlpha="0.9529412" d="M224.5 176L225 178.5L224 178.5L224.5 176Z" fill="#fefefd" fill-opacity="1.0" stroke="#fffefefd" stroke-width="1.0"/>
        <path android:fillAlpha="0.9529412" android:strokeAlpha="0.9529412" d="M225.5 184L226 194.5L225 194.5L225.5 184Z" fill="#fefefd" fill-opacity="1.0" stroke="#fffefefd" stroke-width="1.0"/>
        <path android:fillAlpha="0.9529412" android:strokeAlpha="0.9529412" d="M327.5 195L328 201.5L327 201.5L327.5 195Z" fill="#fefefd" fill-opacity="1.0" stroke="#fffefefd" stroke-width="1.0"/>
        <path android:fillAlpha="0.9529412" android:strokeAlpha="0.9529412" d="M224.5 200L225 202.5L224 202.5L224.5 200Z" fill="#fefefd" fill-opacity="1.0" stroke="#fffefefd" stroke-width="1.0"/>
        <path android:fillAlpha="0.9529412" android:strokeAlpha="0.9529412" d="M788.5 218L790.5 221L788.5 218Z" fill="#fefefd" fill-opacity="1.0" stroke="#fffefefd" stroke-width="1.0"/>
        <path android:fillAlpha="0.9529412" android:strokeAlpha="0.9529412" d="M792.5 221L795.5 223L830 223.5L795.5 224L792.5 221Z" fill="#fefefd" fill-opacity="1.0" stroke="#fffefefd" stroke-width="1.0"/>
        <path android:fillAlpha="0.9529412" android:strokeAlpha="0.9529412" d="M1017.5 221L1016.5 223L1014.5 224L952.5 224L952.5 223L1014.5 223L1017.5 221Z" fill="#fefefd" fill-opacity="1.0" stroke="#fffefefd" stroke-width="1.0"/>
        <path android:fillAlpha="0.9529412" android:strokeAlpha="0.9529412" d="M831.5 224L832.5 226L831.5 224Z" fill="#fefefd" fill-opacity="1.0" stroke="#fffefefd" stroke-width="1.0"/>
        <path android:fillAlpha="0.9529412" android:strokeAlpha="0.9529412" d="M950.5 224L949.5 226L944.5 230L948.5 225L950.5 224Z" fill="#fefefd" fill-opacity="1.0" stroke="#fffefefd" stroke-width="1.0"/>
        <path android:fillAlpha="0.9529412" android:strokeAlpha="0.9529412" d="M834.5 226L836.5 229L834.5 226Z" fill="#fefefd" fill-opacity="1.0" stroke="#fffefefd" stroke-width="1.0"/>
        <path android:fillAlpha="0.9529412" android:strokeAlpha="0.9529412" d="M597.5 232L598.5 234L597.5 232Z" fill="#fefefd" fill-opacity="1.0" stroke="#fffefefd" stroke-width="1.0"/>
        <path android:fillAlpha="0.9529412" android:strokeAlpha="0.9529412" d="M211.5 234L207.5 239L211.5 234Z" fill="#fefefd" fill-opacity="1.0" stroke="#fffefefd" stroke-width="1.0"/>
        <path android:fillAlpha="0.9529412" android:strokeAlpha="0.9529412" d="M606.5 241L607.5 243L606.5 241Z" fill="#fefefd" fill-opacity="1.0" stroke="#fffefefd" stroke-width="1.0"/>
        <path android:fillAlpha="0.9529412" android:strokeAlpha="0.9529412" d="M103.5 250L104.5 252L103.5 250Z" fill="#fefefd" fill-opacity="1.0" stroke="#fffefefd" stroke-width="1.0"/>
        <path android:fillAlpha="0.9529412" android:strokeAlpha="0.9529412" d="M105.5 253L107.5 256L105.5 253Z" fill="#fefefd" fill-opacity="1.0" stroke="#fffefefd" stroke-width="1.0"/>
        <path android:fillAlpha="0.9529412" android:strokeAlpha="0.9529412" d="M624.5 295L625 302.5L624 302.5L624.5 295Z" fill="#fefefd" fill-opacity="1.0" stroke="#fffefefd" stroke-width="1.0"/>
        <path android:fillAlpha="0.9529412" android:strokeAlpha="0.9529412" d="M108.5 347L104.5 352L108.5 347Z" fill="#fefefd" fill-opacity="1.0" stroke="#fffefefd" stroke-width="1.0"/>
        <path android:fillAlpha="0.9529412" android:strokeAlpha="0.9529412" d="M103.5 353L103 354.5L103 498.5L100.5 502L101 500.5L102 498.5L102 354.5L103.5 353Z" fill="#fefefd" fill-opacity="1.0" stroke="#fffefefd" stroke-width="1.0"/>
        <path android:fillAlpha="0.9529412" android:strokeAlpha="0.9529412" d="M624.5 360L625 364.5L624 364.5L624.5 360Z" fill="#fefefd" fill-opacity="1.0" stroke="#fffefefd" stroke-width="1.0"/>
        <path android:fillAlpha="0.9529412" android:strokeAlpha="0.9529412" d="M435.5 479L441.5 486L435.5 479Z" fill="#fefefd" fill-opacity="1.0" stroke="#fffefefd" stroke-width="1.0"/>
        <path android:fillAlpha="0.9529412" android:strokeAlpha="0.9529412" d="M612.5 481L611.5 483L612.5 481Z" fill="#fefefd" fill-opacity="1.0" stroke="#fffefefd" stroke-width="1.0"/>
        <path android:fillAlpha="0.9529412" android:strokeAlpha="0.9529412" d="M99.5 503L97.5 506L99.5 503Z" fill="#fefefd" fill-opacity="1.0" stroke="#fffefefd" stroke-width="1.0"/>
        <path android:fillAlpha="0.9686275" android:strokeAlpha="0.9686275" d="M630.5 8L628.5 11L630.5 8Z" fill="#fffefe" fill-opacity="1.0" stroke="#fffffefe" stroke-width="1.0"/>
        <path android:fillAlpha="0.9686275" android:strokeAlpha="0.9686275" d="M870.5 31L864.5 38L870.5 31Z" fill="#fffefe" fill-opacity="1.0" stroke="#fffffefe" stroke-width="1.0"/>
        <path android:fillAlpha="0.9686275" android:strokeAlpha="0.9686275" d="M8.5 39L7.5 41L8.5 39Z" fill="#fffefe" fill-opacity="1.0" stroke="#fffffefe" stroke-width="1.0"/>
        <path android:fillAlpha="0.9686275" android:strokeAlpha="0.9686275" d="M3.5 44L2 46.5L1 48.5L0.5 499L0 48.5L3.5 44Z" fill="#fffefe" fill-opacity="1.0" stroke="#fffffefe" stroke-width="1.0"/>
        <path android:fillAlpha="0.9686275" android:strokeAlpha="0.9686275" d="M279.5 74L280.5 76L279.5 74Z" fill="#fffefe" fill-opacity="1.0" stroke="#fffffefe" stroke-width="1.0"/>
        <path android:fillAlpha="0.9686275" android:strokeAlpha="0.9686275" d="M284.5 78L286.5 81L284.5 78Z" fill="#fffefe" fill-opacity="1.0" stroke="#fffffefe" stroke-width="1.0"/>
        <path android:fillAlpha="0.9686275" android:strokeAlpha="0.9686275" d="M625.5 136L626 138.5L625 138.5L625.5 136Z" fill="#fffefe" fill-opacity="1.0" stroke="#fffffefe" stroke-width="1.0"/>
        <path android:fillAlpha="0.9686275" android:strokeAlpha="0.9686275" d="M626.5 146L627 153.5L626 153.5L626.5 146Z" fill="#fffefe" fill-opacity="1.0" stroke="#fffffefe" stroke-width="1.0"/>
        <path android:fillAlpha="0.9686275" android:strokeAlpha="0.9686275" d="M627.5 162L628 164.5L627 164.5L627.5 162Z" fill="#fffefe" fill-opacity="1.0" stroke="#fffffefe" stroke-width="1.0"/>
        <path android:fillAlpha="0.9686275" android:strokeAlpha="0.9686275" d="M327.5 170L328 194.5L327 194.5L327.5 170Z" fill="#fffefe" fill-opacity="1.0" stroke="#fffffefe" stroke-width="1.0"/>
        <path android:fillAlpha="0.9686275" android:strokeAlpha="0.9686275" d="M619.5 177L622 177.5L619.5 178L619.5 177Z" fill="#fffefe" fill-opacity="1.0" stroke="#fffffefe" stroke-width="1.0"/>
        <path android:fillAlpha="0.9686275" android:strokeAlpha="0.9686275" d="M429.5 180L428.5 182L429.5 180Z" fill="#fffefe" fill-opacity="1.0" stroke="#fffffefe" stroke-width="1.0"/>
        <path android:fillAlpha="0.9686275" android:strokeAlpha="0.9686275" d="M546.5 218L557 218.5L546.5 219L546.5 218Z" fill="#fffefe" fill-opacity="1.0" stroke="#fffffefe" stroke-width="1.0"/>
        <path android:fillAlpha="0.9686275" android:strokeAlpha="0.9686275" d="M213.5 232L212.5 234L213.5 232Z" fill="#fffefe" fill-opacity="1.0" stroke="#fffffefe" stroke-width="1.0"/>
        <path android:fillAlpha="0.9686275" android:strokeAlpha="0.9686275" d="M507.5 239L506.5 241L507.5 239Z" fill="#fffefe" fill-opacity="1.0" stroke="#fffffefe" stroke-width="1.0"/>
        <path android:fillAlpha="0.9686275" android:strokeAlpha="0.9686275" d="M386.5 284L387 287.5L386 287.5L386.5 284Z" fill="#fffefe" fill-opacity="1.0" stroke="#fffffefe" stroke-width="1.0"/>
        <path android:fillAlpha="0.9686275" android:strokeAlpha="0.9686275" d="M385.5 294L386 297.5L385 297.5L385.5 294Z" fill="#fffefe" fill-opacity="1.0" stroke="#fffffefe" stroke-width="1.0"/>
        <path android:fillAlpha="0.9686275" android:strokeAlpha="0.9686275" d="M282.5 295L281.5 297L282.5 295Z" fill="#fffefe" fill-opacity="1.0" stroke="#fffffefe" stroke-width="1.0"/>
        <path android:fillAlpha="0.9686275" android:strokeAlpha="0.9686275" d="M384.5 305L385 307.5L384 307.5L384.5 305Z" fill="#fffefe" fill-opacity="1.0" stroke="#fffffefe" stroke-width="1.0"/>
        <path android:fillAlpha="0.9686275" android:strokeAlpha="0.9686275" d="M624.5 365L625 367.5L624 367.5L624.5 365Z" fill="#fffefe" fill-opacity="1.0" stroke="#fffffefe" stroke-width="1.0"/>
        <path android:fillAlpha="0.9686275" android:strokeAlpha="0.9686275" d="M508.5 414L509.5 416L508.5 414Z" fill="#fffefe" fill-opacity="1.0" stroke="#fffffefe" stroke-width="1.0"/>
        <path android:fillAlpha="0.9686275" android:strokeAlpha="0.9686275" d="M515.5 421L516.5 423L515.5 421Z" fill="#fffefe" fill-opacity="1.0" stroke="#fffffefe" stroke-width="1.0"/>
        <path android:fillAlpha="0.9686275" android:strokeAlpha="0.9686275" d="M633.5 473L635.5 476L633.5 473Z" fill="#fffefe" fill-opacity="1.0" stroke="#fffffefe" stroke-width="1.0"/>
        <path android:fillAlpha="0.9686275" android:strokeAlpha="0.9686275" d="M1.5 500L2.5 502L1.5 500Z" fill="#fffefe" fill-opacity="1.0" stroke="#fffffefe" stroke-width="1.0"/>
        <path android:fillAlpha="0.9686275" android:strokeAlpha="0.9686275" d="M3.5 503L5.5 506L3.5 503Z" fill="#fffefe" fill-opacity="1.0" stroke="#fffffefe" stroke-width="1.0"/>
        <path android:fillAlpha="0.9686275" android:strokeAlpha="0.9686275" d="M938.5 503L936.5 506L938.5 503Z" fill="#fffefe" fill-opacity="1.0" stroke="#fffffefe" stroke-width="1.0"/>
    </g>
</svg>