<?xml version="1.0" encoding="utf-8" standalone="no"?><svg xmlns:android="http://schemas.android.com/apk/res/android" height="36.0" width="36.0" xmlns="http://www.w3.org/2000/svg">
    <path d="M9.30293,21.9576 A3.15147,3.15147,0,1,1,6.15146,18.8062 L9.30293,18.8062 Z" fill="#000000" fill-opacity="1.0"/>
    <path d="M10.8909,21.9576 A3.15147,3.15147,0,0,1,17.1938,21.9577 L17.1938,29.8486 A3.15147,3.15147,0,1,1,10.8909,29.8486 Z" fill="#000000" fill-opacity="1.0"/>
    <path d="M14.0423,9.30293 A3.15147,3.15147,0,1,1,17.1938,6.15146 L17.1938,9.30293 Z" fill="#000000" fill-opacity="1.0"/>
    <path d="M14.0423,10.8909 A3.15147,3.15147,0,0,1,14.0424,17.1938 L6.15146,17.1938 A3.15147,3.15147,0,0,1,6.15146,10.8909 Z" fill="#000000" fill-opacity="1.0"/>
    <path d="M26.6971,14.0423 A3.15147,3.15147,0,1,1,29.8485,17.1938 L26.6971,17.1938 Z" fill="#000000" fill-opacity="1.0"/>
    <path d="M25.1091,14.0423 A3.15147,3.15147,0,0,1,18.8062,14.0424 L18.8062,6.15146 A3.15147,3.15147,0,0,1,25.1091,6.15146 Z" fill="#000000" fill-opacity="1.0"/>
    <path d="M21.9576,26.6971 A3.15147,3.15147,0,1,1,18.8062,29.8485 L18.8062,26.6971 Z" fill="#000000" fill-opacity="1.0"/>
    <path d="M21.9576,25.1091 A3.15147,3.15147,0,0,1,21.9577,18.8062 L29.8486,18.8062 A3.15147,3.15147,0,1,1,29.8486,25.1091 Z" fill="#000000" fill-opacity="1.0"/>
</svg>