<?xml version="1.0" encoding="utf-8" standalone="no"?><svg xmlns:aapt="http://schemas.android.com/aapt" xmlns:android="http://schemas.android.com/apk/res/android" height="200.0" width="200.0" xmlns="http://www.w3.org/2000/svg">
    <path android:fillAlpha="0.3568627" android:strokeAlpha="0.3568627" d="M10.5 5L7.5 9L10.5 5Z" fill="#000000" fill-opacity="1.0" stroke="#ff000000" stroke-width="1.0"/>
    <path android:fillAlpha="0.3568627" android:strokeAlpha="0.3568627" d="M191.5 5L194.5 9L191.5 5Z" fill="#000000" fill-opacity="1.0" stroke="#ff000000" stroke-width="1.0"/>
    <path android:fillAlpha="0.3568627" android:strokeAlpha="0.3568627" d="M63 60L72.5 60L74 61.5L73.5 92L73 61L64.5 61L64 61.5L64 131.5L63 131.5L63 60Z" fill="#000000" fill-opacity="1.0" stroke="#ff000000" stroke-width="1.0"/>
    <path android:fillAlpha="0.3568627" android:strokeAlpha="0.3568627" d="M95.5 60L104.5 60L106 61.5L105.5 132L105 61L95.5 61L95.5 60Z" fill="#000000" fill-opacity="1.0" stroke="#ff000000" stroke-width="1.0"/>
    <path android:fillAlpha="0.3568627" android:strokeAlpha="0.3568627" d="M113.5 80L144 80.5L113 81L112.5 90L112 81.5L113.5 80Z" fill="#000000" fill-opacity="1.0" stroke="#ff000000" stroke-width="1.0"/>
    <path android:fillAlpha="0.3568627" android:strokeAlpha="0.3568627" d="M143.5 90L142.5 92L143.5 90Z" fill="#000000" fill-opacity="1.0" stroke="#ff000000" stroke-width="1.0"/>
    <path android:fillAlpha="0.3568627" android:strokeAlpha="0.3568627" d="M131.5 92L130.5 94L131.5 92Z" fill="#000000" fill-opacity="1.0" stroke="#ff000000" stroke-width="1.0"/>
    <path android:fillAlpha="0.3568627" android:strokeAlpha="0.3568627" d="M138.5 98L137.5 100L138.5 98Z" fill="#000000" fill-opacity="1.0" stroke="#ff000000" stroke-width="1.0"/>
    <path android:fillAlpha="0.3568627" android:strokeAlpha="0.3568627" d="M73 101L95 101.5L74 102L73.5 132L73 101Z" fill="#000000" fill-opacity="1.0" stroke="#ff000000" stroke-width="1.0"/>
    <path android:fillAlpha="0.3568627" android:strokeAlpha="0.3568627" d="M124.5 103L123.5 105L124.5 103Z" fill="#000000" fill-opacity="1.0" stroke="#ff000000" stroke-width="1.0"/>
    <path android:fillAlpha="0.3568627" android:strokeAlpha="0.3568627" d="M135.5 103L134.5 105L135.5 103Z" fill="#000000" fill-opacity="1.0" stroke="#ff000000" stroke-width="1.0"/>
    <path android:fillAlpha="0.3568627" android:strokeAlpha="0.3568627" d="M130.5 111L129.5 113L130.5 111Z" fill="#000000" fill-opacity="1.0" stroke="#ff000000" stroke-width="1.0"/>
    <path android:fillAlpha="0.3568627" android:strokeAlpha="0.3568627" d="M117.5 114L116.5 116L117.5 114Z" fill="#000000" fill-opacity="1.0" stroke="#ff000000" stroke-width="1.0"/>
    <path android:fillAlpha="0.3568627" android:strokeAlpha="0.3568627" d="M127.5 116L126.5 118L127.5 116Z" fill="#000000" fill-opacity="1.0" stroke="#ff000000" stroke-width="1.0"/>
    <path android:fillAlpha="0.3568627" android:strokeAlpha="0.3568627" d="M124.5 122L144.5 122L146 123.5L145.5 132L145 123L124.5 123L124.5 122Z" fill="#000000" fill-opacity="1.0" stroke="#ff000000" stroke-width="1.0"/>
    <path android:fillAlpha="0.3568627" android:strokeAlpha="0.3568627" d="M7.5 189L10.5 193L7.5 189Z" fill="#000000" fill-opacity="1.0" stroke="#ff000000" stroke-width="1.0"/>
    <path android:fillAlpha="0.3568627" android:strokeAlpha="0.3568627" d="M194.5 189L191.5 193L194.5 189Z" fill="#000000" fill-opacity="1.0" stroke="#ff000000" stroke-width="1.0"/>
    <path android:fillAlpha="0.9960784" android:strokeAlpha="0.9960784" d="M14.5 4L187.5 4L195 9.5L196 12.5L196 185.5L190.5 193L187.5 194L14.5 194L7 188.5L6 185.5L6 12.5L11.5 5L14.5 4ZM16 14L16 184L186 184L186 14L16 14Z" fill="#000000" fill-opacity="1.0" stroke="#ff000000" stroke-width="1.0"/>
    <path android:fillAlpha="0.9960784" android:strokeAlpha="0.9960784" d="M64 61L72.5 61L73 61.5L73 92L95 92L95 61.5L95.5 61L105 61L105 131.5L104.5 132L96.5 132L95 130.5L95 101L73 101L73 131.5L72.5 132L64 132L64 61Z" fill="#000000" fill-opacity="1.0" stroke="#ff000000" stroke-width="1.0"/>
    <path android:fillAlpha="0.9960784" android:strokeAlpha="0.9960784" d="M113 81L143.5 81L144 81.5L144 89.5L126 117.5L124 123L145 123L145 132L112.5 132L112 131.5L112 122.5L133 90.5L113 90L113 81Z" fill="#000000" fill-opacity="1.0" stroke="#ff000000" stroke-width="1.0"/>
</svg>