<?xml version="1.0" encoding="utf-8" standalone="no"?><svg xmlns:android="http://schemas.android.com/apk/res/android" height="360.0" width="360.0" xmlns="http://www.w3.org/2000/svg">
    <path d="M180.08,18.17C269.51,18.17,342.00,90.66,342.00,180.09C342.00,269.51,269.51,342.00,180.08,342.00C90.66,342.00,18.16,269.51,18.16,180.09C18.16,90.66,90.66,18.17,180.08,18.17zM88.90,255.12L206.13,208.05L271.90,101.61L153.60,153.86" fill="#000000" fill-opacity="1.0" fill-rule="nonZero" stroke-linecap="square" stroke-linejoin="miter"/>
    <path d="M180.61,159.64C192.24,159.64,201.66,168.27,201.66,178.92C201.66,189.57,192.24,198.20,180.61,198.20C168.99,198.20,159.56,189.57,159.56,178.92C159.56,168.27,168.99,159.64,180.61,159.64z" fill="#000000" fill-opacity="1.0" fill-rule="nonZero" stroke="#ff000000" stroke-linecap="square" stroke-linejoin="miter" stroke-width="3.6"/>
</svg>