<?xml version="1.0" encoding="utf-8" standalone="no"?><svg xmlns:android="http://schemas.android.com/apk/res/android" height="86.0" width="86.0" xmlns="http://www.w3.org/2000/svg">
    <path d="M43,18.2 C43,18.2,28.1,0.5,12.2,15.7 C3.7,23.7,6.9,35.7,11.8,45.1 C15.6,52.5,20.9,59.1,27.2,64.5 L43,78.2 L43,18.2 Z" fill="#000000" fill-opacity="1.0" fill-rule="evenOdd"/>
    <path android:fillAlpha="0.7" android:strokeAlpha="0.7" d="M43,18.2 C43,18.2,57.9,0.5,73.8,15.7 C82.3,23.7,79.1,35.7,74.2,45.1 C70.4,52.5,65.1,59.1,58.8,64.5 L43,78.2 L43,18.2 Z" fill="#000000" fill-opacity="1.0" fill-rule="evenOdd" stroke-width="1.0"/>
    <path d="M71.7,13.1 L76.7,13.1 L76.7,16 L71.7,16 L71.7,21.7 L68.6,21.7 L68.6,16 L63.6,16 L63.6,13.1 L68.6,13.1 L68.6,7.8 L71.7,7.8 L71.7,13.1 Z" fill="#000000" fill-opacity="1.0"/>
</svg>