<?xml version="1.0" encoding="utf-8" standalone="no"?><svg xmlns:aapt="http://schemas.android.com/aapt" xmlns:android="http://schemas.android.com/apk/res/android" height="500.0" width="500.0" xmlns="http://www.w3.org/2000/svg">
    <path d="M235.5 21L246 21.5L235.5 22L235.5 21Z" fill="#000000" fill-opacity="1.0" stroke="#ff000000" stroke-width="1.0"/>
    <path d="M254.5 21L265 21.5L254.5 22L254.5 21Z" fill="#000000" fill-opacity="1.0" stroke="#ff000000" stroke-width="1.0"/>
    <path d="M438.5 21L451 21.5L438.5 22L438.5 21Z" fill="#000000" fill-opacity="1.0" stroke="#ff000000" stroke-width="1.0"/>
    <path d="M222.5 22L229 22.5L222.5 23L222.5 22Z" fill="#000000" fill-opacity="1.0" stroke="#ff000000" stroke-width="1.0"/>
    <path d="M271.5 22L278 22.5L271.5 23L271.5 22Z" fill="#000000" fill-opacity="1.0" stroke="#ff000000" stroke-width="1.0"/>
    <path d="M215.5 23L221 23.5L215.5 24L215.5 23Z" fill="#000000" fill-opacity="1.0" stroke="#ff000000" stroke-width="1.0"/>
    <path d="M279.5 23L285 23.5L279.5 24L279.5 23Z" fill="#000000" fill-opacity="1.0" stroke="#ff000000" stroke-width="1.0"/>
    <path d="M432.5 23L434 23.5L430.5 25L430.5 24L432.5 23Z" fill="#000000" fill-opacity="1.0" stroke="#ff000000" stroke-width="1.0"/>
    <path d="M210.5 24L214 24.5L210.5 25L210.5 24Z" fill="#000000" fill-opacity="1.0" stroke="#ff000000" stroke-width="1.0"/>
    <path d="M286.5 24L290 24.5L286.5 25L286.5 24Z" fill="#000000" fill-opacity="1.0" stroke="#ff000000" stroke-width="1.0"/>
    <path d="M205.5 25L209 25.5L205.5 26L205.5 25Z" fill="#000000" fill-opacity="1.0" stroke="#ff000000" stroke-width="1.0"/>
    <path d="M291.5 25L295 25.5L291.5 26L291.5 25Z" fill="#000000" fill-opacity="1.0" stroke="#ff000000" stroke-width="1.0"/>
    <path d="M428.5 25L427.5 27L424.5 29L426.5 26L428.5 25Z" fill="#000000" fill-opacity="1.0" stroke="#ff000000" stroke-width="1.0"/>
    <path d="M461.5 25L466 28.5L463.5 27L461.5 25Z" fill="#000000" fill-opacity="1.0" stroke="#ff000000" stroke-width="1.0"/>
    <path d="M200.5 26L204 26.5L200.5 27L200.5 26Z" fill="#000000" fill-opacity="1.0" stroke="#ff000000" stroke-width="1.0"/>
    <path d="M296.5 26L300 26.5L296.5 27L296.5 26Z" fill="#000000" fill-opacity="1.0" stroke="#ff000000" stroke-width="1.0"/>
    <path d="M196.5 27L199 27.5L196.5 28L196.5 27Z" fill="#000000" fill-opacity="1.0" stroke="#ff000000" stroke-width="1.0"/>
    <path d="M301.5 27L304 27.5L301.5 28L301.5 27Z" fill="#000000" fill-opacity="1.0" stroke="#ff000000" stroke-width="1.0"/>
    <path d="M191.5 28L194 28.5L191.5 29L191.5 28Z" fill="#000000" fill-opacity="1.0" stroke="#ff000000" stroke-width="1.0"/>
    <path d="M306.5 28L309 28.5L306.5 29L306.5 28Z" fill="#000000" fill-opacity="1.0" stroke="#ff000000" stroke-width="1.0"/>
    <path d="M187.5 29L190 29.5L184.5 31L184.5 30L187.5 29Z" fill="#000000" fill-opacity="1.0" stroke="#ff000000" stroke-width="1.0"/>
    <path d="M310.5 29L316 30.5L313.5 31L310.5 30L310.5 29Z" fill="#000000" fill-opacity="1.0" stroke="#ff000000" stroke-width="1.0"/>
    <path d="M422.5 29L396.5 56L422.5 29Z" fill="#000000" fill-opacity="1.0" stroke="#ff000000" stroke-width="1.0"/>
    <path d="M467.5 29L470.5 33L467.5 29Z" fill="#000000" fill-opacity="1.0" stroke="#ff000000" stroke-width="1.0"/>
    <path d="M471.5 34L473.5 37L471.5 34Z" fill="#000000" fill-opacity="1.0" stroke="#ff000000" stroke-width="1.0"/>
    <path d="M141.5 48L140.5 50L141.5 48Z" fill="#000000" fill-opacity="1.0" stroke="#ff000000" stroke-width="1.0"/>
    <path d="M478.5 48L479 61.5L478 61.5L478.5 48Z" fill="#000000" fill-opacity="1.0" stroke="#ff000000" stroke-width="1.0"/>
    <path d="M132.5 53L131.5 55L132.5 53Z" fill="#000000" fill-opacity="1.0" stroke="#ff000000" stroke-width="1.0"/>
    <path d="M129.5 55L128.5 57L129.5 55Z" fill="#000000" fill-opacity="1.0" stroke="#ff000000" stroke-width="1.0"/>
    <path d="M370.5 55L371.5 57L370.5 55Z" fill="#000000" fill-opacity="1.0" stroke="#ff000000" stroke-width="1.0"/>
    <path d="M126.5 57L125.5 59L123.5 60L124.5 58L126.5 57Z" fill="#000000" fill-opacity="1.0" stroke="#ff000000" stroke-width="1.0"/>
    <path d="M373.5 57L374.5 59L373.5 57Z" fill="#000000" fill-opacity="1.0" stroke="#ff000000" stroke-width="1.0"/>
    <path d="M121.5 60L120.5 62L121.5 60Z" fill="#000000" fill-opacity="1.0" stroke="#ff000000" stroke-width="1.0"/>
    <path d="M118.5 62L116.5 65L118.5 62Z" fill="#000000" fill-opacity="1.0" stroke="#ff000000" stroke-width="1.0"/>
    <path d="M382.5 63L383.5 65L382.5 63Z" fill="#000000" fill-opacity="1.0" stroke="#ff000000" stroke-width="1.0"/>
    <path d="M114.5 65L112.5 68L108.5 71L111.5 67L114.5 65Z" fill="#000000" fill-opacity="1.0" stroke="#ff000000" stroke-width="1.0"/>
    <path d="M476.5 66L477 67.5L475.5 70L475 68.5L476.5 66Z" fill="#000000" fill-opacity="1.0" stroke="#ff000000" stroke-width="1.0"/>
    <path d="M106.5 71L102.5 76L106.5 71Z" fill="#000000" fill-opacity="1.0" stroke="#ff000000" stroke-width="1.0"/>
    <path d="M473.5 73L471.5 76L473.5 73Z" fill="#000000" fill-opacity="1.0" stroke="#ff000000" stroke-width="1.0"/>
    <path d="M100.5 76L93.5 84L100.5 76Z" fill="#000000" fill-opacity="1.0" stroke="#ff000000" stroke-width="1.0"/>
    <path d="M470.5 77L435 113.5L434.5 115L434 113.5L470.5 77Z" fill="#000000" fill-opacity="1.0" stroke="#ff000000" stroke-width="1.0"/>
    <path d="M82.5 94L76.5 101L82.5 94Z" fill="#000000" fill-opacity="1.0" stroke="#ff000000" stroke-width="1.0"/>
    <path d="M75.5 102L71.5 107L75.5 102Z" fill="#000000" fill-opacity="1.0" stroke="#ff000000" stroke-width="1.0"/>
    <path d="M69.5 109L68.5 111L69.5 109Z" fill="#000000" fill-opacity="1.0" stroke="#ff000000" stroke-width="1.0"/>
    <path d="M67.5 112L65.5 115L67.5 112Z" fill="#000000" fill-opacity="1.0" stroke="#ff000000" stroke-width="1.0"/>
    <path d="M64.5 116L62.5 119L64.5 116Z" fill="#000000" fill-opacity="1.0" stroke="#ff000000" stroke-width="1.0"/>
    <path d="M435.5 116L436.5 118L435.5 116Z" fill="#000000" fill-opacity="1.0" stroke="#ff000000" stroke-width="1.0"/>
    <path d="M61.5 120L60.5 122L61.5 120Z" fill="#000000" fill-opacity="1.0" stroke="#ff000000" stroke-width="1.0"/>
    <path d="M59.5 123L59 124.5L57.5 127L58 125.5L59.5 123Z" fill="#000000" fill-opacity="1.0" stroke="#ff000000" stroke-width="1.0"/>
    <path d="M441.5 125L442.5 127L441.5 125Z" fill="#000000" fill-opacity="1.0" stroke="#ff000000" stroke-width="1.0"/>
    <path d="M56.5 128L55.5 130L56.5 128Z" fill="#000000" fill-opacity="1.0" stroke="#ff000000" stroke-width="1.0"/>
    <path d="M443.5 128L444.5 130L443.5 128Z" fill="#000000" fill-opacity="1.0" stroke="#ff000000" stroke-width="1.0"/>
    <path d="M54.5 131L53.5 133L54.5 131Z" fill="#000000" fill-opacity="1.0" stroke="#ff000000" stroke-width="1.0"/>
    <path d="M49.5 140L48.5 142L49.5 140Z" fill="#000000" fill-opacity="1.0" stroke="#ff000000" stroke-width="1.0"/>
    <path d="M245.5 140L256 140.5L245.5 141L245.5 140Z" fill="#000000" fill-opacity="1.0" stroke="#ff000000" stroke-width="1.0"/>
    <path d="M450.5 140L451.5 142L450.5 140Z" fill="#000000" fill-opacity="1.0" stroke="#ff000000" stroke-width="1.0"/>
    <path d="M240.5 141L243 141.5L240.5 142L240.5 141Z" fill="#000000" fill-opacity="1.0" stroke="#ff000000" stroke-width="1.0"/>
    <path d="M259.5 141L262 141.5L259.5 142L259.5 141Z" fill="#000000" fill-opacity="1.0" stroke="#ff000000" stroke-width="1.0"/>
    <path d="M234.5 144L231.5 148L234.5 144Z" fill="#000000" fill-opacity="1.0" stroke="#ff000000" stroke-width="1.0"/>
    <path d="M267.5 144L270.5 148L267.5 144Z" fill="#000000" fill-opacity="1.0" stroke="#ff000000" stroke-width="1.0"/>
    <path d="M36.5 167L37 168.5L35.5 171L35 169.5L36.5 167Z" fill="#000000" fill-opacity="1.0" stroke="#ff000000" stroke-width="1.0"/>
    <path d="M30.5 184L31 186.5L29.5 190L29 187.5L30.5 184Z" fill="#000000" fill-opacity="1.0" stroke="#ff000000" stroke-width="1.0"/>
    <path d="M469.5 184L470 186.5L469 186.5L469.5 184Z" fill="#000000" fill-opacity="1.0" stroke="#ff000000" stroke-width="1.0"/>
    <path d="M249.5 185L249 186.5L248.5 188L248 186.5L249.5 185Z" fill="#000000" fill-opacity="1.0" stroke="#ff000000" stroke-width="1.0"/>
    <path d="M28.5 191L29 193.5L28 193.5L28.5 191Z" fill="#000000" fill-opacity="1.0" stroke="#ff000000" stroke-width="1.0"/>
    <path d="M471.5 191L472 193.5L471 193.5L471.5 191Z" fill="#000000" fill-opacity="1.0" stroke="#ff000000" stroke-width="1.0"/>
    <path d="M27.5 196L28 198.5L27 198.5L27.5 196Z" fill="#000000" fill-opacity="1.0" stroke="#ff000000" stroke-width="1.0"/>
    <path d="M472.5 196L473 198.5L472 198.5L472.5 196Z" fill="#000000" fill-opacity="1.0" stroke="#ff000000" stroke-width="1.0"/>
    <path d="M26.5 200L27 203.5L26 203.5L26.5 200Z" fill="#000000" fill-opacity="1.0" stroke="#ff000000" stroke-width="1.0"/>
    <path d="M473.5 200L474 203.5L473 203.5L473.5 200Z" fill="#000000" fill-opacity="1.0" stroke="#ff000000" stroke-width="1.0"/>
    <path d="M25.5 205L26 208.5L25 208.5L25.5 205Z" fill="#000000" fill-opacity="1.0" stroke="#ff000000" stroke-width="1.0"/>
    <path d="M474.5 205L475 208.5L474 208.5L474.5 205Z" fill="#000000" fill-opacity="1.0" stroke="#ff000000" stroke-width="1.0"/>
    <path d="M24.5 210L25 213.5L24 213.5L24.5 210Z" fill="#000000" fill-opacity="1.0" stroke="#ff000000" stroke-width="1.0"/>
    <path d="M475.5 210L476 213.5L475 213.5L475.5 210Z" fill="#000000" fill-opacity="1.0" stroke="#ff000000" stroke-width="1.0"/>
    <path d="M23.5 215L24 220.5L23 220.5L23.5 215Z" fill="#000000" fill-opacity="1.0" stroke="#ff000000" stroke-width="1.0"/>
    <path d="M476.5 216L477 219.5L476 219.5L476.5 216Z" fill="#000000" fill-opacity="1.0" stroke="#ff000000" stroke-width="1.0"/>
    <path d="M239.5 217L240 219.5L239 219.5L239.5 217Z" fill="#000000" fill-opacity="1.0" stroke="#ff000000" stroke-width="1.0"/>
    <path d="M259.5 218L260 220.5L259 220.5L259.5 218Z" fill="#000000" fill-opacity="1.0" stroke="#ff000000" stroke-width="1.0"/>
    <path d="M22.5 222L23 228.5L22 228.5L22.5 222Z" fill="#000000" fill-opacity="1.0" stroke="#ff000000" stroke-width="1.0"/>
    <path d="M477.5 222L478 228.5L477 228.5L477.5 222Z" fill="#000000" fill-opacity="1.0" stroke="#ff000000" stroke-width="1.0"/>
    <path d="M21.5 235L22 245.5L21 245.5L21.5 235Z" fill="#000000" fill-opacity="1.0" stroke="#ff000000" stroke-width="1.0"/>
    <path d="M478.5 235L479 244.5L478 244.5L478.5 235Z" fill="#000000" fill-opacity="1.0" stroke="#ff000000" stroke-width="1.0"/>
    <path d="M265.5 239L266 241.5L265 241.5L265.5 239Z" fill="#000000" fill-opacity="1.0" stroke="#ff000000" stroke-width="1.0"/>
    <path d="M269.5 253L270 255.5L269 255.5L269.5 253Z" fill="#000000" fill-opacity="1.0" stroke="#ff000000" stroke-width="1.0"/>
    <path d="M21.5 254L22 264.5L21 264.5L21.5 254Z" fill="#000000" fill-opacity="1.0" stroke="#ff000000" stroke-width="1.0"/>
    <path d="M478.5 255L479 264.5L478 264.5L478.5 255Z" fill="#000000" fill-opacity="1.0" stroke="#ff000000" stroke-width="1.0"/>
    <path d="M22.5 271L23 277.5L22 277.5L22.5 271Z" fill="#000000" fill-opacity="1.0" stroke="#ff000000" stroke-width="1.0"/>
    <path d="M477.5 271L478 277.5L477 277.5L477.5 271Z" fill="#000000" fill-opacity="1.0" stroke="#ff000000" stroke-width="1.0"/>
    <path d="M23.5 279L24 284.5L23 284.5L23.5 279Z" fill="#000000" fill-opacity="1.0" stroke="#ff000000" stroke-width="1.0"/>
    <path d="M476.5 280L477 284.5L476 284.5L476.5 280Z" fill="#000000" fill-opacity="1.0" stroke="#ff000000" stroke-width="1.0"/>
    <path d="M221.5 284L278 284.5L221.5 285L221.5 284Z" fill="#000000" fill-opacity="1.0" stroke="#ff000000" stroke-width="1.0"/>
    <path d="M24.5 286L25 289.5L24 289.5L24.5 286Z" fill="#000000" fill-opacity="1.0" stroke="#ff000000" stroke-width="1.0"/>
    <path d="M475.5 286L476 289.5L475 289.5L475.5 286Z" fill="#000000" fill-opacity="1.0" stroke="#ff000000" stroke-width="1.0"/>
    <path d="M25.5 291L26 294.5L25 294.5L25.5 291Z" fill="#000000" fill-opacity="1.0" stroke="#ff000000" stroke-width="1.0"/>
    <path d="M474.5 291L475 294.5L474 294.5L474.5 291Z" fill="#000000" fill-opacity="1.0" stroke="#ff000000" stroke-width="1.0"/>
    <path d="M26.5 296L27 299.5L26 299.5L26.5 296Z" fill="#000000" fill-opacity="1.0" stroke="#ff000000" stroke-width="1.0"/>
    <path d="M473.5 296L474 299.5L473 299.5L473.5 296Z" fill="#000000" fill-opacity="1.0" stroke="#ff000000" stroke-width="1.0"/>
    <path d="M27.5 301L28 303.5L27 303.5L27.5 301Z" fill="#000000" fill-opacity="1.0" stroke="#ff000000" stroke-width="1.0"/>
    <path d="M472.5 301L473 303.5L472 303.5L472.5 301Z" fill="#000000" fill-opacity="1.0" stroke="#ff000000" stroke-width="1.0"/>
    <path d="M28.5 306L29 308.5L28 308.5L28.5 306Z" fill="#000000" fill-opacity="1.0" stroke="#ff000000" stroke-width="1.0"/>
    <path d="M471.5 306L472 308.5L471 308.5L471.5 306Z" fill="#000000" fill-opacity="1.0" stroke="#ff000000" stroke-width="1.0"/>
    <path d="M214.5 309L213.5 311L214.5 309Z" fill="#000000" fill-opacity="1.0" stroke="#ff000000" stroke-width="1.0"/>
    <path d="M218.5 309L245 309.5L218.5 310L218.5 309Z" fill="#000000" fill-opacity="1.0" stroke="#ff000000" stroke-width="1.0"/>
    <path d="M29.5 310L31 315.5L30 315.5L29.5 310Z" fill="#000000" fill-opacity="1.0" stroke="#ff000000" stroke-width="1.0"/>
    <path d="M180.5 310L181 312.5L180 312.5L180.5 310Z" fill="#000000" fill-opacity="1.0" stroke="#ff000000" stroke-width="1.0"/>
    <path d="M469.5 313L470 315.5L469 315.5L469.5 313Z" fill="#000000" fill-opacity="1.0" stroke="#ff000000" stroke-width="1.0"/>
    <path d="M170.5 344L171 346.5L170 346.5L170.5 344Z" fill="#000000" fill-opacity="1.0" stroke="#ff000000" stroke-width="1.0"/>
    <path d="M329.5 350L326.5 354L329.5 350Z" fill="#000000" fill-opacity="1.0" stroke="#ff000000" stroke-width="1.0"/>
    <path d="M176.5 354L177.5 356L176.5 354Z" fill="#000000" fill-opacity="1.0" stroke="#ff000000" stroke-width="1.0"/>
    <path d="M199.5 355L198.5 357L199.5 355Z" fill="#000000" fill-opacity="1.0" stroke="#ff000000" stroke-width="1.0"/>
    <path d="M299.5 355L300.5 357L299.5 355Z" fill="#000000" fill-opacity="1.0" stroke="#ff000000" stroke-width="1.0"/>
    <path d="M185.5 358L195 358.5L185.5 359L185.5 358Z" fill="#000000" fill-opacity="1.0" stroke="#ff000000" stroke-width="1.0"/>
    <path d="M305.5 358L315 358.5L305.5 359L305.5 358Z" fill="#000000" fill-opacity="1.0" stroke="#ff000000" stroke-width="1.0"/>
    <path d="M451.5 358L450.5 360L451.5 358Z" fill="#000000" fill-opacity="1.0" stroke="#ff000000" stroke-width="1.0"/>
    <path d="M55.5 370L56.5 372L55.5 370Z" fill="#000000" fill-opacity="1.0" stroke="#ff000000" stroke-width="1.0"/>
    <path d="M444.5 370L443.5 372L444.5 370Z" fill="#000000" fill-opacity="1.0" stroke="#ff000000" stroke-width="1.0"/>
    <path d="M57.5 373L58.5 375L57.5 373Z" fill="#000000" fill-opacity="1.0" stroke="#ff000000" stroke-width="1.0"/>
    <path d="M442.5 373L441.5 375L442.5 373Z" fill="#000000" fill-opacity="1.0" stroke="#ff000000" stroke-width="1.0"/>
    <path d="M60.5 378L62.5 381L60.5 378Z" fill="#000000" fill-opacity="1.0" stroke="#ff000000" stroke-width="1.0"/>
    <path d="M439.5 378L438.5 380L439.5 378Z" fill="#000000" fill-opacity="1.0" stroke="#ff000000" stroke-width="1.0"/>
    <path d="M63.5 382L64.5 384L63.5 382Z" fill="#000000" fill-opacity="1.0" stroke="#ff000000" stroke-width="1.0"/>
    <path d="M436.5 382L435.5 384L436.5 382Z" fill="#000000" fill-opacity="1.0" stroke="#ff000000" stroke-width="1.0"/>
    <path d="M65.5 385L66 386.5L29 422.5L65.5 385Z" fill="#000000" fill-opacity="1.0" stroke="#ff000000" stroke-width="1.0"/>
    <path d="M434.5 385L433.5 387L434.5 385Z" fill="#000000" fill-opacity="1.0" stroke="#ff000000" stroke-width="1.0"/>
    <path d="M431.5 389L430.5 391L431.5 389Z" fill="#000000" fill-opacity="1.0" stroke="#ff000000" stroke-width="1.0"/>
    <path d="M427.5 394L425.5 397L427.5 394Z" fill="#000000" fill-opacity="1.0" stroke="#ff000000" stroke-width="1.0"/>
    <path d="M422.5 400L417.5 406L422.5 400Z" fill="#000000" fill-opacity="1.0" stroke="#ff000000" stroke-width="1.0"/>
    <path d="M405.5 417L400.5 423L405.5 417Z" fill="#000000" fill-opacity="1.0" stroke="#ff000000" stroke-width="1.0"/>
    <path d="M28.5 424L27 426.5L25.5 429L26 427.5L28.5 424Z" fill="#000000" fill-opacity="1.0" stroke="#ff000000" stroke-width="1.0"/>
    <path d="M396.5 425L394.5 428L396.5 425Z" fill="#000000" fill-opacity="1.0" stroke="#ff000000" stroke-width="1.0"/>
    <path d="M24.5 430L25 431.5L23.5 434L23 432.5L24.5 430Z" fill="#000000" fill-opacity="1.0" stroke="#ff000000" stroke-width="1.0"/>
    <path d="M390.5 430L389.5 432L390.5 430Z" fill="#000000" fill-opacity="1.0" stroke="#ff000000" stroke-width="1.0"/>
    <path d="M387.5 432L385.5 435L387.5 432Z" fill="#000000" fill-opacity="1.0" stroke="#ff000000" stroke-width="1.0"/>
    <path d="M113.5 434L115 434.5L107.5 441L113.5 434Z" fill="#000000" fill-opacity="1.0" stroke="#ff000000" stroke-width="1.0"/>
    <path d="M116.5 435L117.5 437L116.5 435Z" fill="#000000" fill-opacity="1.0" stroke="#ff000000" stroke-width="1.0"/>
    <path d="M383.5 435L382.5 437L383.5 435Z" fill="#000000" fill-opacity="1.0" stroke="#ff000000" stroke-width="1.0"/>
    <path d="M119.5 437L121.5 440L119.5 437Z" fill="#000000" fill-opacity="1.0" stroke="#ff000000" stroke-width="1.0"/>
    <path d="M380.5 437L378.5 440L376.5 441L377.5 439L380.5 437Z" fill="#000000" fill-opacity="1.0" stroke="#ff000000" stroke-width="1.0"/>
    <path d="M21.5 439L22 450.5L21 450.5L21.5 439Z" fill="#000000" fill-opacity="1.0" stroke="#ff000000" stroke-width="1.0"/>
    <path d="M125.5 441L126.5 443L125.5 441Z" fill="#000000" fill-opacity="1.0" stroke="#ff000000" stroke-width="1.0"/>
    <path d="M374.5 441L373.5 443L374.5 441Z" fill="#000000" fill-opacity="1.0" stroke="#ff000000" stroke-width="1.0"/>
    <path d="M128.5 443L129.5 445L128.5 443Z" fill="#000000" fill-opacity="1.0" stroke="#ff000000" stroke-width="1.0"/>
    <path d="M371.5 443L370.5 445L371.5 443Z" fill="#000000" fill-opacity="1.0" stroke="#ff000000" stroke-width="1.0"/>
    <path d="M100.5 447L78.5 470L100.5 447Z" fill="#000000" fill-opacity="1.0" stroke="#ff000000" stroke-width="1.0"/>
    <path d="M23.5 456L27 462.5L25 461.5L23.5 456Z" fill="#000000" fill-opacity="1.0" stroke="#ff000000" stroke-width="1.0"/>
    <path d="M27.5 464L29.5 467L27.5 464Z" fill="#000000" fill-opacity="1.0" stroke="#ff000000" stroke-width="1.0"/>
    <path d="M184.5 469L187 469.5L184.5 470L184.5 469Z" fill="#000000" fill-opacity="1.0" stroke="#ff000000" stroke-width="1.0"/>
    <path d="M313.5 469L316 469.5L313.5 470L313.5 469Z" fill="#000000" fill-opacity="1.0" stroke="#ff000000" stroke-width="1.0"/>
    <path d="M33.5 470L35.5 473L33.5 470Z" fill="#000000" fill-opacity="1.0" stroke="#ff000000" stroke-width="1.0"/>
    <path d="M75.5 471L73.5 474L71.5 475L72.5 473L75.5 471Z" fill="#000000" fill-opacity="1.0" stroke="#ff000000" stroke-width="1.0"/>
    <path d="M306.5 471L309 471.5L306.5 472L306.5 471Z" fill="#000000" fill-opacity="1.0" stroke="#ff000000" stroke-width="1.0"/>
    <path d="M196.5 472L199 472.5L196.5 473L196.5 472Z" fill="#000000" fill-opacity="1.0" stroke="#ff000000" stroke-width="1.0"/>
    <path d="M301.5 472L304 472.5L301.5 473L301.5 472Z" fill="#000000" fill-opacity="1.0" stroke="#ff000000" stroke-width="1.0"/>
    <path d="M200.5 473L204 473.5L200.5 474L200.5 473Z" fill="#000000" fill-opacity="1.0" stroke="#ff000000" stroke-width="1.0"/>
    <path d="M296.5 473L300 473.5L296.5 474L296.5 473Z" fill="#000000" fill-opacity="1.0" stroke="#ff000000" stroke-width="1.0"/>
    <path d="M205.5 474L209 474.5L205.5 475L205.5 474Z" fill="#000000" fill-opacity="1.0" stroke="#ff000000" stroke-width="1.0"/>
    <path d="M291.5 474L295 474.5L291.5 475L291.5 474Z" fill="#000000" fill-opacity="1.0" stroke="#ff000000" stroke-width="1.0"/>
    <path d="M41.5 475L44 476.5L42.5 477L41.5 475Z" fill="#000000" fill-opacity="1.0" stroke="#ff000000" stroke-width="1.0"/>
    <path d="M68.5 475L70 475.5L66.5 477L66.5 476L68.5 475Z" fill="#000000" fill-opacity="1.0" stroke="#ff000000" stroke-width="1.0"/>
    <path d="M210.5 475L214 475.5L210.5 476L210.5 475Z" fill="#000000" fill-opacity="1.0" stroke="#ff000000" stroke-width="1.0"/>
    <path d="M286.5 475L290 475.5L286.5 476L286.5 475Z" fill="#000000" fill-opacity="1.0" stroke="#ff000000" stroke-width="1.0"/>
    <path d="M216.5 476L221 476.5L216.5 477L216.5 476Z" fill="#000000" fill-opacity="1.0" stroke="#ff000000" stroke-width="1.0"/>
    <path d="M279.5 476L285 476.5L279.5 477L279.5 476Z" fill="#000000" fill-opacity="1.0" stroke="#ff000000" stroke-width="1.0"/>
    <path d="M222.5 477L229 477.5L222.5 478L222.5 477Z" fill="#000000" fill-opacity="1.0" stroke="#ff000000" stroke-width="1.0"/>
    <path d="M271.5 477L278 477.5L271.5 478L271.5 477Z" fill="#000000" fill-opacity="1.0" stroke="#ff000000" stroke-width="1.0"/>
    <path d="M49.5 478L61 478.5L49.5 479L49.5 478Z" fill="#000000" fill-opacity="1.0" stroke="#ff000000" stroke-width="1.0"/>
    <path d="M235.5 478L246 478.5L235.5 479L235.5 478Z" fill="#000000" fill-opacity="1.0" stroke="#ff000000" stroke-width="1.0"/>
    <path d="M254.5 478L265 478.5L254.5 479L254.5 478Z" fill="#000000" fill-opacity="1.0" stroke="#ff000000" stroke-width="1.0"/>
    <path d="M246.5 21L278.5 23L316.5 31L343.5 41Q366.7 51.8 386.5 66L423.5 29L437.5 22L452.5 22Q464.4 25.1 471 33.5L478 47.5L478 62.5L471 76.5L434 114.5Q456.6 143.9 469 183.5L477 220.5L479 254.5L478 255.5L477 279.5L472 305.5L460 341.5Q439.9 385.9 406.5 417Q377 445 336.5 462L309.5 471L285.5 476L271.5 477L270.5 478L246.5 479L245.5 478L229.5 478L228.5 477L214.5 476L190.5 471L171.5 465L142.5 452L113.5 434L76.5 471L62.5 478L47.5 478Q36.4 475.1 30 467.5L22 452.5L22 437.5L29 423.5L66 385.5Q43.4 356.1 31 316.5L24 285.5L23 271.5L22 270.5L21 246.5L22 245.5L23 221.5L28 194.5L40 158.5Q59.8 114.8 92.5 84Q120.6 57.1 158.5 40L194.5 28L221.5 23L245.5 22L246.5 21ZM246 140L235 144L229 152L225 164L219 187L214 200L212 210L206 226L204 236L198 252L196 262L170 345L171 350Q176 357 186 359Q195 361 199 357L203 349L213 312L215 310L285 310L287 315L299 356L306 359L315 359L327 354Q331 351 332 346L309 269L303 253L301 243L296 230L294 220L288 204L286 194L281 181L276 161L271 148L262 141L246 140Z" fill="#000000" fill-opacity="1.0" stroke="#ff000000" stroke-width="1.0"/>
    <path d="M249.5 186L278 283.5L221.5 284L222 282.5L242 212.5L243 205.5L249.5 186Z" fill="#000000" fill-opacity="1.0" stroke="#ff000000" stroke-width="1.0"/>
    <path d="M242.5 20L257 20.5L242.5 21L242.5 20Z" fill="#000000" fill-opacity="1.0" stroke="#ff000000" stroke-width="1.0"/>
    <path d="M443.5 20L447 20.5L443.5 21L443.5 20Z" fill="#000000" fill-opacity="1.0" stroke="#ff000000" stroke-width="1.0"/>
    <path d="M227.5 21L235 21.5L227.5 22L227.5 21Z" fill="#000000" fill-opacity="1.0" stroke="#ff000000" stroke-width="1.0"/>
    <path d="M265.5 21L272 21.5L265.5 22L265.5 21Z" fill="#000000" fill-opacity="1.0" stroke="#ff000000" stroke-width="1.0"/>
    <path d="M451.5 21L454 21.5L451.5 22L451.5 21Z" fill="#000000" fill-opacity="1.0" stroke="#ff000000" stroke-width="1.0"/>
    <path d="M219.5 22L222 22.5L219.5 23L219.5 22Z" fill="#000000" fill-opacity="1.0" stroke="#ff000000" stroke-width="1.0"/>
    <path d="M202.5 25L205 25.5L202.5 26L202.5 25Z" fill="#000000" fill-opacity="1.0" stroke="#ff000000" stroke-width="1.0"/>
    <path d="M295.5 25L298 25.5L295.5 26L295.5 25Z" fill="#000000" fill-opacity="1.0" stroke="#ff000000" stroke-width="1.0"/>
    <path d="M197.5 26L200 26.5L197.5 27L197.5 26Z" fill="#000000" fill-opacity="1.0" stroke="#ff000000" stroke-width="1.0"/>
    <path d="M193.5 27L196 27.5L193.5 28L193.5 27Z" fill="#000000" fill-opacity="1.0" stroke="#ff000000" stroke-width="1.0"/>
    <path d="M304.5 27L307 27.5L304.5 28L304.5 27Z" fill="#000000" fill-opacity="1.0" stroke="#ff000000" stroke-width="1.0"/>
    <path d="M424.5 27L423.5 29L424.5 27Z" fill="#000000" fill-opacity="1.0" stroke="#ff000000" stroke-width="1.0"/>
    <path d="M465.5 27L466.5 29L465.5 27Z" fill="#000000" fill-opacity="1.0" stroke="#ff000000" stroke-width="1.0"/>
    <path d="M471.5 33L472.5 35L471.5 33Z" fill="#000000" fill-opacity="1.0" stroke="#ff000000" stroke-width="1.0"/>
    <path d="M357.5 47L358.5 49L357.5 47Z" fill="#000000" fill-opacity="1.0" stroke="#ff000000" stroke-width="1.0"/>
    <path d="M140.5 48L139.5 50L137.5 51L138.5 49L140.5 48Z" fill="#000000" fill-opacity="1.0" stroke="#ff000000" stroke-width="1.0"/>
    <path d="M366.5 52L367.5 54L366.5 52Z" fill="#000000" fill-opacity="1.0" stroke="#ff000000" stroke-width="1.0"/>
    <path d="M479.5 52L480 57.5L479 57.5L479.5 52Z" fill="#000000" fill-opacity="1.0" stroke="#ff000000" stroke-width="1.0"/>
    <path d="M131.5 53L130.5 55L131.5 53Z" fill="#000000" fill-opacity="1.0" stroke="#ff000000" stroke-width="1.0"/>
    <path d="M128.5 55L127.5 57L128.5 55Z" fill="#000000" fill-opacity="1.0" stroke="#ff000000" stroke-width="1.0"/>
    <path d="M371.5 55L372.5 57L371.5 55Z" fill="#000000" fill-opacity="1.0" stroke="#ff000000" stroke-width="1.0"/>
    <path d="M395.5 56L392.5 60L395.5 56Z" fill="#000000" fill-opacity="1.0" stroke="#ff000000" stroke-width="1.0"/>
    <path d="M374.5 57L375.5 59L374.5 57Z" fill="#000000" fill-opacity="1.0" stroke="#ff000000" stroke-width="1.0"/>
    <path d="M123.5 58L122.5 60L123.5 58Z" fill="#000000" fill-opacity="1.0" stroke="#ff000000" stroke-width="1.0"/>
    <path d="M377.5 59L378.5 61L377.5 59Z" fill="#000000" fill-opacity="1.0" stroke="#ff000000" stroke-width="1.0"/>
    <path d="M120.5 60L119.5 62L120.5 60Z" fill="#000000" fill-opacity="1.0" stroke="#ff000000" stroke-width="1.0"/>
    <path d="M380.5 61L381.5 63L380.5 61Z" fill="#000000" fill-opacity="1.0" stroke="#ff000000" stroke-width="1.0"/>
    <path d="M390.5 61L387.5 65L390.5 61Z" fill="#000000" fill-opacity="1.0" stroke="#ff000000" stroke-width="1.0"/>
    <path d="M116.5 63L115.5 65L116.5 63Z" fill="#000000" fill-opacity="1.0" stroke="#ff000000" stroke-width="1.0"/>
    <path d="M383.5 63L384.5 65L383.5 63Z" fill="#000000" fill-opacity="1.0" stroke="#ff000000" stroke-width="1.0"/>
    <path d="M113.5 65L112.5 67L113.5 65Z" fill="#000000" fill-opacity="1.0" stroke="#ff000000" stroke-width="1.0"/>
    <path d="M109.5 68L107.5 71L109.5 68Z" fill="#000000" fill-opacity="1.0" stroke="#ff000000" stroke-width="1.0"/>
    <path d="M104.5 72L101.5 76L104.5 72Z" fill="#000000" fill-opacity="1.0" stroke="#ff000000" stroke-width="1.0"/>
    <path d="M472.5 75L471.5 77L472.5 75Z" fill="#000000" fill-opacity="1.0" stroke="#ff000000" stroke-width="1.0"/>
    <path d="M97.5 78L78.5 98L97.5 78Z" fill="#000000" fill-opacity="1.0" stroke="#ff000000" stroke-width="1.0"/>
    <path d="M75.5 101L72.5 105L75.5 101Z" fill="#000000" fill-opacity="1.0" stroke="#ff000000" stroke-width="1.0"/>
    <path d="M70.5 107L68.5 110L70.5 107Z" fill="#000000" fill-opacity="1.0" stroke="#ff000000" stroke-width="1.0"/>
    <path d="M67.5 111L65.5 114L67.5 111Z" fill="#000000" fill-opacity="1.0" stroke="#ff000000" stroke-width="1.0"/>
    <path d="M64.5 115L63.5 117L64.5 115Z" fill="#000000" fill-opacity="1.0" stroke="#ff000000" stroke-width="1.0"/>
    <path d="M437.5 118L438.5 120L437.5 118Z" fill="#000000" fill-opacity="1.0" stroke="#ff000000" stroke-width="1.0"/>
    <path d="M61.5 119L60.5 121L61.5 119Z" fill="#000000" fill-opacity="1.0" stroke="#ff000000" stroke-width="1.0"/>
    <path d="M439.5 121L440.5 123L439.5 121Z" fill="#000000" fill-opacity="1.0" stroke="#ff000000" stroke-width="1.0"/>
    <path d="M59.5 122L58.5 124L59.5 122Z" fill="#000000" fill-opacity="1.0" stroke="#ff000000" stroke-width="1.0"/>
    <path d="M441.5 124L442.5 126L441.5 124Z" fill="#000000" fill-opacity="1.0" stroke="#ff000000" stroke-width="1.0"/>
    <path d="M56.5 127L55.5 129L56.5 127Z" fill="#000000" fill-opacity="1.0" stroke="#ff000000" stroke-width="1.0"/>
    <path d="M54.5 130L53.5 132L54.5 130Z" fill="#000000" fill-opacity="1.0" stroke="#ff000000" stroke-width="1.0"/>
    <path d="M446.5 132L447.5 134L446.5 132Z" fill="#000000" fill-opacity="1.0" stroke="#ff000000" stroke-width="1.0"/>
    <path d="M50.5 137L50 138.5L48.5 141L49 139.5L50.5 137Z" fill="#000000" fill-opacity="1.0" stroke="#ff000000" stroke-width="1.0"/>
    <path d="M450.5 139L451.5 141L450.5 139Z" fill="#000000" fill-opacity="1.0" stroke="#ff000000" stroke-width="1.0"/>
    <path d="M243.5 141L246 141.5L243.5 142L243.5 141Z" fill="#000000" fill-opacity="1.0" stroke="#ff000000" stroke-width="1.0"/>
    <path d="M255.5 141L259 141.5L255.5 142L255.5 141Z" fill="#000000" fill-opacity="1.0" stroke="#ff000000" stroke-width="1.0"/>
    <path d="M235.5 144L234.5 146L235.5 144Z" fill="#000000" fill-opacity="1.0" stroke="#ff000000" stroke-width="1.0"/>
    <path d="M266.5 144L267.5 146L266.5 144Z" fill="#000000" fill-opacity="1.0" stroke="#ff000000" stroke-width="1.0"/>
    <path d="M232.5 147L231.5 149L232.5 147Z" fill="#000000" fill-opacity="1.0" stroke="#ff000000" stroke-width="1.0"/>
    <path d="M269.5 147L270.5 149L269.5 147Z" fill="#000000" fill-opacity="1.0" stroke="#ff000000" stroke-width="1.0"/>
    <path d="M229.5 152L230 154.5L229 154.5L229.5 152Z" fill="#000000" fill-opacity="1.0" stroke="#ff000000" stroke-width="1.0"/>
    <path d="M249.5 184L248.5 186L249.5 184Z" fill="#000000" fill-opacity="1.0" stroke="#ff000000" stroke-width="1.0"/>
    <path d="M27.5 193L28 195.5L27 195.5L27.5 193Z" fill="#000000" fill-opacity="1.0" stroke="#ff000000" stroke-width="1.0"/>
    <path d="M472.5 193L473 195.5L472 195.5L472.5 193Z" fill="#000000" fill-opacity="1.0" stroke="#ff000000" stroke-width="1.0"/>
    <path d="M26.5 197L27 199.5L26 199.5L26.5 197Z" fill="#000000" fill-opacity="1.0" stroke="#ff000000" stroke-width="1.0"/>
    <path d="M244.5 198L245 200.5L244 200.5L244.5 198Z" fill="#000000" fill-opacity="1.0" stroke="#ff000000" stroke-width="1.0"/>
    <path d="M254.5 199L255 201.5L254 201.5L254.5 199Z" fill="#000000" fill-opacity="1.0" stroke="#ff000000" stroke-width="1.0"/>
    <path d="M25.5 202L26 204.5L25 204.5L25.5 202Z" fill="#000000" fill-opacity="1.0" stroke="#ff000000" stroke-width="1.0"/>
    <path d="M24.5 207L25 209.5L24 209.5L24.5 207Z" fill="#000000" fill-opacity="1.0" stroke="#ff000000" stroke-width="1.0"/>
    <path d="M22.5 219L23 221.5L22 221.5L22.5 219Z" fill="#000000" fill-opacity="1.0" stroke="#ff000000" stroke-width="1.0"/>
    <path d="M236.5 226L237 228.5L236 228.5L236.5 226Z" fill="#000000" fill-opacity="1.0" stroke="#ff000000" stroke-width="1.0"/>
    <path d="M21.5 227L22 234.5L21 234.5L21.5 227Z" fill="#000000" fill-opacity="1.0" stroke="#ff000000" stroke-width="1.0"/>
    <path d="M478.5 228L479 234.5L478 234.5L478.5 228Z" fill="#000000" fill-opacity="1.0" stroke="#ff000000" stroke-width="1.0"/>
    <path d="M299.5 240L300 242.5L299 242.5L299.5 240Z" fill="#000000" fill-opacity="1.0" stroke="#ff000000" stroke-width="1.0"/>
    <path d="M20.5 241L21 257.5L20 257.5L20.5 241Z" fill="#000000" fill-opacity="1.0" stroke="#ff000000" stroke-width="1.0"/>
    <path d="M231.5 243L232 245.5L231 245.5L231.5 243Z" fill="#000000" fill-opacity="1.0" stroke="#ff000000" stroke-width="1.0"/>
    <path d="M479.5 243L480 256.5L479 256.5L479.5 243Z" fill="#000000" fill-opacity="1.0" stroke="#ff000000" stroke-width="1.0"/>
    <path d="M200.5 246L201 248.5L200 248.5L200.5 246Z" fill="#000000" fill-opacity="1.0" stroke="#ff000000" stroke-width="1.0"/>
    <path d="M228.5 254L229 256.5L228 256.5L228.5 254Z" fill="#000000" fill-opacity="1.0" stroke="#ff000000" stroke-width="1.0"/>
    <path d="M226.5 261L227 263.5L226 263.5L226.5 261Z" fill="#000000" fill-opacity="1.0" stroke="#ff000000" stroke-width="1.0"/>
    <path d="M306.5 263L307 265.5L306 265.5L306.5 263Z" fill="#000000" fill-opacity="1.0" stroke="#ff000000" stroke-width="1.0"/>
    <path d="M21.5 265L22 271.5L21 271.5L21.5 265Z" fill="#000000" fill-opacity="1.0" stroke="#ff000000" stroke-width="1.0"/>
    <path d="M273.5 265L274 267.5L273 267.5L273.5 265Z" fill="#000000" fill-opacity="1.0" stroke="#ff000000" stroke-width="1.0"/>
    <path d="M478.5 265L479 271.5L478 271.5L478.5 265Z" fill="#000000" fill-opacity="1.0" stroke="#ff000000" stroke-width="1.0"/>
    <path d="M308.5 270L309 272.5L308 272.5L308.5 270Z" fill="#000000" fill-opacity="1.0" stroke="#ff000000" stroke-width="1.0"/>
    <path d="M223.5 271L224 273.5L223 273.5L223.5 271Z" fill="#000000" fill-opacity="1.0" stroke="#ff000000" stroke-width="1.0"/>
    <path d="M222.5 275L223 277.5L222 277.5L222.5 275Z" fill="#000000" fill-opacity="1.0" stroke="#ff000000" stroke-width="1.0"/>
    <path d="M220.5 282L221 284.5L220 284.5L220.5 282Z" fill="#000000" fill-opacity="1.0" stroke="#ff000000" stroke-width="1.0"/>
    <path d="M183.5 302L184 304.5L183 304.5L183.5 302Z" fill="#000000" fill-opacity="1.0" stroke="#ff000000" stroke-width="1.0"/>
    <path d="M27.5 304L28 306.5L27 306.5L27.5 304Z" fill="#000000" fill-opacity="1.0" stroke="#ff000000" stroke-width="1.0"/>
    <path d="M472.5 304L473 306.5L472 306.5L472.5 304Z" fill="#000000" fill-opacity="1.0" stroke="#ff000000" stroke-width="1.0"/>
    <path d="M213.5 309L213 310.5L212.5 313L212 310.5L213.5 309Z" fill="#000000" fill-opacity="1.0" stroke="#ff000000" stroke-width="1.0"/>
    <path d="M215.5 309L218 309.5L215.5 310L215.5 309Z" fill="#000000" fill-opacity="1.0" stroke="#ff000000" stroke-width="1.0"/>
    <path d="M245.5 309L285.5 309L287 310.5L286.5 313L286 310L245.5 310L245.5 309Z" fill="#000000" fill-opacity="1.0" stroke="#ff000000" stroke-width="1.0"/>
    <path d="M323.5 319L324 321.5L323 321.5L323.5 319Z" fill="#000000" fill-opacity="1.0" stroke="#ff000000" stroke-width="1.0"/>
    <path d="M206.5 331L207 333.5L206 333.5L206.5 331Z" fill="#000000" fill-opacity="1.0" stroke="#ff000000" stroke-width="1.0"/>
    <path d="M293.5 334L294 336.5L293 336.5L293.5 334Z" fill="#000000" fill-opacity="1.0" stroke="#ff000000" stroke-width="1.0"/>
    <path d="M330.5 342L331 347.5L330 347.5L330.5 342Z" fill="#000000" fill-opacity="1.0" stroke="#ff000000" stroke-width="1.0"/>
    <path d="M329.5 349L325.5 354L329.5 349Z" fill="#000000" fill-opacity="1.0" stroke="#ff000000" stroke-width="1.0"/>
    <path d="M172.5 350L175.5 354L172.5 350Z" fill="#000000" fill-opacity="1.0" stroke="#ff000000" stroke-width="1.0"/>
    <path d="M177.5 354L180 355.5L178.5 356L177.5 354Z" fill="#000000" fill-opacity="1.0" stroke="#ff000000" stroke-width="1.0"/>
    <path d="M199.5 354L197.5 357L199.5 354Z" fill="#000000" fill-opacity="1.0" stroke="#ff000000" stroke-width="1.0"/>
    <path d="M299.5 354L303 356.5L301.5 357L299.5 354Z" fill="#000000" fill-opacity="1.0" stroke="#ff000000" stroke-width="1.0"/>
    <path d="M47.5 357L48.5 359L47.5 357Z" fill="#000000" fill-opacity="1.0" stroke="#ff000000" stroke-width="1.0"/>
    <path d="M314.5 357L317 357.5L314.5 358L314.5 357Z" fill="#000000" fill-opacity="1.0" stroke="#ff000000" stroke-width="1.0"/>
    <path d="M451.5 359L450.5 361L451.5 359Z" fill="#000000" fill-opacity="1.0" stroke="#ff000000" stroke-width="1.0"/>
    <path d="M52.5 366L53.5 368L52.5 366Z" fill="#000000" fill-opacity="1.0" stroke="#ff000000" stroke-width="1.0"/>
    <path d="M447.5 366L446.5 368L447.5 366Z" fill="#000000" fill-opacity="1.0" stroke="#ff000000" stroke-width="1.0"/>
    <path d="M55.5 371L56.5 373L55.5 371Z" fill="#000000" fill-opacity="1.0" stroke="#ff000000" stroke-width="1.0"/>
    <path d="M444.5 371L443.5 373L444.5 371Z" fill="#000000" fill-opacity="1.0" stroke="#ff000000" stroke-width="1.0"/>
    <path d="M57.5 374L58.5 376L57.5 374Z" fill="#000000" fill-opacity="1.0" stroke="#ff000000" stroke-width="1.0"/>
    <path d="M442.5 374L441.5 376L442.5 374Z" fill="#000000" fill-opacity="1.0" stroke="#ff000000" stroke-width="1.0"/>
    <path d="M61.5 380L62.5 382L61.5 380Z" fill="#000000" fill-opacity="1.0" stroke="#ff000000" stroke-width="1.0"/>
    <path d="M438.5 380L437.5 382L438.5 380Z" fill="#000000" fill-opacity="1.0" stroke="#ff000000" stroke-width="1.0"/>
    <path d="M63.5 383L64.5 385L63.5 383Z" fill="#000000" fill-opacity="1.0" stroke="#ff000000" stroke-width="1.0"/>
    <path d="M436.5 383L435.5 385L436.5 383Z" fill="#000000" fill-opacity="1.0" stroke="#ff000000" stroke-width="1.0"/>
    <path d="M433.5 387L432.5 389L433.5 387Z" fill="#000000" fill-opacity="1.0" stroke="#ff000000" stroke-width="1.0"/>
    <path d="M430.5 391L428.5 394L430.5 391Z" fill="#000000" fill-opacity="1.0" stroke="#ff000000" stroke-width="1.0"/>
    <path d="M426.5 396L423.5 400L426.5 396Z" fill="#000000" fill-opacity="1.0" stroke="#ff000000" stroke-width="1.0"/>
    <path d="M419.5 404L404.5 420L419.5 404Z" fill="#000000" fill-opacity="1.0" stroke="#ff000000" stroke-width="1.0"/>
    <path d="M28.5 423L27.5 425L28.5 423Z" fill="#000000" fill-opacity="1.0" stroke="#ff000000" stroke-width="1.0"/>
    <path d="M399.5 423L396.5 427L399.5 423Z" fill="#000000" fill-opacity="1.0" stroke="#ff000000" stroke-width="1.0"/>
    <path d="M393.5 428L391.5 431L393.5 428Z" fill="#000000" fill-opacity="1.0" stroke="#ff000000" stroke-width="1.0"/>
    <path d="M388.5 432L387.5 434L388.5 432Z" fill="#000000" fill-opacity="1.0" stroke="#ff000000" stroke-width="1.0"/>
    <path d="M384.5 435L383.5 437L384.5 435Z" fill="#000000" fill-opacity="1.0" stroke="#ff000000" stroke-width="1.0"/>
    <path d="M21.5 436L22 438.5L21 438.5L21.5 436Z" fill="#000000" fill-opacity="1.0" stroke="#ff000000" stroke-width="1.0"/>
    <path d="M118.5 437L119.5 439L118.5 437Z" fill="#000000" fill-opacity="1.0" stroke="#ff000000" stroke-width="1.0"/>
    <path d="M381.5 437L380.5 439L381.5 437Z" fill="#000000" fill-opacity="1.0" stroke="#ff000000" stroke-width="1.0"/>
    <path d="M106.5 441L101.5 447L106.5 441Z" fill="#000000" fill-opacity="1.0" stroke="#ff000000" stroke-width="1.0"/>
    <path d="M124.5 441L125.5 443L124.5 441Z" fill="#000000" fill-opacity="1.0" stroke="#ff000000" stroke-width="1.0"/>
    <path d="M375.5 441L374.5 443L375.5 441Z" fill="#000000" fill-opacity="1.0" stroke="#ff000000" stroke-width="1.0"/>
    <path d="M20.5 442L21 446.5L20 446.5L20.5 442Z" fill="#000000" fill-opacity="1.0" stroke="#ff000000" stroke-width="1.0"/>
    <path d="M127.5 443L128.5 445L127.5 443Z" fill="#000000" fill-opacity="1.0" stroke="#ff000000" stroke-width="1.0"/>
    <path d="M372.5 443L371.5 445L372.5 443Z" fill="#000000" fill-opacity="1.0" stroke="#ff000000" stroke-width="1.0"/>
    <path d="M132.5 446L133.5 448L132.5 446Z" fill="#000000" fill-opacity="1.0" stroke="#ff000000" stroke-width="1.0"/>
    <path d="M367.5 446L366.5 448L367.5 446Z" fill="#000000" fill-opacity="1.0" stroke="#ff000000" stroke-width="1.0"/>
    <path d="M139.5 450L143 452.5L141.5 452L139.5 450Z" fill="#000000" fill-opacity="1.0" stroke="#ff000000" stroke-width="1.0"/>
    <path d="M360.5 450L359.5 452L357.5 453L358.5 451L360.5 450Z" fill="#000000" fill-opacity="1.0" stroke="#ff000000" stroke-width="1.0"/>
    <path d="M154.5 458L158 459.5L156.5 460L154.5 458Z" fill="#000000" fill-opacity="1.0" stroke="#ff000000" stroke-width="1.0"/>
    <path d="M344.5 458L346 458.5L342.5 460L342.5 459L344.5 458Z" fill="#000000" fill-opacity="1.0" stroke="#ff000000" stroke-width="1.0"/>
    <path d="M25.5 462L26.5 464L25.5 462Z" fill="#000000" fill-opacity="1.0" stroke="#ff000000" stroke-width="1.0"/>
    <path d="M28.5 466L33.5 472L28.5 466Z" fill="#000000" fill-opacity="1.0" stroke="#ff000000" stroke-width="1.0"/>
    <path d="M77.5 470L75.5 473L77.5 470Z" fill="#000000" fill-opacity="1.0" stroke="#ff000000" stroke-width="1.0"/>
    <path d="M304.5 472L307 472.5L304.5 473L304.5 472Z" fill="#000000" fill-opacity="1.0" stroke="#ff000000" stroke-width="1.0"/>
    <path d="M38.5 474L41 475.5L39.5 476L38.5 474Z" fill="#000000" fill-opacity="1.0" stroke="#ff000000" stroke-width="1.0"/>
    <path d="M295.5 474L298 474.5L295.5 475L295.5 474Z" fill="#000000" fill-opacity="1.0" stroke="#ff000000" stroke-width="1.0"/>
    <path d="M228.5 478L235 478.5L228.5 479L228.5 478Z" fill="#000000" fill-opacity="1.0" stroke="#ff000000" stroke-width="1.0"/>
    <path d="M265.5 478L272 478.5L265.5 479L265.5 478Z" fill="#000000" fill-opacity="1.0" stroke="#ff000000" stroke-width="1.0"/>
    <path d="M242.5 479L258 479.5L242.5 480L242.5 479Z" fill="#000000" fill-opacity="1.0" stroke="#ff000000" stroke-width="1.0"/>
</svg>