<?xml version="1.0" encoding="utf-8" standalone="no"?><svg xmlns:android="http://schemas.android.com/apk/res/android" height="36.0" width="36.0" xmlns="http://www.w3.org/2000/svg">
    <path android:fillAlpha="0.9" android:strokeAlpha="0.9" d="M8.99,17.52 L1.53,12.03 L1.53,8.69 C1.53,8.69,1.48,7.52,2.49,6.53 C3.14,5.89,4.05,5.6,4.96,5.62 C5.59,5.63,6.31,5.77,6.85,6.23 C6.9,6.27,6.95,6.32,7.01,6.36 L8.99,7.84 L8.99,17.52 Z" fill="#000000" fill-opacity="1.0" stroke-width="1.0"/>
    <path android:fillAlpha="0.6" android:strokeAlpha="0.6" d="M1.53,12.03 L1.53,27.9 C1.53,27.9,1.36,30.22,3.68,30.39 L9,30.39 L9,17.52 L1.53,12.03 Z" fill="#000000" fill-opacity="1.0" stroke-width="1.0"/>
    <path android:fillAlpha="0.7" android:strokeAlpha="0.7" d="M18,14.52 L8.99,7.83 L8.99,17.52 L18,24.22 L27.01,17.52 L27.01,7.83 Z" fill="#000000" fill-opacity="1.0" stroke-width="1.0"/>
    <path android:fillAlpha="0.8" android:strokeAlpha="0.8" d="M27.01,17.52 L34.47,12.03 L34.47,8.69 C34.47,8.69,34.52,7.52,33.51,6.53 C32.86,5.89,31.95,5.6,31.04,5.62 C30.42,5.63,29.7,5.77,29.15,6.23 C29.1,6.27,29.05,6.32,28.99,6.36 L27.01,7.84 L27.01,17.52 Z" fill="#000000" fill-opacity="1.0" stroke-width="1.0"/>
    <path d="M34.47,12.03 L34.47,27.9 C34.47,27.9,34.64,30.22,32.32,30.39 L27,30.39 L27,17.52 L34.47,12.03 Z" fill="#000000" fill-opacity="1.0"/>
</svg>