<?xml version="1.0" encoding="utf-8" standalone="no"?><svg xmlns:android="http://schemas.android.com/apk/res/android" height="36.0" width="36.0" xmlns="http://www.w3.org/2000/svg">
    <path d="M33,18 A14.99442,14.99442,0,0,1,20.55,32.775 L20.55,22.2 L23.85,22.2 L24.525,18 L20.55,18 L20.55,15.075 C20.55,13.875,21,12.975,22.8,12.975 L24.75,12.975 L24.75,9.15 A24.53524,24.53524,0,0,0,21.45,8.85 C18,8.85,15.6,10.95,15.6,14.7 L15.6,18 L11.85,18 L11.85,22.2 L15.6,22.2 L15.6,32.805 A14.99919,14.99919,0,1,1,33,18 Z" fill="#000000" fill-opacity="1.0"/>
</svg>