<?xml version="1.0" encoding="utf-8" standalone="no"?><svg xmlns:aapt="http://schemas.android.com/aapt" xmlns:android="http://schemas.android.com/apk/res/android" height="1080.0" width="1080.0" xmlns="http://www.w3.org/2000/svg">
    <g transform="translate(96.0, 96.0)">
        <path android:fillAlpha="0.7372549" android:strokeAlpha="0.7372549" d="M453.5 0L455 0.5L1 453.5L0.5 455L0 453.5L453.5 0Z" fill="#ffffff" fill-opacity="1.0" stroke="#ffffffff" stroke-width="1.0"/>
        <path android:fillAlpha="0.7372549" android:strokeAlpha="0.7372549" d="M456.5 2L886.5 433L456.5 2Z" fill="#ffffff" fill-opacity="1.0" stroke="#ffffffff" stroke-width="1.0"/>
        <path android:fillAlpha="0.7372549" android:strokeAlpha="0.7372549" d="M433.5 178L336.5 276L433.5 178Z" fill="#ffffff" fill-opacity="1.0" stroke="#ffffffff" stroke-width="1.0"/>
        <path android:fillAlpha="0.7372549" android:strokeAlpha="0.7372549" d="M435.5 178L530.5 274L435.5 178Z" fill="#ffffff" fill-opacity="1.0" stroke="#ffffffff" stroke-width="1.0"/>
        <path android:fillAlpha="0.7372549" android:strokeAlpha="0.7372549" d="M433.5 218L377 275.5L377 277.5L433.5 334L435.5 334L492 277.5L492 275.5L435 218.5L493 275.5L493 277.5L435.5 335L433.5 335L376 277.5L376 275.5L433.5 218Z" fill="#ffffff" fill-opacity="1.0" stroke="#ffffffff" stroke-width="1.0"/>
        <path android:fillAlpha="0.7372549" android:strokeAlpha="0.7372549" d="M532.5 275L533 277.5L435.5 375L433.5 375L336.5 277L433.5 374L435.5 374L532 277.5L532.5 275Z" fill="#ffffff" fill-opacity="1.0" stroke="#ffffffff" stroke-width="1.0"/>
        <path android:fillAlpha="0.7372549" android:strokeAlpha="0.7372549" d="M631.5 296L633 296.5L297 631.5L296.5 633L296 631.5L631.5 296Z" fill="#ffffff" fill-opacity="1.0" stroke="#ffffffff" stroke-width="1.0"/>
        <path android:fillAlpha="0.7372549" android:strokeAlpha="0.7372549" d="M634.5 298L708.5 373L634.5 298Z" fill="#ffffff" fill-opacity="1.0" stroke="#ffffffff" stroke-width="1.0"/>
        <path android:fillAlpha="0.7372549" android:strokeAlpha="0.7372549" d="M275.5 336L277.5 336L375 433.5L375 435.5L277.5 533L275.5 533L178 435.5L275.5 532L277.5 532L374 435.5L374 433.5L277.5 337L275.5 337L178.5 434L275.5 336Z" fill="#ffffff" fill-opacity="1.0" stroke="#ffffffff" stroke-width="1.0"/>
        <path android:fillAlpha="0.7372549" android:strokeAlpha="0.7372549" d="M631.5 336L633.5 336L671 373.5L671 376.5L376.5 671L373.5 671L336 633.5L336 631.5L631.5 336ZM632 337L337 632L337 634L339 634L373 669Q372 672 377 670L383 663L404 643L414 632L436 611L444 602L466 581L476 570L497 550L507 539L528 519L537 509L558 489L588 458L591 456L599 447L621 426L629 417L651 396L670 376L670 373L669 373L634 339Q635 336 632 337Z" fill="#ffffff" fill-opacity="1.0" stroke="#ffffffff" stroke-width="1.0"/>
        <path android:fillAlpha="0.7372549" android:strokeAlpha="0.7372549" d="M275.5 376L277.5 376L335 433.5L335 435.5L277.5 493L275.5 493L218 435.5L275.5 492L277.5 492L334 435.5L334 433.5L277.5 377L275.5 377L218.5 434L275.5 376Z" fill="#ffffff" fill-opacity="1.0" stroke="#ffffffff" stroke-width="1.0"/>
        <path android:fillAlpha="0.7372549" android:strokeAlpha="0.7372549" d="M710.5 376L376.5 711L710.5 376Z" fill="#ffffff" fill-opacity="1.0" stroke="#ffffffff" stroke-width="1.0"/>
        <path android:fillAlpha="0.7372549" android:strokeAlpha="0.7372549" d="M2.5 456L432.5 887L2.5 456Z" fill="#ffffff" fill-opacity="1.0" stroke="#ffffffff" stroke-width="1.0"/>
        <path android:fillAlpha="0.7372549" android:strokeAlpha="0.7372549" d="M298.5 634L372.5 709L298.5 634Z" fill="#ffffff" fill-opacity="1.0" stroke="#ffffffff" stroke-width="1.0"/>
        <path d="M453.5 1Q456.8 -0.1 456 2.5L886.5 433L888 433L888 435.5L435.5 888Q432.2 889.1 433 886.5L2.5 456L1 456L1 453.5L453.5 1ZM434 178L336 276L336 278L434 375L436 375L533 278L533 276L436 178L434 178ZM632 296L296 633L375 711L377 711L711 377L711 375L632 296ZM276 336L178 434L178 436L276 533L278 533L375 436L375 434L278 336L276 336Z" fill="#ffffff" fill-opacity="1.0" stroke="#ffffffff" stroke-width="1.0"/>
        <path d="M434.5 218L492 275.5L492 277.5L435.5 334L433.5 334L377 277.5L377 275.5L434.5 218Z" fill="#ffffff" fill-opacity="1.0" stroke="#ffffffff" stroke-width="1.0"/>
        <path d="M631.5 337Q634.8 335.9 634 338.5L668.5 373L670 373L670 375.5L650.5 396L629 416.5L620.5 426L599 446.5L590.5 456L587.5 458L557.5 489L537 508.5L527.5 519L507 538.5L496.5 550L476 569.5L465.5 581L444 601.5L435.5 611L414 631.5L403.5 643L383 662.5L376.5 670Q372.1 671.5 373 668.5L338.5 634L337 634L337 631.5L631.5 337Z" fill="#ffffff" fill-opacity="1.0" stroke="#ffffffff" stroke-width="1.0"/>
        <path d="M275.5 377L277.5 377L334 433.5L334 435.5L277.5 492L275.5 492L218 434.5L275.5 377Z" fill="#ffffff" fill-opacity="1.0" stroke="#ffffffff" stroke-width="1.0"/>
    </g>
</svg>