<?xml version="1.0" encoding="utf-8" standalone="no"?><svg xmlns:aapt="http://schemas.android.com/aapt" xmlns:android="http://schemas.android.com/apk/res/android" height="181.0" width="181.0" xmlns="http://www.w3.org/2000/svg">
    <path d="M32.5 23L31.5 25L32.5 23Z" fill="#000000" fill-opacity="1.0" stroke="#ff000000" stroke-width="1.0"/>
    <path d="M148.5 23L149.5 25L148.5 23Z" fill="#000000" fill-opacity="1.0" stroke="#ff000000" stroke-width="1.0"/>
    <path d="M151.5 26L157.5 33L151.5 26Z" fill="#000000" fill-opacity="1.0" stroke="#ff000000" stroke-width="1.0"/>
    <path d="M24.5 31L23.5 33L24.5 31Z" fill="#000000" fill-opacity="1.0" stroke="#ff000000" stroke-width="1.0"/>
    <path d="M42.5 35L35.5 43L42.5 35Z" fill="#000000" fill-opacity="1.0" stroke="#ff000000" stroke-width="1.0"/>
    <path d="M55.5 44L54.5 46L55.5 44Z" fill="#000000" fill-opacity="1.0" stroke="#ff000000" stroke-width="1.0"/>
    <path d="M86.5 125L87.5 127L86.5 125Z" fill="#000000" fill-opacity="1.0" stroke="#ff000000" stroke-width="1.0"/>
    <path d="M33.5 139L38.5 145L33.5 139Z" fill="#000000" fill-opacity="1.0" stroke="#ff000000" stroke-width="1.0"/>
    <path d="M144.5 142L139.5 148L144.5 142Z" fill="#000000" fill-opacity="1.0" stroke="#ff000000" stroke-width="1.0"/>
    <path d="M79.5 144L77.5 147L79.5 144Z" fill="#000000" fill-opacity="1.0" stroke="#ff000000" stroke-width="1.0"/>
    <path d="M159.5 149L158.5 151L159.5 149Z" fill="#000000" fill-opacity="1.0" stroke="#ff000000" stroke-width="1.0"/>
    <path d="M147.5 161L146.5 163L147.5 161Z" fill="#000000" fill-opacity="1.0" stroke="#ff000000" stroke-width="1.0"/>
    <path d="M86.5 2L104.5 3L120.5 7L135.5 14L151 25L151 26.5L161 36.5L172 55.5L178 76.5L179 99.5L178 100.5L178 108.5L176 117.5L169 135.5Q160.9 150.4 148.5 161Q137.3 171.3 120.5 176L109.5 178L96.5 178L81.5 175L66.5 168L65.5 169L54.5 169Q31.9 164.1 20 148.5Q9.8 136.2 5 118.5L2 103.5L2 79.5Q8.1 44.1 30.5 25Q41.2 15.2 55.5 9L71.5 4L85.5 3L86.5 2ZM82 18L63 23L43 35Q30 46 23 62L19 74L18 86L17 87L17 97L18 98L18 106L20 115Q24 129 33 140L47 150L48 150L39 134L36 125L33 108Q31 70 48 52Q60 38 81 33L100 33L105 34Q117 38 126 45Q141 59 146 84L146 102L144 112Q140 125 132 134Q126 141 116 145L108 147L98 147L87 160L96 162L112 162L117 161Q130 157 140 148L153 132L161 113L163 102L163 83L160 69Q156 55 148 46Q137 31 119 23L99 18L82 18ZM87 48L75 51L65 57Q52 67 49 87Q46 132 71 151L78 147L82 142L73 132L68 122L66 112L66 88L69 77L73 70Q77 64 85 62Q97 60 103 65L109 74L112 87L111 112L106 131L115 128L126 115L129 107L130 94L131 93L130 92L129 80L122 65Q116 56 106 51L94 48L87 48ZM90 76L88 77L83 83L81 91L81 112L86 126Q87 128 91 127L95 118L96 107L97 106Q99 88 94 79L90 76Z" fill="#000000" fill-opacity="1.0" stroke="#ff000000" stroke-width="1.0"/>
    <path d="M79.5 2L82 2.5L79.5 3L79.5 2Z" fill="#000000" fill-opacity="1.0" stroke="#ff000000" stroke-width="1.0"/>
    <path d="M84.5 18L96 18.5L84.5 19L84.5 18Z" fill="#000000" fill-opacity="1.0" stroke="#ff000000" stroke-width="1.0"/>
    <path d="M35.5 20L34.5 22L35.5 20Z" fill="#000000" fill-opacity="1.0" stroke="#ff000000" stroke-width="1.0"/>
    <path d="M84.5 32L87 32.5L84.5 33L84.5 32Z" fill="#000000" fill-opacity="1.0" stroke="#ff000000" stroke-width="1.0"/>
    <path d="M93.5 32L97 32.5L93.5 33L93.5 32Z" fill="#000000" fill-opacity="1.0" stroke="#ff000000" stroke-width="1.0"/>
    <path d="M137.5 35L138.5 37L137.5 35Z" fill="#000000" fill-opacity="1.0" stroke="#ff000000" stroke-width="1.0"/>
    <path d="M144.5 42L145.5 44L144.5 42Z" fill="#000000" fill-opacity="1.0" stroke="#ff000000" stroke-width="1.0"/>
    <path d="M34.5 44L33.5 46L34.5 44Z" fill="#000000" fill-opacity="1.0" stroke="#ff000000" stroke-width="1.0"/>
    <path d="M51.5 47L49.5 50L51.5 47Z" fill="#000000" fill-opacity="1.0" stroke="#ff000000" stroke-width="1.0"/>
    <path d="M1.5 84L2 88.5L1 88.5L1.5 84Z" fill="#000000" fill-opacity="1.0" stroke="#ff000000" stroke-width="1.0"/>
    <path d="M162.5 84L163 86.5L162 86.5L162.5 84Z" fill="#000000" fill-opacity="1.0" stroke="#ff000000" stroke-width="1.0"/>
    <path d="M146.5 88L147 96.5L146 96.5L146.5 88Z" fill="#000000" fill-opacity="1.0" stroke="#ff000000" stroke-width="1.0"/>
    <path d="M96.5 89L97 92.5L96 92.5L96.5 89Z" fill="#000000" fill-opacity="1.0" stroke="#ff000000" stroke-width="1.0"/>
    <path d="M65.5 90L66 92.5L65 92.5L65.5 90Z" fill="#000000" fill-opacity="1.0" stroke="#ff000000" stroke-width="1.0"/>
    <path d="M1.5 95L2 99.5L1 99.5L1.5 95Z" fill="#000000" fill-opacity="1.0" stroke="#ff000000" stroke-width="1.0"/>
    <path d="M96.5 96L97 101.5L96 101.5L96.5 96Z" fill="#000000" fill-opacity="1.0" stroke="#ff000000" stroke-width="1.0"/>
    <path d="M162.5 97L163 99.5L162 99.5L162.5 97Z" fill="#000000" fill-opacity="1.0" stroke="#ff000000" stroke-width="1.0"/>
    <path d="M49.5 105L50 107.5L49 107.5L49.5 105Z" fill="#000000" fill-opacity="1.0" stroke="#ff000000" stroke-width="1.0"/>
    <path d="M65.5 105L66 107.5L65 107.5L65.5 105Z" fill="#000000" fill-opacity="1.0" stroke="#ff000000" stroke-width="1.0"/>
    <path d="M116.5 125L115.5 127L116.5 125Z" fill="#000000" fill-opacity="1.0" stroke="#ff000000" stroke-width="1.0"/>
    <path d="M75.5 135L76.5 137L75.5 135Z" fill="#000000" fill-opacity="1.0" stroke="#ff000000" stroke-width="1.0"/>
    <path d="M79.5 139L81.5 142L79.5 139Z" fill="#000000" fill-opacity="1.0" stroke="#ff000000" stroke-width="1.0"/>
    <path d="M64.5 144L69.5 150L64.5 144Z" fill="#000000" fill-opacity="1.0" stroke="#ff000000" stroke-width="1.0"/>
    <path d="M97.5 147L104 147.5L97.5 148L97.5 147Z" fill="#000000" fill-opacity="1.0" stroke="#ff000000" stroke-width="1.0"/>
    <path d="M136.5 149L135.5 151L136.5 149Z" fill="#000000" fill-opacity="1.0" stroke="#ff000000" stroke-width="1.0"/>
    <path d="M107.5 161L110 161.5L107.5 162L107.5 161Z" fill="#000000" fill-opacity="1.0" stroke="#ff000000" stroke-width="1.0"/>
    <path d="M82.5 2L85 2.5L82.5 3L82.5 2Z" fill="#000000" fill-opacity="1.0" stroke="#ff000000" stroke-width="1.0"/>
    <path d="M95.5 2L99 2.5L95.5 3L95.5 2Z" fill="#000000" fill-opacity="1.0" stroke="#ff000000" stroke-width="1.0"/>
    <path d="M96.5 18L99 18.5L96.5 19L96.5 18Z" fill="#000000" fill-opacity="1.0" stroke="#ff000000" stroke-width="1.0"/>
    <path d="M87.5 32L93 32.5L87.5 33L87.5 32Z" fill="#000000" fill-opacity="1.0" stroke="#ff000000" stroke-width="1.0"/>
    <path d="M22.5 33L21.5 35L22.5 33Z" fill="#000000" fill-opacity="1.0" stroke="#ff000000" stroke-width="1.0"/>
    <path d="M87.5 48L94 48.5L87.5 49L87.5 48Z" fill="#000000" fill-opacity="1.0" stroke="#ff000000" stroke-width="1.0"/>
    <path d="M46.5 53L45.5 55L46.5 53Z" fill="#000000" fill-opacity="1.0" stroke="#ff000000" stroke-width="1.0"/>
    <path d="M63.5 58L60.5 62L63.5 58Z" fill="#000000" fill-opacity="1.0" stroke="#ff000000" stroke-width="1.0"/>
    <path d="M88.5 61L92 61.5L88.5 62L88.5 61Z" fill="#000000" fill-opacity="1.0" stroke="#ff000000" stroke-width="1.0"/>
    <path d="M92.5 77L93.5 79L92.5 77Z" fill="#000000" fill-opacity="1.0" stroke="#ff000000" stroke-width="1.0"/>
    <path d="M17.5 87L18 96.5L17 96.5L17.5 87Z" fill="#000000" fill-opacity="1.0" stroke="#ff000000" stroke-width="1.0"/>
    <path d="M1.5 89L2 94.5L1 94.5L1.5 89Z" fill="#000000" fill-opacity="1.0" stroke="#ff000000" stroke-width="1.0"/>
    <path d="M65.5 93L66 104.5L65 104.5L65.5 93Z" fill="#000000" fill-opacity="1.0" stroke="#ff000000" stroke-width="1.0"/>
    <path d="M111.5 101L112 104.5L111 104.5L111.5 101Z" fill="#000000" fill-opacity="1.0" stroke="#ff000000" stroke-width="1.0"/>
    <path d="M96.5 102L97 104.5L96 104.5L96.5 102Z" fill="#000000" fill-opacity="1.0" stroke="#ff000000" stroke-width="1.0"/>
    <path d="M91.5 125L90.5 127L91.5 125Z" fill="#000000" fill-opacity="1.0" stroke="#ff000000" stroke-width="1.0"/>
    <path d="M77.5 137L78.5 139L77.5 137Z" fill="#000000" fill-opacity="1.0" stroke="#ff000000" stroke-width="1.0"/>
    <path d="M155.5 154L151.5 159L155.5 154Z" fill="#000000" fill-opacity="1.0" stroke="#ff000000" stroke-width="1.0"/>
</svg>