<?xml version="1.0" encoding="utf-8" standalone="no"?><svg xmlns:aapt="http://schemas.android.com/aapt" xmlns:android="http://schemas.android.com/apk/res/android" height="512.0" width="512.0" xmlns="http://www.w3.org/2000/svg">
    <path android:fillAlpha="0.4980392" android:strokeAlpha="0.4980392" d="M335.5 109Q337.8 108.3 337 110.5L337.5 112Q336 108.5 334.5 111L262.5 154L263.5 152L335.5 109Z" fill="#000000" fill-opacity="1.0" stroke="#ff000000" stroke-width="1.0"/>
    <path android:fillAlpha="0.4980392" android:strokeAlpha="0.4980392" d="M338.5 113L341 116.5L339 115.5L338.5 113Z" fill="#000000" fill-opacity="1.0" stroke="#ff000000" stroke-width="1.0"/>
    <path android:fillAlpha="0.4980392" android:strokeAlpha="0.4980392" d="M341.5 118L439 279.5L437 278.5L341.5 118Z" fill="#000000" fill-opacity="1.0" stroke="#ff000000" stroke-width="1.0"/>
    <path android:fillAlpha="0.4980392" android:strokeAlpha="0.4980392" d="M260.5 154L259.5 156L257.5 157L258.5 155L260.5 154Z" fill="#000000" fill-opacity="1.0" stroke="#ff000000" stroke-width="1.0"/>
    <path android:fillAlpha="0.4980392" android:strokeAlpha="0.4980392" d="M255.5 157L254.5 159L238 168L246 182.5L244 181.5L237 168.5L255.5 157Z" fill="#000000" fill-opacity="1.0" stroke="#ff000000" stroke-width="1.0"/>
    <path android:fillAlpha="0.4980392" android:strokeAlpha="0.4980392" d="M246.5 184L249 187.5L247 186.5L246.5 184Z" fill="#000000" fill-opacity="1.0" stroke="#ff000000" stroke-width="1.0"/>
    <path android:fillAlpha="0.4980392" android:strokeAlpha="0.4980392" d="M249.5 189L252 192.5L250 191.5L249.5 189Z" fill="#000000" fill-opacity="1.0" stroke="#ff000000" stroke-width="1.0"/>
    <path android:fillAlpha="0.4980392" android:strokeAlpha="0.4980392" d="M252.5 194L255 197.5L253 196.5L252.5 194Z" fill="#000000" fill-opacity="1.0" stroke="#ff000000" stroke-width="1.0"/>
    <path android:fillAlpha="0.4980392" android:strokeAlpha="0.4980392" d="M255.5 199L258 202.5L256 201.5L255.5 199Z" fill="#000000" fill-opacity="1.0" stroke="#ff000000" stroke-width="1.0"/>
    <path android:fillAlpha="0.4980392" android:strokeAlpha="0.4980392" d="M258.5 204L261 207.5L259 206.5L258.5 204Z" fill="#000000" fill-opacity="1.0" stroke="#ff000000" stroke-width="1.0"/>
    <path android:fillAlpha="0.4980392" android:strokeAlpha="0.4980392" d="M261.5 209L264 212.5L262 211.5L261.5 209Z" fill="#000000" fill-opacity="1.0" stroke="#ff000000" stroke-width="1.0"/>
    <path android:fillAlpha="0.4980392" android:strokeAlpha="0.4980392" d="M216.5 213L219 214.5L331 403L196.5 403L194 400.5L118 272L195.5 226L194.5 228L119 273.5L196.5 402L330 401.5L218 214L202.5 223L203.5 221L216.5 213Z" fill="#000000" fill-opacity="1.0" stroke="#ff000000" stroke-width="1.0"/>
    <path android:fillAlpha="0.4980392" android:strokeAlpha="0.4980392" d="M264.5 214L377 402L510.5 402L511 400.5L481 351.5L483 352.5L512 400.5L512 403L377.5 403L376 401.5L264.5 214Z" fill="#000000" fill-opacity="1.0" stroke="#ff000000" stroke-width="1.0"/>
    <path android:fillAlpha="0.4980392" android:strokeAlpha="0.4980392" d="M200.5 223L199.5 225L197.5 226L198.5 224L200.5 223Z" fill="#000000" fill-opacity="1.0" stroke="#ff000000" stroke-width="1.0"/>
    <path android:fillAlpha="0.4980392" android:strokeAlpha="0.4980392" d="M439.5 281L442 284.5L440 283.5L439.5 281Z" fill="#000000" fill-opacity="1.0" stroke="#ff000000" stroke-width="1.0"/>
    <path android:fillAlpha="0.4980392" android:strokeAlpha="0.4980392" d="M442.5 286L445 289.5L443 288.5L442.5 286Z" fill="#000000" fill-opacity="1.0" stroke="#ff000000" stroke-width="1.0"/>
    <path android:fillAlpha="0.4980392" android:strokeAlpha="0.4980392" d="M445.5 291L448 294.5L446 293.5L445.5 291Z" fill="#000000" fill-opacity="1.0" stroke="#ff000000" stroke-width="1.0"/>
    <path android:fillAlpha="0.4980392" android:strokeAlpha="0.4980392" d="M448.5 296L451 299.5L449 298.5L448.5 296Z" fill="#000000" fill-opacity="1.0" stroke="#ff000000" stroke-width="1.0"/>
    <path android:fillAlpha="0.4980392" android:strokeAlpha="0.4980392" d="M451.5 301L454 304.5L452 303.5L451.5 301Z" fill="#000000" fill-opacity="1.0" stroke="#ff000000" stroke-width="1.0"/>
    <path android:fillAlpha="0.4980392" android:strokeAlpha="0.4980392" d="M454.5 306L457 309.5L455 308.5L454.5 306Z" fill="#000000" fill-opacity="1.0" stroke="#ff000000" stroke-width="1.0"/>
    <path android:fillAlpha="0.4980392" android:strokeAlpha="0.4980392" d="M457.5 311L460 314.5L458 313.5L457.5 311Z" fill="#000000" fill-opacity="1.0" stroke="#ff000000" stroke-width="1.0"/>
    <path android:fillAlpha="0.4980392" android:strokeAlpha="0.4980392" d="M460.5 316L463 319.5L461 318.5L460.5 316Z" fill="#000000" fill-opacity="1.0" stroke="#ff000000" stroke-width="1.0"/>
    <path android:fillAlpha="0.4980392" android:strokeAlpha="0.4980392" d="M97.5 318Q100.8 316.9 100 319.5L134 375.5L132 374.5L98.5 319L74.5 333L75.5 331L97.5 318Z" fill="#000000" fill-opacity="1.0" stroke="#ff000000" stroke-width="1.0"/>
    <path android:fillAlpha="0.4980392" android:strokeAlpha="0.4980392" d="M463.5 321L466 324.5L464 323.5L463.5 321Z" fill="#000000" fill-opacity="1.0" stroke="#ff000000" stroke-width="1.0"/>
    <path android:fillAlpha="0.4980392" android:strokeAlpha="0.4980392" d="M466.5 326L469 329.5L467 328.5L466.5 326Z" fill="#000000" fill-opacity="1.0" stroke="#ff000000" stroke-width="1.0"/>
    <path android:fillAlpha="0.4980392" android:strokeAlpha="0.4980392" d="M469.5 331L472 334.5L470 333.5L469.5 331Z" fill="#000000" fill-opacity="1.0" stroke="#ff000000" stroke-width="1.0"/>
    <path android:fillAlpha="0.4980392" android:strokeAlpha="0.4980392" d="M72.5 333L71.5 335L69.5 336L70.5 334L72.5 333Z" fill="#000000" fill-opacity="1.0" stroke="#ff000000" stroke-width="1.0"/>
    <path android:fillAlpha="0.4980392" android:strokeAlpha="0.4980392" d="M67.5 336L66.5 338L64.5 339L65.5 337L67.5 336Z" fill="#000000" fill-opacity="1.0" stroke="#ff000000" stroke-width="1.0"/>
    <path android:fillAlpha="0.4980392" android:strokeAlpha="0.4980392" d="M472.5 336L475 339.5L473 338.5L472.5 336Z" fill="#000000" fill-opacity="1.0" stroke="#ff000000" stroke-width="1.0"/>
    <path android:fillAlpha="0.4980392" android:strokeAlpha="0.4980392" d="M62.5 339L61.5 341L59.5 342L60.5 340L62.5 339Z" fill="#000000" fill-opacity="1.0" stroke="#ff000000" stroke-width="1.0"/>
    <path android:fillAlpha="0.4980392" android:strokeAlpha="0.4980392" d="M475.5 341L478 344.5L476 343.5L475.5 341Z" fill="#000000" fill-opacity="1.0" stroke="#ff000000" stroke-width="1.0"/>
    <path android:fillAlpha="0.4980392" android:strokeAlpha="0.4980392" d="M57.5 342L56.5 344L54.5 345L55.5 343L57.5 342Z" fill="#000000" fill-opacity="1.0" stroke="#ff000000" stroke-width="1.0"/>
    <path android:fillAlpha="0.4980392" android:strokeAlpha="0.4980392" d="M52.5 345L51.5 347L49.5 348L50.5 346L52.5 345Z" fill="#000000" fill-opacity="1.0" stroke="#ff000000" stroke-width="1.0"/>
    <path android:fillAlpha="0.4980392" android:strokeAlpha="0.4980392" d="M478.5 346L481 349.5L479 348.5L478.5 346Z" fill="#000000" fill-opacity="1.0" stroke="#ff000000" stroke-width="1.0"/>
    <path android:fillAlpha="0.4980392" android:strokeAlpha="0.4980392" d="M47.5 348L46.5 350L44.5 351L45.5 349L47.5 348Z" fill="#000000" fill-opacity="1.0" stroke="#ff000000" stroke-width="1.0"/>
    <path android:fillAlpha="0.4980392" android:strokeAlpha="0.4980392" d="M42.5 351L41.5 353L0.5 377L0.5 376L42.5 351Z" fill="#000000" fill-opacity="1.0" stroke="#ff000000" stroke-width="1.0"/>
    <path android:fillAlpha="0.4980392" android:strokeAlpha="0.4980392" d="M134.5 377L137 380.5L135 379.5L134.5 377Z" fill="#000000" fill-opacity="1.0" stroke="#ff000000" stroke-width="1.0"/>
    <path android:fillAlpha="0.4980392" android:strokeAlpha="0.4980392" d="M0.5 378L13 398.5L11 397.5L0.5 378Z" fill="#000000" fill-opacity="1.0" stroke="#ff000000" stroke-width="1.0"/>
    <path android:fillAlpha="0.4980392" android:strokeAlpha="0.4980392" d="M137.5 382L140 385.5L138 384.5L137.5 382Z" fill="#000000" fill-opacity="1.0" stroke="#ff000000" stroke-width="1.0"/>
    <path android:fillAlpha="0.4980392" android:strokeAlpha="0.4980392" d="M140.5 387L143 390.5L141 389.5L140.5 387Z" fill="#000000" fill-opacity="1.0" stroke="#ff000000" stroke-width="1.0"/>
    <path android:fillAlpha="0.4980392" android:strokeAlpha="0.4980392" d="M143.5 392L146 395.5L144 394.5L143.5 392Z" fill="#000000" fill-opacity="1.0" stroke="#ff000000" stroke-width="1.0"/>
    <path android:fillAlpha="0.4980392" android:strokeAlpha="0.4980392" d="M146.5 397L149 400.5L147 399.5L146.5 397Z" fill="#000000" fill-opacity="1.0" stroke="#ff000000" stroke-width="1.0"/>
    <path android:fillAlpha="0.4980392" android:strokeAlpha="0.4980392" d="M13.5 400L15.5 402L150 402.5L14 403L13.5 400Z" fill="#000000" fill-opacity="1.0" stroke="#ff000000" stroke-width="1.0"/>
    <path android:fillAlpha="0.9960784" android:strokeAlpha="0.9960784" d="M336.5 111L337.5 113L336.5 111Z" fill="#000000" fill-opacity="1.0" stroke="#ff000000" stroke-width="1.0"/>
    <path android:fillAlpha="0.9960784" android:strokeAlpha="0.9960784" d="M339.5 116L340.5 118L339.5 116Z" fill="#000000" fill-opacity="1.0" stroke="#ff000000" stroke-width="1.0"/>
    <path android:fillAlpha="0.9960784" android:strokeAlpha="0.9960784" d="M342.5 121L343.5 123L342.5 121Z" fill="#000000" fill-opacity="1.0" stroke="#ff000000" stroke-width="1.0"/>
    <path android:fillAlpha="0.9960784" android:strokeAlpha="0.9960784" d="M345.5 126L346.5 128L345.5 126Z" fill="#000000" fill-opacity="1.0" stroke="#ff000000" stroke-width="1.0"/>
    <path android:fillAlpha="0.9960784" android:strokeAlpha="0.9960784" d="M306.5 127L305.5 129L306.5 127Z" fill="#000000" fill-opacity="1.0" stroke="#ff000000" stroke-width="1.0"/>
    <path android:fillAlpha="0.9960784" android:strokeAlpha="0.9960784" d="M301.5 130L300.5 132L301.5 130Z" fill="#000000" fill-opacity="1.0" stroke="#ff000000" stroke-width="1.0"/>
    <path android:fillAlpha="0.9960784" android:strokeAlpha="0.9960784" d="M348.5 131L349.5 133L348.5 131Z" fill="#000000" fill-opacity="1.0" stroke="#ff000000" stroke-width="1.0"/>
    <path android:fillAlpha="0.9960784" android:strokeAlpha="0.9960784" d="M296.5 133L295.5 135L296.5 133Z" fill="#000000" fill-opacity="1.0" stroke="#ff000000" stroke-width="1.0"/>
    <path android:fillAlpha="0.9960784" android:strokeAlpha="0.9960784" d="M291.5 136L290.5 138L291.5 136Z" fill="#000000" fill-opacity="1.0" stroke="#ff000000" stroke-width="1.0"/>
    <path android:fillAlpha="0.9960784" android:strokeAlpha="0.9960784" d="M351.5 136L352.5 138L351.5 136Z" fill="#000000" fill-opacity="1.0" stroke="#ff000000" stroke-width="1.0"/>
    <path android:fillAlpha="0.9960784" android:strokeAlpha="0.9960784" d="M286.5 139L285.5 141L286.5 139Z" fill="#000000" fill-opacity="1.0" stroke="#ff000000" stroke-width="1.0"/>
    <path android:fillAlpha="0.9960784" android:strokeAlpha="0.9960784" d="M354.5 141L355.5 143L354.5 141Z" fill="#000000" fill-opacity="1.0" stroke="#ff000000" stroke-width="1.0"/>
    <path android:fillAlpha="0.9960784" android:strokeAlpha="0.9960784" d="M281.5 142L280.5 144L281.5 142Z" fill="#000000" fill-opacity="1.0" stroke="#ff000000" stroke-width="1.0"/>
    <path android:fillAlpha="0.9960784" android:strokeAlpha="0.9960784" d="M276.5 145L275.5 147L276.5 145Z" fill="#000000" fill-opacity="1.0" stroke="#ff000000" stroke-width="1.0"/>
    <path android:fillAlpha="0.9960784" android:strokeAlpha="0.9960784" d="M357.5 146L358.5 148L357.5 146Z" fill="#000000" fill-opacity="1.0" stroke="#ff000000" stroke-width="1.0"/>
    <path android:fillAlpha="0.9960784" android:strokeAlpha="0.9960784" d="M271.5 148L270.5 150L271.5 148Z" fill="#000000" fill-opacity="1.0" stroke="#ff000000" stroke-width="1.0"/>
    <path android:fillAlpha="0.9960784" android:strokeAlpha="0.9960784" d="M266.5 151L265.5 153L266.5 151Z" fill="#000000" fill-opacity="1.0" stroke="#ff000000" stroke-width="1.0"/>
    <path android:fillAlpha="0.9960784" android:strokeAlpha="0.9960784" d="M360.5 151L361.5 153L360.5 151Z" fill="#000000" fill-opacity="1.0" stroke="#ff000000" stroke-width="1.0"/>
    <path android:fillAlpha="0.9960784" android:strokeAlpha="0.9960784" d="M261.5 154L260.5 156L261.5 154Z" fill="#000000" fill-opacity="1.0" stroke="#ff000000" stroke-width="1.0"/>
    <path android:fillAlpha="0.9960784" android:strokeAlpha="0.9960784" d="M363.5 156L364.5 158L363.5 156Z" fill="#000000" fill-opacity="1.0" stroke="#ff000000" stroke-width="1.0"/>
    <path android:fillAlpha="0.9960784" android:strokeAlpha="0.9960784" d="M256.5 157L255.5 159L256.5 157Z" fill="#000000" fill-opacity="1.0" stroke="#ff000000" stroke-width="1.0"/>
    <path android:fillAlpha="0.9960784" android:strokeAlpha="0.9960784" d="M366.5 161L367.5 163L366.5 161Z" fill="#000000" fill-opacity="1.0" stroke="#ff000000" stroke-width="1.0"/>
    <path android:fillAlpha="0.9960784" android:strokeAlpha="0.9960784" d="M369.5 166L370.5 168L369.5 166Z" fill="#000000" fill-opacity="1.0" stroke="#ff000000" stroke-width="1.0"/>
    <path android:fillAlpha="0.9960784" android:strokeAlpha="0.9960784" d="M372.5 171L373.5 173L372.5 171Z" fill="#000000" fill-opacity="1.0" stroke="#ff000000" stroke-width="1.0"/>
    <path android:fillAlpha="0.9960784" android:strokeAlpha="0.9960784" d="M240.5 173L241.5 175L240.5 173Z" fill="#000000" fill-opacity="1.0" stroke="#ff000000" stroke-width="1.0"/>
    <path android:fillAlpha="0.9960784" android:strokeAlpha="0.9960784" d="M243.5 178L244.5 180L243.5 178Z" fill="#000000" fill-opacity="1.0" stroke="#ff000000" stroke-width="1.0"/>
    <path android:fillAlpha="0.9960784" android:strokeAlpha="0.9960784" d="M246.5 183L247.5 185L246.5 183Z" fill="#000000" fill-opacity="1.0" stroke="#ff000000" stroke-width="1.0"/>
    <path android:fillAlpha="0.9960784" android:strokeAlpha="0.9960784" d="M249.5 188L250.5 190L249.5 188Z" fill="#000000" fill-opacity="1.0" stroke="#ff000000" stroke-width="1.0"/>
    <path android:fillAlpha="0.9960784" android:strokeAlpha="0.9960784" d="M252.5 193L253.5 195L252.5 193Z" fill="#000000" fill-opacity="1.0" stroke="#ff000000" stroke-width="1.0"/>
    <path android:fillAlpha="0.9960784" android:strokeAlpha="0.9960784" d="M255.5 198L256.5 200L255.5 198Z" fill="#000000" fill-opacity="1.0" stroke="#ff000000" stroke-width="1.0"/>
    <path android:fillAlpha="0.9960784" android:strokeAlpha="0.9960784" d="M258.5 203L259.5 205L258.5 203Z" fill="#000000" fill-opacity="1.0" stroke="#ff000000" stroke-width="1.0"/>
    <path android:fillAlpha="0.9960784" android:strokeAlpha="0.9960784" d="M261.5 208L262.5 210L261.5 208Z" fill="#000000" fill-opacity="1.0" stroke="#ff000000" stroke-width="1.0"/>
    <path android:fillAlpha="0.9960784" android:strokeAlpha="0.9960784" d="M264.5 213L265.5 215L264.5 213Z" fill="#000000" fill-opacity="1.0" stroke="#ff000000" stroke-width="1.0"/>
    <path android:fillAlpha="0.9960784" android:strokeAlpha="0.9960784" d="M216.5 214L218 214.5L215.5 216L216.5 214Z" fill="#000000" fill-opacity="1.0" stroke="#ff000000" stroke-width="1.0"/>
    <path android:fillAlpha="0.9960784" android:strokeAlpha="0.9960784" d="M211.5 217L210.5 219L211.5 217Z" fill="#000000" fill-opacity="1.0" stroke="#ff000000" stroke-width="1.0"/>
    <path android:fillAlpha="0.9960784" android:strokeAlpha="0.9960784" d="M219.5 218L220.5 220L219.5 218Z" fill="#000000" fill-opacity="1.0" stroke="#ff000000" stroke-width="1.0"/>
    <path android:fillAlpha="0.9960784" android:strokeAlpha="0.9960784" d="M206.5 220L205.5 222L206.5 220Z" fill="#000000" fill-opacity="1.0" stroke="#ff000000" stroke-width="1.0"/>
    <path android:fillAlpha="0.9960784" android:strokeAlpha="0.9960784" d="M201.5 223L200.5 225L201.5 223Z" fill="#000000" fill-opacity="1.0" stroke="#ff000000" stroke-width="1.0"/>
    <path android:fillAlpha="0.9960784" android:strokeAlpha="0.9960784" d="M222.5 223L223.5 225L222.5 223Z" fill="#000000" fill-opacity="1.0" stroke="#ff000000" stroke-width="1.0"/>
    <path android:fillAlpha="0.9960784" android:strokeAlpha="0.9960784" d="M196.5 226L195.5 228L196.5 226Z" fill="#000000" fill-opacity="1.0" stroke="#ff000000" stroke-width="1.0"/>
    <path android:fillAlpha="0.9960784" android:strokeAlpha="0.9960784" d="M225.5 228L226.5 230L225.5 228Z" fill="#000000" fill-opacity="1.0" stroke="#ff000000" stroke-width="1.0"/>
    <path android:fillAlpha="0.9960784" android:strokeAlpha="0.9960784" d="M228.5 233L229.5 235L228.5 233Z" fill="#000000" fill-opacity="1.0" stroke="#ff000000" stroke-width="1.0"/>
    <path android:fillAlpha="0.9960784" android:strokeAlpha="0.9960784" d="M231.5 238L232.5 240L231.5 238Z" fill="#000000" fill-opacity="1.0" stroke="#ff000000" stroke-width="1.0"/>
    <path android:fillAlpha="0.9960784" android:strokeAlpha="0.9960784" d="M234.5 243L235.5 245L234.5 243Z" fill="#000000" fill-opacity="1.0" stroke="#ff000000" stroke-width="1.0"/>
    <path android:fillAlpha="0.9960784" android:strokeAlpha="0.9960784" d="M237.5 248L238.5 250L237.5 248Z" fill="#000000" fill-opacity="1.0" stroke="#ff000000" stroke-width="1.0"/>
    <path android:fillAlpha="0.9960784" android:strokeAlpha="0.9960784" d="M240.5 253L241.5 255L240.5 253Z" fill="#000000" fill-opacity="1.0" stroke="#ff000000" stroke-width="1.0"/>
    <path android:fillAlpha="0.9960784" android:strokeAlpha="0.9960784" d="M243.5 258L244.5 260L243.5 258Z" fill="#000000" fill-opacity="1.0" stroke="#ff000000" stroke-width="1.0"/>
    <path android:fillAlpha="0.9960784" android:strokeAlpha="0.9960784" d="M246.5 263L247.5 265L246.5 263Z" fill="#000000" fill-opacity="1.0" stroke="#ff000000" stroke-width="1.0"/>
    <path android:fillAlpha="0.9960784" android:strokeAlpha="0.9960784" d="M128.5 267L127.5 269L128.5 267Z" fill="#000000" fill-opacity="1.0" stroke="#ff000000" stroke-width="1.0"/>
    <path android:fillAlpha="0.9960784" android:strokeAlpha="0.9960784" d="M249.5 268L250.5 270L249.5 268Z" fill="#000000" fill-opacity="1.0" stroke="#ff000000" stroke-width="1.0"/>
    <path android:fillAlpha="0.9960784" android:strokeAlpha="0.9960784" d="M123.5 270L122.5 272L123.5 270Z" fill="#000000" fill-opacity="1.0" stroke="#ff000000" stroke-width="1.0"/>
    <path android:fillAlpha="0.9960784" android:strokeAlpha="0.9960784" d="M120.5 272L119.5 274L120.5 272Z" fill="#000000" fill-opacity="1.0" stroke="#ff000000" stroke-width="1.0"/>
    <path android:fillAlpha="0.9960784" android:strokeAlpha="0.9960784" d="M252.5 273L253.5 275L252.5 273Z" fill="#000000" fill-opacity="1.0" stroke="#ff000000" stroke-width="1.0"/>
    <path android:fillAlpha="0.9960784" android:strokeAlpha="0.9960784" d="M437.5 279L438.5 281L437.5 279Z" fill="#000000" fill-opacity="1.0" stroke="#ff000000" stroke-width="1.0"/>
    <path android:fillAlpha="0.9960784" android:strokeAlpha="0.9960784" d="M440.5 284L441.5 286L440.5 284Z" fill="#000000" fill-opacity="1.0" stroke="#ff000000" stroke-width="1.0"/>
    <path android:fillAlpha="0.9960784" android:strokeAlpha="0.9960784" d="M443.5 289L444.5 291L443.5 289Z" fill="#000000" fill-opacity="1.0" stroke="#ff000000" stroke-width="1.0"/>
    <path android:fillAlpha="0.9960784" android:strokeAlpha="0.9960784" d="M446.5 294L447.5 296L446.5 294Z" fill="#000000" fill-opacity="1.0" stroke="#ff000000" stroke-width="1.0"/>
    <path android:fillAlpha="0.9960784" android:strokeAlpha="0.9960784" d="M449.5 299L450.5 301L449.5 299Z" fill="#000000" fill-opacity="1.0" stroke="#ff000000" stroke-width="1.0"/>
    <path android:fillAlpha="0.9960784" android:strokeAlpha="0.9960784" d="M452.5 304L453.5 306L452.5 304Z" fill="#000000" fill-opacity="1.0" stroke="#ff000000" stroke-width="1.0"/>
    <path android:fillAlpha="0.9960784" android:strokeAlpha="0.9960784" d="M455.5 309L456.5 311L455.5 309Z" fill="#000000" fill-opacity="1.0" stroke="#ff000000" stroke-width="1.0"/>
    <path android:fillAlpha="0.9960784" android:strokeAlpha="0.9960784" d="M458.5 314L459.5 316L458.5 314Z" fill="#000000" fill-opacity="1.0" stroke="#ff000000" stroke-width="1.0"/>
    <path android:fillAlpha="0.9960784" android:strokeAlpha="0.9960784" d="M461.5 319L462.5 321L461.5 319Z" fill="#000000" fill-opacity="1.0" stroke="#ff000000" stroke-width="1.0"/>
    <path android:fillAlpha="0.9960784" android:strokeAlpha="0.9960784" d="M93.5 321L92.5 323L93.5 321Z" fill="#000000" fill-opacity="1.0" stroke="#ff000000" stroke-width="1.0"/>
    <path android:fillAlpha="0.9960784" android:strokeAlpha="0.9960784" d="M88.5 324L87.5 326L88.5 324Z" fill="#000000" fill-opacity="1.0" stroke="#ff000000" stroke-width="1.0"/>
    <path android:fillAlpha="0.9960784" android:strokeAlpha="0.9960784" d="M464.5 324L465.5 326L464.5 324Z" fill="#000000" fill-opacity="1.0" stroke="#ff000000" stroke-width="1.0"/>
    <path android:fillAlpha="0.9960784" android:strokeAlpha="0.9960784" d="M83.5 327L82.5 329L83.5 327Z" fill="#000000" fill-opacity="1.0" stroke="#ff000000" stroke-width="1.0"/>
    <path android:fillAlpha="0.9960784" android:strokeAlpha="0.9960784" d="M467.5 329L468.5 331L467.5 329Z" fill="#000000" fill-opacity="1.0" stroke="#ff000000" stroke-width="1.0"/>
    <path android:fillAlpha="0.9960784" android:strokeAlpha="0.9960784" d="M78.5 330L77.5 332L78.5 330Z" fill="#000000" fill-opacity="1.0" stroke="#ff000000" stroke-width="1.0"/>
    <path android:fillAlpha="0.9960784" android:strokeAlpha="0.9960784" d="M73.5 333L72.5 335L73.5 333Z" fill="#000000" fill-opacity="1.0" stroke="#ff000000" stroke-width="1.0"/>
    <path android:fillAlpha="0.9960784" android:strokeAlpha="0.9960784" d="M470.5 334L471.5 336L470.5 334Z" fill="#000000" fill-opacity="1.0" stroke="#ff000000" stroke-width="1.0"/>
    <path android:fillAlpha="0.9960784" android:strokeAlpha="0.9960784" d="M68.5 336L67.5 338L68.5 336Z" fill="#000000" fill-opacity="1.0" stroke="#ff000000" stroke-width="1.0"/>
    <path android:fillAlpha="0.9960784" android:strokeAlpha="0.9960784" d="M63.5 339L62.5 341L63.5 339Z" fill="#000000" fill-opacity="1.0" stroke="#ff000000" stroke-width="1.0"/>
    <path android:fillAlpha="0.9960784" android:strokeAlpha="0.9960784" d="M473.5 339L474.5 341L473.5 339Z" fill="#000000" fill-opacity="1.0" stroke="#ff000000" stroke-width="1.0"/>
    <path android:fillAlpha="0.9960784" android:strokeAlpha="0.9960784" d="M58.5 342L57.5 344L58.5 342Z" fill="#000000" fill-opacity="1.0" stroke="#ff000000" stroke-width="1.0"/>
    <path android:fillAlpha="0.9960784" android:strokeAlpha="0.9960784" d="M476.5 344L477.5 346L476.5 344Z" fill="#000000" fill-opacity="1.0" stroke="#ff000000" stroke-width="1.0"/>
    <path android:fillAlpha="0.9960784" android:strokeAlpha="0.9960784" d="M53.5 345L52.5 347L53.5 345Z" fill="#000000" fill-opacity="1.0" stroke="#ff000000" stroke-width="1.0"/>
    <path android:fillAlpha="0.9960784" android:strokeAlpha="0.9960784" d="M48.5 348L47.5 350L48.5 348Z" fill="#000000" fill-opacity="1.0" stroke="#ff000000" stroke-width="1.0"/>
    <path android:fillAlpha="0.9960784" android:strokeAlpha="0.9960784" d="M479.5 349L480.5 351L479.5 349Z" fill="#000000" fill-opacity="1.0" stroke="#ff000000" stroke-width="1.0"/>
    <path android:fillAlpha="0.9960784" android:strokeAlpha="0.9960784" d="M43.5 351L42.5 353L43.5 351Z" fill="#000000" fill-opacity="1.0" stroke="#ff000000" stroke-width="1.0"/>
    <path android:fillAlpha="0.9960784" android:strokeAlpha="0.9960784" d="M482.5 354L483.5 356L482.5 354Z" fill="#000000" fill-opacity="1.0" stroke="#ff000000" stroke-width="1.0"/>
    <path android:fillAlpha="0.9960784" android:strokeAlpha="0.9960784" d="M485.5 359L486.5 361L485.5 359Z" fill="#000000" fill-opacity="1.0" stroke="#ff000000" stroke-width="1.0"/>
    <path android:fillAlpha="0.9960784" android:strokeAlpha="0.9960784" d="M488.5 364L489.5 366L488.5 364Z" fill="#000000" fill-opacity="1.0" stroke="#ff000000" stroke-width="1.0"/>
    <path android:fillAlpha="0.9960784" android:strokeAlpha="0.9960784" d="M491.5 369L492.5 371L491.5 369Z" fill="#000000" fill-opacity="1.0" stroke="#ff000000" stroke-width="1.0"/>
    <path android:fillAlpha="0.9960784" android:strokeAlpha="0.9960784" d="M494.5 374L495.5 376L494.5 374Z" fill="#000000" fill-opacity="1.0" stroke="#ff000000" stroke-width="1.0"/>
    <path android:fillAlpha="0.9960784" android:strokeAlpha="0.9960784" d="M132.5 375L133.5 377L132.5 375Z" fill="#000000" fill-opacity="1.0" stroke="#ff000000" stroke-width="1.0"/>
    <path android:fillAlpha="0.9960784" android:strokeAlpha="0.9960784" d="M497.5 379L498.5 381L497.5 379Z" fill="#000000" fill-opacity="1.0" stroke="#ff000000" stroke-width="1.0"/>
    <path android:fillAlpha="0.9960784" android:strokeAlpha="0.9960784" d="M135.5 380L136.5 382L135.5 380Z" fill="#000000" fill-opacity="1.0" stroke="#ff000000" stroke-width="1.0"/>
    <path android:fillAlpha="0.9960784" android:strokeAlpha="0.9960784" d="M183.5 380L184.5 382L183.5 380Z" fill="#000000" fill-opacity="1.0" stroke="#ff000000" stroke-width="1.0"/>
    <path android:fillAlpha="0.9960784" android:strokeAlpha="0.9960784" d="M500.5 384L501.5 386L500.5 384Z" fill="#000000" fill-opacity="1.0" stroke="#ff000000" stroke-width="1.0"/>
    <path android:fillAlpha="0.9960784" android:strokeAlpha="0.9960784" d="M138.5 385L139.5 387L138.5 385Z" fill="#000000" fill-opacity="1.0" stroke="#ff000000" stroke-width="1.0"/>
    <path android:fillAlpha="0.9960784" android:strokeAlpha="0.9960784" d="M186.5 385L187.5 387L186.5 385Z" fill="#000000" fill-opacity="1.0" stroke="#ff000000" stroke-width="1.0"/>
    <path android:fillAlpha="0.9960784" android:strokeAlpha="0.9960784" d="M321.5 388L322.5 390L321.5 388Z" fill="#000000" fill-opacity="1.0" stroke="#ff000000" stroke-width="1.0"/>
    <path android:fillAlpha="0.9960784" android:strokeAlpha="0.9960784" d="M503.5 389L504.5 391L503.5 389Z" fill="#000000" fill-opacity="1.0" stroke="#ff000000" stroke-width="1.0"/>
    <path android:fillAlpha="0.9960784" android:strokeAlpha="0.9960784" d="M141.5 390L142.5 392L141.5 390Z" fill="#000000" fill-opacity="1.0" stroke="#ff000000" stroke-width="1.0"/>
    <path android:fillAlpha="0.9960784" android:strokeAlpha="0.9960784" d="M189.5 390L190.5 392L189.5 390Z" fill="#000000" fill-opacity="1.0" stroke="#ff000000" stroke-width="1.0"/>
    <path android:fillAlpha="0.9960784" android:strokeAlpha="0.9960784" d="M324.5 393L325.5 395L324.5 393Z" fill="#000000" fill-opacity="1.0" stroke="#ff000000" stroke-width="1.0"/>
    <path android:fillAlpha="0.9960784" android:strokeAlpha="0.9960784" d="M506.5 394L507.5 396L506.5 394Z" fill="#000000" fill-opacity="1.0" stroke="#ff000000" stroke-width="1.0"/>
    <path android:fillAlpha="0.9960784" android:strokeAlpha="0.9960784" d="M144.5 395L145.5 397L144.5 395Z" fill="#000000" fill-opacity="1.0" stroke="#ff000000" stroke-width="1.0"/>
    <path android:fillAlpha="0.9960784" android:strokeAlpha="0.9960784" d="M192.5 395L193.5 397L192.5 395Z" fill="#000000" fill-opacity="1.0" stroke="#ff000000" stroke-width="1.0"/>
    <path android:fillAlpha="0.9960784" android:strokeAlpha="0.9960784" d="M327.5 398L328.5 400L327.5 398Z" fill="#000000" fill-opacity="1.0" stroke="#ff000000" stroke-width="1.0"/>
    <path android:fillAlpha="0.9960784" android:strokeAlpha="0.9960784" d="M13.5 399L14.5 401L13.5 399Z" fill="#000000" fill-opacity="1.0" stroke="#ff000000" stroke-width="1.0"/>
    <path android:fillAlpha="0.9960784" android:strokeAlpha="0.9960784" d="M509.5 399L510.5 401L509.5 399Z" fill="#000000" fill-opacity="1.0" stroke="#ff000000" stroke-width="1.0"/>
    <path android:fillAlpha="0.9960784" android:strokeAlpha="0.9960784" d="M147.5 400L148.5 402L147.5 400Z" fill="#000000" fill-opacity="1.0" stroke="#ff000000" stroke-width="1.0"/>
    <path android:fillAlpha="0.9960784" android:strokeAlpha="0.9960784" d="M195.5 400L196.5 402L195.5 400Z" fill="#000000" fill-opacity="1.0" stroke="#ff000000" stroke-width="1.0"/>
    <path d="M335.5 110L511 401.5L378.5 402L240 172.5L239 168L335.5 110Z" fill="#000000" fill-opacity="1.0" stroke="#ff000000" stroke-width="1.0"/>
    <path d="M216.5 215Q218.8 214.3 218 216.5L329 402L197.5 402L195 399.5L120 273.5L216.5 215Z" fill="#000000" fill-opacity="1.0" stroke="#ff000000" stroke-width="1.0"/>
    <path d="M98.5 319L148 401.5L15 402L1 377L98.5 319Z" fill="#000000" fill-opacity="1.0" stroke="#ff000000" stroke-width="1.0"/>
</svg>