<svg id="vector" xmlns="http://www.w3.org/2000/svg" width="192" height="192" viewBox="0 0 192 192"><defs><clipPath id="clip_path_0"><path d="M0,0h192v192h-192z"/></clipPath></defs><g id="g_0"><path fill="#00000000" d="M96,22V52M120,22V58M78,134V158C78,161.18 79.26,164.24 81.51,166.49C83.77,168.74 86.82,170 90,170H102C105.18,170 108.24,168.74 110.49,166.49C112.74,164.24 114,161.18 114,158V134M48,96V116C48,119.18 49.26,122.24 51.51,124.49C53.77,126.74 56.82,128 60,128H132C135.18,128 138.24,126.74 140.49,124.49C142.74,122.24 144,119.18 144,116V96.15L48,96ZM48,96V46C48,39.63 50.53,33.53 55.03,29.03C59.53,24.53 65.63,22 72,22H144V96H48Z" stroke-linejoin="round" stroke-width="12" stroke="#000000" stroke-linecap="round" clip-path="url(#clip_path_0)"/></g></svg>