<?xml version="1.0" encoding="utf-8" standalone="no"?><svg xmlns:android="http://schemas.android.com/apk/res/android" height="36.0" width="36.0" xmlns="http://www.w3.org/2000/svg">
    <path android:fillAlpha="0.9882" d="M18,2.9C9.7,2.9,3,9.6,3,18.1c0,8.3,6.7,15,15,15s15-6.7,15-15C33,9.6,26.3,2.9,18,2.9z M15,26.8 c0,0.4-0.2,0.7-0.7,0.7h-3c-0.2,0-0.7-0.2-0.7-0.7v-8.9c0-0.4,0.4-0.7,0.7-0.7h3c0.4,0,0.7,0.2,0.7,0.7V26.8z M15,12.7 c0,0.2-0.2,0.4-0.7,0.4h-3c-0.2,0-0.7-0.2-0.7-0.4V9.2c0-0.2,0.4-0.4,0.7-0.4h3C14.7,8.8,15,9,15,9.2V12.7z M19.5,27.5 c0,0-0.4,0-0.4-0.7c0,0,0-1.5,0-2.4c0-0.4,0-0.4,0-0.7c0-0.4,0.4-0.4,0.4-0.4c3-0.4,4.8-2.6,4.8-5.2c0-2.6-2.2-4.8-4.8-5 c0,0-0.4,0-0.4-0.4V9.2c0-0.4,0.4-0.4,0.4-0.4c4.6,0.2,8.9,3.9,8.9,9.3C28.4,23.8,23.7,27.2,19.5,27.5z" fill="#000000" fill-opacity="1.0"/>
</svg>