<?xml version="1.0" encoding="utf-8" standalone="no"?><svg xmlns:android="http://schemas.android.com/apk/res/android" height="36.0" width="36.0" xmlns="http://www.w3.org/2000/svg">
    <g>
        <g>
            <g>
                <g>
                    <path d="M26.856,15.27h-7.831L22.147,0,8.752,20.691h7.831l-3.123,15.27L26.856,15.27Zm-13.243,3.384l0.285-0.596,6.181-12.937-5.117,12.654s5.979,0.03,6.369,0.041l-0.26,0.586-5.752,12.948,4.704-12.654s-6.001-0.029-6.41-0.041Z" fill="#000000" fill-opacity="1.0"/>
                    <g>
                        <path d="M4.102,17.981c0-5.037,2.812-9.428,6.948-11.689l-1.238,5.016,4.25-6.231,1.484-1.916c-0.068,0.009-0.133,0.025-0.2,0.035l-0.196,0.034C7.987,4.327,2.48,10.516,2.48,17.981c0,5.662,3.167,10.598,7.822,13.131l0.544-1.554c-4.024-2.293-6.743-6.623-6.743-11.577Z" fill="#000000" fill-opacity="1.0"/>
                        <path d="M31.505,18.252c0,5.037-2.812,9.428-6.948,11.689l1.238-5.016-4.25,6.231-1.484,1.916c0.068-0.009,0.133-0.025,0.2-0.035l0.196-0.034c7.162-1.097,12.67-7.287,12.67-14.751,0-5.662-3.167-10.598-7.822-13.131l-0.544,1.554c4.024,2.293,6.743,6.623,6.743,11.577Z" fill="#000000" fill-opacity="1.0"/>
                    </g>
                </g>
                <path android:fillAlpha="0.0" android:strokeAlpha="0.0" d="M 18 0 C 27.941125497 0 36 8.05887450305 36 18 C 36 27.941125497 27.941125497 36 18 36 C 8.05887450305 36 0 27.941125497 0 18 C 0 8.05887450305 8.05887450305 0 18 0 Z" fill="#000000" fill-opacity="1.0" stroke-width="1.0"/>
            </g>
        </g>
    </g>
</svg>