<?xml version="1.0" encoding="utf-8" standalone="no"?><svg xmlns:aapt="http://schemas.android.com/aapt" xmlns:android="http://schemas.android.com/apk/res/android" height="500.0" width="500.0" xmlns="http://www.w3.org/2000/svg">
    <path android:fillAlpha="0.3137255" android:strokeAlpha="0.3137255" d="M242.5 5L260 5.5L242.5 6L242.5 5Z" fill="#000000" fill-opacity="1.0" stroke="#ff000000" stroke-width="1.0"/>
    <path android:fillAlpha="0.3137255" android:strokeAlpha="0.3137255" d="M231.5 6L234 6.5L231.5 7L231.5 6Z" fill="#000000" fill-opacity="1.0" stroke="#ff000000" stroke-width="1.0"/>
    <path android:fillAlpha="0.3137255" android:strokeAlpha="0.3137255" d="M268.5 6L271 6.5L268.5 7L268.5 6Z" fill="#000000" fill-opacity="1.0" stroke="#ff000000" stroke-width="1.0"/>
    <path android:fillAlpha="0.3137255" android:strokeAlpha="0.3137255" d="M340.5 31L341.5 33L340.5 31Z" fill="#000000" fill-opacity="1.0" stroke="#ff000000" stroke-width="1.0"/>
    <path android:fillAlpha="0.3137255" android:strokeAlpha="0.3137255" d="M350.5 38L351.5 40L350.5 38Z" fill="#000000" fill-opacity="1.0" stroke="#ff000000" stroke-width="1.0"/>
    <path android:fillAlpha="0.3137255" android:strokeAlpha="0.3137255" d="M354.5 41L355.5 43L354.5 41Z" fill="#000000" fill-opacity="1.0" stroke="#ff000000" stroke-width="1.0"/>
    <path android:fillAlpha="0.3137255" android:strokeAlpha="0.3137255" d="M145.5 43L144.5 45L145.5 43Z" fill="#000000" fill-opacity="1.0" stroke="#ff000000" stroke-width="1.0"/>
    <path android:fillAlpha="0.3137255" android:strokeAlpha="0.3137255" d="M361.5 47L363.5 50L361.5 47Z" fill="#000000" fill-opacity="1.0" stroke="#ff000000" stroke-width="1.0"/>
    <path android:fillAlpha="0.3137255" android:strokeAlpha="0.3137255" d="M137.5 50L128.5 60L137.5 50Z" fill="#000000" fill-opacity="1.0" stroke="#ff000000" stroke-width="1.0"/>
    <path android:fillAlpha="0.3137255" android:strokeAlpha="0.3137255" d="M373.5 59L375.5 62L373.5 59Z" fill="#000000" fill-opacity="1.0" stroke="#ff000000" stroke-width="1.0"/>
    <path android:fillAlpha="0.3137255" android:strokeAlpha="0.3137255" d="M123.5 65L122.5 67L123.5 65Z" fill="#000000" fill-opacity="1.0" stroke="#ff000000" stroke-width="1.0"/>
    <path android:fillAlpha="0.3137255" android:strokeAlpha="0.3137255" d="M119.5 70L118.5 72L119.5 70Z" fill="#000000" fill-opacity="1.0" stroke="#ff000000" stroke-width="1.0"/>
    <path android:fillAlpha="0.3137255" android:strokeAlpha="0.3137255" d="M383.5 71L384.5 73L383.5 71Z" fill="#000000" fill-opacity="1.0" stroke="#ff000000" stroke-width="1.0"/>
    <path android:fillAlpha="0.3137255" android:strokeAlpha="0.3137255" d="M116.5 74L115.5 76L116.5 74Z" fill="#000000" fill-opacity="1.0" stroke="#ff000000" stroke-width="1.0"/>
    <path android:fillAlpha="0.3137255" android:strokeAlpha="0.3137255" d="M388.5 78L389.5 80L388.5 78Z" fill="#000000" fill-opacity="1.0" stroke="#ff000000" stroke-width="1.0"/>
    <path android:fillAlpha="0.3137255" android:strokeAlpha="0.3137255" d="M263.5 105L264 186.5L263 186.5L263.5 105Z" fill="#000000" fill-opacity="1.0" stroke="#ff000000" stroke-width="1.0"/>
    <path android:fillAlpha="0.3137255" android:strokeAlpha="0.3137255" d="M413.5 157L412.5 159L413.5 157Z" fill="#000000" fill-opacity="1.0" stroke="#ff000000" stroke-width="1.0"/>
    <path android:fillAlpha="0.3137255" android:strokeAlpha="0.3137255" d="M85.5 159L86 175.5L85 175.5L85.5 159Z" fill="#000000" fill-opacity="1.0" stroke="#ff000000" stroke-width="1.0"/>
    <path android:fillAlpha="0.3137255" android:strokeAlpha="0.3137255" d="M373.5 169L376 169.5L373.5 170L373.5 169Z" fill="#000000" fill-opacity="1.0" stroke="#ff000000" stroke-width="1.0"/>
    <path android:fillAlpha="0.3137255" android:strokeAlpha="0.3137255" d="M363.5 170L366 170.5L363.5 171L363.5 170Z" fill="#000000" fill-opacity="1.0" stroke="#ff000000" stroke-width="1.0"/>
    <path android:fillAlpha="0.3137255" android:strokeAlpha="0.3137255" d="M354.5 171L357 171.5L354.5 172L354.5 171Z" fill="#000000" fill-opacity="1.0" stroke="#ff000000" stroke-width="1.0"/>
    <path android:fillAlpha="0.3137255" android:strokeAlpha="0.3137255" d="M296.5 172L299 172.5L296.5 173L296.5 172Z" fill="#000000" fill-opacity="1.0" stroke="#ff000000" stroke-width="1.0"/>
    <path android:fillAlpha="0.3137255" android:strokeAlpha="0.3137255" d="M340.5 172L345 172.5L340.5 173L340.5 172Z" fill="#000000" fill-opacity="1.0" stroke="#ff000000" stroke-width="1.0"/>
    <path android:fillAlpha="0.3137255" android:strokeAlpha="0.3137255" d="M357.5 192L361 192.5L357.5 193L357.5 192Z" fill="#000000" fill-opacity="1.0" stroke="#ff000000" stroke-width="1.0"/>
    <path android:fillAlpha="0.3137255" android:strokeAlpha="0.3137255" d="M367.5 193L370 193.5L367.5 194L367.5 193Z" fill="#000000" fill-opacity="1.0" stroke="#ff000000" stroke-width="1.0"/>
    <path android:fillAlpha="0.3137255" android:strokeAlpha="0.3137255" d="M402.5 207L403.5 209L402.5 207Z" fill="#000000" fill-opacity="1.0" stroke="#ff000000" stroke-width="1.0"/>
    <path android:fillAlpha="0.3137255" android:strokeAlpha="0.3137255" d="M124.5 297L125.5 299L124.5 297Z" fill="#000000" fill-opacity="1.0" stroke="#ff000000" stroke-width="1.0"/>
    <path android:fillAlpha="0.3137255" android:strokeAlpha="0.3137255" d="M145.5 312L149 312.5L145.5 313L145.5 312Z" fill="#000000" fill-opacity="1.0" stroke="#ff000000" stroke-width="1.0"/>
    <path android:fillAlpha="0.3137255" android:strokeAlpha="0.3137255" d="M183.5 312L259 312.5L183.5 313L183.5 312Z" fill="#000000" fill-opacity="1.0" stroke="#ff000000" stroke-width="1.0"/>
    <path android:fillAlpha="0.3137255" android:strokeAlpha="0.3137255" d="M190.5 333L196 333.5L190.5 334L190.5 333Z" fill="#000000" fill-opacity="1.0" stroke="#ff000000" stroke-width="1.0"/>
    <path android:fillAlpha="0.3137255" android:strokeAlpha="0.3137255" d="M221.5 333L226 333.5L221.5 334L221.5 333Z" fill="#000000" fill-opacity="1.0" stroke="#ff000000" stroke-width="1.0"/>
    <path android:fillAlpha="0.3137255" android:strokeAlpha="0.3137255" d="M245.5 339L246.5 341L245.5 339Z" fill="#000000" fill-opacity="1.0" stroke="#ff000000" stroke-width="1.0"/>
    <path android:fillAlpha="0.3137255" android:strokeAlpha="0.3137255" d="M265.5 349L266 379.5L265 379.5L265.5 349Z" fill="#000000" fill-opacity="1.0" stroke="#ff000000" stroke-width="1.0"/>
    <path android:fillAlpha="0.3137255" android:strokeAlpha="0.3137255" d="M356.5 351L355.5 353L356.5 351Z" fill="#000000" fill-opacity="1.0" stroke="#ff000000" stroke-width="1.0"/>
    <path android:fillAlpha="0.3137255" android:strokeAlpha="0.3137255" d="M350.5 361L349.5 363L350.5 361Z" fill="#000000" fill-opacity="1.0" stroke="#ff000000" stroke-width="1.0"/>
    <path android:fillAlpha="0.3137255" android:strokeAlpha="0.3137255" d="M163.5 368L164.5 370L163.5 368Z" fill="#000000" fill-opacity="1.0" stroke="#ff000000" stroke-width="1.0"/>
    <path android:fillAlpha="0.3137255" android:strokeAlpha="0.3137255" d="M167.5 375L168.5 377L167.5 375Z" fill="#000000" fill-opacity="1.0" stroke="#ff000000" stroke-width="1.0"/>
    <path android:fillAlpha="0.3137255" android:strokeAlpha="0.3137255" d="M255.5 387L258 387.5L255.5 388L255.5 387Z" fill="#000000" fill-opacity="1.0" stroke="#ff000000" stroke-width="1.0"/>
    <path android:fillAlpha="0.3137255" android:strokeAlpha="0.3137255" d="M325.5 399L324.5 401L325.5 399Z" fill="#000000" fill-opacity="1.0" stroke="#ff000000" stroke-width="1.0"/>
    <path android:fillAlpha="0.3137255" android:strokeAlpha="0.3137255" d="M185.5 403L186.5 405L185.5 403Z" fill="#000000" fill-opacity="1.0" stroke="#ff000000" stroke-width="1.0"/>
    <path android:fillAlpha="0.3137255" android:strokeAlpha="0.3137255" d="M322.5 403L321.5 405L322.5 403Z" fill="#000000" fill-opacity="1.0" stroke="#ff000000" stroke-width="1.0"/>
    <path android:fillAlpha="0.3137255" android:strokeAlpha="0.3137255" d="M317.5 410L316.5 412L317.5 410Z" fill="#000000" fill-opacity="1.0" stroke="#ff000000" stroke-width="1.0"/>
    <path android:fillAlpha="0.3137255" android:strokeAlpha="0.3137255" d="M191.5 412L192.5 414L191.5 412Z" fill="#000000" fill-opacity="1.0" stroke="#ff000000" stroke-width="1.0"/>
    <path android:fillAlpha="0.3137255" android:strokeAlpha="0.3137255" d="M315.5 413L313.5 416L315.5 413Z" fill="#000000" fill-opacity="1.0" stroke="#ff000000" stroke-width="1.0"/>
    <path android:fillAlpha="0.3137255" android:strokeAlpha="0.3137255" d="M312.5 417L311.5 419L312.5 417Z" fill="#000000" fill-opacity="1.0" stroke="#ff000000" stroke-width="1.0"/>
    <path android:fillAlpha="0.3137255" android:strokeAlpha="0.3137255" d="M205.5 432L206.5 434L205.5 432Z" fill="#000000" fill-opacity="1.0" stroke="#ff000000" stroke-width="1.0"/>
    <path android:fillAlpha="0.3137255" android:strokeAlpha="0.3137255" d="M296.5 438L295.5 440L296.5 438Z" fill="#000000" fill-opacity="1.0" stroke="#ff000000" stroke-width="1.0"/>
    <path android:fillAlpha="0.3137255" android:strokeAlpha="0.3137255" d="M212.5 442L213.5 444L212.5 442Z" fill="#000000" fill-opacity="1.0" stroke="#ff000000" stroke-width="1.0"/>
    <path android:fillAlpha="0.3137255" android:strokeAlpha="0.3137255" d="M293.5 442L292.5 444L293.5 442Z" fill="#000000" fill-opacity="1.0" stroke="#ff000000" stroke-width="1.0"/>
    <path android:fillAlpha="0.3137255" android:strokeAlpha="0.3137255" d="M281.5 457L278.5 461L281.5 457Z" fill="#000000" fill-opacity="1.0" stroke="#ff000000" stroke-width="1.0"/>
    <path android:fillAlpha="0.3137255" android:strokeAlpha="0.3137255" d="M226.5 461L228.5 464L226.5 461Z" fill="#000000" fill-opacity="1.0" stroke="#ff000000" stroke-width="1.0"/>
    <path android:fillAlpha="0.3137255" android:strokeAlpha="0.3137255" d="M277.5 462L275.5 465L277.5 462Z" fill="#000000" fill-opacity="1.0" stroke="#ff000000" stroke-width="1.0"/>
    <path android:fillAlpha="0.3137255" android:strokeAlpha="0.3137255" d="M229.5 465L231.5 468L229.5 465Z" fill="#000000" fill-opacity="1.0" stroke="#ff000000" stroke-width="1.0"/>
    <path android:fillAlpha="0.3137255" android:strokeAlpha="0.3137255" d="M232.5 469L234.5 472L232.5 469Z" fill="#000000" fill-opacity="1.0" stroke="#ff000000" stroke-width="1.0"/>
    <path android:fillAlpha="0.3137255" android:strokeAlpha="0.3137255" d="M271.5 469L270.5 471L271.5 469Z" fill="#000000" fill-opacity="1.0" stroke="#ff000000" stroke-width="1.0"/>
    <path android:fillAlpha="0.3137255" android:strokeAlpha="0.3137255" d="M266.5 475L264.5 478L266.5 475Z" fill="#000000" fill-opacity="1.0" stroke="#ff000000" stroke-width="1.0"/>
    <path android:fillAlpha="0.3137255" android:strokeAlpha="0.3137255" d="M258.5 484L257.5 486L258.5 484Z" fill="#000000" fill-opacity="1.0" stroke="#ff000000" stroke-width="1.0"/>
    <path android:fillAlpha="0.3137255" android:strokeAlpha="0.3137255" d="M246.5 487L248.5 490L246.5 487Z" fill="#000000" fill-opacity="1.0" stroke="#ff000000" stroke-width="1.0"/>
    <path android:fillAlpha="0.3137255" android:strokeAlpha="0.3137255" d="M253.5 490L251.5 493L253.5 490Z" fill="#000000" fill-opacity="1.0" stroke="#ff000000" stroke-width="1.0"/>
    <path android:fillAlpha="0.9372549" android:strokeAlpha="0.9372549" d="M339.5 31L340.5 33L339.5 31Z" fill="#000000" fill-opacity="1.0" stroke="#ff000000" stroke-width="1.0"/>
    <path android:fillAlpha="0.9372549" android:strokeAlpha="0.9372549" d="M348.5 37L349.5 39L348.5 37Z" fill="#000000" fill-opacity="1.0" stroke="#ff000000" stroke-width="1.0"/>
    <path android:fillAlpha="0.9372549" android:strokeAlpha="0.9372549" d="M353.5 41L354.5 43L353.5 41Z" fill="#000000" fill-opacity="1.0" stroke="#ff000000" stroke-width="1.0"/>
    <path android:fillAlpha="0.9372549" android:strokeAlpha="0.9372549" d="M357.5 44L360.5 48L357.5 44Z" fill="#000000" fill-opacity="1.0" stroke="#ff000000" stroke-width="1.0"/>
    <path android:fillAlpha="0.9372549" android:strokeAlpha="0.9372549" d="M140.5 48L137.5 52L140.5 48Z" fill="#000000" fill-opacity="1.0" stroke="#ff000000" stroke-width="1.0"/>
    <path android:fillAlpha="0.9372549" android:strokeAlpha="0.9372549" d="M135.5 53L134.5 55L135.5 53Z" fill="#000000" fill-opacity="1.0" stroke="#ff000000" stroke-width="1.0"/>
    <path android:fillAlpha="0.9372549" android:strokeAlpha="0.9372549" d="M131.5 57L128.5 61L131.5 57Z" fill="#000000" fill-opacity="1.0" stroke="#ff000000" stroke-width="1.0"/>
    <path android:fillAlpha="0.9372549" android:strokeAlpha="0.9372549" d="M373.5 60L375.5 63L373.5 60Z" fill="#000000" fill-opacity="1.0" stroke="#ff000000" stroke-width="1.0"/>
    <path android:fillAlpha="0.9372549" android:strokeAlpha="0.9372549" d="M123.5 66L121.5 69L123.5 66Z" fill="#000000" fill-opacity="1.0" stroke="#ff000000" stroke-width="1.0"/>
    <path android:fillAlpha="0.9372549" android:strokeAlpha="0.9372549" d="M379.5 67L381.5 70L379.5 67Z" fill="#000000" fill-opacity="1.0" stroke="#ff000000" stroke-width="1.0"/>
    <path android:fillAlpha="0.9372549" android:strokeAlpha="0.9372549" d="M119.5 71L118.5 73L119.5 71Z" fill="#000000" fill-opacity="1.0" stroke="#ff000000" stroke-width="1.0"/>
    <path android:fillAlpha="0.9372549" android:strokeAlpha="0.9372549" d="M116.5 75L115.5 77L116.5 75Z" fill="#000000" fill-opacity="1.0" stroke="#ff000000" stroke-width="1.0"/>
    <path android:fillAlpha="0.9372549" android:strokeAlpha="0.9372549" d="M394.5 89L395.5 91L394.5 89Z" fill="#000000" fill-opacity="1.0" stroke="#ff000000" stroke-width="1.0"/>
    <path android:fillAlpha="0.9372549" android:strokeAlpha="0.9372549" d="M266.5 99L264.5 102L266.5 99Z" fill="#000000" fill-opacity="1.0" stroke="#ff000000" stroke-width="1.0"/>
    <path android:fillAlpha="0.9372549" android:strokeAlpha="0.9372549" d="M413.5 156L411.5 159L413.5 156Z" fill="#000000" fill-opacity="1.0" stroke="#ff000000" stroke-width="1.0"/>
    <path android:fillAlpha="0.9372549" android:strokeAlpha="0.9372549" d="M304.5 172L308 172.5L304.5 173L304.5 172Z" fill="#000000" fill-opacity="1.0" stroke="#ff000000" stroke-width="1.0"/>
    <path android:fillAlpha="0.9372549" android:strokeAlpha="0.9372549" d="M329.5 172L334 172.5L329.5 173L329.5 172Z" fill="#000000" fill-opacity="1.0" stroke="#ff000000" stroke-width="1.0"/>
    <path android:fillAlpha="0.9372549" android:strokeAlpha="0.9372549" d="M348.5 192L352 192.5L348.5 193L348.5 192Z" fill="#000000" fill-opacity="1.0" stroke="#ff000000" stroke-width="1.0"/>
    <path android:fillAlpha="0.9372549" android:strokeAlpha="0.9372549" d="M396.5 202L397.5 204L396.5 202Z" fill="#000000" fill-opacity="1.0" stroke="#ff000000" stroke-width="1.0"/>
    <path android:fillAlpha="0.9372549" android:strokeAlpha="0.9372549" d="M406.5 225L407 227.5L406 227.5L406.5 225Z" fill="#000000" fill-opacity="1.0" stroke="#ff000000" stroke-width="1.0"/>
    <path android:fillAlpha="0.9372549" android:strokeAlpha="0.9372549" d="M243.5 338L244.5 340L243.5 338Z" fill="#000000" fill-opacity="1.0" stroke="#ff000000" stroke-width="1.0"/>
    <path android:fillAlpha="0.9372549" android:strokeAlpha="0.9372549" d="M156.5 341L155.5 343L156.5 341Z" fill="#000000" fill-opacity="1.0" stroke="#ff000000" stroke-width="1.0"/>
    <path android:fillAlpha="0.9372549" android:strokeAlpha="0.9372549" d="M356.5 350L355.5 352L356.5 350Z" fill="#000000" fill-opacity="1.0" stroke="#ff000000" stroke-width="1.0"/>
    <path android:fillAlpha="0.9372549" android:strokeAlpha="0.9372549" d="M247.5 358L248 368.5L247 368.5L247.5 358Z" fill="#000000" fill-opacity="1.0" stroke="#ff000000" stroke-width="1.0"/>
    <path android:fillAlpha="0.9372549" android:strokeAlpha="0.9372549" d="M350.5 360L349.5 362L350.5 360Z" fill="#000000" fill-opacity="1.0" stroke="#ff000000" stroke-width="1.0"/>
    <path android:fillAlpha="0.9372549" android:strokeAlpha="0.9372549" d="M163.5 367L164.5 369L163.5 367Z" fill="#000000" fill-opacity="1.0" stroke="#ff000000" stroke-width="1.0"/>
    <path android:fillAlpha="0.9372549" android:strokeAlpha="0.9372549" d="M167.5 374L168.5 376L167.5 374Z" fill="#000000" fill-opacity="1.0" stroke="#ff000000" stroke-width="1.0"/>
    <path android:fillAlpha="0.9372549" android:strokeAlpha="0.9372549" d="M341.5 374L340.5 376L341.5 374Z" fill="#000000" fill-opacity="1.0" stroke="#ff000000" stroke-width="1.0"/>
    <path android:fillAlpha="0.9372549" android:strokeAlpha="0.9372549" d="M331.5 389L330.5 391L331.5 389Z" fill="#000000" fill-opacity="1.0" stroke="#ff000000" stroke-width="1.0"/>
    <path android:fillAlpha="0.9372549" android:strokeAlpha="0.9372549" d="M327.5 395L326.5 397L327.5 395Z" fill="#000000" fill-opacity="1.0" stroke="#ff000000" stroke-width="1.0"/>
    <path android:fillAlpha="0.9372549" android:strokeAlpha="0.9372549" d="M181.5 396L182.5 398L181.5 396Z" fill="#000000" fill-opacity="1.0" stroke="#ff000000" stroke-width="1.0"/>
    <path android:fillAlpha="0.9372549" android:strokeAlpha="0.9372549" d="M325.5 398L324.5 400L325.5 398Z" fill="#000000" fill-opacity="1.0" stroke="#ff000000" stroke-width="1.0"/>
    <path android:fillAlpha="0.9372549" android:strokeAlpha="0.9372549" d="M185.5 402L186.5 404L185.5 402Z" fill="#000000" fill-opacity="1.0" stroke="#ff000000" stroke-width="1.0"/>
    <path android:fillAlpha="0.9372549" android:strokeAlpha="0.9372549" d="M317.5 409L316.5 411L317.5 409Z" fill="#000000" fill-opacity="1.0" stroke="#ff000000" stroke-width="1.0"/>
    <path android:fillAlpha="0.9372549" android:strokeAlpha="0.9372549" d="M315.5 412L313.5 415L315.5 412Z" fill="#000000" fill-opacity="1.0" stroke="#ff000000" stroke-width="1.0"/>
    <path android:fillAlpha="0.9372549" android:strokeAlpha="0.9372549" d="M202.5 427L203.5 429L202.5 427Z" fill="#000000" fill-opacity="1.0" stroke="#ff000000" stroke-width="1.0"/>
    <path android:fillAlpha="0.9372549" android:strokeAlpha="0.9372549" d="M304.5 427L302.5 430L304.5 427Z" fill="#000000" fill-opacity="1.0" stroke="#ff000000" stroke-width="1.0"/>
    <path android:fillAlpha="0.9372549" android:strokeAlpha="0.9372549" d="M297.5 436L295.5 439L297.5 436Z" fill="#000000" fill-opacity="1.0" stroke="#ff000000" stroke-width="1.0"/>
    <path android:fillAlpha="0.9372549" android:strokeAlpha="0.9372549" d="M210.5 438L211.5 440L210.5 438Z" fill="#000000" fill-opacity="1.0" stroke="#ff000000" stroke-width="1.0"/>
    <path android:fillAlpha="0.9372549" android:strokeAlpha="0.9372549" d="M294.5 440L291.5 444L294.5 440Z" fill="#000000" fill-opacity="1.0" stroke="#ff000000" stroke-width="1.0"/>
    <path android:fillAlpha="0.9372549" android:strokeAlpha="0.9372549" d="M212.5 441L213.5 443L212.5 441Z" fill="#000000" fill-opacity="1.0" stroke="#ff000000" stroke-width="1.0"/>
    <path android:fillAlpha="0.9372549" android:strokeAlpha="0.9372549" d="M285.5 451L284.5 453L285.5 451Z" fill="#000000" fill-opacity="1.0" stroke="#ff000000" stroke-width="1.0"/>
    <path android:fillAlpha="0.9372549" android:strokeAlpha="0.9372549" d="M223.5 456L224.5 458L223.5 456Z" fill="#000000" fill-opacity="1.0" stroke="#ff000000" stroke-width="1.0"/>
    <path android:fillAlpha="0.9372549" android:strokeAlpha="0.9372549" d="M226.5 460L227.5 462L226.5 460Z" fill="#000000" fill-opacity="1.0" stroke="#ff000000" stroke-width="1.0"/>
    <path android:fillAlpha="0.9372549" android:strokeAlpha="0.9372549" d="M271.5 468L270.5 470L271.5 468Z" fill="#000000" fill-opacity="1.0" stroke="#ff000000" stroke-width="1.0"/>
    <path android:fillAlpha="0.9372549" android:strokeAlpha="0.9372549" d="M246.5 486L247.5 488L246.5 486Z" fill="#000000" fill-opacity="1.0" stroke="#ff000000" stroke-width="1.0"/>
    <path d="M239.5 6L263.5 6Q265.2 8.8 271.5 7L278.5 9L284.5 9L311.5 17Q348.3 32.2 373 59.5L382 72Q384.7 70.9 384 73.5L389 79.5L400 98.5L406 112.5L414 140.5L415 154.5L405.5 162L376.5 169L348.5 171L347.5 172L308.5 173L307.5 172L288.5 171L282 167.5L282 105.5L277.5 99L268.5 98L264 101.5L263 103.5L263 188.5L267.5 192L347.5 192L348.5 193L370.5 194L388.5 198Q397.3 201.7 403 208.5L406 215.5L407 224.5L402 249.5L393 274.5L393 277.5L379 309.5L365 336.5L343 372.5L330 390.5L330 392.5L277 463Q274.3 461.9 275 464.5L251.5 492L216 446.5L174 385.5L156 352.5L154 344.5L157.5 341L164.5 338L169.5 338L180.5 335Q186 336.5 187.5 334L227.5 334L242.5 338L246 340Q249.9 345.2 248 357.5L247 358.5L247 380.5L251.5 387L259.5 388L264 386L266 381.5L266 317.5L262.5 313L260.5 312L143.5 312Q132.8 309.7 128 301.5L118 285.5L111 270.5L97 231.5L90 204.5L90 198.5L87 186.5Q88.5 181 86 179.5L86 156.5L87 155.5L87 148.5L90 132.5L98 107.5Q111.4 76.9 133.5 55L136 53.5Q135.3 51.3 137.5 52L154.5 37L181.5 21L213.5 10L230.5 7L238.5 7L239.5 6Z" fill="#000000" fill-opacity="1.0" stroke="#ff000000" stroke-width="1.0"/>
    <path android:fillAlpha="0.6627451" android:strokeAlpha="0.6627451" d="M234.5 6L237 6.5L234.5 7L234.5 6Z" fill="#000000" fill-opacity="1.0" stroke="#ff000000" stroke-width="1.0"/>
    <path android:fillAlpha="0.6627451" android:strokeAlpha="0.6627451" d="M333.5 27L334.5 29L333.5 27Z" fill="#000000" fill-opacity="1.0" stroke="#ff000000" stroke-width="1.0"/>
    <path android:fillAlpha="0.6627451" android:strokeAlpha="0.6627451" d="M344.5 34L345.5 36L344.5 34Z" fill="#000000" fill-opacity="1.0" stroke="#ff000000" stroke-width="1.0"/>
    <path android:fillAlpha="0.6627451" android:strokeAlpha="0.6627451" d="M153.5 37L151.5 40L153.5 37Z" fill="#000000" fill-opacity="1.0" stroke="#ff000000" stroke-width="1.0"/>
    <path android:fillAlpha="0.6627451" android:strokeAlpha="0.6627451" d="M148.5 41L147.5 43L148.5 41Z" fill="#000000" fill-opacity="1.0" stroke="#ff000000" stroke-width="1.0"/>
    <path android:fillAlpha="0.6627451" android:strokeAlpha="0.6627451" d="M143.5 45L141.5 48L143.5 45Z" fill="#000000" fill-opacity="1.0" stroke="#ff000000" stroke-width="1.0"/>
    <path android:fillAlpha="0.6627451" android:strokeAlpha="0.6627451" d="M364.5 50L372.5 59L364.5 50Z" fill="#000000" fill-opacity="1.0" stroke="#ff000000" stroke-width="1.0"/>
    <path android:fillAlpha="0.6627451" android:strokeAlpha="0.6627451" d="M127.5 61L124.5 65L127.5 61Z" fill="#000000" fill-opacity="1.0" stroke="#ff000000" stroke-width="1.0"/>
    <path android:fillAlpha="0.6627451" android:strokeAlpha="0.6627451" d="M376.5 63L377.5 65L376.5 63Z" fill="#000000" fill-opacity="1.0" stroke="#ff000000" stroke-width="1.0"/>
    <path android:fillAlpha="0.6627451" android:strokeAlpha="0.6627451" d="M105.5 92L104.5 94L105.5 92Z" fill="#000000" fill-opacity="1.0" stroke="#ff000000" stroke-width="1.0"/>
    <path android:fillAlpha="0.6627451" android:strokeAlpha="0.6627451" d="M277.5 99L278.5 101L277.5 99Z" fill="#000000" fill-opacity="1.0" stroke="#ff000000" stroke-width="1.0"/>
    <path android:fillAlpha="0.6627451" android:strokeAlpha="0.6627451" d="M281.5 106L282 165.5L281 165.5L281.5 106Z" fill="#000000" fill-opacity="1.0" stroke="#ff000000" stroke-width="1.0"/>
    <path android:fillAlpha="0.6627451" android:strokeAlpha="0.6627451" d="M414.5 144L415 146.5L414 146.5L414.5 144Z" fill="#000000" fill-opacity="1.0" stroke="#ff000000" stroke-width="1.0"/>
    <path android:fillAlpha="0.6627451" android:strokeAlpha="0.6627451" d="M86.5 151L87 153.5L86 153.5L86.5 151Z" fill="#000000" fill-opacity="1.0" stroke="#ff000000" stroke-width="1.0"/>
    <path android:fillAlpha="0.6627451" android:strokeAlpha="0.6627451" d="M369.5 169L373 169.5L369.5 170L369.5 169Z" fill="#000000" fill-opacity="1.0" stroke="#ff000000" stroke-width="1.0"/>
    <path android:fillAlpha="0.6627451" android:strokeAlpha="0.6627451" d="M350.5 171L354 171.5L350.5 172L350.5 171Z" fill="#000000" fill-opacity="1.0" stroke="#ff000000" stroke-width="1.0"/>
    <path android:fillAlpha="0.6627451" android:strokeAlpha="0.6627451" d="M299.5 172L304 172.5L299.5 173L299.5 172Z" fill="#000000" fill-opacity="1.0" stroke="#ff000000" stroke-width="1.0"/>
    <path android:fillAlpha="0.6627451" android:strokeAlpha="0.6627451" d="M334.5 172L340 172.5L334.5 173L334.5 172Z" fill="#000000" fill-opacity="1.0" stroke="#ff000000" stroke-width="1.0"/>
    <path android:fillAlpha="0.6627451" android:strokeAlpha="0.6627451" d="M86.5 181L87 183.5L86 183.5L86.5 181Z" fill="#000000" fill-opacity="1.0" stroke="#ff000000" stroke-width="1.0"/>
    <path android:fillAlpha="0.6627451" android:strokeAlpha="0.6627451" d="M264.5 189L265.5 191L264.5 189Z" fill="#000000" fill-opacity="1.0" stroke="#ff000000" stroke-width="1.0"/>
    <path android:fillAlpha="0.6627451" android:strokeAlpha="0.6627451" d="M352.5 192L357 192.5L352.5 193L352.5 192Z" fill="#000000" fill-opacity="1.0" stroke="#ff000000" stroke-width="1.0"/>
    <path android:fillAlpha="0.6627451" android:strokeAlpha="0.6627451" d="M128.5 302L129.5 304L128.5 302Z" fill="#000000" fill-opacity="1.0" stroke="#ff000000" stroke-width="1.0"/>
    <path android:fillAlpha="0.6627451" android:strokeAlpha="0.6627451" d="M133.5 307L134.5 309L133.5 307Z" fill="#000000" fill-opacity="1.0" stroke="#ff000000" stroke-width="1.0"/>
    <path android:fillAlpha="0.6627451" android:strokeAlpha="0.6627451" d="M149.5 312L183 312.5L149.5 313L149.5 312Z" fill="#000000" fill-opacity="1.0" stroke="#ff000000" stroke-width="1.0"/>
    <path android:fillAlpha="0.6627451" android:strokeAlpha="0.6627451" d="M265.5 317L266 348.5L265 348.5L265.5 317Z" fill="#000000" fill-opacity="1.0" stroke="#ff000000" stroke-width="1.0"/>
    <path android:fillAlpha="0.6627451" android:strokeAlpha="0.6627451" d="M196.5 333L209 333.5L196.5 334L196.5 333Z" fill="#000000" fill-opacity="1.0" stroke="#ff000000" stroke-width="1.0"/>
    <path android:fillAlpha="0.6627451" android:strokeAlpha="0.6627451" d="M210.5 333L221 333.5L210.5 334L210.5 333Z" fill="#000000" fill-opacity="1.0" stroke="#ff000000" stroke-width="1.0"/>
    <path android:fillAlpha="0.6627451" android:strokeAlpha="0.6627451" d="M183.5 334L186 334.5L183.5 335L183.5 334Z" fill="#000000" fill-opacity="1.0" stroke="#ff000000" stroke-width="1.0"/>
    <path android:fillAlpha="0.6627451" android:strokeAlpha="0.6627451" d="M364.5 337L363.5 339L364.5 337Z" fill="#000000" fill-opacity="1.0" stroke="#ff000000" stroke-width="1.0"/>
    <path android:fillAlpha="0.6627451" android:strokeAlpha="0.6627451" d="M346.5 367L345.5 369L346.5 367Z" fill="#000000" fill-opacity="1.0" stroke="#ff000000" stroke-width="1.0"/>
    <path android:fillAlpha="0.6627451" android:strokeAlpha="0.6627451" d="M247.5 369L248 379.5L247 379.5L247.5 369Z" fill="#000000" fill-opacity="1.0" stroke="#ff000000" stroke-width="1.0"/>
    <path android:fillAlpha="0.6627451" android:strokeAlpha="0.6627451" d="M171.5 381L172.5 383L171.5 381Z" fill="#000000" fill-opacity="1.0" stroke="#ff000000" stroke-width="1.0"/>
    <path android:fillAlpha="0.6627451" android:strokeAlpha="0.6627451" d="M178.5 392L179.5 394L178.5 392Z" fill="#000000" fill-opacity="1.0" stroke="#ff000000" stroke-width="1.0"/>
    <path android:fillAlpha="0.6627451" android:strokeAlpha="0.6627451" d="M188.5 407L189.5 409L188.5 407Z" fill="#000000" fill-opacity="1.0" stroke="#ff000000" stroke-width="1.0"/>
    <path android:fillAlpha="0.6627451" android:strokeAlpha="0.6627451" d="M308.5 422L306.5 425L308.5 422Z" fill="#000000" fill-opacity="1.0" stroke="#ff000000" stroke-width="1.0"/>
    <path android:fillAlpha="0.6627451" android:strokeAlpha="0.6627451" d="M199.5 423L200.5 425L199.5 423Z" fill="#000000" fill-opacity="1.0" stroke="#ff000000" stroke-width="1.0"/>
    <path android:fillAlpha="0.6627451" android:strokeAlpha="0.6627451" d="M301.5 431L300.5 433L301.5 431Z" fill="#000000" fill-opacity="1.0" stroke="#ff000000" stroke-width="1.0"/>
    <path android:fillAlpha="0.6627451" android:strokeAlpha="0.6627451" d="M214.5 444L215.5 446L214.5 444Z" fill="#000000" fill-opacity="1.0" stroke="#ff000000" stroke-width="1.0"/>
    <path android:fillAlpha="0.6627451" android:strokeAlpha="0.6627451" d="M291.5 444L289.5 447L291.5 444Z" fill="#000000" fill-opacity="1.0" stroke="#ff000000" stroke-width="1.0"/>
    <path android:fillAlpha="0.6627451" android:strokeAlpha="0.6627451" d="M288.5 448L286.5 451L288.5 448Z" fill="#000000" fill-opacity="1.0" stroke="#ff000000" stroke-width="1.0"/>
    <path android:fillAlpha="0.6627451" android:strokeAlpha="0.6627451" d="M219.5 451L220.5 453L219.5 451Z" fill="#000000" fill-opacity="1.0" stroke="#ff000000" stroke-width="1.0"/>
    <path android:fillAlpha="0.6627451" android:strokeAlpha="0.6627451" d="M283.5 454L282.5 456L283.5 454Z" fill="#000000" fill-opacity="1.0" stroke="#ff000000" stroke-width="1.0"/>
    <path android:fillAlpha="0.6627451" android:strokeAlpha="0.6627451" d="M274.5 465L272.5 468L274.5 465Z" fill="#000000" fill-opacity="1.0" stroke="#ff000000" stroke-width="1.0"/>
    <path android:fillAlpha="0.6627451" android:strokeAlpha="0.6627451" d="M269.5 471L267.5 474L269.5 471Z" fill="#000000" fill-opacity="1.0" stroke="#ff000000" stroke-width="1.0"/>
    <path android:fillAlpha="0.6627451" android:strokeAlpha="0.6627451" d="M237.5 475L238.5 477L237.5 475Z" fill="#000000" fill-opacity="1.0" stroke="#ff000000" stroke-width="1.0"/>
    <path android:fillAlpha="0.6627451" android:strokeAlpha="0.6627451" d="M240.5 479L242.5 482L240.5 479Z" fill="#000000" fill-opacity="1.0" stroke="#ff000000" stroke-width="1.0"/>
    <path android:fillAlpha="0.6627451" android:strokeAlpha="0.6627451" d="M244.5 484L245.5 486L244.5 484Z" fill="#000000" fill-opacity="1.0" stroke="#ff000000" stroke-width="1.0"/>
    <path android:fillAlpha="0.6627451" android:strokeAlpha="0.6627451" d="M256.5 486L254.5 489L256.5 486Z" fill="#000000" fill-opacity="1.0" stroke="#ff000000" stroke-width="1.0"/>
</svg>