<?xml version="1.0" encoding="utf-8" standalone="no"?><svg xmlns:android="http://schemas.android.com/apk/res/android" height="36.0" width="36.0" xmlns="http://www.w3.org/2000/svg">
    <path d="M23.71,4.23L23.71,4.23H12.29h0c-0.76,0-1.38,0.62-1.38,1.38v24.76c0,0.76,0.62,1.38,1.38,1.38h0h11.41h0 c0.76,0,1.38-0.62,1.38-1.38V5.62C25.09,4.85,24.47,4.23,23.71,4.23z" fill="#000000" fill-opacity="1.0"/>
    <path d="M5.05,9.35v17.31c0,0.77,0.62,1.39,1.39,1.39h3.44V7.96H6.43C5.67,7.96,5.05,8.58,5.05,9.35z" fill="#000000" fill-opacity="1.0"/>
    <path d="M1.5,13.07v9.86c0,0.57,0.45,1.02,1.02,1.02h1.49V12.04H2.52C1.95,12.04,1.5,12.5,1.5,13.07z" fill="#000000" fill-opacity="1.0"/>
    <path d="M29.57,7.96h-3.44v20.08h3.44c0.77,0,1.39-0.62,1.39-1.39V9.35C30.95,8.58,30.33,7.96,29.57,7.96z" fill="#000000" fill-opacity="1.0"/>
    <path d="M33.48,12.04h-1.49v11.91h1.49c0.57,0,1.02-0.45,1.02-1.02v-9.86C34.5,12.5,34.05,12.04,33.48,12.04z" fill="#000000" fill-opacity="1.0"/>
</svg>