<?xml version="1.0" encoding="utf-8" standalone="no"?><svg xmlns:android="http://schemas.android.com/apk/res/android" height="36.0" width="36.0" xmlns="http://www.w3.org/2000/svg">
    <path d="M26.2662,4 L9.73378,4 A5.73378,5.73378,0,0,0,4,9.73378 L4,32 L26.2662,32 A5.73378,5.73378,0,0,0,32,26.2662 L32,26.2662 L32,9.73378 A5.73378,5.73378,0,0,0,26.2662,4 Z M10.0205,11.3321 L18.0478,11.3321 L18.0478,13.3389 L10.0205,13.3389 Z M21.9885,25.3481 L10.0205,25.3481 L10.0205,23.3412 L21.9885,23.3412 Z M25.9797,21.3345 L10.0205,21.3345 L10.0205,19.3276 L25.9795,19.3276 Z M25.9797,17.3527 L10.0205,17.3527 L10.0205,15.3458 L25.9795,15.3458 Z" fill="#000000" fill-opacity="1.0"/>
</svg>