<?xml version="1.0" encoding="utf-8" standalone="no"?><svg xmlns:android="http://schemas.android.com/apk/res/android" height="86.0" width="86.0" xmlns="http://www.w3.org/2000/svg">
    <path d="M63.4,45.6 L63.4,67 L81.6,78 L81.6,34.9 Z" fill="#000000" fill-opacity="1.0"/>
    <path d="M52.9,36.8 L13.3,36.8 C9.6,36.8,6.6,39.8,6.6,43.5 L6.6,68.4 C6.6,72.1,9.6,75.1,13.3,75.1 L22.2,75.1 L40.7,75.1 L53,75.1 C56.7,75.1,59.7,72.1,59.7,68.4 L59.7,43.5 C59.6,39.8,56.6,36.8,52.9,36.8 Z" fill="#000000" fill-opacity="1.0"/>
    <path d="M18.5,16.1 C23.4706,16.1,27.5,20.1294,27.5,25.1 C27.5,30.0706,23.4706,34.1,18.5,34.1 C13.5294,34.1,9.5,30.0706,9.5,25.1 C9.5,20.1294,13.5294,16.1,18.5,16.1 Z" fill="#000000" fill-opacity="1.0" fill-rule="evenOdd"/>
    <path d="M42.7,7.3 C50.1558,7.3,56.2,13.3442,56.2,20.8 C56.2,28.2558,50.1558,34.3,42.7,34.3 C35.2442,34.3,29.2,28.2558,29.2,20.8 C29.2,13.3442,35.2442,7.3,42.7,7.3 Z" fill="#000000" fill-opacity="1.0" fill-rule="evenOdd"/>
</svg>