<svg id="vector" xmlns="http://www.w3.org/2000/svg" width="192" height="192" viewBox="0 0 192 192"><path fill="#00000000" d="M31,118l23.77,13.33a6,6 0,0 0,5.93 0L108,104" stroke-linejoin="round" stroke-width="12" stroke="#000" stroke-linecap="round" id="path_0"/><path fill="#00000000" d="M31,96l23.77,13.33a6,6 0,0 0,5.93 0L108,82" stroke-linejoin="round" stroke-width="12" stroke="#000" stroke-linecap="round" id="path_1"/><path fill="#00000000" d="M31,74 L54.77,87.33a6,6 0,0 0,5.93 0L108,60" stroke-linejoin="round" stroke-width="12" stroke="#000" stroke-linecap="round" id="path_2"/><path fill="#FF000000" d="M156,36V156H36V36H156m6.6,-12H29.4A5.4,5.4 0,0 0,24 29.4V162.6a5.4,5.4 0,0 0,5.4 5.4H162.6a5.4,5.4 0,0 0,5.4 -5.4V29.4a5.4,5.4 0,0 0,-5.4 -5.4Z" id="path_3"/></svg>