<?xml version="1.0" encoding="UTF-8" standalone="no"?><svg xmlns:android="http://schemas.android.com/apk/res/android" height="192" width="192" xmlns="http://www.w3.org/2000/svg">
  <path d="M31,118l23.77,13.33a6,6 0,0 0,5.93 0L108,104" fill="#000000" fill-opacity="0.0" stroke="#000" stroke-linecap="round" stroke-linejoin="round" stroke-width="12"/>
  <path d="M31,96l23.77,13.33a6,6 0,0 0,5.93 0L108,82" fill="#000000" fill-opacity="0.0" stroke="#000" stroke-linecap="round" stroke-linejoin="round" stroke-width="12"/>
  <path d="M31,74 L54.77,87.33a6,6 0,0 0,5.93 0L108,60" fill="#000000" fill-opacity="0.0" stroke="#000" stroke-linecap="round" stroke-linejoin="round" stroke-width="12"/>
  <path d="M156,36V156H36V36H156m6.6,-12H29.4A5.4,5.4 0,0 0,24 29.4V162.6a5.4,5.4 0,0 0,5.4 5.4H162.6a5.4,5.4 0,0 0,5.4 -5.4V29.4a5.4,5.4 0,0 0,-5.4 -5.4Z" fill="#000000" fill-opacity="1.0"/>
</svg>