<svg id="vector" xmlns="http://www.w3.org/2000/svg" width="192" height="192" viewBox="0 0 192 192"><path fill="#00000000" d="M23.9,59.7L149,77.4c0.5,0.1 0.7,0.6 0.4,1l-77.8,90.8c-0.2,0.2 -0.6,0 -0.5,-0.3l20.3,-69.9l-67.6,-39C23.6,60 23.7,59.7 23.9,59.7z" stroke-width="12" stroke="#000000" id="path_0"/><path fill="#FF000000" d="M163.2,63.5L74.6,51.4C71.3,51 69,48 69.5,44.7v0c0.4,-3.3 3.5,-5.6 6.8,-5.1l71.7,9.8l-13.5,-14.3c-2.3,-2.4 -2.2,-6.2 0.2,-8.5v0c2.4,-2.3 6.2,-2.2 8.5,0.2l25.2,26.6C172.2,57.6 168.8,64.3 163.2,63.5z" id="path_1"/></svg>