<svg id="vector" xmlns="http://www.w3.org/2000/svg" width="192" height="192" viewBox="0 0 192 192"><path fill="#FF000000" d="M96,28c37.5,0 68,30.5 68,68s-30.5,68 -68,68S28,133.5 28,96 58.5,28 96,28m0,-12c-44.18,0 -80,35.82 -80,80s35.82,80 80,80 80,-35.82 80,-80S140.18,16 96,16h0Z" id="path_0"/><path fill="#00000000" d="M37.87,96L45.5,96" stroke-width="8" stroke="#000" stroke-linecap="round" id="path_1"/><path fill="#00000000" d="M96,155.32L96,147.68" stroke-width="8" stroke="#000" stroke-linecap="round" id="path_2"/><path fill="#00000000" d="M138.7,136.2L133.3,130.8" stroke-width="8" stroke="#000" stroke-linecap="round" id="path_3"/><path fill="#00000000" d="M53.98,136.7L59.39,131.3" stroke-width="8" stroke="#000" stroke-linecap="round" id="path_4"/><path fill="#00000000" d="M53.98,54.3L59.39,59.7" stroke-width="8" stroke="#000" stroke-linecap="round" id="path_5"/><path fill="#00000000" d="M96,96L96,41.71" stroke-width="12" stroke="#000" stroke-linecap="round" id="path_6"/><path fill="#00000000" d="M96,96L133.37,58.63" stroke-width="12" stroke="#000" stroke-linecap="round" id="path_7"/><path fill="#00000000" d="M96,96L149.81,96" stroke-width="12" stroke="#000" stroke-linecap="round" id="path_8"/></svg>