<?xml version="1.0" encoding="UTF-8" standalone="no"?><svg xmlns:android="http://schemas.android.com/apk/res/android" height="50.8" width="50.8" xmlns="http://www.w3.org/2000/svg">
  <path d="M41.027,18.97m-4.228,0a4.288,4.228 90,1 1,8.456 0a4.288,4.228 90,1 1,-8.456 0" fill="#000000" fill-opacity="0.0" stroke="#000000" stroke-linecap="round" stroke-linejoin="round" stroke-width="3.175"/>
  <path d="m5.571,14.682 l3.102,8.576l1.606,0l3.102,-8.576" fill="#000000" fill-opacity="0.0" stroke="#000000" stroke-linecap="round" stroke-linejoin="round" stroke-width="3.175"/>
  <path d="m17.448,14.682v8.576" fill="#000000" fill-opacity="0.0" stroke="#000000" stroke-linecap="round" stroke-linejoin="round" stroke-width="3.175"/>
  <path d="m21.631,23.279 l0,-8.597l2.211,0L26.327,23.258l1.606,0l2.484,-8.576l2.211,0l0.023,8.597" fill="#000000" fill-opacity="0.0" stroke="#000000" stroke-linecap="round" stroke-linejoin="round" stroke-width="3.175"/>
  <path d="m18.257,36.013v-8.597h4.014c2.14,0.107 3.204,1.249 3.204,2.987 0,1.738 -1.062,2.987 -3.204,2.987h-4.014" fill="#000000" fill-opacity="0.0" stroke="#000000" stroke-linecap="round" stroke-linejoin="round" stroke-width="3.175"/>
  <path d="m28.125,36.013 l3.293,-8.597l2.249,0l3.293,8.597" fill="#000000" fill-opacity="0.0" stroke="#000000" stroke-linecap="round" stroke-linejoin="round" stroke-width="3.175"/>
  <path d="M36.368,34.378L28.783,34.378" fill="#000000" fill-opacity="0.0" stroke="#000000" stroke-linecap="round" stroke-linejoin="round" stroke-width="3.175"/>
  <path d="m38.706,27.416 l2.945,5.222 2.945,-5.222" fill="#000000" fill-opacity="0.0" stroke="#000000" stroke-linecap="round" stroke-linejoin="round" stroke-width="3.175"/>
  <path d="m41.651,32.638l0,3.375" fill="#000000" fill-opacity="0.0" stroke="#000000" stroke-linecap="round" stroke-linejoin="round" stroke-width="3.175"/>
  <path d="M6.365,27.416L13.374,27.416A0.794,0.794 0,0 1,14.167 28.209L14.167,35.218A0.794,0.794 0,0 1,13.374 36.012L6.365,36.012A0.794,0.794 0,0 1,5.571 35.218L5.571,28.209A0.794,0.794 0,0 1,6.365 27.416z" fill="#000000" fill-opacity="0.0" stroke="#000000" stroke-linecap="round" stroke-linejoin="round" stroke-width="3.175"/>
</svg>