<svg id="vector" xmlns="http://www.w3.org/2000/svg" width="192" height="192" viewBox="0 0 50.8 50.8"><path fill="#00000000" d="M25.4,25.4m-13.285,0a13.309,13.285 90,1 1,26.57 0a13.309,13.285 90,1 1,-26.57 0" stroke-linejoin="round" stroke-width="3.175" stroke="#000000" stroke-linecap="round" id="path_0"/><path fill="#00000000" d="m25.4,5.816l-7.338,0c0,0 -0.101,3.17 -0.38,5.582 -0.286,2.478 -1.449,4.369 -1.449,4.369M25.4,5.816l7.338,0c0,0 0.101,3.17 0.38,5.582 0.286,2.478 1.449,4.369 1.449,4.369" stroke-linejoin="round" stroke-width="3.175" stroke="#000000" stroke-linecap="round" id="path_1"/><path fill="#00000000" d="m25.4,44.984l-7.338,0c0,0 -0.101,-3.17 -0.38,-5.582 -0.286,-2.478 -1.449,-4.369 -1.449,-4.369M25.4,44.984l7.338,0c0,0 0.101,-3.17 0.38,-5.582 0.286,-2.478 1.449,-4.369 1.449,-4.369" stroke-linejoin="round" stroke-width="3.175" stroke="#000000" stroke-linecap="round" id="path_2"/><path fill="#00000000" d="m19.194,20.638 l3.103,9.524 3.103,-8.929 3.103,8.929 3.103,-9.524" stroke-linejoin="round" stroke-width="3.175" stroke="#000000" stroke-linecap="round" id="path_3"/></svg>