<svg id="vector" xmlns="http://www.w3.org/2000/svg" width="192" height="192" viewBox="0 0 50.8 50.8"><path fill="#00000000" d="M25.4,25.4m-19.579,0a19.579,19.579 0,1 1,39.158 0a19.579,19.579 0,1 1,-39.158 0" stroke-linejoin="round" stroke-width="3.175" stroke="#000000" stroke-linecap="round" id="path_0"/><path fill="#00000000" d="m38.745,18.867c0,0 1.445,4.765 0.619,10.005 -0.802,5.09 -5.9,8.648 -5.9,8.648" stroke-linejoin="round" stroke-width="2.117" stroke="#000000" stroke-linecap="round" id="path_1"/><path fill="#00000000" d="m33.193,18.03c0,0 1.384,4.887 0.206,10.163 -1.099,4.923 -6.139,8.369 -6.139,8.369" stroke-linejoin="round" stroke-width="2.117" stroke="#000000" stroke-linecap="round" id="path_2"/><path fill="#00000000" d="m44.305,24.837c0,0 -3.199,1.209 -7.551,0.989 -3.915,-0.198 -7.864,-2.024 -7.864,-2.024" stroke-linejoin="round" stroke-width="2.117" stroke="#000000" stroke-linecap="round" id="path_3"/><path fill="#00000000" d="m28.198,30.638c0,0 4.455,1.595 7.551,1.636 4.206,0.056 7.646,-0.905 7.646,-0.905" stroke-linejoin="round" stroke-width="2.117" stroke="#000000" stroke-linecap="round" id="path_4"/><path fill="#000000" d="M17.849,25.539m-4.498,0a4.498,4.498 0,1 1,8.996 0a4.498,4.498 0,1 1,-8.996 0" stroke-linejoin="round" stroke-width="1.058" stroke="#00000000" stroke-linecap="round" id="path_5"/><path fill="#00000000" d="M17.849,32.815L17.849,18.263" stroke-linejoin="round" stroke-width="2.117" stroke="#000000" stroke-linecap="round" id="path_6"/><path fill="#00000000" d="m10.573,25.539 l14.552,-0" stroke-linejoin="round" stroke-width="2.11667" stroke="#000000" stroke-linecap="round" id="path_7"/><path fill="#00000000" d="M21.474,31.848L14.225,19.23" stroke-linejoin="round" stroke-width="2.117" stroke="#000000" stroke-linecap="round" id="path_8"/><path fill="#00000000" d="M14.211,31.84L21.487,19.238" stroke-linejoin="round" stroke-width="2.117" stroke="#000000" stroke-linecap="round" id="path_9"/><path fill="#00000000" d="M24.151,29.177L11.548,21.901" stroke-linejoin="round" stroke-width="2.117" stroke="#000000" stroke-linecap="round" id="path_10"/><path fill="#00000000" d="M11.548,29.177L24.151,21.901" stroke-linejoin="round" stroke-width="2.117" stroke="#000000" stroke-linecap="round" id="path_11"/></svg>