<?xml version="1.0" encoding="UTF-8" standalone="no"?><svg xmlns:android="http://schemas.android.com/apk/res/android" height="50.8" width="50.8" xmlns="http://www.w3.org/2000/svg">
  <path d="M23.304,32.835A10.327,10.327 60,0 1,8.853 32.719,10.327 10.327,60 0,1 8.668,18.269 10.327,10.327 60,0 1,23.111 17.781" fill="#000000" fill-opacity="0.0" stroke="#000000" stroke-linecap="round" stroke-linejoin="round" stroke-width="3.17406"/>
  <path d="m38.641,29.735v-6.233c0,0 -0.352,-2.324 1.972,-2.324h4.367" fill="#000000" fill-opacity="0.0" stroke="#000000" stroke-linecap="round" stroke-linejoin="round" stroke-width="3.17406"/>
  <path d="m37.566,25.456h5.282" fill="#000000" fill-opacity="0.0" stroke="#000000" stroke-linecap="round" stroke-linejoin="round" stroke-width="3.17406"/>
  <path d="m28.509,21.036v8.558h3.064c0,0 3.944,0.353 4.05,-2.641v-2.641c0,0 0.141,-3.346 -3.486,-3.346z" fill="#000000" fill-opacity="0.0" stroke="#000000" stroke-linecap="round" stroke-linejoin="round" stroke-width="3.17406"/>
  <path d="m19.113,21.107h4.402c0,0 2.078,-0.07 2.078,2.324 0,0 0.176,1.902 -2.395,1.902h-1.303c0,0 -2.747,-0.387 -2.747,2.148v2.078h6.726" fill="#000000" fill-opacity="0.0" stroke="#000000" stroke-linecap="round" stroke-linejoin="round" stroke-width="3.17406"/>
</svg>