<?xml version="1.0" encoding="UTF-8" standalone="no"?>
<svg
   width="192"
   height="192"
   viewBox="0 0 192 192"
   fill="none"
   version="1.1"
   id="svg4848"
   inkscape:version="1.2.1 (9c6d41e410, 2022-07-14)"
   sodipodi:docname="coindcx.svg"
   xmlns:inkscape="http://www.inkscape.org/namespaces/inkscape"
   xmlns:sodipodi="http://sodipodi.sourceforge.net/DTD/sodipodi-0.dtd"
   xmlns="http://www.w3.org/2000/svg"
   xmlns:svg="http://www.w3.org/2000/svg">
  <defs
     id="defs4852" />
  <sodipodi:namedview
     id="namedview4850"
     pagecolor="#ffffff"
     bordercolor="#000000"
     borderopacity="0.25"
     inkscape:showpageshadow="2"
     inkscape:pageopacity="0.0"
     inkscape:pagecheckerboard="0"
     inkscape:deskcolor="#d1d1d1"
     showgrid="false"
     inkscape:zoom="2.8578899"
     inkscape:cx="51.261597"
     inkscape:cy="97.974383"
     inkscape:window-width="1920"
     inkscape:window-height="974"
     inkscape:window-x="-11"
     inkscape:window-y="-11"
     inkscape:window-maximized="1"
     inkscape:current-layer="svg4848" />
  <g
     id="g2488"
     transform="matrix(1.3333333,0,0,1.3333132,16.000002,80.0025)"
     style="stroke-width:0.750005">
    <path
       d="m 18.0853,16.6601 3.0316,2.6 c -0.58,0.8101 -1.2807,1.528 -2.0782,2.129 -0.9917,0.7763 -2.0938,1.4027 -3.2703,1.859 -1.3021,0.505 -2.6898,0.7576 -4.0877,0.744 C 9.5549,24.0291 7.45904,23.4916 5.61762,22.4371 3.88217,21.4266 2.45711,19.966 1.49564,18.2121 0.477651,16.3468 -0.0368692,14.252 0.0020554,12.1311 -0.0118484,10.5375 0.275648,8.9555 0.849631,7.4671 1.40866,6.03753 2.2417,4.72906 3.30266,3.6141 4.34833,2.50494 5.6119,1.62009 7.01546,1.0141 8.53236,0.370276 10.168,0.0477307 11.8177,0.0671016 13.7875,-0.0056401 15.7406,0.449656 17.4716,1.3851 c 1.433,0.827 2.6746,1.94385 3.6443,3.278 0,0 -0.872388,0.7696873 -1.383188,1.220354 C 19.221912,6.3341207 18.0511,7.3671 18.0511,7.3671 17.3707,6.36778 16.5034,5.50723 15.4963,4.8321 14.3915,4.16244 13.1112,3.83321 11.8177,3.8861 10.4379,3.84588 9.07993,4.23544 7.9346,5.0001 6.83697,5.75923 5.96645,6.79852 5.41505,8.0081 c -0.59597,1.27079 -0.89894,2.6574 -0.88688,4.059 -0.01532,1.3681 0.28784,2.7212 0.88587,3.954 0.54793,1.1444 1.39325,2.1233 2.449,2.836 1.10224,0.714 2.39686,1.0794 3.71276,1.048 1.1083,0.0472 2.2133,-0.1491 3.2361,-0.575 0.7354,-0.3286 1.4046,-0.7867 1.9754,-1.352 l 1.294,-1.318"
       fill="#1c2951"
       id="path2350"
       style="fill:#000000;fill-opacity:1;stroke-width:0.562504"
       sodipodi:nodetypes="cccscccccccccczcccccccccccc" />
    <path
       d="m 22.3105,15.3761 c -0.0151,-1.4895 0.3607,-2.9572 1.0905,-4.259 0.7271,-1.28691 1.7849,-2.35966 3.0657,-3.10898 1.3891,-0.75387 2.9469,-1.14899 4.5302,-1.14899 1.5832,0 3.1411,0.39512 4.5301,1.14899 1.2809,0.74932 2.3387,1.82207 3.0658,3.10898 0.7153,1.3072 1.0899,2.7711 1.0899,4.2585 0,1.4875 -0.3746,2.9513 -1.0899,4.2585 -0.7755,1.314 -1.8833,2.4043 -3.2139,3.163 -1.3305,0.7588 -2.8376,1.1597 -4.3722,1.1631 -1.5346,0.0035 -3.0436,-0.3907 -4.3775,-1.1435 -1.334,-0.7528 -2.4467,-1.8381 -3.2282,-3.1486 -0.7296,-1.3014 -1.1054,-2.7688 -1.0905,-4.258 z m 8.6521,5.104 c 0.9157,0.035 1.8162,-0.2389 2.5548,-0.777 0.6742,-0.5098 1.2025,-1.1854 1.5329,-1.96 0.3256,-0.7357 0.4993,-1.5286 0.511,-2.332 -0.0079,-0.8038 -0.1818,-1.5975 -0.511,-2.332 -0.3317,-0.7737 -0.8598,-1.449 -1.5329,-1.96 -0.7541,-0.5066 -1.644,-0.7773 -2.5548,-0.7773 -0.9107,0 -1.8006,0.2707 -2.5548,0.7773 -0.6569,0.5047 -1.1728,1.1677 -1.4986,1.926 -0.3292,0.7345 -0.5031,1.5282 -0.511,2.332 0.0061,0.815 0.18,1.6201 0.511,2.366 0.329,0.7754 0.8576,1.4513 1.5329,1.96 0.7386,0.5381 1.6392,0.812 2.5548,0.777"
       fill="#1c2951"
       id="path2352"
       style="fill:#000000;fill-opacity:1;stroke-width:0.562504" />
    <path
       d="m 40.498,0.606079 h 4.0535 V 4.86508 H 40.498 Z m 0,6.760001 h 4.0535 V 23.4201 H 40.498 Z"
       fill="#1c2951"
       id="path2354"
       style="fill:#000000;fill-opacity:1;stroke-width:0.562504" />
    <path
       d="M 46.1523,23.4201 V 7.40007 h 3.8832 l 0.1008,1.82499 c 0.5351,-0.55104 1.1422,-1.0286 1.805,-1.42 0.93,-0.53173 1.9933,-0.78978 3.0657,-0.74399 0.852,-0.05428 1.7056,0.07802 2.5003,0.38753 0.7947,0.30951 1.5111,0.78865 2.0984,1.40347 1.124,1.35573 1.6953,3.08003 1.6014,4.83303 v 9.734 h -4.0877 v -9.7 c 0.0257,-0.431 -0.0366,-0.8626 -0.1829,-1.2691 -0.1463,-0.4065 -0.3737,-0.7796 -0.6687,-1.0969 -0.2853,-0.282 -0.6261,-0.5025 -1.0012,-0.6479 -0.3751,-0.1454 -0.7763,-0.2125 -1.1787,-0.1971 -0.5271,-0.014 -1.0508,0.0879 -1.5336,0.2983 -0.4828,0.2104 -0.9128,0.5241 -1.2591,0.9187 -0.7341,0.8295 -1.1238,1.9045 -1.0904,3.008 v 8.686 z"
       fill="#1c2951"
       id="path2356"
       style="fill:#000000;fill-opacity:1;stroke-width:0.562504" />
    <path
       d="m 111.282,11.1851 7.156,-10.583017 h -6.779 L 107.946,6.51708 104.127,0.602083 H 96.6325 L 96.9731,1.07508 96.7343,0.975083 C 94.9617,0.30842 93.0787,-0.0216462 91.1832,0.00208258 88.9987,-0.0383589 86.8442,0.51087 84.9498,1.59108 83.5969,2.37792 82.4249,3.43694 81.5092,4.70008 80.5142,3.46263 79.2272,2.48755 77.7621,1.86108 75.7598,1.01848 73.6015,0.602501 71.4269,0.640083 H 62.6045 V 23.4201 h 8.7882 c 2.1774,0.0353 4.3372,-0.3912 6.3351,-1.251 1.4553,-0.6273 2.7396,-1.5887 3.7471,-2.805 0.9307,1.2744 2.1272,2.3348 3.5082,3.109 1.8953,1.0399 4.0338,1.5646 6.1991,1.521 2.0495,0.0363 4.0792,-0.4034 5.927,-1.284 l -0.4767,0.71 h 6.6755 l 4.463,-7 4.599,7 H 120 Z m -35.459,5.2 c -0.6144,0.5824 -1.3431,1.033 -2.1407,1.3237 -0.7976,0.2908 -1.647,0.4155 -2.4952,0.3663 H 68.7018 V 5.91308 h 2.4863 c 0.8705,-0.07319 1.7466,0.03981 2.5694,0.33135 0.8227,0.29155 1.5728,0.75486 2.1996,1.35865 1.0553,1.21807 1.6034,2.78922 1.5329,4.39402 0.0332,0.806 -0.0974,1.6105 -0.3841,2.3654 -0.2868,0.7549 -0.7237,1.4448 -1.2849,2.0286 z m 24.42,1.662 -2.895,-2.7 c -0.6783,0.8727 -1.5088,1.6178 -2.452,2.2 -1.0085,0.5171 -2.1364,0.762 -3.2704,0.71 -1.1221,0.0272 -2.2301,-0.2534 -3.2018,-0.811 -0.9098,-0.5376 -1.6445,-1.3235 -2.1164,-2.264 -0.5096,-1.0178 -0.7667,-2.1417 -0.7498,-3.278 -0.0219,-1.1115 0.2234,-2.21225 0.7155,-3.21102 0.4663,-0.93228 1.1861,-1.71651 2.0781,-2.264 0.9985,-0.5861 2.1441,-0.87911 3.3037,-0.845 1.074,-0.02145 2.1337,0.24712 3.0658,0.777 0.9092,0.53541 1.6981,1.25013 2.3179,2.1 l 3.0314,-3.008 4.429,6.32002 z"
       fill="#f94a29"
       id="path2358"
       style="fill:#000000;fill-opacity:1;stroke-width:0.562504"
       sodipodi:nodetypes="cccccccccccccccccccccccccccccccccccccccccccccccccccccc" />
  </g>
</svg>
