<?xml version="1.0" encoding="UTF-8" standalone="no"?><svg xmlns:android="http://schemas.android.com/apk/res/android" height="192" width="192" xmlns="http://www.w3.org/2000/svg">
  <path d="M137.62,55.8 L139.25,64.63 170,75.45 136.33,91.43c-5.44,13.06 -14.52,27.67 -34.33,34.29L90.24,161.79 75.4,127.71C57.03,125.66 49.28,118.86 49.28,118.86 40.13,118.11 31.6,117.71 22,116.6 59.49,81.67 117.3,49.78 164.48,52.78c3.36,6.17 5.39,16.55 5.52,22.67 0.13,6.13 0.44,27.43 -23.5,58.05" fill="#000000" fill-opacity="0.0" stroke="#000000" stroke-linecap="round" stroke-linejoin="round" stroke-width="12"/>
  <path d="m22,116.6c0.14,15.92 16.41,19.44 24.85,23.28" fill="#000000" fill-opacity="0.0" stroke="#000000" stroke-linecap="round" stroke-linejoin="round" stroke-width="12"/>
  <path d="m91.32,75.97c0.36,8.26 -3.01,14.09 -3.01,14.09 0,0 -3.41,-4.62 -2.3,-11.4z" fill="#000000" fill-opacity="0.0" stroke="#000000" stroke-linecap="round" stroke-linejoin="miter" stroke-width="6"/>
  <path d="M46.49,99.6 L69.64,92.09C92.09,112.42 111.23,90.04 112.74,71.48l19.71,-13.44" fill="#000000" fill-opacity="0.0" stroke="#000000" stroke-linecap="round" stroke-linejoin="round" stroke-width="6"/>
</svg>