<?xml version="1.0" encoding="UTF-8" standalone="no"?><svg xmlns:android="http://schemas.android.com/apk/res/android" height="192" width="192" xmlns="http://www.w3.org/2000/svg">
  <path d="M65.5,64l31.08,-15.96l31.92,15.96l-31.08,15.96l-31.92,-15.96z" fill="#000000" fill-opacity="0.0" stroke="#000" stroke-linecap="round" stroke-linejoin="round" stroke-width="12"/>
  <path d="M86.75,122l-30,-16l0,-30l30,16l0,30z" fill="#000000" fill-opacity="0.0" stroke="#000" stroke-linejoin="round" stroke-width="12"/>
  <path d="M135.25,77l-30,16l0,30l30,-16l0,-30z" fill="#000000" fill-opacity="0.0" stroke="#000" stroke-linejoin="round" stroke-width="12"/>
  <path d="M96,22C72,22 56.16,35.93 50.67,41.43 46,46.14 30.51,63 31.25,88.6c0.69,23.84 15,39.14 19.42,43.48a66.15,66.15 0,0 0,29.6 16.64L96,170l15.72,-21.28a66.05,66.05 0,0 0,29.6 -16.64c4.43,-4.34 18.74,-19.64 19.43,-43.48C161.49,63 146,46.14 141.32,41.43 135.84,35.93 120,22 96,22Z" fill="#000000" fill-opacity="0.0" stroke="#000" stroke-linecap="round" stroke-linejoin="round" stroke-width="12"/>
</svg>