<?xml version="1.0" encoding="UTF-8" standalone="no"?><svg xmlns:android="http://schemas.android.com/apk/res/android" height="192" width="192" xmlns="http://www.w3.org/2000/svg">
  <path d="M46,30L146,30A16,16 0,0 1,162 46L162,146A16,16 0,0 1,146 162L46,162A16,16 0,0 1,30 146L30,46A16,16 0,0 1,46 30z" fill="#000000" fill-opacity="0.0" stroke="#000000" stroke-width="12"/>
  <path d="M76,30V68L96,52L116,68V30" fill="#000000" fill-opacity="0.0" stroke="#000000" stroke-linecap="round" stroke-linejoin="round" stroke-width="12"/>
  <path d="M54,102C54,102 72,114 96,114C120,114 138,102 138,102M138,102L121,95M138,102L131,121" fill="#000000" fill-opacity="0.0" stroke="#000000" stroke-linecap="round" stroke-linejoin="round" stroke-width="12"/>
</svg>