<?xml version="1.0" encoding="UTF-8" standalone="no"?><svg xmlns:android="http://schemas.android.com/apk/res/android" height="50.8" width="50.8" xmlns="http://www.w3.org/2000/svg">
  <path d="m31.007,19.499a8.254,8.254 60,0 1,11.609 0.153,8.254 8.254,60 0,1 -0.029,11.61 8.254,8.254 60,0 1,-11.61 0.095" fill="#000000" fill-opacity="0.0" stroke="#000000" stroke-linecap="round" stroke-linejoin="round" stroke-width="3.175"/>
  <path d="M5.292,29.537 L8.037,21.33h0.721l2.662,8.124" fill="#000000" fill-opacity="0.0" stroke="#000000" stroke-linecap="round" stroke-linejoin="round" stroke-width="2.11667"/>
  <path d="M6.068,27.217H10.687" fill="#000000" fill-opacity="0.0" stroke="#000000" stroke-linecap="round" stroke-linejoin="round" stroke-width="2.11667"/>
  <path d="m14.469,29.509v-8.207h2.662c0,0 1.941,-0.305 1.941,2.329 0,0 0.25,2.107 -2.274,2.107h-2.246" fill="#000000" fill-opacity="0.0" stroke="#000000" stroke-linecap="round" stroke-linejoin="round" stroke-width="2.11667"/>
  <path d="m17.159,25.822 l2.033,3.639" fill="#000000" fill-opacity="0.0" stroke="#000000" stroke-linecap="round" stroke-linejoin="round" stroke-width="2.11667"/>
  <path d="M24.451,29.482H22.51V21.302h1.969c0,0 3.549,-0.166 3.549,4.215 0,0 0.36,3.965 -3.577,3.965z" fill="#000000" fill-opacity="0.0" stroke="#000000" stroke-linecap="round" stroke-linejoin="round" stroke-width="2.11667"/>
  <path d="m33.235,24.296 l5.27,-1.971v4.717l-3.056,1.196v-4.783z" fill="#000000" fill-opacity="0.0" stroke="#000000" stroke-linecap="round" stroke-linejoin="round" stroke-width="3.175"/>
</svg>