<?xml version="1.0" encoding="UTF-8" standalone="no"?><svg xmlns:android="http://schemas.android.com/apk/res/android" height="192" width="192" xmlns="http://www.w3.org/2000/svg">
  <path d="M127,68a9,9 0,0 1,-9 9,9 9,0 0,1 -9,-9 9,9 0,0 1,9 -9,9 9,0 0,1 9,9zM83,68a9,9 0,0 1,-9 9,9 9,0 0,1 -9,-9 9,9 0,0 1,9 -9,9 9,0 0,1 9,9z" fill="#000"/>
  <path d="m142.1,22 l-18.45,18.5M49.86,22l18.45,18.5" fill="#000000" fill-opacity="0.0" stroke="#000" stroke-linecap="round" stroke-width="12"/>
  <path d="M145,82v39a49,49 0,0 1,-49 49,49 49,0 0,1 -49,-49V82a49,49 0,0 1,49 -49,49 49,0 0,1 49,49zM47,91h98" fill="#000000" fill-opacity="0.0" stroke="#000" stroke-width="12"/>
  <path d="m96,109 l19.72,34.02H76.28z" fill="#000000" fill-opacity="0.0" stroke="#000" stroke-linejoin="round" stroke-width="12"/>
</svg>