<?xml version="1.0" encoding="UTF-8" standalone="no"?><svg xmlns:android="http://schemas.android.com/apk/res/android" height="192" width="192" xmlns="http://www.w3.org/2000/svg">
  <path d="M96,28c37.5,0 68,30.5 68,68s-30.5,68 -68,68S28,133.5 28,96 58.5,28 96,28m0,-12c-44.18,0 -80,35.82 -80,80s35.82,80 80,80 80,-35.82 80,-80S140.18,16 96,16h0Z" fill="#000000" fill-opacity="1.0"/>
  <path d="M96,53c23.71,0 43,19.29 43,43s-19.29,43 -43,43 -43,-19.29 -43,-43 19.29,-43 43,-43m0,-8c-28.17,0 -51,22.83 -51,51s22.83,51 51,51 51,-22.83 51,-51 -22.83,-51 -51,-51h0Z" fill="#000000" fill-opacity="1.0"/>
  <path d="M71,110l0,-28l-7.31,6" fill="#000000" fill-opacity="0.0" stroke="#000" stroke-linecap="round" stroke-linejoin="round" stroke-width="8"/>
  <path d="M82.28,96.14a8.69,14.14 0,1 0,17.38 0a8.69,14.14 0,1 0,-17.38 0z" fill="#000000" fill-opacity="0.0" stroke="#000" stroke-linecap="round" stroke-linejoin="round" stroke-width="8"/>
  <path d="M110.79,96.14a8.69,14.14 0,1 0,17.38 0a8.69,14.14 0,1 0,-17.38 0z" fill="#000000" fill-opacity="0.0" stroke="#000" stroke-linecap="round" stroke-linejoin="round" stroke-width="8"/>
</svg>