<?xml version="1.0" encoding="UTF-8" standalone="no"?><svg xmlns:android="http://schemas.android.com/apk/res/android" height="192" width="192" xmlns="http://www.w3.org/2000/svg">
  <path d="M92.953,57.154C115.581,34.527 150.936,21.799 169.321,23.213C170.735,41.598 158.007,76.953 135.38,99.581C112.752,122.208 87.296,139.179 73.154,144.836L47.698,119.38C53.355,105.238 70.326,79.782 92.953,57.154Z" fill="#000000" fill-opacity="0.0" stroke="#000000" stroke-linecap="round" stroke-linejoin="round" stroke-width="12"/>
  <path d="M87.296,105.238L47.699,144.836" fill="#000000" fill-opacity="0.0" stroke="#000000" stroke-linecap="round" stroke-linejoin="round" stroke-width="12"/>
  <path d="M128.309,64.225m-8.485,-8.485a12,12 0,1 1,16.971 16.971a12,12 0,1 1,-16.971 -16.971" fill="#000000"/>
  <path d="M115.581,119.38L117.15,136.636C117.929,145.206 114.06,153.536 107.011,158.471L90.125,170.291L88.711,137.764" fill="#000000" fill-opacity="0.0" stroke="#000000" stroke-linecap="round" stroke-linejoin="round" stroke-width="12"/>
  <path d="M73.154,76.953L55.897,75.384C47.328,74.605 38.998,78.474 34.063,85.523L22.243,102.409L54.77,103.823" fill="#000000" fill-opacity="0.0" stroke="#000000" stroke-linecap="round" stroke-linejoin="round" stroke-width="12"/>
</svg>