<?xml version="1.0" encoding="UTF-8" standalone="no"?><svg xmlns:aapt="http://schemas.android.com/aapt" xmlns:android="http://schemas.android.com/apk/res/android" height="50.8" width="50.8" xmlns="http://www.w3.org/2000/svg">
  <path d="m16.821,32.704l6.26,5.253c2.087,1.751 4.389,1.55 6.14,-0.537L40.251,24.274c1.926,-2.295 1.564,-8.644 -4.696,-13.897 -6.26,-5.253 -12.575,-4.507 -14.501,-2.212L10.024,21.311c-1.751,2.087 -1.549,4.389 0.537,6.14l6.26,5.253" fill="#000000" fill-opacity="0.0" stroke="#000000" stroke-linecap="round" stroke-linejoin="round" stroke-width="3.08397"/>
  <path d="M15.802,14.425L14.55,13.374c-2.4,-2.014 -4.702,-1.812 -6.715,0.588l-2.013,2.4" fill="#000000" fill-opacity="0.0" stroke="#000000" stroke-linecap="round" stroke-linejoin="round" stroke-width="3.08397"/>
  <path d="m34.998,30.534l1.252,1.051c2.4,2.014 4.702,1.812 6.715,-0.588l2.013,-2.4" fill="#000000" fill-opacity="0.0" stroke="#000000" stroke-linecap="round" stroke-linejoin="round" stroke-width="3.08397"/>
  <path d="M25.853,12.192m-1.252,-1.051a1.634,1.634 90.027,1 1,2.504 2.101a1.634,1.634 90.027,1 1,-2.504 -2.101" fill="#000000" stroke="#00000000" stroke-linecap="round" stroke-linejoin="round" stroke-width="1.09263"/>
  <path d="M35.452,20.246m-1.252,-1.051a1.634,1.634 90.027,1 1,2.504 2.101a1.634,1.634 90.027,1 1,-2.504 -2.101" fill="#000000" stroke="#00000000" stroke-linecap="round" stroke-linejoin="round" stroke-width="1.09263"/>
  <path d="m29.697,22.952c0.586,2.512 -0.501,5.118 -2.699,6.47 -2.198,1.352 -5.013,1.146 -6.989,-0.511 -1.977,-1.657 -2.672,-4.392 -1.725,-6.793 0.946,-2.4 3.322,-3.926 5.897,-3.789" fill="#000000" fill-opacity="0.0" stroke="#000000" stroke-linecap="round" stroke-linejoin="round" stroke-width="2.05598"/>
  <path d="m27.573,19.889 l-4.099,4.885" fill="#000000" fill-opacity="0.0" stroke="#000000" stroke-linecap="round" stroke-linejoin="round" stroke-width="2.05598"/>
  <path d="M35.555,10.376L37.656,7.872" fill="#000000" fill-opacity="0.0" stroke="#000000" stroke-linecap="round" stroke-linejoin="miter" stroke-width="3.08397"/>
  <path d="m13.319,36.878c-1.893,-1.589 -4.34,-1.316 -5.583,0.382 -1.391,1.888 -0.924,5.589 -0.72,7.13" fill="#000000" fill-opacity="0.0" stroke="#000000" stroke-linecap="round" stroke-linejoin="round" stroke-width="3.08397"/>
  <path d="m13.319,36.878c1.893,1.589 2.05,4.046 0.593,5.565 -1.618,1.698 -5.343,1.881 -6.896,1.947" fill="#000000" fill-opacity="0.0" stroke="#000000" stroke-linecap="round" stroke-linejoin="round" stroke-width="3.08397"/>
</svg>