<?xml version="1.0" encoding="UTF-8" standalone="no"?><svg xmlns:android="http://schemas.android.com/apk/res/android" height="192" width="192" xmlns="http://www.w3.org/2000/svg">
  <path d="M82.97,85.6L82.97,143.17" fill="#000000" fill-opacity="0.0" stroke="#000000" stroke-linecap="round" stroke-linejoin="round" stroke-width="12"/>
  <path d="m119.3,68.21l0,65.17a10.26,10.19 90,0 0,10.78 10.86l3.23,0" fill="#000000" fill-opacity="0.0" stroke="#000000" stroke-linecap="round" stroke-linejoin="round" stroke-width="12"/>
  <path d="M108.52,86.68L131.16,86.68" fill="#000000" fill-opacity="0.0" stroke="#000000" stroke-linecap="round" stroke-linejoin="round" stroke-width="12"/>
  <path d="m61.86,133.41a21.02,20.87 90,0 1,-18.33 10.86l0,0a21.79,21.63 90,0 1,-21.56 -21.72l0,-14.12a21.79,21.63 90,0 1,21.56 -21.72l0,0a21.02,20.87 90,0 1,18.33 10.86" fill="#000000" fill-opacity="0.0" stroke="#000000" stroke-linecap="round" stroke-linejoin="round" stroke-width="12"/>
  <path d="M159.56,86.28L159.56,143.85" fill="#000000" fill-opacity="0.0" stroke="#000000" stroke-linecap="round" stroke-linejoin="round" stroke-width="12"/>
  <path d="m72.3,70.81c6.2,-6.24 22.16,-23.09 48.85,-23.09 26.69,0 42.72,16.88 48.88,23.09" fill="#000000" fill-opacity="0.0" stroke="#000000" stroke-linecap="round" stroke-linejoin="round" stroke-width="12"/>
</svg>