<?xml version="1.0" encoding="UTF-8" standalone="no"?><svg xmlns:android="http://schemas.android.com/apk/res/android" height="50.8" width="50.8" xmlns="http://www.w3.org/2000/svg">
  <path d="m16.8,38.042h12.068l-1.652,-2.765 3.896,-7.12 -12.923,0.091c-1.709,0 -0.867,-1.412 -0.867,-1.412L23.512,15.523 17.739,5.82 8.593,22.461c0,0 -2.817,4.26 -0.696,9.303 2.121,5.043 7.442,6.33 8.903,6.277z" fill="#000000" fill-opacity="0.0" stroke="#000000" stroke-linecap="round" stroke-linejoin="round" stroke-width="3.175"/>
  <path d="M33.928,12.758H21.86l1.652,2.765 -3.846,7.028h12.873c1.709,0 0.867,1.412 0.867,1.412l-6.19,11.313 5.773,9.703 9.146,-16.641c0,0 2.817,-4.26 0.696,-9.303 -2.121,-5.043 -7.442,-6.33 -8.903,-6.277z" fill="#000000" fill-opacity="0.0" stroke="#000000" stroke-linecap="round" stroke-linejoin="round" stroke-width="3.175"/>
</svg>