<?xml version="1.0" encoding="UTF-8" standalone="no"?><svg xmlns:android="http://schemas.android.com/apk/res/android" height="192" width="192" xmlns="http://www.w3.org/2000/svg">
  <path d="M164.18,144.95A74.37,73.8 0,0 1,82.34 165.14,74.37 73.8,0 0,1 34.11,96.5 74.37,73.8 0,0 1,81.5 27.28,74.37 73.8,0 0,1 163.57,46.48" fill="#000000" fill-opacity="0.0" stroke="#000000" stroke-linecap="round" stroke-linejoin="round" stroke-width="12"/>
  <path d="M139.23,123.54A40.63,40.63 0,0 1,94.53 134.66,40.63 40.63,0 0,1 68.18,96.87 40.63,40.63 0,0 1,94.06 58.76,40.63 40.63,0 0,1 138.9,69.33" fill="#000000" fill-opacity="0.0" stroke="#000000" stroke-linecap="round" stroke-linejoin="round" stroke-width="12"/>
  <path d="M163.6,46.52 L138.87,69.31" fill="#000000" fill-opacity="0.0" stroke="#000000" stroke-linecap="round" stroke-linejoin="round" stroke-width="12"/>
  <path d="m139.17,123.58 l24.97,21.27" fill="#000000" fill-opacity="0.0" stroke="#000000" stroke-linecap="round" stroke-linejoin="round" stroke-width="12"/>
</svg>