<?xml version="1.0" encoding="UTF-8" standalone="no"?><svg xmlns:android="http://schemas.android.com/apk/res/android" height="192" width="192" xmlns="http://www.w3.org/2000/svg">
  <path d="M46.13,72.41H83.51" fill="#000000" fill-opacity="0.0" stroke="#000000" stroke-linecap="round" stroke-linejoin="round" stroke-width="12"/>
  <path d="M64.25,22V67.34" fill="#000000" fill-opacity="0.0" stroke="#000000" stroke-linecap="round" stroke-linejoin="round" stroke-width="12"/>
  <path d="m42.83,22v60.89c0,0 0.96,11.43 10.64,11.43" fill="#000000" fill-opacity="0.0" stroke="#000000" stroke-linecap="round" stroke-linejoin="round" stroke-width="12"/>
  <path d="m86.35,22v60.89c0,0 -0.96,11.43 -10.64,11.43" fill="#000000" fill-opacity="0.0" stroke="#000000" stroke-linecap="round" stroke-linejoin="round" stroke-width="12"/>
  <path d="m53.53,94.45v69.56c0,0 0.39,6.04 6.81,6.03 6.42,-0.01 6.42,-0.01 6.42,-0.01h2.5c0,0 6.38,0.27 6.38,-5.58 0,-5.85 0,-69.59 0,-69.59" fill="#000000" fill-opacity="0.0" stroke="#000000" stroke-linecap="round" stroke-linejoin="bevel" stroke-width="12"/>
  <path d="m124.23,21.92h25.54c0,0 4.55,-0.08 4.55,4.47 0,4.55 0,134.64 0,134.64 0,0 0.25,9.06 -8.67,9.06 -8.92,0 -15.06,0 -15.06,0 0,0 -8.17,-0.09 -8.17,-9.35 0,-9.26 0,-43.93 0,-43.93h-19.46c0,0 -1.44,-0.27 -1.44,-1.25 0,-0.98 0,-70.57 0,-70.57 0,0 4.89,-23.08 22.71,-23.08z" fill="#000000" fill-opacity="0.0" stroke="#000000" stroke-linecap="round" stroke-linejoin="round" stroke-width="12"/>
</svg>