<?xml version="1.0" encoding="UTF-8" standalone="no"?><svg xmlns:android="http://schemas.android.com/apk/res/android" height="192" width="192" xmlns="http://www.w3.org/2000/svg">
  <path d="M28.97,96m-12.97,0a12.97,12.97 0,1 1,25.94 0a12.97,12.97 0,1 1,-25.94 0" fill="#000000" fill-opacity="1.0"/>
  <path d="M62.49,62.49m-12.97,0a12.97,12.97 0,1 1,25.94 0a12.97,12.97 0,1 1,-25.94 0" fill="#000000" fill-opacity="1.0"/>
  <path d="M96,28.97m-12.97,0a12.97,12.97 0,1 1,25.94 0a12.97,12.97 0,1 1,-25.94 0" fill="#000000" fill-opacity="1.0"/>
  <path d="M62.49,129.51m-12.97,0a12.97,12.97 0,1 1,25.94 0a12.97,12.97 0,1 1,-25.94 0" fill="#000000" fill-opacity="1.0"/>
  <path d="M96,96m-12.97,0a12.97,12.97 0,1 1,25.94 0a12.97,12.97 0,1 1,-25.94 0" fill="#000000" fill-opacity="1.0"/>
  <path d="M129.51,62.49m-12.97,0a12.97,12.97 0,1 1,25.94 0a12.97,12.97 0,1 1,-25.94 0" fill="#000000" fill-opacity="1.0"/>
  <path d="M96,163.03m-12.97,0a12.97,12.97 0,1 1,25.94 0a12.97,12.97 0,1 1,-25.94 0" fill="#000000" fill-opacity="1.0"/>
  <path d="M129.51,129.51m-12.97,0a12.97,12.97 0,1 1,25.94 0a12.97,12.97 0,1 1,-25.94 0" fill="#000000" fill-opacity="1.0"/>
  <path d="M163.03,96m-12.97,0a12.97,12.97 0,1 1,25.94 0a12.97,12.97 0,1 1,-25.94 0" fill="#000000" fill-opacity="1.0"/>
</svg>