<?xml version="1.0" encoding="UTF-8" standalone="no"?><svg xmlns:android="http://schemas.android.com/apk/res/android" height="192" width="192" xmlns="http://www.w3.org/2000/svg">
  <path d="M99,54H54V82H87" fill="#000000" fill-opacity="0.0" stroke="#000000" stroke-linejoin="round" stroke-width="12"/>
  <path d="M93,138H138V110H105" fill="#000000" fill-opacity="0.0" stroke="#000000" stroke-linejoin="round" stroke-width="12"/>
  <path d="M110.616,19.351C111.626,17.299 113.714,16 116,16H138C141.314,16 144,18.686 144,22V44C144,44.918 143.789,45.825 143.384,46.649L109.258,116H95.884L132,42.604V28H119.735L103.989,60H90.615L110.616,19.351ZM88.011,132L72.265,164H60V149.396L96.116,76H82.742L48.617,145.351C48.211,146.175 48,147.082 48,148V170C48,173.313 50.686,176 54,176H76C78.286,176 80.374,174.7 81.383,172.649L101.385,132H88.011Z" fill="#000000" fill-rule="evenOdd"/>
</svg>