<?xml version="1.0" encoding="UTF-8" standalone="no"?><svg xmlns:android="http://schemas.android.com/apk/res/android" height="50.8" width="50.8" xmlns="http://www.w3.org/2000/svg">
  <path d="M22.137,16.427h6.527V25.4h6.526l-9.79,9.79 -9.79,-9.79h6.527v-8.974" fill="#000000" fill-opacity="0.0" stroke="#000" stroke-linecap="round" stroke-linejoin="round" stroke-width="3.1748742"/>
  <path d="M25.4,25.4m-17.947,0a17.947,17.947 45,1 1,35.895 0a17.947,17.947 135,1 1,-35.895 0" fill="#000000" fill-opacity="0.0" stroke="#000" stroke-linecap="round" stroke-linejoin="round" stroke-width="3.175"/>
  <path d="M25.4,7.453L25.4,5.821M43.348,25.4l1.631,0M25.4,43.348l0,1.631M7.453,25.4L5.821,25.4M12.347,12.347l-0.816,-0.816M38.453,12.347l0.816,-0.816M38.453,38.453l0.816,0.816M12.347,38.453l-0.816,0.816" fill="#000000" fill-opacity="0.0" stroke="#000" stroke-linecap="round" stroke-linejoin="round" stroke-width="3.175"/>
</svg>