<?xml version="1.0" encoding="UTF-8" standalone="no"?><svg xmlns:android="http://schemas.android.com/apk/res/android" height="192" width="192" xmlns="http://www.w3.org/2000/svg">
  <path d="M96,156m-14,0a14,14 0,1 1,28 0a14,14 0,1 1,-28 0" fill="#000000" fill-opacity="0.0" stroke="#000000" stroke-width="12"/>
  <path d="M96,140V22M96,22L82,36M96,22L110,36" fill="#000000" fill-opacity="0.0" stroke="#000000" stroke-linecap="round" stroke-linejoin="round" stroke-width="12"/>
  <path d="M96,108L134,88V64" fill="#000000" fill-opacity="0.0" stroke="#000000" stroke-linecap="round" stroke-linejoin="round" stroke-width="12"/>
  <path d="M96,120L58,100V76" fill="#000000" fill-opacity="0.0" stroke="#000000" stroke-linecap="round" stroke-linejoin="round" stroke-width="12"/>
  <path d="M128,48L140,48A6,6 0,0 1,146 54L146,66A6,6 0,0 1,140 72L128,72A6,6 0,0 1,122 66L122,54A6,6 0,0 1,128 48z" fill="#000000"/>
  <path d="M58,76m-12,0a12,12 0,1 1,24 0a12,12 0,1 1,-24 0" fill="#000000"/>
</svg>