<?xml version="1.0" encoding="UTF-8" standalone="no"?><svg xmlns:android="http://schemas.android.com/apk/res/android" height="50.8" width="50.8" xmlns="http://www.w3.org/2000/svg">
  <path d="M12.48,27.75v17.229h25.845v-17.23H12.48M17.179,22.268h-4.7S10.914,8.17 25.01,8.17c14.88,0 13.314,14.097 13.314,14.097h-4.7" fill="#000000" fill-opacity="0.0" stroke="#010000" stroke-linecap="round" stroke-linejoin="round" stroke-width="3.174822"/>
  <path d="M28.665,17.046m-1.566,0a1.566,1.566 0,1 1,3.132 0a1.566,1.566 0,1 1,-3.132 0" fill="#000000" fill-opacity="1.0" stroke-width="3.175"/>
  <path d="M21.356,17.046m-1.566,0a1.566,1.566 0,1 1,3.132 0a1.566,1.566 0,1 1,-3.132 0" fill="#000000" fill-opacity="1.0" stroke-width="3.175"/>
  <path d="M17.962,9.737 L14.046,5.82M32.842,9.737l3.916,-3.916M22.661,27.75s-0.783,-3.917 2.35,-3.917 2.35,3.916 2.35,3.916M22.65,40.28s-3.147,-2.342 -1.573,-5.464c1.573,-3.121 6.294,-3.121 7.867,0 1.574,3.122 -1.573,5.464 -1.573,5.464" fill="#000000" fill-opacity="0.0" stroke="#010000" stroke-linecap="round" stroke-linejoin="round" stroke-width="3.174822"/>
</svg>