<?xml version="1.0" encoding="UTF-8" standalone="no"?><svg xmlns:android="http://schemas.android.com/apk/res/android" height="192" width="192" xmlns="http://www.w3.org/2000/svg">
  <path d="M23.9,112.67" fill="#fff"/>
  <path d="M23.9,109V69.82a4.9,4.9 0,1 1,9.79 0" fill="#000000" fill-opacity="0.0" stroke="#000" stroke-linecap="round" stroke-width="6"/>
  <path d="M19,84.51L30.02,83.28" fill="#000000" fill-opacity="0.0" stroke="#000" stroke-linecap="round" stroke-width="6"/>
  <path d="M50.83,89.41c-1.19,2.59 -2.62,5.11 -3.67,4.89 -1.3,-0.26 -0.91,-4.46 -2.45,-4.89 -2,-0.57 -4.29,6.38 -7.34,6.12 -2,-0.18 -3.68,-3.4 -3.68,-6.12 0,-3.59 2.9,-7.72 6.12,-7.35 2.56,0.29 5,3.36 4.9,7.35" fill="#000000" fill-opacity="0.0" stroke="#000" stroke-linecap="round" stroke-width="6"/>
  <path d="M54.51,77.16c0.26,7.63 0.89,14.54 2.44,14.7 2.43,0.24 5.77,-16.21 7.35,-15.92s-0.49,14.33 1.23,14.69c1.9,0.4 6.35,-16.35 8.57,-15.92 1.89,0.37 0.22,13 2.44,13.47 1.26,0.28 3.2,-3.41 4.9,-7.34" fill="#000000" fill-opacity="0.0" stroke="#000" stroke-linecap="round" stroke-width="6"/>
  <path d="M85.11,72.27Q85,86.46 87.56,87q1.8,0.35 4.9,-6.12" fill="#000000" fill-opacity="0.0" stroke="#000" stroke-linecap="round" stroke-width="6"/>
  <path d="M84.87,64.2L86.59,64.42" fill="#000000" fill-opacity="0.0" stroke="#000" stroke-linecap="round" stroke-width="6"/>
  <path d="M97.36,49q-3.57,35.57 1.22,36.73 2.19,0.54 6.12,-6.12" fill="#000000" fill-opacity="0.0" stroke="#000" stroke-linecap="round" stroke-width="6"/>
  <path d="M104.7,77.16c1.73,-3.93 3.69,-7.63 4.9,-7.34 2,0.47 0.06,11.47 2.45,12.24 2.67,0.86 7.62,-14 9.8,-13.47 2.93,0.76 0.93,29.48 -6.13,30.61 -2.6,0.42 -5.35,-3 -7.34,-6.12" fill="#000000" fill-opacity="0.0" stroke="#000" stroke-linecap="round" stroke-width="6"/>
  <path d="M36,143V105.78H51.7a11.47,11.47 0,0 1,7.16 10c0.14,5.37 -4,10.43 -10,11.45H37.39" fill="#000000" fill-opacity="0.0" stroke="#000" stroke-linecap="round" stroke-linejoin="round" stroke-width="12"/>
  <path d="M61.78,143l16.38,-37.22l19.35,37.22" fill="#000000" fill-opacity="0.0" stroke="#000" stroke-linecap="round" stroke-linejoin="round" stroke-width="12"/>
  <path d="M66,135.57L90.9,135.57" fill="#000000" fill-opacity="0.0" stroke="#000" stroke-linecap="round" stroke-linejoin="round" stroke-width="12"/>
  <path d="M109.76,143V105.78h15.75a11.61,11.61 0,0 1,0 21.47H114.06" fill="#000000" fill-opacity="0.0" stroke="#000" stroke-linecap="round" stroke-linejoin="round" stroke-width="12"/>
  <path d="M119.78,128.68a41.23,41.23 0,0 0,5.73 7.16,56.15 56.15,0 0,0 8.34,7.16" fill="#000000" fill-opacity="0.0" stroke="#000" stroke-linecap="round" stroke-linejoin="round" stroke-width="12"/>
  <path d="M145.81,143L145.81,105.78" fill="#000000" fill-opacity="0.0" stroke="#000" stroke-linecap="round" stroke-linejoin="round" stroke-width="12"/>
  <path d="M168.14,105.78l-14.86,18.12l16.72,19.1" fill="#000000" fill-opacity="0.0" stroke="#000" stroke-linecap="round" stroke-linejoin="round" stroke-width="12"/>
</svg>