<?xml version="1.0" encoding="UTF-8" standalone="no"?><svg xmlns:android="http://schemas.android.com/apk/res/android" height="192" width="192" xmlns="http://www.w3.org/2000/svg">
  <path d="m91.226,22c-9.436,0 -17.032,7.596 -17.032,17.032v8.516h-36.194v36.194h8.516c9.436,0 17.032,7.596 17.032,17.032 0,9.436 -7.596,17.032 -17.032,17.032h-8.516v36.194h36.194v-8.516c0,-9.436 7.596,-17.032 17.032,-17.032s17.032,7.596 17.032,17.032v8.516h36.194v-36.194h8.516c9.436,0 17.032,-7.596 17.032,-17.032 0,-9.436 -7.596,-17.032 -17.032,-17.032h-8.516v-36.194h-36.194v-8.516c0,-9.436 -7.596,-17.032 -17.032,-17.032z" fill="#000000" fill-opacity="0.0" stroke="#000" stroke-linecap="round" stroke-linejoin="round" stroke-width="12"/>
</svg>