<?xml version="1.0" encoding="UTF-8" standalone="no"?><svg xmlns:android="http://schemas.android.com/apk/res/android" height="192" width="192" xmlns="http://www.w3.org/2000/svg">
  <path d="M96,30H80.871C76.615,30 72.676,32.255 70.522,35.926L23.605,115.858C21.383,119.644 21.405,124.342 23.664,128.107L40.504,156.174C42.673,159.788 46.579,162 50.794,162H96" fill="#000000" fill-opacity="0.0" stroke="#000000" stroke-linecap="round" stroke-linejoin="round" stroke-width="12"/>
  <path d="M96,30H111.129C115.386,30 119.323,32.255 121.478,35.926L168.395,115.858C170.617,119.644 170.595,124.342 168.336,128.107L151.496,156.174C149.327,159.788 145.421,162 141.206,162H96" fill="#000000" fill-opacity="0.0" stroke="#000000" stroke-linecap="round" stroke-linejoin="round" stroke-width="12"/>
  <path d="M59,127L96,65L133,127H96H59Z" fill="#000000" fill-opacity="0.0" stroke="#000000" stroke-linecap="round" stroke-linejoin="round" stroke-width="12"/>
</svg>