<?xml version="1.0" encoding="UTF-8" standalone="no"?><svg xmlns:android="http://schemas.android.com/apk/res/android" height="192" width="192" xmlns="http://www.w3.org/2000/svg">
  <path d="M96,170C136.869,170 170,136.869 170,96C170,55.131 136.869,22 96,22C55.131,22 22,55.131 22,96C22,136.869 55.131,170 96,170Z" fill="#000000" fill-opacity="0.0" stroke="#000000" stroke-linecap="round" stroke-linejoin="round" stroke-width="12"/>
  <path d="M96,124C111.464,124 124,111.464 124,96C124,80.536 111.464,68 96,68C80.536,68 68,80.536 68,96C68,111.464 80.536,124 96,124Z" fill="#000000" fill-opacity="0.0" stroke="#000000" stroke-linecap="round" stroke-linejoin="round" stroke-width="12"/>
  <path d="M96,68H162" fill="#000000" fill-opacity="0.0" stroke="#000000" stroke-width="12"/>
  <path d="M120.249,110L87.249,167.158" fill="#000000" fill-opacity="0.0" stroke="#000000" stroke-width="12"/>
  <path d="M71.751,110L38.751,52.842" fill="#000000" fill-opacity="0.0" stroke="#000000" stroke-width="12"/>
</svg>