<?xml version="1.0" encoding="UTF-8" standalone="no"?><svg xmlns:android="http://schemas.android.com/apk/res/android" height="192" width="192" xmlns="http://www.w3.org/2000/svg">
  <path d="M52,30L140,30A14,14 0,0 1,154 44L154,44A14,14 0,0 1,140 58L52,58A14,14 0,0 1,38 44L38,44A14,14 0,0 1,52 30z" fill="#000000" fill-opacity="0.0" stroke="#000000" stroke-width="12"/>
  <path d="M126,148L126,96A14,14 0,0 1,140 82L140,82A14,14 0,0 1,154 96L154,148A14,14 0,0 1,140 162L140,162A14,14 0,0 1,126 148z" fill="#000000" fill-opacity="0.0" stroke="#000000" stroke-width="12"/>
  <path d="M88,82H58C46.954,82 38,90.954 38,102V148C38,155.732 44.268,162 52,162C59.732,162 66,155.732 66,148V110H88C95.732,110 102,103.732 102,96C102,88.268 95.732,82 88,82Z" fill="#000000" fill-opacity="0.0" stroke="#000000" stroke-linecap="round" stroke-linejoin="round" stroke-width="12"/>
</svg>