<?xml version="1.0" encoding="UTF-8" standalone="no"?><svg xmlns:android="http://schemas.android.com/apk/res/android" height="192" width="192" xmlns="http://www.w3.org/2000/svg">
  <path d="M66,70m-44,0a44,44 0,1 1,88 0a44,44 0,1 1,-88 0" fill="#000000" fill-opacity="0.0" stroke="#000000" stroke-width="12"/>
  <path d="M138,148m-18,0a18,18 0,1 1,36 0a18,18 0,1 1,-36 0" fill="#000000" fill-opacity="0.0" stroke="#000000" stroke-width="12"/>
  <path d="M167,73m-9,0a9,9 0,1 1,18 0a9,9 0,1 1,-18 0" fill="#000000"/>
  <path d="M138,97m-13,0a13,13 0,1 1,26 0a13,13 0,1 1,-26 0" fill="#000000" fill-opacity="0.0" stroke="#000000" stroke-width="12"/>
</svg>