<?xml version="1.0" encoding="UTF-8" standalone="no"?><svg xmlns:android="http://schemas.android.com/apk/res/android" height="50.8" width="50.8" xmlns="http://www.w3.org/2000/svg">
  <path d="M28.922,38.093a4.785,4.785 89.145,1 0,9.57 0a4.785,4.785 89.145,1 0,-9.57 0z" fill="#000000" fill-opacity="0.0" stroke="#000000" stroke-linecap="round" stroke-linejoin="round" stroke-width="3.175"/>
  <path d="M11.656,13.103a4.785,4.785 89.145,1 0,9.57 0a4.785,4.785 89.145,1 0,-9.57 0z" fill="#000000" fill-opacity="0.0" stroke="#000000" stroke-linecap="round" stroke-linejoin="round" stroke-width="3.175"/>
  <path d="m44.877,5.857c0,0 -4.375,25.839 -7.656,28.915" fill="#000000" fill-opacity="0.0" stroke="#000000" stroke-linecap="round" stroke-linejoin="miter" stroke-width="3.175"/>
  <path d="m6.039,45.003c0,0 3.533,-24.997 6.814,-28.073" fill="#000000" fill-opacity="0.0" stroke="#000000" stroke-linecap="round" stroke-linejoin="miter" stroke-width="3.175"/>
  <path d="m20.406,15.905c0,0 2.461,2.598 4.648,9.091 0,0 2.256,7.177 5.058,9.912" fill="#000000" fill-opacity="0.0" stroke="#000000" stroke-linecap="butt" stroke-linejoin="miter" stroke-width="3.175"/>
</svg>