<?xml version="1.0" encoding="UTF-8" standalone="no"?><svg xmlns:android="http://schemas.android.com/apk/res/android" height="192" width="192" xmlns="http://www.w3.org/2000/svg">
  <path d="M138.93,94.76m-2.89,0a2.89,2.89 0,1 1,5.78 0a2.89,2.89 0,1 1,-5.78 0" fill="#000000" fill-opacity="0.0" stroke="#000000" stroke-linecap="round" stroke-linejoin="round" stroke-width="8"/>
  <path d="M109.04,69.6m-2.89,0a2.89,2.89 0,1 1,5.78 0a2.89,2.89 0,1 1,-5.78 0" fill="#000000" fill-opacity="0.0" stroke="#000000" stroke-linecap="round" stroke-linejoin="round" stroke-width="8"/>
  <path d="M137.89,133.76m-2.89,0a2.89,2.89 0,1 1,5.78 0a2.89,2.89 0,1 1,-5.78 0" fill="#000000" fill-opacity="0.0" stroke="#000000" stroke-linecap="round" stroke-linejoin="round" stroke-width="8"/>
  <path d="M62,132.32m-2.89,0a2.89,2.89 0,1 1,5.78 0a2.89,2.89 0,1 1,-5.78 0" fill="#000000" fill-opacity="0.0" stroke="#000000" stroke-linecap="round" stroke-linejoin="round" stroke-width="8"/>
  <path d="M110.03,115.19m-2.89,0a2.89,2.89 0,1 1,5.78 0a2.89,2.89 0,1 1,-5.78 0" fill="#000000" fill-opacity="0.0" stroke="#000000" stroke-linecap="round" stroke-linejoin="round" stroke-width="8"/>
  <path d="M112.46,94.72m-2.89,0a2.89,2.89 0,1 1,5.78 0a2.89,2.89 0,1 1,-5.78 0" fill="#000000" fill-opacity="0.0" stroke="#000000" stroke-linecap="round" stroke-linejoin="round" stroke-width="8"/>
  <path d="M125.37,79.61m-2.89,0a2.89,2.89 0,1 1,5.78 0a2.89,2.89 0,1 1,-5.78 0" fill="#000000" fill-opacity="0.0" stroke="#000000" stroke-linecap="round" stroke-linejoin="round" stroke-width="8"/>
  <path d="M64.85,153.47m-2.89,0a2.89,2.89 0,1 1,5.78 0a2.89,2.89 0,1 1,-5.78 0" fill="#000000" fill-opacity="0.0" stroke="#000000" stroke-linecap="round" stroke-linejoin="round" stroke-width="8"/>
  <path d="M127.5,153.03m-2.89,0a2.89,2.89 0,1 1,5.78 0a2.89,2.89 0,1 1,-5.78 0" fill="#000000" fill-opacity="0.0" stroke="#000000" stroke-linecap="round" stroke-linejoin="round" stroke-width="8"/>
  <path d="M59.93,112.29m-2.89,0a2.89,2.89 0,1 1,5.78 0a2.89,2.89 0,1 1,-5.78 0" fill="#000000" fill-opacity="0.0" stroke="#000000" stroke-linecap="round" stroke-linejoin="round" stroke-width="8"/>
  <path d="M77.82,93.6m-2.89,0a2.89,2.89 0,1 1,5.78 0a2.89,2.89 0,1 1,-5.78 0" fill="#000000" fill-opacity="0.0" stroke="#000000" stroke-linecap="round" stroke-linejoin="round" stroke-width="8"/>
  <path d="M82.68,134.98m-2.89,0a2.89,2.89 0,1 1,5.78 0a2.89,2.89 0,1 1,-5.78 0" fill="#000000" fill-opacity="0.0" stroke="#000000" stroke-linecap="round" stroke-linejoin="round" stroke-width="8"/>
  <path d="M39.36,104.74H21.9L96.28,31 170,104.81h-17.33" fill="#000000" fill-opacity="0.0" stroke="#000000" stroke-linecap="round" stroke-linejoin="round" stroke-width="12"/>
  <path d="M138.97,72.17V57.18h18.99v30.89" fill="#000000" fill-opacity="0.0" stroke="#000000" stroke-linecap="round" stroke-linejoin="round" stroke-width="12"/>
  <path d="m151.71,104.85v61.45H40.22V104.85" fill="#000000" fill-opacity="0.0" stroke="#000000" stroke-linecap="round" stroke-linejoin="round" stroke-width="12"/>
  <path d="M96.38,162.68V82.15" fill="#000000" fill-opacity="0.0" stroke="#000000" stroke-linecap="round" stroke-linejoin="round" stroke-width="8"/>
  <path d="M97.26,146.1 L125.49,118.66V85.16" fill="#000000" fill-opacity="0.0" stroke="#000000" stroke-linecap="round" stroke-linejoin="round" stroke-width="8"/>
  <path d="m115.81,99.01 l9.59,8.65 10.44,-8.62" fill="#000000" fill-opacity="0.0" stroke="#000000" stroke-linecap="round" stroke-linejoin="round" stroke-width="8"/>
  <path d="m110.22,120.42v12.9h22.16" fill="#000000" fill-opacity="0.0" stroke="#000000" stroke-linecap="round" stroke-linejoin="round" stroke-width="8"/>
  <path d="M122.43,153.16H109.9l-8.85,8.81" fill="#000000" fill-opacity="0.0" stroke="#000000" stroke-linecap="round" stroke-linejoin="round" stroke-width="8"/>
  <path d="M91.64,163.47 L65.8,136.05" fill="#000000" fill-opacity="0.0" stroke="#000000" stroke-linecap="round" stroke-linejoin="round" stroke-width="8"/>
  <path d="m82.8,140.5v13.23h-12.48" fill="#000000" fill-opacity="0.0" stroke="#000000" stroke-linecap="round" stroke-linejoin="round" stroke-width="8"/>
  <path d="M95.86,129.57 L62.34,96.22v-7.68" fill="#000000" fill-opacity="0.0" stroke="#000000" stroke-linecap="round" stroke-linejoin="round" stroke-width="8"/>
  <path d="m77.81,98.85v9.93" fill="#000000" fill-opacity="0.0" stroke="#000000" stroke-linecap="round" stroke-linejoin="round" stroke-width="8"/>
  <path d="M65.24,112.55H76.53" fill="#000000" fill-opacity="0.0" stroke="#000000" stroke-linecap="round" stroke-linejoin="round" stroke-width="8"/>
  <path d="M83.23,69.6m-2.89,0a2.89,2.89 0,1 1,5.78 0a2.89,2.89 0,1 1,-5.78 0" fill="#000000" fill-opacity="0.0" stroke="#000000" stroke-linecap="round" stroke-linejoin="round" stroke-width="8"/>
  <path d="M62.37,83.21m-2.89,0a2.89,2.89 0,1 1,5.78 0a2.89,2.89 0,1 1,-5.78 0" fill="#000000" fill-opacity="0.0" stroke="#000000" stroke-linecap="round" stroke-linejoin="round" stroke-width="8"/>
  <path d="m87.3,73.29 l8.97,9.06 9.64,-8.45" fill="#000000" fill-opacity="0.0" stroke="#000000" stroke-linecap="round" stroke-linejoin="round" stroke-width="8"/>
</svg>