<?xml version="1.0" encoding="UTF-8" standalone="no"?><svg xmlns:android="http://schemas.android.com/apk/res/android" height="50.8" width="50.8" xmlns="http://www.w3.org/2000/svg">
  <path d="M20.655,6.627s-8.726,10.472 -3.49,16.58 15.708,-3.49 15.708,-3.49 -0.873,5.235 -2.618,6.108c0,0 6.981,0.872 6.108,2.618 0,0 -1.745,0.872 -4.363,1.745l-2.618,5.236s15.708,0 12.217,-20.07c0,0 9.599,14.834 -3.49,24.433 0,0 -13.963,10.472 -25.308,-0.872 0,0 -13.09,-13.09 0.873,-27.925 0,0 4.363,-4.363 6.98,-4.363z" fill="#000000" fill-opacity="0.0" stroke="#000" stroke-linecap="round" stroke-linejoin="round" stroke-width="3.1750671999999995"/>
  <path d="M17.165,8.372S9.31,11.38 5.82,17.972M32.873,19.717s-2.618,15.708 -23.561,13.09M7.566,24.08s3.49,-3.491 8.726,-1.746" fill="#000000" fill-opacity="0.0" stroke="#000" stroke-linecap="round" stroke-linejoin="round" stroke-width="3.1750671999999995"/>
  <path d="M32,30.188s-9.6,13.962 -21.817,5.236M25.019,9.244s7.854,-1.745 12.216,4.364" fill="#000000" fill-opacity="0.0" stroke="#000" stroke-linecap="round" stroke-linejoin="round" stroke-width="3.1750671999999995"/>
</svg>