<?xml version="1.0" encoding="UTF-8" standalone="no"?><svg xmlns:android="http://schemas.android.com/apk/res/android" height="192" width="192" xmlns="http://www.w3.org/2000/svg">
  <path d="M27,117V88H22" fill="#000000" fill-opacity="0.0" stroke="#000000" stroke-linecap="round" stroke-linejoin="round" stroke-width="12"/>
  <path d="M27,73m-6,0a6,6 0,1 1,12 0a6,6 0,1 1,-12 0" fill="#000000"/>
  <path d="M45,87.5C45,87.5 45,94.204 45,98.5M45,117C45,117 45,105.725 45,98.5M45,98.5C45,83 71,83 71,98.5C71,114 71,117 71,117" fill="#000000" fill-opacity="0.0" stroke="#000000" stroke-linecap="round" stroke-linejoin="round" stroke-width="12"/>
  <path d="M88,76V87.5M101,117C93,120 88,117.012 88,111.5C88,104 88,87.5 88,87.5M88,87.5H98" fill="#000000" fill-opacity="0.0" stroke="#000000" stroke-linecap="round" stroke-linejoin="round" stroke-width="12"/>
  <path d="M112.5,102.5C120.5,102.5 141.5,102.5 141.5,102.5C141.5,94.492 135.008,88 127,88C118.992,88 112.5,94.492 112.5,102.5ZM112.5,102.5C112.5,109.762 117.977,117.758 127,118C133.029,118.162 138,115.5 138,115.5" fill="#000000" fill-opacity="0.0" stroke="#000000" stroke-linecap="round" stroke-linejoin="round" stroke-width="12"/>
  <path d="M157,90C157,90 157,98.076 157,103.25M157,117C157,117 157,108.62 157,103.25M170,91.5C163.5,91.5 157,94.5 157,103.25" fill="#000000" fill-opacity="0.0" stroke="#000000" stroke-linecap="round" stroke-linejoin="round" stroke-width="12"/>
</svg>