<?xml version="1.0" encoding="UTF-8" standalone="no"?><svg xmlns:android="http://schemas.android.com/apk/res/android" height="192" width="192" xmlns="http://www.w3.org/2000/svg">
  <path d="M31,22m-6,0a6,6 0,1 1,12 0a6,6 0,1 1,-12 0" fill="#000000"/>
  <path d="M160,22m-6,0a6,6 0,1 1,12 0a6,6 0,1 1,-12 0" fill="#000000"/>
  <path d="M25,76C25,69.37 30.37,64 37,64V64V170C37,173.31 34.31,176 31,176V176C27.69,176 25,173.31 25,170V76Z" fill="#000000"/>
  <path d="M154,59V59C160.63,59 166,64.37 166,71V170C166,173.31 163.31,176 160,176V176C156.69,176 154,173.31 154,170V59Z" fill="#000000"/>
  <path d="M76,67H118C121.31,67 124,69.69 124,73V73C124,76.31 121.31,79 118,79H76V67Z" fill="#000000"/>
  <path d="M118,168C99.02,172.29 73,172.34 73,138V133.5" fill="#000000" fill-opacity="0.0" stroke="#000000" stroke-width="12"/>
  <path d="M118,168m-6,0a6,6 0,1 1,12 0a6,6 0,1 1,-12 0" fill="#000000"/>
  <path d="M67,38C67,31.37 72.37,26 79,26V26V138H67V38Z" fill="#000000"/>
</svg>