<?xml version="1.0" encoding="UTF-8" standalone="no"?><svg xmlns:android="http://schemas.android.com/apk/res/android" height="192" width="192" xmlns="http://www.w3.org/2000/svg">
  <path d="m38.26,145.475c2.855,-12.988 4.671,-18.51 -3.109,-28.719 -6.538,-9.58 -8.511,-23.611 -6.045,-33.578 4.243,-15.583 15.411,-26.827 33.076,-29.5 17.666,-2.673 30.577,9.184 47.153,2.516 16.576,-6.667 36.527,-11.641 54.666,-10.672 -13.727,8.091 -53.125,18.761 -58.294,33.578 -2,5.733 1.107,9.771 5.527,11.28 24.903,9.865 44.908,35.34 49.226,56.224" fill="#000000" fill-opacity="0.0" stroke="#000" stroke-linecap="round" stroke-linejoin="round" stroke-width="12"/>
  <path d="M75.75,79.5m-8,0a8,8 0,1 1,16 0a8,8 0,1 1,-16 0" fill="#000000" fill-opacity="1.0"/>
</svg>