<?xml version="1.0" encoding="UTF-8" standalone="no"?><svg xmlns:android="http://schemas.android.com/apk/res/android" height="192" width="192" xmlns="http://www.w3.org/2000/svg">
  <path d="M40.5,96m-16.5,0a16.5,16.5 0,1 1,33 0a16.5,16.5 0,1 1,-33 0" fill="#000"/>
  <path d="M85.125,96m-16.5,0a16.5,16.5 0,1 1,33 0a16.5,16.5 0,1 1,-33 0" fill="#000"/>
  <path d="M130.125,96m-16.5,0a16.5,16.5 0,1 1,33 0a16.5,16.5 0,1 1,-33 0" fill="#000"/>
  <path d="M161.94,60L166.56,60A1.44,1.44 0,0 1,168 61.44L168,130.56A1.44,1.44 0,0 1,166.56 132L161.94,132A1.44,1.44 0,0 1,160.5 130.56L160.5,61.44A1.44,1.44 0,0 1,161.94 60z" fill="#000"/>
</svg>