<?xml version="1.0" encoding="UTF-8" standalone="no"?><svg xmlns:android="http://schemas.android.com/apk/res/android" height="192" width="192" xmlns="http://www.w3.org/2000/svg">
  <path d="M55.22,96m-6.04,0a6.04,6.04 90,1 1,12.08 0a6.04,6.04 90,1 1,-12.08 0" fill="#000000" stroke="#000000" stroke-linecap="square" stroke-linejoin="round" stroke-width="12"/>
  <path d="M109.59,96m-6.04,0a6.04,6.04 90,1 1,12.08 0a6.04,6.04 90,1 1,-12.08 0" fill="#000000" stroke="#000000" stroke-linecap="square" stroke-linejoin="round" stroke-width="12"/>
  <path d="M82.41,96m-6.04,0a6.04,6.04 90,1 1,12.08 0a6.04,6.04 90,1 1,-12.08 0" fill="#000000" stroke="#000000" stroke-linecap="square" stroke-linejoin="round" stroke-width="12"/>
  <path d="M22.06,96.84a6.04,6.04 81.99,1 0,11.96 -1.68a6.04,6.04 81.99,1 0,-11.96 1.68z" fill="#000000" stroke="#000000" stroke-linecap="square" stroke-linejoin="round" stroke-width="11.9182"/>
  <path d="M163.96,96m-6.04,0a6.04,6.04 90,1 1,12.08 0a6.04,6.04 90,1 1,-12.08 0" fill="#000000" stroke="#000000" stroke-linecap="square" stroke-linejoin="round" stroke-width="12"/>
  <path d="M136.78,96m-6.04,0a6.04,6.04 90,1 1,12.08 0a6.04,6.04 90,1 1,-12.08 0" fill="#000000" stroke="#000000" stroke-linecap="square" stroke-linejoin="round" stroke-width="12"/>
  <path d="M82.41,41.63m-6.04,0a6.04,6.04 90,1 1,12.08 0a6.04,6.04 90,1 1,-12.08 0" fill="#000000" stroke="#000000" stroke-linecap="square" stroke-linejoin="round" stroke-width="12"/>
  <path d="M82.41,68.81m-6.04,0a6.04,6.04 90,1 1,12.08 0a6.04,6.04 90,1 1,-12.08 0" fill="#000000" fill-opacity="0.0" stroke="#000000" stroke-linecap="square" stroke-linejoin="round" stroke-width="12"/>
  <path d="M82.41,123.19m-6.04,0a6.04,6.04 90,1 1,12.08 0a6.04,6.04 90,1 1,-12.08 0" fill="#000000" stroke="#000000" stroke-linecap="square" stroke-linejoin="round" stroke-width="12"/>
  <path d="M82.41,150.37m-6.04,0a6.04,6.04 90,1 1,12.08 0a6.04,6.04 90,1 1,-12.08 0" fill="#000000" stroke="#000000" stroke-linecap="square" stroke-linejoin="round" stroke-width="12"/>
  <path d="M109.59,150.37m-6.04,0a6.04,6.04 90,1 1,12.08 0a6.04,6.04 90,1 1,-12.08 0" fill="#000000" stroke="#000000" stroke-linecap="square" stroke-linejoin="round" stroke-width="12"/>
  <path d="M109.59,123.19m-6.04,0a6.04,6.04 90,1 1,12.08 0a6.04,6.04 90,1 1,-12.08 0" fill="#000000" stroke="#000000" stroke-linecap="square" stroke-linejoin="round" stroke-width="12"/>
  <path d="M109.59,41.63m-6.04,0a6.04,6.04 90,1 1,12.08 0a6.04,6.04 90,1 1,-12.08 0" fill="#000000" stroke="#000000" stroke-linecap="square" stroke-linejoin="round" stroke-width="12"/>
  <path d="M109.59,68.81m-6.04,0a6.04,6.04 90,1 1,12.08 0a6.04,6.04 90,1 1,-12.08 0" fill="#000000" stroke="#000000" stroke-linecap="square" stroke-linejoin="round" stroke-width="12"/>
</svg>