<?xml version="1.0" encoding="UTF-8" standalone="no"?><svg xmlns:android="http://schemas.android.com/apk/res/android" height="192" width="192" xmlns="http://www.w3.org/2000/svg">
  <path android:fillAlpha="0.402658" d="m56,30c0,-1.66 1.34,-3 3,-3h108c1.66,0 3,1.34 3,3v132c0,1.66 -1.34,3 -3,3H59c-1.66,0 -3,-1.34 -3,-3V130M56,62V30" fill="#000000" fill-opacity="0.0" stroke="#000000" stroke-linecap="round" stroke-width="12"/>
  <path android:fillAlpha="0.402658" d="M25,62L87,62A3,3 0,0 1,90 65L90,127A3,3 0,0 1,87 130L25,130A3,3 0,0 1,22 127L22,65A3,3 0,0 1,25 62z" fill="#000000" fill-opacity="0.0" stroke="#000000" stroke-linecap="round" stroke-linejoin="miter" stroke-width="12"/>
  <path d="M138.79,164.72V58.79H170" fill="#000000" fill-opacity="0.0" stroke="#000000" stroke-linecap="round" stroke-linejoin="round" stroke-width="12"/>
  <path d="M170,96H138.79" fill="#000000" fill-opacity="0.0" stroke="#000000" stroke-linecap="round" stroke-linejoin="round" stroke-width="12"/>
  <path d="M169,133.21H138.79" fill="#000000" fill-opacity="0.0" stroke="#000000" stroke-linecap="round" stroke-linejoin="round" stroke-width="12"/>
  <path d="M44.5,110V82l23,28V82" fill="#000000" fill-opacity="0.0" stroke="#000000" stroke-linecap="round" stroke-linejoin="round" stroke-width="12"/>
</svg>