<?xml version="1.0" encoding="UTF-8" standalone="no"?><svg xmlns:android="http://schemas.android.com/apk/res/android" height="192" width="192" xmlns="http://www.w3.org/2000/svg">
  <path d="M78,153a24,17 0,0 1,-24 17,24 17,0 0,1 -24,-17 24,17 0,0 1,24 -17,24 17,0 0,1 24,17zM158,126a24,17 0,0 1,-24 17,24 17,0 0,1 -24,-17 24,17 0,0 1,24 -17,24 17,0 0,1 24,17z" fill="#000000" fill-opacity="0.0" stroke="#000" stroke-width="12"/>
  <path d="M78,153V45l80,-20v101" fill="#000000" fill-opacity="0.0" stroke="#000" stroke-linejoin="round" stroke-width="12"/>
  <path d="m78,69 l80,-20" fill="#000000" fill-opacity="0.0" stroke="#000" stroke-width="12"/>
</svg>