<?xml version="1.0" encoding="UTF-8" standalone="no"?><svg xmlns:android="http://schemas.android.com/apk/res/android" height="50.8" width="50.8" xmlns="http://www.w3.org/2000/svg">
  <path android:fillAlpha="0" d="m45.274,25.4a8.701,8.677 90,0 1,-8.677 8.701,8.701 8.677,90 0,1 -8.677,-8.701 8.701,8.677 90,0 1,8.677 -8.701,8.701 8.677,90 0,1 8.677,8.701z" fill="#000000" fill-opacity="1.0" stroke="#000000" stroke-linecap="round" stroke-linejoin="round" stroke-width="3.175"/>
  <path d="m15.162,25.399l7.975,0c0,3.929 -2.642,7.374 -6.457,8.418 -3.814,1.044 -7.861,-0.571 -9.887,-3.945 -2.027,-3.374 -1.534,-7.678 1.203,-10.514 2.737,-2.837 7.045,-3.509 10.526,-1.642" fill="#000000" fill-opacity="0.0" stroke="#000000" stroke-linecap="round" stroke-linejoin="round" stroke-width="3.175"/>
  <path d="m-97.724,41.888l7.975,0c0,3.929 -2.642,7.374 -6.457,8.418 -3.814,1.044 -7.861,-0.571 -9.887,-3.945 -2.027,-3.374 -1.534,-7.678 1.203,-10.514 2.737,-2.837 7.045,-3.509 10.526,-1.642" fill="#000000" fill-opacity="0.0" stroke="#000000" stroke-linecap="round" stroke-linejoin="round" stroke-width="3.175"/>
</svg>