<?xml version="1.0" encoding="UTF-8" standalone="no"?><svg xmlns:android="http://schemas.android.com/apk/res/android" height="192" width="192" xmlns="http://www.w3.org/2000/svg">
  <path d="M169.98,157.63H67.5l19.43,-28.09 0.03,-0.04h83.02z" stroke="#000000" stroke-linejoin="round" stroke-width="12"/>
  <path d="M28.68,102.99C17.04,84.12 20.88,59.58 37.73,45.17c16.85,-14.42 41.68,-14.42 58.53,0 16.85,14.42 20.68,38.95 9.04,57.82m-76.61,0c1.04,1.51 37.44,54.33 37.53,54.46 0.09,0.13 0.14,0.18 0.27,0.18h0.88c0.13,0 0.27,-0.18 0.27,-0.18l37.67,-54.46" stroke="#000000" stroke-linecap="round" stroke-linejoin="round" stroke-width="12"/>
  <path d="M49.87,63.62H61.56L72.53,79.7V63.62H84.22V95.05H72.53L61.56,78.97V95.05H49.87Z" fill="#000000" stroke-width="12"/>
</svg>