<?xml version="1.0" encoding="UTF-8" standalone="no"?><svg xmlns:android="http://schemas.android.com/apk/res/android" height="192" width="192" xmlns="http://www.w3.org/2000/svg">
  <path android:fillAlpha="0" d="m89.68,142.9 l-0.04,-77.69c0,0 -0,-2.84 3.58,-2.84h41.9c0,0 3.71,-0.3 3.71,3.78l0,64.34" fill="#000000" stroke="#000000" stroke-linecap="round" stroke-linejoin="round" stroke-width="8"/>
  <path android:fillAlpha="0" d="m138.84,146.17v22.7c0,0 -0.09,3.13 -2.94,3.13 -2.85,0 -46.26,0 -46.26,0" fill="#000000" stroke="#000000" stroke-linecap="round" stroke-linejoin="round" stroke-width="8"/>
  <path android:fillAlpha="0" d="m91.35,20h57.83c0,0 6.82,-0.07 6.82,7.39 0,9.87 -30.93,34.61 -30.93,34.61" fill="#000000" stroke="#000000" stroke-linecap="round" stroke-linejoin="round" stroke-width="8"/>
  <path android:fillAlpha="0" d="m91.27,20c0,0 -54.92,51.71 -54.92,92.64 0,38.12 31.23,52.95 31.23,52.95 0,0 55.29,25.15 83.84,-43.5" fill="#000000" stroke="#000000" stroke-linecap="round" stroke-linejoin="round" stroke-width="8"/>
  <path android:fillAlpha="0" d="m151.43,122.12c0,0 -66.45,56.22 -73.04,3.12" fill="#000000" stroke="#000000" stroke-linecap="round" stroke-linejoin="round" stroke-width="8"/>
  <path android:fillAlpha="0" d="m89.59,91.95c0,0 -13.76,10.75 -11.26,33.28" fill="#000000" stroke="#000000" stroke-linecap="round" stroke-linejoin="round" stroke-width="8"/>
  <path android:fillAlpha="0" d="m137.64,22.07c0,0 -3.2,9.59 -38.99,38.56" fill="#000000" stroke="#000000" stroke-linecap="round" stroke-linejoin="round" stroke-width="8"/>
  <path android:fillAlpha="0" d="m89.29,69.61c0,0 -28.19,20.57 -28.19,51.94 0,31.37 30.88,36.77 30.88,36.77 0,0 23.16,4.23 50.47,-19.76" fill="#000000" stroke="#000000" stroke-linecap="round" stroke-linejoin="round" stroke-width="8"/>
</svg>