<?xml version="1.0" encoding="UTF-8" standalone="no"?><svg xmlns:android="http://schemas.android.com/apk/res/android" height="46.031" width="46.052" xmlns="http://www.w3.org/2000/svg">
  <path android:fillAlpha="0" d="m25.435,27.292 l2.544,13.491h-9.827l2.534,-13.467c-2.505,-0.941 -4.296,-3.32 -4.296,-6.129 0,-3.631 2.974,-6.574 6.637,-6.574 3.669,0 6.637,2.943 6.637,6.574 0,2.785 -1.756,5.149 -4.228,6.105z" fill="#123467" stroke="#000000" stroke-linecap="round" stroke-linejoin="round" stroke-width="2.84138"/>
  <path android:fillAlpha="0" d="m10.996,35.491a17.428,17.738 89.715,0 1,-4.49 -19.153,17.428 17.738,89.715 0,1 16.523,-11.084 17.428,17.738 89.715,0 1,16.518 11.085,17.428 17.738,89.715 0,1 -4.498,19.153" fill="#4b729f" stroke="#000000" stroke-linecap="round" stroke-linejoin="round" stroke-width="2.87845"/>
</svg>