<?xml version="1.0" encoding="UTF-8" standalone="no"?><svg xmlns:android="http://schemas.android.com/apk/res/android" height="192" width="192" xmlns="http://www.w3.org/2000/svg">
  <path d="M170,96C170,136.87 136.87,170 96,170C55.13,170 22,136.87 22,96C22,55.13 55.13,22 96,22C136.87,22 170,55.13 170,96ZM170,96C170,131.35 145.6,160 115.5,160C85.4,160 61,131.35 61,96M170,96C170,60.65 145.6,32 115.5,32C85.4,32 61,60.65 61,96M61,96C61,124.17 76.67,147 96,147C115.33,147 131,124.17 131,96C131,67.83 115.33,45 96,45C76.67,45 61,67.83 61,96Z" fill="#000000" fill-opacity="0.0" stroke="#000000" stroke-width="12"/>
  <path d="M63.97,75.5C63.97,75.5 69.98,58.96 62.97,55.5C57.21,52.65 53.19,63.91 47.47,61C40.97,57.7 44.97,42.5 44.97,42.5" fill="#000000" fill-opacity="0.0" stroke="#000000" stroke-linecap="round" stroke-linejoin="round" stroke-width="12"/>
</svg>