<?xml version="1.0" encoding="UTF-8" standalone="no"?><svg xmlns:android="http://schemas.android.com/apk/res/android" height="192" width="192" xmlns="http://www.w3.org/2000/svg">
  <path d="M96,96m-74,0a74,74 0,1 1,148 0a74,74 0,1 1,-148 0" fill="#000000" fill-opacity="0.0" stroke="#000000" stroke-width="12"/>
  <path d="M120.749,132.062C123.999,127.327 126.577,121.704 128.336,115.517C130.095,109.329 131,102.697 131,96C131,89.303 130.095,82.671 128.336,76.483C126.577,70.296 123.999,64.673 120.749,59.938" fill="#000000" fill-opacity="0.0" stroke="#000000" stroke-linecap="round" stroke-width="12"/>
  <path d="M61,96a54.5,64 0,1 0,109 0a54.5,64 0,1 0,-109 0z" fill="#000000" fill-opacity="0.0" stroke="#000000" stroke-width="12"/>
</svg>