<?xml version="1.0" encoding="UTF-8" standalone="no"?><svg xmlns:android="http://schemas.android.com/apk/res/android" height="192" width="192" xmlns="http://www.w3.org/2000/svg">
  <path d="M96,90m-35,0a35,35 0,1 1,70 0a35,35 0,1 1,-70 0" fill="#000000" fill-opacity="0.0" stroke="#000000" stroke-width="12"/>
  <path d="M146,22V58" fill="#000000" fill-opacity="0.0" stroke="#000000" stroke-linecap="round" stroke-width="12"/>
  <path d="M128,40L164,40" fill="#000000" fill-opacity="0.0" stroke="#000000" stroke-linecap="round" stroke-width="12"/>
  <path d="M163.418,81.124C165.293,95.362 162.612,109.827 155.76,122.447C148.908,135.067 138.236,145.194 125.275,151.376C120.165,153.813 114.803,155.588 109.317,156.683L96,170L82.683,156.683C68.924,153.936 56.343,146.997 46.675,136.808C36.79,126.392 30.456,113.113 28.582,98.876C26.707,84.639 29.388,70.173 36.24,57.553C43.092,44.933 53.764,34.806 66.725,28.624C79.686,22.442 94.272,20.522 108.392,23.139" fill="#000000" fill-opacity="0.0" stroke="#000000" stroke-linecap="round" stroke-linejoin="round" stroke-width="12"/>
</svg>