<?xml version="1.0" encoding="UTF-8" standalone="no"?><svg xmlns:android="http://schemas.android.com/apk/res/android" height="192" width="192" xmlns="http://www.w3.org/2000/svg">
  <path android:fillAlpha="0" d="M159.51,22C169.99,132.67 76.66,144.45 76.66,144.45L59.33,170" fill="#000000" stroke="#000000" stroke-linecap="round" stroke-linejoin="round" stroke-width="12"/>
  <path android:fillAlpha="0" d="m78.6,144.15c0,0 -27.91,-43.33 22.78,-72.62C152.06,42.23 159.52,22 159.52,22" fill="#000000" stroke="#000000" stroke-linecap="round" stroke-linejoin="round" stroke-width="12"/>
  <path android:fillAlpha="0" d="m75.92,132.18c0,0 3.64,-28.23 32.79,-52.98" fill="#000000" stroke="#000000" stroke-linecap="round" stroke-linejoin="round" stroke-width="8"/>
  <path android:fillAlpha="0" d="M57.37,170.33 L55.68,152.57" fill="#000000" stroke="#000000" stroke-linecap="round" stroke-linejoin="round" stroke-width="8"/>
  <path android:fillAlpha="0" d="m55.77,152.63c0,0 -32.48,-6.18 -18.63,-63.73" fill="#000000" stroke="#000000" stroke-linecap="round" stroke-linejoin="round" stroke-width="8"/>
  <path android:fillAlpha="0" d="m37.22,88.91c0,0 -0.51,13.95 16.65,28.88 17.59,15.3 2.96,34.4 2.96,34.4 0,0 2.3,-17.74 -9.74,-29.62" fill="#000000" stroke="#000000" stroke-linecap="round" stroke-linejoin="round" stroke-width="8"/>
</svg>