<?xml version="1.0" encoding="UTF-8" standalone="no"?><svg xmlns:android="http://schemas.android.com/apk/res/android" height="192" width="192" xmlns="http://www.w3.org/2000/svg">
  <path d="M96,96m-67,0a67,67 0,1 1,134 0a67,67 0,1 1,-134 0" fill="#000000" fill-opacity="0.0" stroke="#000" stroke-width="12"/>
  <path d="M106.84,103.05c6.09,-3.68 10.16,-10.36 10.16,-17.99 0,-11.6 -9.4,-21 -21,-21s-21,9.4 -21,21c0,7.63 4.07,14.31 10.16,17.99l-10.16,24.88h42l-10.16,-24.88Z" fill="#000000" fill-opacity="0.0" stroke="#000" stroke-linejoin="round" stroke-width="12"/>
  <path d="M22,22L48,48" fill="#000000" fill-opacity="0.0" stroke="#000" stroke-linecap="round" stroke-width="12"/>
  <path d="M144,144L170,170" fill="#000000" fill-opacity="0.0" stroke="#000" stroke-linecap="round" stroke-width="12"/>
  <path d="M22,170L48,144" fill="#000000" fill-opacity="0.0" stroke="#000" stroke-linecap="round" stroke-width="12"/>
  <path d="M144,48L170,22" fill="#000000" fill-opacity="0.0" stroke="#000" stroke-linecap="round" stroke-width="12"/>
</svg>