<?xml version="1.0" encoding="UTF-8" standalone="no"?><svg xmlns:android="http://schemas.android.com/apk/res/android" height="192" width="192" xmlns="http://www.w3.org/2000/svg">
  <path android:fillAlpha="0" d="M50.41,37.28A82.32,82.32 0,0 1,75.55 96.86,82.32 82.32,0 0,1 49.89,156.21" fill="#000000" stroke="#000000" stroke-linecap="round" stroke-linejoin="round" stroke-width="12.1973"/>
  <path android:fillAlpha="0" d="M21.97,65.04A42.43,41.23 0,0 1,36.85 96.25,42.43 41.23,0 0,1 22.2,127.56" fill="#000000" stroke="#000000" stroke-linecap="round" stroke-linejoin="round" stroke-width="12.1973"/>
  <path android:fillAlpha="0" d="m141.47,37.28a82.32,82.32 0,0 0,-25.13 59.57,82.32 82.32,0 0,0 25.65,59.35" fill="#000000" stroke="#000000" stroke-linecap="round" stroke-linejoin="round" stroke-width="12.1973"/>
  <path android:fillAlpha="0" d="m169.9,65.04a41.23,42.43 90,0 0,-14.87 31.21,41.23 42.43,90 0,0 14.65,31.31" fill="#000000" stroke="#000000" stroke-linecap="round" stroke-linejoin="round" stroke-width="12.1973"/>
</svg>