<?xml version="1.0" encoding="UTF-8" standalone="no"?><svg xmlns:android="http://schemas.android.com/apk/res/android" height="192" width="192" xmlns="http://www.w3.org/2000/svg">
  <path d="M46,115L146,115A24,24 0,0 1,170 139L170,139A24,24 0,0 1,146 163L46,163A24,24 0,0 1,22 139L22,139A24,24 0,0 1,46 115z" fill="#000000" fill-opacity="0.0" stroke="#000000" stroke-width="12"/>
  <path d="M46,139L114,139" fill="#000000" fill-opacity="0.0" stroke="#000000" stroke-linecap="round" stroke-width="12"/>
  <path d="M48,85m-8,0a8,8 0,1 1,16 0a8,8 0,1 1,-16 0" fill="#000000"/>
  <path d="M48,53m-8,0a8,8 0,1 1,16 0a8,8 0,1 1,-16 0" fill="#000000"/>
  <path d="M80,69m-8,0a8,8 0,1 1,16 0a8,8 0,1 1,-16 0" fill="#000000"/>
  <path d="M80,37m-8,0a8,8 0,1 1,16 0a8,8 0,1 1,-16 0" fill="#000000"/>
  <path d="M112,85m-8,0a8,8 0,1 1,16 0a8,8 0,1 1,-16 0" fill="#000000"/>
  <path d="M112,53m-8,0a8,8 0,1 1,16 0a8,8 0,1 1,-16 0" fill="#000000"/>
  <path d="M144,69m-8,0a8,8 0,1 1,16 0a8,8 0,1 1,-16 0" fill="#000000"/>
  <path d="M144,37m-8,0a8,8 0,1 1,16 0a8,8 0,1 1,-16 0" fill="#000000"/>
</svg>