<?xml version="1.0" encoding="UTF-8" standalone="no"?><svg xmlns:android="http://schemas.android.com/apk/res/android" height="192" width="192" xmlns="http://www.w3.org/2000/svg">
  <path d="M158.44,42A5.56,5.56 0,0 1,164 47.56v96.88a5.56,5.56 0,0 1,-5.56 5.56H33.56A5.56,5.56 0,0 1,28 144.44V47.56A5.56,5.56 0,0 1,33.56 42H158.44m0,-12H33.56A17.56,17.56 0,0 0,16 47.56v96.88A17.56,17.56 0,0 0,33.56 162H158.44A17.56,17.56 0,0 0,176 144.44V47.56A17.56,17.56 0,0 0,158.44 30Z" fill="#000000" fill-opacity="1.0"/>
  <path d="M130,62V92a36.09,36.09 0,0 0,-17.72 11.4L85.09,135.12A36.31,36.31 0,0 0,77.4 150H34.56A5.56,5.56 0,0 1,29 144.44V62H130m0.67,-12H17v94.44A17.56,17.56 0,0 0,34.56 162H88l0.39,-5a24.38,24.38 0,0 1,5.82 -14l27.18,-31.71a23.67,23.67 0,0 1,13.86 -8.1l1.3,-0.18A6,6 0,0 0,142 97V61.33A11.33,11.33 0,0 0,130.67 50Z" fill="#000000" fill-opacity="1.0"/>
  <path d="M137,120l8,-4l0,23" fill="#000000" fill-opacity="0.0" stroke="#000" stroke-linecap="round" stroke-linejoin="round" stroke-width="12"/>
</svg>