<?xml version="1.0" encoding="UTF-8" standalone="no"?><svg xmlns:android="http://schemas.android.com/apk/res/android" height="192" width="192" xmlns="http://www.w3.org/2000/svg">
  <path d="m138.82,22 l-10.81,23.33 -7.64,-6.66 -4.65,13.89" fill="#000000" fill-opacity="0.0" stroke="#000000" stroke-linecap="round" stroke-linejoin="round" stroke-width="12"/>
  <path d="m76.11,143.44 l-5.45,13.4 -7.33,-5.77 -9.77,19.4" fill="#000000" fill-opacity="0.0" stroke="#000000" stroke-linecap="round" stroke-linejoin="round" stroke-width="12"/>
  <path d="M96.65,98.41m-48.86,0a48.86,48.86 0,1 1,97.71 0a48.86,48.86 0,1 1,-97.71 0" fill="#000000" fill-opacity="0.0" stroke="#000000" stroke-linecap="round" stroke-linejoin="round" stroke-width="12"/>
  <path d="m79.77,76.81 l10.56,10.31 0.03,0.08" fill="#000000" fill-opacity="0.0" stroke="#000000" stroke-linecap="round" stroke-linejoin="round" stroke-width="8"/>
  <path d="M90.35,76.81 L79.77,87.19" fill="#000000" fill-opacity="0.0" stroke="#000000" stroke-linecap="round" stroke-linejoin="round" stroke-width="8"/>
  <path d="m102.08,76.58 l10.56,10.31 0.03,0.08" fill="#000000" fill-opacity="0.0" stroke="#000000" stroke-linecap="round" stroke-linejoin="round" stroke-width="8"/>
  <path d="m112.66,76.58 l-10.58,10.38" fill="#000000" fill-opacity="0.0" stroke="#000000" stroke-linecap="round" stroke-linejoin="round" stroke-width="8"/>
  <path d="M126.34,110.09A31.2,31.2 0,0 1,96.28 132.38,31.2 31.2,0 0,1 66.46,109.78" fill="#000000" fill-opacity="0.0" stroke="#000000" stroke-linecap="round" stroke-linejoin="round" stroke-width="8"/>
</svg>