<?xml version="1.0" encoding="UTF-8" standalone="no"?><svg xmlns:android="http://schemas.android.com/apk/res/android" height="50.8" width="50.8" xmlns="http://www.w3.org/2000/svg">
  <path d="m19.994,40.749 l-5.93,-4.889z" fill="#000000" fill-opacity="0.0" fill-rule="evenOdd" stroke="#000000" stroke-linecap="round" stroke-linejoin="round" stroke-width="2.11667"/>
  <path d="m10.118,33.482c-0.936,1.06 -1.968,1.746 -1.852,2.718 0.116,0.973 1.379,2.232 2.843,3.328 1.464,1.096 3.225,2.404 4.788,3.347 1.563,0.944 2.928,1.524 4.293,2.104" fill="#000000" fill-opacity="0.0" fill-rule="evenOdd" stroke="#000000" stroke-linecap="round" stroke-linejoin="round" stroke-width="3.175"/>
  <path d="m10.118,33.482 l4.661,-4.966 4.485,-4.778c0.435,-0.433 0.87,-0.865 1.546,-1.079 0.676,-0.213 1.593,-0.207 2.51,-0.201" fill="#000000" fill-opacity="0.0" fill-rule="evenOdd" stroke="#000000" stroke-linecap="round" stroke-linejoin="round" stroke-width="3.175"/>
  <path d="m32.16,44.979c0.015,-4.72 1.171,-12.282 0.688,-15.201 -0.483,-2.919 -2.22,-4.342 -3.203,-5.459" fill="#000000" fill-opacity="0.0" fill-rule="evenOdd" stroke="#000000" stroke-linecap="round" stroke-linejoin="round" stroke-width="3.175"/>
  <path d="m30.215,19.075c0.809,-0.087 2.319,-0.435 2.86,-1.136 0.542,-0.701 0.731,-3.436 0.678,-4.22 -0.054,-0.784 -0.68,-1.068 -0.862,-1.876 -0.182,-0.808 0.031,-2.112 -0.36,-3.204 -0.391,-1.093 -1.657,-1.795 -2.809,-2.269 -2.636,-0.891 -5.266,-0.85 -7.07,1.277 -0.617,0.741 -0.984,1.662 -1.229,2.381" fill="#000000" fill-opacity="0.0" fill-rule="evenOdd" stroke="#000000" stroke-linecap="round" stroke-linejoin="round" stroke-width="3.175"/>
  <path d="m21.699,13.975c-1.531,0.557 -3.061,1.115 -4.001,1.765 -0.939,0.65 -1.287,1.393 -1.648,2.101 -0.361,0.708 -0.893,1 -1.337,1.334 -0.444,0.334 -1.856,1.112 -2.371,1.107" fill="#000000" fill-opacity="0.0" fill-rule="evenOdd" stroke="#000000" stroke-linecap="round" stroke-linejoin="round" stroke-width="3.175"/>
  <path d="M19.994,40.749 L18.106,32.385" fill="#000000" fill-opacity="0.0" fill-rule="evenOdd" stroke="#000000" stroke-linecap="round" stroke-linejoin="round" stroke-width="2.11667"/>
  <path d="m32.16,44.979c0,0 9.674,-8.459 9.674,-8.459" fill="#000000" fill-opacity="0.0" fill-rule="evenOdd" stroke="#000000" stroke-linecap="round" stroke-linejoin="round" stroke-width="3.175"/>
  <path d="m41.835,36.52c0.834,-0.756 1.668,-1.513 1.982,-2.58 0.314,-1.067 0.107,-2.446 -0.278,-3.19C43.153,30.006 42.591,29.897 42.027,29.787" fill="#000000" fill-opacity="0.0" fill-rule="evenOdd" stroke="#000000" stroke-linecap="round" stroke-linejoin="round" stroke-width="3.175"/>
</svg>