<?xml version="1.0" encoding="UTF-8" standalone="no"?><svg xmlns:android="http://schemas.android.com/apk/res/android" height="24" width="24" xmlns="http://www.w3.org/2000/svg">
  <path d="M4.7778,3.3889C4.7778,2.6218 5.3996,2 6.1667,2l0.9722,0L7.1389,22L6.1667,22C5.3996,22 4.7778,21.3782 4.7778,20.6111ZM8.1111,22L8.1111,2l5.2778,0l0,4.1667l1.8056,-1.25 1.8056,1.25L17,2l0.8333,0c0.7671,0 1.3889,0.6218 1.3889,1.3889l0,17.2222c0,0.7671 -0.6218,1.3889 -1.3889,1.3889zM10.3333,12.6944L17,12.6944L17,14.0833L10.3333,14.0833ZM15.3333,15.4722L10.3333,15.4722l0,1.3889l5,0z" fill="#000000" fill-rule="evenOdd"/>
</svg>