<?xml version="1.0" encoding="UTF-8" standalone="no"?><svg xmlns:android="http://schemas.android.com/apk/res/android" height="50.8" width="50.8" xmlns="http://www.w3.org/2000/svg">
  <path d="M45.037,22.34 L25.4,34.58 10.13,25.062 5.763,22.34 25.4,10.099Z" fill="#000000" fill-opacity="0.0" stroke="#000000" stroke-linecap="round" stroke-linejoin="round" stroke-width="3.06015"/>
  <path d="M10.13,25.062 L25.4,21.575" fill="#000000" fill-opacity="0.0" stroke="#000000" stroke-linecap="round" stroke-linejoin="round" stroke-width="3.06015"/>
  <path d="M23.759,21.575a1.641,1.237 0,1 0,3.281 0a1.641,1.237 0,1 0,-3.281 0z" fill="#000000" stroke="#000000" stroke-linecap="round" stroke-linejoin="round" stroke-width="3.06015"/>
  <path d="m9.366,24.52 l-0.031,7.001 -1.795,7.888c0,0 0.265,0.782 1.795,0.782 1.53,0 1.785,-0.765 1.785,-0.765L9.335,31.52" fill="#000000" fill-opacity="0.0" stroke="#000000" stroke-linecap="round" stroke-linejoin="round" stroke-width="3.06015"/>
  <path d="m13.925,27.44v7.143c0,0 3.802,6.957 11.474,6.957 7.672,0 11.477,-6.959 11.477,-6.959v-7.14" fill="#000000" fill-opacity="0.0" stroke="#000000" stroke-linecap="round" stroke-linejoin="round" stroke-width="3.06015"/>
  <path d="M8.731,37.835h1.058v1.323h-1.058z" fill="#000000" stroke="#000000" stroke-linecap="round" stroke-linejoin="round" stroke-width="3.175"/>
</svg>