<?xml version="1.0" encoding="UTF-8" standalone="no"?><svg xmlns:android="http://schemas.android.com/apk/res/android" height="50.8" width="50.8" xmlns="http://www.w3.org/2000/svg">
  <path d="m5.843,32.571 l9.373,-4.476 6.699,1.627 9.736,-9.691" fill="#000000" fill-opacity="0.0" stroke="#000000" stroke-linecap="round" stroke-linejoin="round" stroke-width="3.175"/>
  <path d="M32.092,14.549a4.042,4.042 58.078,1 0,8.083 0a4.042,4.042 58.078,1 0,-8.083 0z" fill="#000000" stroke="#00000000" stroke-linecap="round" stroke-linejoin="round" stroke-width="3.175"/>
  <path d="M29.699,15.782 L26.378,16.603" fill="#000000" fill-opacity="0.0" stroke="#000000" stroke-linecap="round" stroke-linejoin="round" stroke-width="1.852"/>
  <path d="M30.373,11.417 L27.212,9.816" fill="#000000" fill-opacity="0.0" stroke="#000000" stroke-linecap="round" stroke-linejoin="round" stroke-width="1.852"/>
  <path d="M33.707,8.665 L32.371,5.305" fill="#000000" fill-opacity="0.0" stroke="#000000" stroke-linecap="round" stroke-linejoin="round" stroke-width="1.852"/>
  <path d="m38.073,8.506 l1.072,-3.347" fill="#000000" fill-opacity="0.0" stroke="#000000" stroke-linecap="round" stroke-linejoin="round" stroke-width="1.852"/>
  <path d="m41.565,11.218 l3.016,-1.879" fill="#000000" fill-opacity="0.0" stroke="#000000" stroke-linecap="round" stroke-linejoin="round" stroke-width="1.852"/>
  <path d="m42.377,15.397 l3.254,0.476" fill="#000000" fill-opacity="0.0" stroke="#000000" stroke-linecap="round" stroke-linejoin="round" stroke-width="1.852"/>
  <path d="m40.295,19.381 l2.302,2.553" fill="#000000" fill-opacity="0.0" stroke="#000000" stroke-linecap="round" stroke-linejoin="round" stroke-width="1.852"/>
  <path d="M8.758,41.81L8.758,37.063" fill="#000000" fill-opacity="0.0" stroke="#000000" stroke-linecap="round" stroke-linejoin="miter" stroke-width="3.175"/>
  <path d="M15.383,41.81L15.383,33.796" fill="#000000" fill-opacity="0.0" stroke="#000000" stroke-linecap="round" stroke-linejoin="miter" stroke-width="3.175"/>
  <path d="m21.916,41.81 l0,-6.796" fill="#000000" fill-opacity="0.0" stroke="#000000" stroke-linecap="round" stroke-linejoin="miter" stroke-width="3.175"/>
  <path d="m28.586,41.81 l0,-11.2" fill="#000000" fill-opacity="0.0" stroke="#000000" stroke-linecap="round" stroke-linejoin="miter" stroke-width="3.175"/>
  <path d="M35.29,41.81L35.29,24.638" fill="#000000" fill-opacity="0.0" stroke="#000000" stroke-linecap="round" stroke-linejoin="miter" stroke-width="3.175"/>
</svg>