<?xml version="1.0" encoding="UTF-8" standalone="no"?><svg xmlns:android="http://schemas.android.com/apk/res/android" height="192" width="192" xmlns="http://www.w3.org/2000/svg">
  <path d="m32.77,134.44a74,74 0,0 1,18.26 -97.21,74 74,0 0,1 98.6,7.78 74,74 0,0 1,2.78 98.87,74 74,0 0,1 -98.01,13.32" fill="#000000" fill-opacity="0.0" stroke="#000000" stroke-linecap="round" stroke-width="12"/>
  <path d="M117.26,97.94A24,24 0,1 0,95 73.63" fill="#000000" fill-opacity="0.0" stroke="#000000" stroke-linecap="round" stroke-width="12"/>
  <path d="m119,86c6.63,0 12,-5.37 12,-12 0,-6.63 -5.37,-12 -12,-12 -6.63,0 -12,5.37 -12,12 0,6.63 5.37,12 12,12z" fill="#000000" fill-rule="evenOdd"/>
  <path d="M85.95,122.72A17,17 0,1 1,69.88 107.02M68,123 L24,96m46,11 l25,-33m-9,48 l31,-24" fill="#000000" fill-opacity="0.0" stroke="#000000" stroke-linecap="round" stroke-width="12"/>
  <path android:fillAlpha="0" d="m32.85,134.62 l-7.36,30.31 28.18,-7.53" fill="#000000" stroke="#000000" stroke-linecap="round" stroke-linejoin="round" stroke-width="12"/>
</svg>