<?xml version="1.0" encoding="UTF-8" standalone="no"?><svg xmlns:android="http://schemas.android.com/apk/res/android" height="192" width="192" xmlns="http://www.w3.org/2000/svg">
  <path d="M102.82,39.33A56.79,56.79 0,0 1,152.38 92.14,56.79 56.79,0 0,1 109.78,150.7 56.79,56.79 0,0 1,44.28 119.79,56.79 56.79,0 0,1 62.4,49.67" fill="#000000" fill-opacity="0.0" stroke="#000000" stroke-linecap="round" stroke-linejoin="round" stroke-width="12"/>
  <path d="M65.44,43.49A62.41,62.41 0,0 1,100.75 36.11" fill="#000000" fill-opacity="0.0" stroke="#000000" stroke-linecap="round" stroke-linejoin="round" stroke-width="12"/>
  <path d="m94.51,59.34a36.8,36.8 0,0 1,35.46 21.89,36.8 36.8,0 0,1 -7.71,40.95 36.8,36.8 0,0 1,-40.99 7.5,36.8 36.8,0 0,1 -21.7,-35.57" fill="#000000" fill-opacity="0.0" stroke="#000000" stroke-linecap="round" stroke-linejoin="round" stroke-width="12"/>
  <path d="M65.18,43.81 L59.66,92.58" fill="#000000" fill-opacity="0.0" stroke="#000000" stroke-linecap="round" stroke-linejoin="round" stroke-width="12"/>
  <path d="M98.84,35.95 L94.11,59.27" fill="#000000" fill-opacity="0.0" stroke="#000000" stroke-linecap="round" stroke-linejoin="round" stroke-width="12"/>
  <path d="M65.3,28.63A73.64,73.64 0,0 1,102.25 22.28" fill="#000000" fill-opacity="0.0" stroke="#000000" stroke-linecap="round" stroke-linejoin="round" stroke-width="12"/>
  <path d="M117.75,24.86A73.97,74.16 0,0 1,169.96 100.31,73.97 74.16,0 0,1 108.97,168.82 73.97,74.16 0,0 1,28.29 125.36,73.97 74.16,0 0,1 51.61,36.56" fill="#000000" fill-opacity="0.0" stroke="#000000" stroke-linecap="round" stroke-linejoin="round" stroke-width="12"/>
</svg>