<?xml version="1.0" encoding="UTF-8" standalone="no"?><svg xmlns:android="http://schemas.android.com/apk/res/android" height="50.8" width="50.8" xmlns="http://www.w3.org/2000/svg">
  <path d="M9.276,30.697a14.281,16.125 90,1 0,32.249 0a14.281,16.125 90,1 0,-32.249 0z" fill="#000000" fill-opacity="0.0" stroke="#000" stroke-linecap="round" stroke-linejoin="round" stroke-width="3.175"/>
  <path d="M19.565,24.077m-1.588,0a1.588,1.588 0,1 1,3.176 0a1.588,1.588 0,1 1,-3.176 0" fill="#000000" fill-opacity="1.0" stroke-width="3.175"/>
  <path d="M31.236,24.077m-1.588,0a1.588,1.588 0,1 1,3.176 0a1.588,1.588 0,1 1,-3.176 0" fill="#000000" fill-opacity="1.0" stroke-width="3.175"/>
  <path d="M22.981,28.048s5.183,10.482 8.869,4.031" fill="#000000" fill-opacity="0.0" stroke="#000" stroke-linecap="round" stroke-linejoin="round" stroke-width="3.175"/>
  <path d="M27.819,28.048s-5.183,10.482 -8.869,4.031" fill="#000000" fill-opacity="0.0" stroke="#000" stroke-linecap="round" stroke-linejoin="round" stroke-width="3.175"/>
  <path d="M21.369,34.5s1.266,5.643 4.031,5.643M29.432,34.5S28.165,40.142 25.4,40.142" fill="#000000" fill-opacity="0.0" stroke="#000" stroke-linecap="round" stroke-linejoin="round" stroke-width="3.175"/>
  <path d="m14.113,19.987 l0.346,-14.166 8.523,10.135M36.688,19.526L36.688,5.82l-8.869,9.674" fill="#000000" fill-opacity="0.0" stroke="#000" stroke-linecap="round" stroke-linejoin="round" stroke-width="3.175"/>
</svg>