<?xml version="1.0" encoding="UTF-8" standalone="no"?><svg xmlns:android="http://schemas.android.com/apk/res/android" height="192" width="192" xmlns="http://www.w3.org/2000/svg">
  <path d="M96,28c37.5,0 68,30.5 68,68s-30.5,68 -68,68S28,133.5 28,96 58.5,28 96,28m0,-12c-44.18,0 -80,35.82 -80,80s35.82,80 80,80 80,-35.82 80,-80S140.18,16 96,16h0Z" fill="#000000" fill-opacity="1.0"/>
  <path d="M37.87,96L45.5,96" fill="#000000" fill-opacity="0.0" stroke="#000" stroke-linecap="round" stroke-width="8"/>
  <path d="M96,155.32L96,147.68" fill="#000000" fill-opacity="0.0" stroke="#000" stroke-linecap="round" stroke-width="8"/>
  <path d="M138.7,136.2L133.3,130.8" fill="#000000" fill-opacity="0.0" stroke="#000" stroke-linecap="round" stroke-width="8"/>
  <path d="M53.98,136.7L59.39,131.3" fill="#000000" fill-opacity="0.0" stroke="#000" stroke-linecap="round" stroke-width="8"/>
  <path d="M53.98,54.3L59.39,59.7" fill="#000000" fill-opacity="0.0" stroke="#000" stroke-linecap="round" stroke-width="8"/>
  <path d="M96,96L96,41.71" fill="#000000" fill-opacity="0.0" stroke="#000" stroke-linecap="round" stroke-width="12"/>
  <path d="M96,96L133.37,58.63" fill="#000000" fill-opacity="0.0" stroke="#000" stroke-linecap="round" stroke-width="12"/>
  <path d="M96,96L149.81,96" fill="#000000" fill-opacity="0.0" stroke="#000" stroke-linecap="round" stroke-width="12"/>
</svg>