<?xml version="1.0" encoding="UTF-8" standalone="no"?><svg xmlns:android="http://schemas.android.com/apk/res/android" height="192" width="192" xmlns="http://www.w3.org/2000/svg">
  <path d="m120.73,134.2a73.63,73.85 90,0 0,43.57 -41.99,73.63 73.85,90 0,0 -2.62,-60.36" fill="#000000" fill-opacity="0.0" stroke="#000000" stroke-linecap="round" stroke-linejoin="round" stroke-width="12"/>
  <path d="M70.82,134.2A73.85,73.63 0,0 1,27.25 92.21,73.85 73.63,0 0,1 29.87,31.85" fill="#000000" fill-opacity="0.0" stroke="#000000" stroke-linecap="round" stroke-linejoin="round" stroke-width="12"/>
  <path d="m71.31,134.37c0,0 12.66,6.84 16.01,11.63 3.36,4.79 8.02,14.14 8.02,14.14l8.02,-14.14c0,0 3.73,-6.32 18.48,-12.22" fill="#000000" fill-opacity="0.0" stroke="#000000" stroke-linecap="round" stroke-linejoin="round" stroke-width="12"/>
  <path d="M95.48,73.48m-30.91,0a30.91,30.91 0,1 1,61.82 0a30.91,30.91 0,1 1,-61.82 0" fill="#000000" fill-opacity="0.0" stroke="#000000" stroke-linecap="round" stroke-linejoin="round" stroke-width="12"/>
  <path d="m82.07,101.37 l13.06,7.73 14.9,-8.28" fill="#000000" fill-opacity="0.0" stroke="#000000" stroke-linecap="round" stroke-linejoin="round" stroke-width="12"/>
  <path d="M95.96,73.78m-10.27,0a10.27,10.27 0,1 1,20.53 0a10.27,10.27 0,1 1,-20.53 0" fill="#000000" fill-opacity="0.0" stroke="#000000" stroke-linecap="round" stroke-linejoin="round" stroke-width="12"/>
</svg>