<?xml version="1.0" encoding="UTF-8" standalone="no"?><svg xmlns:android="http://schemas.android.com/apk/res/android" height="50.8" width="50.8" xmlns="http://www.w3.org/2000/svg">
  <path d="m31.075,27.421c1.558,-0.897 1.558,-3.145 0,-4.041l-5.634,-3.242 5.81,-2.709 2.44,1.404 7.903,4.547c1.558,0.897 1.558,3.145 0,4.041l-7.9,4.545 -0.003,0.002 -2.633,1.515 -5.81,-2.709zM13.333,31.006l0,2.593c0.001,1.792 1.939,2.914 3.493,2.02l0.001,-0.001 2.864,-1.648 5.81,2.709 -6.058,3.486 -0.004,0.002 -7.858,4.521c-1.554,0.894 -3.494,-0.228 -3.494,-2.021l0,-14.108zM25.695,14.232 L19.885,16.941 16.828,15.182 16.826,15.181c-1.554,-0.892 -3.492,0.23 -3.492,2.022l0,2.793l-5.245,2.446l0,-14.31c0,-1.793 1.94,-2.915 3.494,-2.021l7.861,4.522 0.001,0.001z" fill="#000000" fill-opacity="0.0" stroke="#000" stroke-linecap="round" stroke-linejoin="round" stroke-width="3.175"/>
</svg>