<?xml version="1.0" encoding="UTF-8" standalone="no"?><svg xmlns:android="http://schemas.android.com/apk/res/android" height="50.8" width="50.8" xmlns="http://www.w3.org/2000/svg">
  <path d="M25.4,25.4m-13.285,0a13.309,13.285 90,1 1,26.57 0a13.309,13.285 90,1 1,-26.57 0" fill="#000000" fill-opacity="0.0" stroke="#000000" stroke-linecap="round" stroke-linejoin="round" stroke-width="3.175"/>
  <path d="m25.4,5.816l-7.338,0c0,0 -0.101,3.17 -0.38,5.582 -0.286,2.478 -1.449,4.369 -1.449,4.369M25.4,5.816l7.338,0c0,0 0.101,3.17 0.38,5.582 0.286,2.478 1.449,4.369 1.449,4.369" fill="#000000" fill-opacity="0.0" stroke="#000000" stroke-linecap="round" stroke-linejoin="round" stroke-width="3.175"/>
  <path d="m25.4,44.984l-7.338,0c0,0 -0.101,-3.17 -0.38,-5.582 -0.286,-2.478 -1.449,-4.369 -1.449,-4.369M25.4,44.984l7.338,0c0,0 0.101,-3.17 0.38,-5.582 0.286,-2.478 1.449,-4.369 1.449,-4.369" fill="#000000" fill-opacity="0.0" stroke="#000000" stroke-linecap="round" stroke-linejoin="round" stroke-width="3.175"/>
  <path d="m19.194,20.638 l3.103,9.524 3.103,-8.929 3.103,8.929 3.103,-9.524" fill="#000000" fill-opacity="0.0" stroke="#000000" stroke-linecap="round" stroke-linejoin="round" stroke-width="3.175"/>
</svg>