<?xml version="1.0" encoding="UTF-8" standalone="no"?><svg xmlns:android="http://schemas.android.com/apk/res/android" height="50.8" width="50.8" xmlns="http://www.w3.org/2000/svg">
  <path d="M25.4,25.4m-19.579,0a19.579,19.579 0,1 1,39.158 0a19.579,19.579 0,1 1,-39.158 0" fill="#000000" fill-opacity="0.0" stroke="#000000" stroke-linecap="round" stroke-linejoin="round" stroke-width="3.175"/>
  <path d="m38.745,18.867c0,0 1.445,4.765 0.619,10.005 -0.802,5.09 -5.9,8.648 -5.9,8.648" fill="#000000" fill-opacity="0.0" stroke="#000000" stroke-linecap="round" stroke-linejoin="round" stroke-width="2.117"/>
  <path d="m33.193,18.03c0,0 1.384,4.887 0.206,10.163 -1.099,4.923 -6.139,8.369 -6.139,8.369" fill="#000000" fill-opacity="0.0" stroke="#000000" stroke-linecap="round" stroke-linejoin="round" stroke-width="2.117"/>
  <path d="m44.305,24.837c0,0 -3.199,1.209 -7.551,0.989 -3.915,-0.198 -7.864,-2.024 -7.864,-2.024" fill="#000000" fill-opacity="0.0" stroke="#000000" stroke-linecap="round" stroke-linejoin="round" stroke-width="2.117"/>
  <path d="m28.198,30.638c0,0 4.455,1.595 7.551,1.636 4.206,0.056 7.646,-0.905 7.646,-0.905" fill="#000000" fill-opacity="0.0" stroke="#000000" stroke-linecap="round" stroke-linejoin="round" stroke-width="2.117"/>
  <path d="M17.849,25.539m-4.498,0a4.498,4.498 0,1 1,8.996 0a4.498,4.498 0,1 1,-8.996 0" fill="#000000" stroke="#00000000" stroke-linecap="round" stroke-linejoin="round" stroke-width="1.058"/>
  <path d="M17.849,32.815L17.849,18.263" fill="#000000" fill-opacity="0.0" stroke="#000000" stroke-linecap="round" stroke-linejoin="round" stroke-width="2.117"/>
  <path d="m10.573,25.539 l14.552,-0" fill="#000000" fill-opacity="0.0" stroke="#000000" stroke-linecap="round" stroke-linejoin="round" stroke-width="2.11667"/>
  <path d="M21.474,31.848L14.225,19.23" fill="#000000" fill-opacity="0.0" stroke="#000000" stroke-linecap="round" stroke-linejoin="round" stroke-width="2.117"/>
  <path d="M14.211,31.84L21.487,19.238" fill="#000000" fill-opacity="0.0" stroke="#000000" stroke-linecap="round" stroke-linejoin="round" stroke-width="2.117"/>
  <path d="M24.151,29.177L11.548,21.901" fill="#000000" fill-opacity="0.0" stroke="#000000" stroke-linecap="round" stroke-linejoin="round" stroke-width="2.117"/>
  <path d="M11.548,29.177L24.151,21.901" fill="#000000" fill-opacity="0.0" stroke="#000000" stroke-linecap="round" stroke-linejoin="round" stroke-width="2.117"/>
</svg>